<svg width="1841" height="555" viewBox="0 0 1841 555" fill="none" xmlns="http://www.w3.org/2000/svg">
<path fill-rule="evenodd" clip-rule="evenodd" d="M1308 338C1302.52 330.26 1298.84 327.92 1294 319V318C1298.86 318.16 1297.6 319.03 1300 317C1303.39 318.93 1302.85 321.23 1305 324H1307V318C1312.13 317.39 1321.46 314.03 1323 307C1330.18 304.27 1325.8 305.15 1324 299C1320.67 300.33 1317.33 301.67 1314 303C1314.33 301 1314.67 299 1315 297C1308.95 298.84 1307 302.46 1305 308C1300.7 306 1303.26 307.25 1302 303C1299.18 301.7 1299.15 301.13 1296 302H1294C1295.65 305.73 1294.39 304.35 1298 306V309C1291.33 308.11 1297.44 306.82 1291 306C1288.38 301.69 1288.43 300.3 1289 296C1280.27 296.84 1276.67 295.29 1271 299C1270.67 297.33 1270.33 295.67 1270 294C1268.33 293.67 1266.67 293.33 1265 293V303C1258.67 302.33 1252.33 301.67 1246 301C1247.5 296.95 1247.31 298.32 1250 296V295C1239.85 294.52 1228.86 299.06 1217 298C1216.67 295.67 1216.33 293.33 1216 291C1222.14 291.93 1222.68 293.69 1226 297C1229 296 1232 295 1235 294H1237C1239.1 283.16 1239.91 245.68 1233 236C1232.46 229.53 1236.68 202.34 1237 192C1231.56 188.94 1228.69 189.28 1228 180C1230 180.33 1232 180.67 1234 181V161C1228.67 159.67 1223.33 158.33 1218 157V156C1221.33 155.33 1224.67 154.67 1228 154C1229.67 150 1231.33 146 1233 142V141C1231 141.33 1229 141.67 1227 142H1226V141C1228.41 137.8 1230.08 137.11 1232 133C1231.09 126.7 1230.25 128.24 1227 125C1246.56 99.3901 1221.88 57.5101 1230 24.0001C1221.64 18.1501 1215.59 4.89006 1203 7.00006C1202.67 5.33006 1202.33 3.67006 1202 2.00006C1199.25 0.780064 1200.37 1.28006 1198 1.00006C1192.05 0.780064 1193.69 4.83006 1187 7.00006C1170.26 32.3601 1171.34 184.19 1186 214C1184 215.33 1182 216.67 1180 218C1181.24 234.21 1187.52 261.88 1182 274C1183.86 277.49 1183.92 276.13 1187 278C1184.17 283.96 1182.71 288.62 1184 293C1183.33 293.67 1182.67 294.33 1182 295C1163.98 294.17 1127.67 292.55 1111 299C1100.07 292.72 1072.86 298.26 1061 303C1059 308.33 1057 313.67 1055 319C1054.33 320 1053.67 321 1053 322C1047.19 320.85 1049.29 319.52 1045 321C1039.39 316.49 1040.28 310.17 1042 300H1037C1037.67 297.33 1038.33 294.67 1039 292C1042.67 294.67 1046.33 297.33 1050 300C1052.56 290.47 1050.53 283.38 1046 277C1049.15 275.52 1046.96 276.19 1051 276C1050.67 269 1050.33 262 1050 255C1045.67 253 1041.33 251 1037 249C1036.67 248.33 1036.33 247.67 1036 247C1041.02 245.3 1043.53 245.39 1048 247C1049 246.67 1050 246.33 1051 246C1050.67 240 1050.33 234 1050 228C1048.33 228.33 1046.67 228.67 1045 229V225C1047 224 1049 223 1051 222V221C1044.15 219.79 1043.64 220.25 1036 221C1039.27 216.88 1040.34 215.15 1048 215C1046.68 209.55 1045.23 209.11 1042 206V205C1044.33 205.33 1046.67 205.67 1049 206C1048.67 202 1048.33 198 1048 194C1041.66 192.54 1036.08 187.96 1032 184V183C1036.67 184.12 1039.21 183.79 1047 184C1045.33 175.33 1043.67 166.67 1042 158C1039.27 155.47 1040.05 156.72 1036 157C1038 154.33 1040 151.67 1042 149C1040.33 147.33 1038.67 145.67 1037 144C1039.6 143.57 1037.54 144.95 1040 143C1037.08 140.85 1037.54 141.6 1033 142C1032.67 141.33 1032.33 140.67 1032 140C1032.33 137.67 1032.67 135.33 1033 133C1018.65 130.51 1017.03 117.08 999 116H998C990.32 128.2 981.4 179.91 987 196C988.25 199.59 992.43 203.29 992 210C989.67 246.04 1000.08 277.54 996 319C961.86 320.21 886.9 269.15 868 242C857.52 226.94 853.05 216.41 837 209C833.02 207.03 834.71 208.09 831 211H828C828.94 205.98 829.29 205.97 833 204C829.33 201 825.67 198 822 195C815.56 195.73 813.16 197.71 803 198C802.33 200.33 801.67 202.67 801 205C794.54 205.76 786.64 198.75 778 202C771.82 205.84 772.78 218.63 770 225C772.94 229.18 774.14 231.29 769 233C771.47 252.89 778 267.79 780 287C781.25 299.06 777.27 321.4 774 335C769 355.82 772.76 385.24 773 403C784.09 406.8 797.07 406.25 804 410C805.07 402.06 818.49 398.4 813 387C817.16 384.54 822.15 384.61 827 389C825.33 390.33 823.67 391.67 822 393V396C825 395.67 828 395.33 831 395C832.33 392 833.67 389 835 386C831.44 384.04 830.4 382.53 828 382C827.67 381.33 827.33 380.67 827 380C828.67 379 830.33 378 832 377C832.67 376 833.33 375 834 374C831.17 373 833.71 372.71 831 374C829.16 370.08 830.05 372.62 833 369C831.15 366.35 830.94 367.25 830 363C833.96 361.19 834.74 360.63 836 356C835.33 355.67 834.67 355.33 834 355C832.67 355.67 831.33 356.33 830 357H829C828.67 355.33 828.33 353.67 828 352C831.74 349.96 832.91 351.15 835 348C833.67 345.89 833.02 344.52 831 343C829.55 338.38 831.43 341.1 833 335C830.9 331.16 829.69 329.56 827 329C829 327.67 831 326.33 833 325C831.93 318.46 832.81 311.54 830 310C832.45 308.02 830.4 309.43 833 309C831.24 301.96 829.85 303.07 833 297C829.48 294.7 828.6 292.63 826 292C829.33 290.67 832.67 289.33 836 288C839.5 295.79 871.05 324.35 885 326C884.33 327.67 883.67 329.33 883 331C896.52 343.81 945.67 371.02 969 371C968.67 372.67 968.33 374.33 968 376C983.81 372.99 1009.08 381.62 1012 396C1013 397 1014 398 1015 399C1018.22 395.7 1017.14 397.38 1016 393C1020.77 391.31 1022.73 391.13 1027 394C1030 391.67 1033 389.33 1036 387C1034.67 384 1033.33 381 1032 378C1033.67 379.33 1035.33 380.67 1037 382C1043.74 382.09 1042.97 382.3 1043 378C1048.42 373.39 1056.01 366.32 1063 364C1062.67 360.67 1062.33 357.33 1062 354C1066.33 355.33 1070.67 356.67 1075 358C1105.06 356.59 1133.95 353.34 1161 354C1161.33 353.33 1161.67 352.67 1162 352C1159.3 350.1 1159.92 350.89 1156 352C1155.67 351.33 1155.33 350.67 1155 350C1158.65 347.19 1167.24 348.31 1171 349C1172.24 341.23 1176.06 343.1 1175 336L1180 331C1183 334.26 1179.76 333.93 1184 335C1183.29 337.4 1183.08 338.22 1179 340V343C1183.67 343.33 1188.33 343.67 1193 344V345C1189 346.67 1185 348.33 1181 350C1184.22 357.28 1185.26 385.09 1194 389C1191.4 390.96 1193.06 389.98 1190 390C1189.33 391 1188.67 392 1188 393C1194.17 393.94 1192.63 393.12 1196 397L1191 402C1200.95 405.96 1189.51 430.81 1194 444C1195.71 449.03 1200.76 456.81 1200 463H1203C1204 464 1205 465 1206 466C1203.4 467.96 1205.06 466.98 1202 467C1200.68 474.9 1210.44 488.51 1215 495C1210.53 500.14 1210.88 509.9 1213 523C1216.4 522.25 1214.53 523 1218 524C1216.21 528.76 1213.74 526 1212 529C1208.69 534.7 1211.8 538.79 1209 544C1213.84 547.6 1212.33 547.66 1219 549C1218 550 1217 551 1216 552V555H1218C1221.19 546.83 1225.12 544.15 1234 540C1235.75 543.2 1237.31 543.2 1244 542C1242.47 539.39 1242.26 540.28 1241 537C1232.09 536.28 1227.22 538.16 1221 541H1217C1217.67 539 1218.33 537 1219 535C1224 532.67 1229 530.33 1234 528C1236.9 530.24 1239.39 531.74 1245 531C1244 532.67 1243 534.33 1242 536V537C1246.63 534.92 1245.82 532.76 1251 531C1253.62 534.53 1253.63 532.86 1258 534C1259 533.67 1260 533.33 1261 533C1260.33 531.33 1259.67 529.67 1259 528C1256.14 528.23 1250.84 530.76 1245 528H1243C1246.15 524.01 1257.4 519.85 1263 518C1262.33 514 1261.67 510 1261 506C1257 506.33 1253 506.67 1249 507C1248.67 506.33 1248.33 505.67 1248 505C1253.32 500.95 1253.63 500.28 1254 493H1255C1256.94 495.43 1257.14 498.08 1257 503C1257.67 503.33 1258.33 503.67 1259 504C1260.33 503 1261.67 502 1263 501C1259.57 494.15 1260.59 485.81 1259 478C1259.6 474.61 1259.78 475.61 1258 473C1253.67 476.33 1249.33 479.67 1245 483H1241C1242.8 478.82 1242.47 479.37 1248 479C1247.46 476.7 1247.77 477.81 1246 475C1250.55 472.89 1250.25 472.95 1256 473C1254.38 460.17 1254.26 440.26 1248 427C1249.67 426 1251.33 425 1253 424C1250.47 422.39 1251.67 421.51 1250 424C1248.67 423.67 1247.33 423.33 1246 423C1249.32 415 1251.87 413.89 1247 406H1250C1247.17 399.87 1244.38 399.74 1244 393C1243 392.67 1242 392.33 1241 392C1241.33 393.67 1241.67 395.33 1242 397H1232C1232.23 386.03 1235.65 385 1243 385C1242.33 373.33 1241.67 361.67 1241 350C1242.33 349.67 1243.67 349.33 1245 349C1245.33 348.33 1245.67 347.67 1246 347H1241C1241.73 344.89 1242.45 343.83 1243 346C1248.67 344.1 1246.8 334.96 1255 332C1253.72 337.93 1252.04 342.6 1247 345C1247.67 346.33 1248.33 347.67 1249 349C1258.3 345.57 1257.49 343.54 1266 342C1265.06 335.15 1265.44 334.03 1264 330V329C1269.6 329.46 1268.96 331.34 1270 325C1270.67 324.67 1271.33 324.33 1272 324C1273.75 326.62 1273.89 326.67 1277 328V329C1275.33 330.33 1273.67 331.67 1272 333C1276.95 334.61 1281.96 334.42 1284 340H1285C1285.67 338.67 1286.33 337.33 1287 336C1283.19 333.96 1282.72 331.93 1281 328C1281.33 327.67 1281.67 327.33 1282 327C1287.11 328.8 1286.08 330.4 1293 331C1293.91 336.36 1292.11 336.5 1290 341C1297.55 338.74 1298.42 336 1305 342C1306 341 1307 340 1308 339V338ZM1311 305C1312.67 306.33 1314.33 307.67 1316 309C1314 308 1312 307 1310 306C1310.33 305.67 1310.67 305.33 1311 305ZM1236 259H1235C1234.67 257.67 1234.33 256.33 1234 255C1234.67 256.33 1235.33 257.67 1236 259ZM1234 266C1234.33 267.33 1234.67 268.67 1235 270H1234V266ZM1047 271C1046.67 270.33 1046.33 269.67 1046 269C1047.8 270.32 1046.58 270.07 1047 271ZM1044 230H1046V233H1044V230ZM863 309C862.67 308.33 862.33 307.67 862 307H864C863.67 307.67 863.33 308.33 863 309ZM870 318V316H874C872.67 316.67 871.33 317.33 870 318ZM905 342H904V337C905.33 337.33 906.67 337.67 908 338C907 339.33 906 340.67 905 342ZM935 341C933 340.67 931 340.33 929 340C929.08 336.2 928.73 338.28 930 335C931.67 336 933.33 337 935 338V341ZM971 347C972.33 347.33 973.67 347.67 975 348C972.21 348.83 973.29 348.52 971 347ZM1041 254C1042.33 254.33 1043.67 254.67 1045 255V256C1043.67 256.33 1042.33 256.67 1041 257V254ZM1039 285C1038.33 285.67 1037.67 286.33 1037 287H1033C1032.33 286.33 1031.67 285.67 1031 285C1031.33 283 1031.67 281 1032 279C1034.33 281 1036.67 283 1039 285ZM1033 296C1032 296.67 1031 297.33 1030 298H1029V294C1030.33 294.67 1031.67 295.33 1033 296ZM1031 251H1033C1032.67 252 1032.33 253 1032 254C1031.67 253 1031.33 252 1031 251ZM1038 228H1039V234H1034C1033.67 233.33 1033.33 232.67 1033 232C1034.67 230.67 1036.33 229.33 1038 228ZM1034 223C1033.67 224 1033.33 225 1033 226C1031.67 226.33 1030.33 226.67 1029 227C1028.33 226.67 1027.67 226.33 1027 226V225C1028.33 223.67 1029.67 222.33 1031 221C1032 221.67 1033 222.33 1034 223ZM1033 170C1034 171 1035 172 1036 173C1034.67 173.67 1033.33 174.33 1032 175C1031.33 174.33 1030.67 173.67 1030 173C1031 172 1032 171 1033 170ZM1028 184C1025.6 185.49 1026.87 184.6 1026 182C1026.67 182.67 1027.33 183.33 1028 184ZM1027 263C1027.67 264 1028.33 265 1029 266C1027.67 266.33 1026.33 266.67 1025 267C1024.67 265.67 1024.33 264.33 1024 263H1027ZM1015 388H1014C1013.67 386 1013.33 384 1013 382C1015 382.33 1017 382.67 1019 383C1019.67 384 1020.33 385 1021 386C1019 386.67 1017 387.33 1015 388ZM1028 381H1027C1024.38 378.51 1025.46 379.67 1025 377H1028V381ZM1029 319C1025.67 320.33 1022.33 321.67 1019 323H1018V322C1024.75 317.45 1026.73 318.01 1035 318C1035.33 316.33 1035.67 314.67 1036 313C1040.48 316.6 1037.32 321.39 1035 323C1034.33 323.67 1033.67 324.33 1033 325C1031.67 323 1030.33 321 1029 319ZM1035 364V357H1043C1043.33 358 1043.67 359 1044 360C1040.63 362.38 1040.77 363.39 1035 364ZM1055 328C1054.33 327.33 1053.67 326.67 1053 326C1053.67 325.33 1054.33 324.67 1055 324C1055.33 325.33 1055.67 326.67 1056 328H1055ZM1163 308V305C1163.67 304.67 1164.33 304.33 1165 304H1172V305C1169.51 307.62 1170.67 306.54 1168 307C1166.33 307.33 1164.67 307.67 1163 308ZM1169 339V336H1172C1171 337 1170 338 1169 339ZM1175 327H1171C1171.33 326 1171.67 325 1172 324H1175V327ZM1189 225V222C1190 222.33 1191 222.67 1192 223C1191 223.67 1190 224.33 1189 225ZM1234 319C1234.33 319.67 1234.67 320.33 1235 321H1233C1233.33 320.33 1233.67 319.67 1234 319ZM1234 332C1237.8 334 1237.53 333.53 1238 339C1236.67 340 1235.33 341 1234 342H1233C1233.33 338.67 1233.67 335.33 1234 332ZM1225 343C1226 344 1227 345 1228 346C1227.33 346.33 1226.67 346.67 1226 347C1225.33 346.33 1224.67 345.67 1224 345C1224.33 344.33 1224.67 343.67 1225 343ZM1225 363C1226.33 363.33 1227.67 363.67 1229 364V365C1228 365.33 1227 365.67 1226 366C1225.33 365.33 1224.67 364.67 1224 364C1224.33 363.67 1224.67 363.33 1225 363ZM1232 282C1231.33 282.33 1230.67 282.67 1230 283H1227C1226.66 278.33 1226.59 278.76 1228 275H1232V282ZM1225 274C1223.37 276.28 1225.15 278.37 1224 283C1226.2 286.83 1225.81 286.95 1231 288V292C1230.33 292.33 1229.67 292.67 1229 293C1224.39 287.23 1218.48 283.5 1212 285C1214.67 282 1217.33 279 1220 276C1217.1 273.01 1219 274.44 1215 274V270C1217.33 269.33 1219.67 268.67 1222 268C1220.52 264.68 1220.29 264.71 1220 262C1225.25 263.24 1229.46 265.92 1232 268C1229.67 270 1227.33 272 1225 274ZM1209 215C1210.67 213.67 1212.33 212.33 1214 211C1214.67 212.33 1215.33 213.67 1216 215C1215.33 216 1214.67 217 1214 218H1210C1209.67 217.33 1209.33 216.67 1209 216V215ZM1207 168C1207.33 167.33 1207.67 166.67 1208 166H1209C1208.33 166.67 1207.67 167.33 1207 168ZM1224 202C1225.33 202.67 1226.67 203.33 1228 204V208C1225.33 208.67 1222.67 209.33 1220 210C1219.33 209.33 1218.67 208.67 1218 208C1220 206 1222 204 1224 202ZM1223 198V194C1223.67 194.67 1224.33 195.33 1225 196C1224.33 196.67 1223.67 197.33 1223 198ZM1226 218C1225 219 1224 220 1223 221C1222 219.33 1221 217.67 1220 216H1225C1225.33 216.67 1225.67 217.33 1226 218ZM1219 198C1218.33 198.33 1217.67 198.67 1217 199H1216C1215.67 197 1215.33 195 1215 193C1216.33 193.67 1217.67 194.33 1219 195V198ZM1219 202V205H1215C1214.33 204.33 1213.67 203.67 1213 203C1213.33 202.67 1213.67 202.33 1214 202H1219ZM1231 249C1233.28 251.3 1233.39 253.54 1232 257C1231 257.33 1230 257.67 1229 258C1228.33 257 1227.67 256 1227 255H1225C1227 253 1229 251 1231 249ZM1230 233V234C1228 233.33 1226 232.67 1224 232C1225 231 1226 230 1227 229C1228 230.33 1229 231.67 1230 233ZM1227 164C1229.11 167.3 1228.44 167.98 1228 173H1227C1226.33 172.67 1225.67 172.33 1225 172C1225.67 169.33 1226.33 166.67 1227 164ZM1217 181C1217.33 181.67 1217.67 182.33 1218 183C1219.67 182.33 1221.33 181.67 1223 181C1224.33 182 1225.67 183 1227 184V191C1221.33 190.67 1215.67 190.33 1210 190V188H1215C1215.67 187.67 1216.33 187.33 1217 187C1215.03 182.99 1217.44 185.57 1213 185C1214.33 182 1215.67 179 1217 176C1220.71 179.2 1218.94 176.71 1217 181ZM1227 145V146C1223.89 146.72 1220.94 145.4 1219 142C1221.67 143 1224.33 144 1227 145ZM1225 25.0001H1228C1227 25.6701 1226 26.3301 1225 27.0001V25.0001ZM1224 71.0001C1224.33 72.3301 1224.67 73.6701 1225 75.0001H1224C1223.33 74.3301 1222.67 73.6701 1222 73.0001C1222.67 72.3301 1223.33 71.6701 1224 71.0001ZM1220 121C1221.91 118.09 1221.04 119.56 1221 116H1225V123C1224.33 125.33 1223.67 127.67 1223 130C1216.69 127.99 1218.24 125.97 1216 122C1218.6 120.04 1216.94 121.02 1220 121ZM1216 95.0001C1217.22 97.7501 1216.72 96.6301 1217 99.0001C1217.33 99.3301 1217.67 99.6701 1218 100C1216.67 100.33 1215.33 100.67 1214 101C1213.67 99.0001 1213.33 97.0001 1213 95.0001H1216ZM1213 129C1214.33 129.67 1215.67 130.33 1217 131C1216.67 132 1216.33 133 1216 134C1214.67 134.33 1213.33 134.67 1212 135C1212.33 133 1212.67 131 1213 129ZM1212 137C1213.33 137.33 1214.67 137.67 1216 138C1215.33 139.33 1214.67 140.67 1214 142H1210C1209.67 141.33 1209.33 140.67 1209 140C1210 139 1211 138 1212 137ZM1209 152C1209.67 151.67 1210.33 151.33 1211 151H1215V155H1209V152ZM1202 444H1201C1200.33 442.67 1199.67 441.33 1199 440C1199.67 439.67 1200.33 439.33 1201 439C1201.67 439.67 1202.33 440.33 1203 441C1202.67 442 1202.33 443 1202 444ZM1203 157C1203.67 156.67 1204.33 156.33 1205 156H1209C1208.33 157.33 1207.67 158.67 1207 160H1203V157ZM1208 454C1206.67 454.33 1205.33 454.67 1204 455C1205 453.67 1206 452.33 1207 451C1209.12 453.34 1207.51 450.88 1208 454ZM1209 280V277C1209.67 277.67 1210.33 278.33 1211 279C1210.33 279.33 1209.67 279.67 1209 280ZM1216 482C1215 482.33 1214 482.67 1213 483C1211.78 480.25 1212.28 481.37 1212 479C1213.33 479.67 1214.67 480.33 1216 481V482ZM1216 337V335H1219C1218 335.67 1217 336.33 1216 337ZM1221 344V345C1220 345.67 1219 346.33 1218 347C1218.13 344.45 1217.89 345.83 1219 343C1219.67 343.33 1220.33 343.67 1221 344ZM1218 408C1218.67 406.33 1219.33 404.67 1220 403H1223C1222.67 404 1222.33 405 1222 406C1221 406.67 1220 407.33 1219 408H1218ZM1221 481V478C1224.45 479.87 1223.71 478.81 1225 483C1223.67 482.33 1222.33 481.67 1221 481ZM1226 514C1229 515.92 1227.68 514.17 1229 518C1226.61 516.07 1227.35 517.4 1226 514ZM1229 402H1228V398H1231C1230.33 399.33 1229.67 400.67 1229 402ZM1233 525C1235.33 523.33 1237.67 521.67 1240 520C1240.33 521.33 1240.67 522.67 1241 524C1238.33 524.33 1235.67 524.67 1233 525ZM1232 498V495H1235V498H1232ZM1247 522C1246 521.67 1245 521.33 1244 521L1246 520H1249C1248.33 520.67 1247.67 521.33 1247 522ZM1251 513C1254.53 514.82 1252.22 512.42 1254 516H1252C1250.67 516.67 1249.33 517.33 1248 518C1247.67 517.33 1247.33 516.67 1247 516C1248.33 515 1249.67 514 1251 513ZM1248 484C1249.33 485 1250.67 486 1252 487C1251.33 487.67 1250.67 488.33 1250 489C1249 488.67 1248 488.33 1247 488C1247.33 486.67 1247.67 485.33 1248 484ZM1246 489H1248C1247.33 490.33 1246.67 491.67 1246 493C1242.27 490.3 1243.5 491.77 1243 488C1244 488.33 1245 488.67 1246 489ZM1243 494C1244.96 496.6 1243.98 494.94 1244 498C1244.6 501.39 1244.78 500.39 1243 503C1242.33 502.67 1241.67 502.33 1241 502C1241.67 499.33 1242.33 496.67 1243 494ZM1242 477V474H1245C1244 475 1243 476 1242 477ZM1251 457H1253C1253.33 458 1253.67 459 1254 460C1252.67 459.67 1251.33 459.33 1250 459C1250.33 458.33 1250.67 457.67 1251 457ZM1253 464V465C1248.67 465.33 1244.33 465.67 1240 466C1239 464.67 1238 463.33 1237 462C1241.4 462.08 1239.93 462.6 1243 461C1246.33 462 1249.67 463 1253 464ZM1243 445V446C1241.67 447 1240.33 448 1239 449C1237 446 1235 443 1233 440C1239.17 440.73 1239.59 442.03 1243 445ZM1237 428C1238.33 428.67 1239.67 429.33 1241 430C1240.33 430.67 1239.67 431.33 1239 432C1238.33 430.67 1237.67 429.33 1237 428ZM1239 401C1239.67 401.67 1240.33 402.33 1241 403C1240.33 403.33 1239.67 403.67 1239 404V401ZM1237 404C1236.58 408.29 1238.19 406.54 1234 409C1234.67 409.67 1235.33 410.33 1236 411C1236.33 413 1236.67 415 1237 417C1231.47 414.91 1231.07 409.13 1232 402C1233.67 402.67 1235.33 403.33 1237 404ZM1234 382H1233V378H1236C1235.33 379.33 1234.67 380.67 1234 382ZM1240 367C1238.33 367.33 1236.67 367.67 1235 368H1234C1232.67 364 1231.33 360 1230 356C1230.33 355.33 1230.67 354.67 1231 354C1231.67 355.33 1232.33 356.67 1233 358C1235 358.33 1237 358.67 1239 359C1239.33 361.33 1239.67 363.67 1240 366V367ZM1248 333H1245V330C1245.67 329.67 1246.33 329.33 1247 329C1248 329.67 1249 330.33 1250 331C1249.33 331.67 1248.67 332.33 1248 333ZM1275 311H1274C1273.33 310 1272.67 309 1272 308C1273 308.67 1274 309.33 1275 310V311ZM1280 314V312C1280.91 313.78 1280.98 312.25 1280 314ZM1827 189C1826.33 188.33 1825.67 187.67 1825 187C1822.35 189.59 1823.22 190.45 1819 192V188C1824.41 185.36 1827.69 179.99 1834 182C1834.67 181.67 1835.33 181.33 1836 181V176C1833.67 175.67 1831.33 175.33 1829 175C1829.33 171.33 1829.67 167.67 1830 164C1820.51 162.6 1813.48 152.99 1814 146C1806.98 144.93 1805.53 144.51 1800 142C1791.33 147.58 1778.25 153.16 1771 155C1763.55 156.89 1754.05 153.33 1746 158C1746.67 158.67 1747.33 159.33 1748 160C1743.01 169.4 1730.21 162.25 1721 167C1710.79 172.26 1696.77 186.25 1685 189C1682.42 192.57 1683.29 193.76 1686 197V198C1684.67 198.33 1683.33 198.67 1682 199C1680.26 195.16 1679.27 195.13 1679 189H1678C1670.61 193.95 1668.18 192.38 1663 195C1655.21 198.93 1655.67 209.28 1649 211C1647.39 213.53 1646.51 212.33 1649 214V218C1648 218.33 1647 218.67 1646 219V214C1638.7 222.7 1638.8 235.61 1628 241C1627.71 247.24 1628.57 245.17 1630 251C1629.67 250 1629.33 249 1629 248H1628C1628.67 252.67 1629.33 257.33 1630 262C1629 261.33 1628 260.67 1627 260C1624.3 262.8 1623.25 270.61 1625 276C1625.33 277.33 1625.67 278.67 1626 280C1627.67 279.33 1629.33 278.67 1631 278H1632C1630.33 280.67 1628.67 283.33 1627 286C1633.61 291.27 1633.96 299.77 1642 304C1645.24 307.23 1647.88 305.85 1652 305C1651.67 306.67 1651.33 308.33 1651 310C1659.4 310.45 1659.54 312.98 1665 316C1666 315 1667 314 1668 313H1669C1668.45 319.92 1669.77 319.04 1674 323C1677.72 320.73 1678.01 321.37 1679 316C1682.62 314.3 1683.11 314.42 1688 315C1685.99 317.05 1687.01 316.42 1683 317C1682.33 318 1681.67 319 1681 320C1681.33 321 1681.67 322 1682 323C1685.45 321.13 1684.71 322.19 1686 318H1687C1686 322 1685 326 1684 330C1701.52 333.4 1708.58 344.47 1726 349C1727.33 350.67 1728.67 352.33 1730 354C1728.67 355 1727.33 356 1726 357C1724 356.33 1722 355.67 1720 355C1718.06 365.28 1700.59 369.12 1688 369C1687.67 368.67 1687.33 368.33 1687 368C1690 366.33 1693 364.67 1696 363C1695.67 362 1695.33 361 1695 360C1690.97 362.83 1684.36 365.28 1682 370C1680.67 369 1679.33 368 1678 367C1671.74 370.61 1670.6 374.67 1664 378C1664.67 376 1665.33 374 1666 372H1658C1658.98 377.75 1657.86 380.23 1657 386C1656 385.67 1655 385.33 1654 385C1654.67 380.33 1655.33 375.67 1656 371C1655.67 370 1655.33 369 1655 368C1649 373.18 1653.21 382.35 1646 387C1646.33 386 1646.67 385 1647 384C1637.36 384.88 1638.41 389.04 1629 390C1627.68 394.7 1627.03 401.97 1620 404C1621.33 399.33 1622.67 394.67 1624 390C1619.02 394.9 1617.14 400.32 1617 408C1620.36 406.79 1621.49 406.67 1625 404C1624.33 406.33 1623.67 408.67 1623 411C1628.49 408.14 1640.5 411.79 1647 417C1648.27 415.77 1655.18 404.84 1659 406C1664.04 407.54 1659.96 412.16 1659 416C1661 414.67 1663 413.33 1665 412C1665.67 413.33 1666.33 414.67 1667 416C1671.1 415.81 1681.06 411.57 1683 415C1687.48 413.49 1686.94 413.84 1688 409C1690 410.67 1692 412.33 1694 414C1701.37 409.31 1703.04 411.25 1707 404C1718.62 408.59 1723.34 405.93 1734 401C1733.67 402 1733.33 403 1733 404C1734.67 402.67 1736.33 401.33 1738 400C1739.32 403.67 1737.63 406.66 1736 410C1740.84 407.54 1743.57 401.6 1746 397C1746.67 396.67 1747.33 396.33 1748 396C1747.33 398 1746.67 400 1746 402C1753.53 398.42 1763.35 392.08 1772 397C1774.35 390.15 1774.52 388.71 1776 382H1777C1778.33 382.67 1779.67 383.33 1781 384C1780.67 384.67 1780.33 385.33 1780 386H1782C1780.49 390.48 1780.84 389.94 1776 391C1776.67 392.33 1777.33 393.67 1778 395C1785.98 390.1 1792.81 382.7 1797 374C1798 373.67 1799 373.33 1800 373C1800.33 374.33 1800.67 375.67 1801 377C1797.71 379.24 1795.98 382.46 1795 387C1800.42 382.67 1801.6 377.51 1805 371L1815 376C1818.13 372.34 1817.52 363.99 1813 363C1820.48 350.27 1804.51 335.4 1792 333C1792.67 331.33 1793.33 329.67 1794 328C1784.74 323.29 1779.34 317.53 1769 316C1770.36 318.26 1770.51 317.95 1771 322H1768C1767.75 316.03 1766.62 317.7 1770 314C1768.67 313 1767.33 312 1766 311C1764.67 312 1763.33 313 1762 314C1761 312 1760 310 1759 308V306C1755.59 309.11 1753.79 310.86 1749 313H1748C1749 311 1750 309 1751 307C1753.78 305.4 1751.45 306.26 1751 302C1731.47 296.9 1704.71 270.9 1684 273C1682 266.33 1680 259.67 1678 253C1679.67 252.67 1681.33 252.33 1683 252C1681.4 249.09 1682.34 248.3 1678 246C1678.67 245.33 1679.33 244.67 1680 244C1682.95 246.27 1682.92 245.4 1684 250C1686 249.33 1688 248.67 1690 248C1691.7 244.38 1691.58 243.89 1691 239C1691.67 238.67 1692.33 238.33 1693 238C1695.65 239.85 1694.75 240.06 1699 241C1703.22 224.66 1736.07 228.1 1747 215C1749.33 215.33 1751.67 215.67 1754 216C1752.04 218.04 1753.65 217.09 1750 218C1753.12 226.09 1759.4 219.65 1759 212C1763.56 213.04 1802.23 206.78 1805 203C1805.52 200.82 1805.79 202.34 1804 201C1808 198.44 1808.64 198.89 1814 199C1814.33 199.67 1814.67 200.33 1815 201C1814 201.67 1813 202.33 1812 203C1812.67 203.33 1813.33 203.67 1814 204C1816.76 201.41 1816.67 199.48 1818 195C1820.59 195.33 1820.02 195.32 1823 197C1823.93 192.96 1824.16 191.13 1827 189ZM1641 244V246C1637.2 244.62 1638.93 246.03 1637 243C1638.33 243.33 1639.67 243.67 1641 244ZM1641 287H1640C1639 286.67 1638 286.33 1637 286C1638.72 281.63 1638.63 283.24 1642 281C1641.67 283 1641.33 285 1641 287ZM1643 268V262C1644 262.33 1645 262.67 1646 263C1644.88 266.62 1645.21 265.94 1643 268ZM1653 304C1652.33 303.67 1651.67 303.33 1651 303C1651.67 301.33 1652.33 299.67 1653 298H1656C1655 300 1654 302 1653 304ZM1657 301C1657.33 300 1657.67 299 1658 298C1658.82 300.46 1658.37 298.85 1657 301ZM1674 301C1672.67 301.33 1671.33 301.67 1670 302C1670.67 299.33 1671.33 296.67 1672 294H1674V301ZM1636 403C1635.67 401 1635.33 399 1635 397C1636 398.33 1637 399.67 1638 401C1637.33 401.67 1636.67 402.33 1636 403ZM1642 402C1643.33 401 1644.67 400 1646 399C1648.04 400.96 1647.09 399.35 1648 403C1644.15 404.45 1645.49 404.78 1642 402ZM1659 401C1659.33 400.33 1659.67 399.67 1660 399H1662C1661 399.67 1660 400.33 1659 401ZM1664 389C1660.2 391.54 1662.4 389.02 1662 394C1657.11 393.79 1650.47 393.34 1648 397C1647 396.67 1646 396.33 1645 396C1644.67 395.33 1644.33 394.67 1644 394C1644.33 393.33 1644.67 392.67 1645 392C1650.83 390.22 1651.62 389 1657 391C1658.67 388.33 1660.33 385.67 1662 383C1665.8 384.38 1664.07 382.97 1666 386C1668.19 388.06 1667.94 387.35 1669 391C1663.64 390.45 1664.96 391.47 1664 389ZM1678 405C1678.33 404.33 1678.67 403.67 1679 403C1679.67 404 1680.33 405 1681 406C1680 405.67 1679 405.33 1678 405ZM1686 408V410C1685.67 408.33 1685.33 406.67 1685 405H1688C1687.33 406 1686.67 407 1686 408ZM1693 394C1688.81 390.79 1682.94 388.58 1676 388C1675.67 387.33 1675.33 386.67 1675 386V382C1681.46 383.37 1680.92 382.96 1688 384C1687.64 379.94 1686.63 378.42 1685 374C1687.98 375.29 1686.2 373.96 1688 376C1690.98 377.82 1690.71 381.91 1689 386C1691.71 388.95 1694.03 389.09 1698 391C1696.33 392 1694.67 393 1693 394ZM1700 405V403H1703C1702 403.67 1701 404.33 1700 405ZM1721 388V387C1721.33 386.33 1721.67 385.67 1722 385C1723 385.67 1724 386.33 1725 387C1723.67 387.33 1722.33 387.67 1721 388ZM1810 363C1810.88 365.63 1810.04 364.91 1808 367C1808.67 365.67 1809.33 364.33 1810 363ZM1805 344H1808C1806.2 346.02 1808.02 344.74 1805 346V344ZM1800 367H1803C1802 368.33 1801 369.67 1800 371H1799C1799.33 369.67 1799.67 368.33 1800 367ZM1791 354C1791.62 356.06 1791.69 354.6 1789 357C1789.67 356 1790.33 355 1791 354ZM1792 365C1793.91 366.51 1793.8 366.77 1795 369C1792.67 370.67 1790.33 372.33 1788 374C1789.94 369.42 1790.61 369.27 1792 365ZM1762 392C1762.67 391.67 1763.33 391.33 1764 391C1763.94 392.92 1764.74 392.3 1762 393V392ZM1736 385C1736.33 384.67 1736.67 384.33 1737 384C1738 385 1739 386 1740 387C1738.67 386.33 1737.33 385.67 1736 385ZM1736 348C1730.01 346.12 1735.12 345.43 1730 346C1729.33 345.33 1728.67 344.67 1728 344C1732.26 339.73 1733.36 343.56 1736 340C1737.67 341.33 1739.33 342.67 1741 344C1739.22 347.46 1739.43 346.48 1736 348ZM1748 342V338C1750.04 339.96 1749.09 338.35 1750 342H1748ZM1746 321C1746.67 320 1747.33 319 1748 318C1752.18 319.55 1750.46 317.8 1752 322H1746V321ZM1734 337C1735.33 336.67 1736.67 336.33 1738 336V334C1735.24 331.88 1737.8 333.4 1734 333C1734.33 332.33 1734.67 331.67 1735 331C1739.7 332.5 1737.55 330.23 1739 335C1743.56 334.55 1743.06 333.94 1746 336C1743.36 338.26 1739.61 338.18 1737 338C1733.61 338.6 1734.61 338.78 1732 337C1733.72 335.98 1732.83 335.38 1734 337ZM1728 336C1727.33 336.67 1726.67 337.33 1726 338H1723C1723.33 336.67 1723.67 335.33 1724 334C1725.33 334.33 1726.67 334.67 1728 335V336ZM1726 328C1726.82 330.46 1726.37 328.85 1725 331C1725.33 330 1725.67 329 1726 328ZM1722 318H1724C1723.33 319.33 1722.67 320.67 1722 322C1721.33 321 1720.67 320 1720 319C1720.67 318.67 1721.33 318.33 1722 318ZM1709 331C1708.67 330.33 1708.33 329.67 1708 329C1709.8 330.32 1708.58 330.07 1709 331ZM1707 322C1706.33 322.67 1705.67 323.33 1705 324H1700C1699.67 322 1699.33 320 1699 318C1701.67 319.33 1704.33 320.67 1707 322ZM1693 326C1692 326.33 1691 326.67 1690 327C1689.33 326 1688.67 325 1688 324C1690 323 1692 322 1694 321C1696.32 324.6 1692.38 321.95 1693 326ZM1693 318C1693.91 319.78 1693.98 318.25 1693 320V318ZM1679 240H1678V237C1678.67 236.67 1679.33 236.33 1680 236C1680.83 238.79 1680.52 237.71 1679 240ZM1689 204C1687.08 201.48 1686.83 200.54 1688 197C1692.48 198.51 1691.94 198.16 1693 203C1691.67 203.33 1690.33 203.67 1689 204ZM1723 182C1722.33 182.33 1721.67 182.67 1721 183C1719.33 180.91 1719.4 181.03 1719 177H1723V182ZM713 200C714.79 196.78 715.44 196.42 719 195C719.11 188.33 718.62 187.67 715 185C706.83 175.45 653.95 187.31 650 188C646.22 188.66 636.53 184.6 632 184C631 186 630 188 629 190C615.62 186.62 607.53 192.73 597 187C576.55 200.63 545.35 198.58 518 214C517.9 235.52 521.83 256.5 513 271C508 271.33 503 271.67 498 272C497.33 271.67 496.67 271.33 496 271C496.67 269 497.33 267 498 265V264H493C492 263.67 491 263.33 490 263V262C492 261.33 494 260.67 496 260C494.81 255.63 494.69 256.34 492 254V253C495.67 251.33 499.33 249.67 503 248C504.06 235.23 506.28 235.93 509 225C507.03 220.32 504.57 215.84 507 209C503.66 194.78 484.52 192.02 478 180C472.67 181.33 467.33 182.67 462 184C458.59 189.76 453.06 229.64 452 231C435.54 252.12 433.93 305.91 424 337C423.33 337.33 422.67 337.67 422 338C412.38 327.03 390.7 273.1 376 270C377.98 256.1 370.43 256.82 364 246C359.74 238.83 355.99 227.93 351 219C344.75 207.83 322.05 198.68 313 193H309C309.33 194.33 309.67 195.67 310 197C306.89 199.48 308.17 199.38 304 199C304.07 213.05 303.77 228.81 299 238C303.32 240.35 310.82 253 312 261C283.43 250.95 244.18 266.08 218 274C215.1 271.6 214.84 271.88 214 267C201.65 264.25 193.8 265.74 179 265C180.48 266.79 182.36 267.47 184 269H186C175.6 279.42 168.57 266.48 160 268C153.22 269.2 112.34 283.01 111 286C104.43 286.04 105.15 285.87 100 285C100.33 281 100.67 277 101 273C98.29 273.37 100.76 272.66 98 274V267C101.23 264.83 101.66 264.7 105 264C106.64 251.53 109.12 235.84 115 232C117.54 228.09 117.65 229.76 123 230C122.33 228.33 121.67 226.67 121 225C142.13 225.35 165.71 220.4 179 210C181.19 209.54 178.97 209.46 178 208C183.19 202.34 224.66 197.35 231 197C231.67 198.33 232.33 199.67 233 201C242.85 197.35 253.53 193.37 262 189C260.4 185.38 258 180.43 255 178C251.84 181.44 252.55 179.84 254 184H250C249.33 183 248.67 182 248 181C252.3 178.73 256.86 174.04 258 171C263.21 172.92 260.49 172.46 262 176C258.89 176.56 261.34 174.88 259 177H257C263.56 179.9 267.98 177.92 275 176C277.28 177.62 276.73 177.85 280 179C275.86 183.5 277.11 181.09 272 181C268.75 184.81 273.65 187.45 270 191C272.67 191.33 275.33 191.67 278 192C279.65 186.31 282.14 184.55 291 184C291.33 181 291.67 178 292 175H288C287.67 174 287.33 173 287 172C291.24 172.36 290.95 171.9 293 174C294 173.67 295 173.33 296 173C295.67 172.33 295.33 171.67 295 171C295.33 170.33 295.67 169.67 296 169C290.01 169.12 281.67 170.44 281 169C278.51 167.14 278.96 169.47 279 165C274.67 164.67 270.33 164.33 266 164V168C262.67 166.67 259.33 165.33 256 164C253.29 166.93 254.51 168.41 249 171C236.78 152.85 214.24 165.87 196 163H193V161C197.8 158.9 196.06 158.64 201 160H202C201.74 154.74 202.27 155.14 199 153C192.82 156.23 183.29 154.31 174 156C172.36 160.95 173.69 157.82 175 164L173 166C134.01 157.21 105.39 173.15 72 183C69.89 193.86 62.37 200 61 209C57.42 232.52 62.95 281.81 46 305C39.35 313.97 20.49 315.94 9 320C5.7 332.74 9.01 342.13 0 353C2.32 357.55 4.57 361.17 3 367C7.58 371.76 15.52 371.98 23 376C20.09 385.85 19.54 390.19 21 402C28.67 408.33 36.33 414.67 44 421C48.83 417.67 75.77 428.89 81 431C97.71 437.73 124.05 425.31 146 430C147.33 429.67 148.67 429.33 150 429V428C148.67 427.67 147.33 427.33 146 427C153.48 423.69 171.49 426.93 182 424C188 420.67 194 417.33 200 414H214C229.08 409.15 244.49 408.41 263 402C259.86 400.26 266.91 398.93 268 398C272.27 394.36 308.16 380.02 316 379C315 378 314 377 313 376C318.38 375.52 319.34 373.97 326 375L328 373V369C324.37 368.04 325.96 369.07 324 367H322C330.15 361.93 333.41 372.21 342 370C349.33 366.33 356.67 362.67 364 359C372.09 366.46 386.7 381.13 390 386C390.67 390 391.33 394 392 398C396.47 402.36 401.24 401.54 402 403C405.62 404.12 404.94 403.79 407 406C404.24 408.12 406.8 406.6 403 407C404.5 412.79 406.48 414.92 409 419C413.21 420.69 413.88 419.79 420 419C420.6 425.01 421.02 424.7 425 427C423.33 428 421.67 429 420 430C420.67 432 421.33 434 422 436C429.05 438.74 431.25 433.48 439 431C438.67 429 438.33 427 438 425C440.33 424 442.67 423 445 422C445.67 423.33 446.33 424.67 447 426H449C452.06 420.04 457.52 415.64 463 413V406C461.33 408.09 461.4 407.97 461 412H460C458.67 410.33 457.33 408.67 456 407C455.33 406.33 454.67 405.67 454 405C458.85 400.41 459.46 395.36 466 393C463.05 378.23 465 364.67 472 350C470.67 349.67 469.33 349.33 468 349C468.94 343.54 479.4 330.16 483 324C490.67 326.67 498.33 329.33 506 332C517.13 393.24 519.92 386.37 574 404C573.33 402.67 572.67 401.33 572 400C574.64 398.98 572.81 400.5 574 398C578.94 398.75 578.11 399 581 401C584.29 400.05 597 391 603 397C617.68 397.05 614.54 392.02 628 389V388C626.67 387.33 625.33 386.67 624 386C627 384.08 625.68 385.83 627 382C634.34 388 663.24 382.87 669 373H671C668.33 372.33 665.67 371.67 663 371C667.5 366.95 677.8 366.12 680 370C682.33 368 684.67 366 687 364C685 363.67 683 363.33 681 363H680C682.09 357.09 685.85 357.15 690 359C692.21 357.06 692.05 350.56 689 348C688.57 350.6 689.95 348.54 688 351C688.79 347.13 688.59 347 691 345C694.61 342.8 695.08 343.46 699 345C700.33 343.33 701.67 341.67 703 340C702.33 339.33 701.67 338.67 701 338C699.67 338.67 698.33 339.33 697 340C691.33 338.97 692.91 339.34 691 335C684.67 337.33 678.33 339.67 672 342C668.79 339.18 670.19 338.6 664 338C664.67 336.33 665.33 334.67 666 333C652.78 334.32 644.11 337.3 630 339C629.41 343.89 629.78 342.74 627 345C625.67 343.67 624.33 342.33 623 341C624.87 338.74 624.86 339.64 626 336H624C623.33 335.33 622.67 334.67 622 334C618.37 339.24 617.95 337.74 618 346C609.63 336.94 590.41 342.4 570 343C567.33 339.33 564.67 335.67 562 332C562.67 330.67 563.33 329.33 564 328C561.62 319.99 571.97 320.24 576 320C580.67 319.15 579.48 320.05 580 324C585.67 321 591.33 318 597 315V318H594C598.99 319.54 610.13 314.11 615 312C617.2 311.05 620.4 311.32 624 311.87V307C625 307.33 626 307.67 627 308V311C626.09 311.3 625.17 311.61 624.26 311.91C630.78 312.93 638.54 314.78 644 312C658.68 304.5 662.42 300.6 685 298C684.67 296.33 684.33 294.67 684 293C685.96 295.6 684.98 293.94 685 297H690V290C695.33 287.33 700.67 284.67 706 282C703.7 277.13 698.4 277.33 693 276C692.67 275 692.33 274 692 273C696.67 273.33 701.33 273.67 706 274C707.33 276.33 708.67 278.67 710 281L705 286C706 287 707 288 708 289C714.05 283.98 717.68 271.79 725 269V268C724.67 266.67 724.33 265.33 724 264H720C721 265.33 722 266.67 723 268C714.43 265.9 699.43 269.7 697 259C691.39 260.67 679.46 262.21 670 263C669.33 262.67 668.67 262.33 668 262C670.35 256.41 671.21 253.53 673 250C667.43 250.14 663.5 250.46 658 247C657 247.33 656 247.67 655 248C656.33 249.67 657.67 251.33 659 253C653.28 252.68 648.86 254.86 643 254C642.33 253.67 641.67 253.33 641 253C641.67 255.33 642.33 257.67 643 260C642.33 260.33 641.67 260.67 641 261C637 259 633 257 629 255C623.48 257.09 620.87 256.74 620 264C617.33 264.67 614.67 265.33 612 266C611.67 265 611.33 264 611 263H615C616.22 260.25 615.72 261.37 616 259C609 259.33 602 259.67 595 260C594.67 260.67 594.33 261.33 594 262V263C597.67 264.33 601.33 265.67 605 267C604.67 267.67 604.33 268.33 604 269C595.44 270.44 591.05 267.54 582 267C584.86 264.31 585.12 264.54 589 265C585.58 261.97 577.33 264.58 570 265C570.29 261.62 567.7 260.14 565.07 257.95C565.05 257.97 565.03 257.98 565 258L564.22 257.22C564.5 257.47 564.78 257.72 565.07 257.95C568.18 255.44 567.03 257.49 566 254C579.81 255.13 583.08 246.24 602 251C603.1 239.91 638.83 236.27 648 240C656.77 232.27 678.27 228.05 689 229C688.33 228 687.67 227 687 226C695.66 224.92 694.11 224.02 700 227C701 226.67 702 226.33 703 226C702.33 223.67 701.67 221.33 701 219C703.53 216.12 704.39 215.32 706 211C707 210.67 708 210.33 709 210C710 210.33 711 210.67 712 211C711.33 213 710.67 215 710 217C712.33 217.67 714.67 218.33 717 219C719 216.33 721 213.67 723 211C730.04 211.62 734.82 210.16 742 212C743 211.67 744 211.33 745 211V209H724C720.33 206.96 717.48 202.05 713 200ZM262 286H265L262 289V286ZM189 274V273C189.67 272.67 190.33 272.33 191 272C192.33 272.67 193.67 273.33 195 274V275H189V274ZM261 391C262.33 391.67 263.67 392.33 265 393C261.26 391.53 262.89 393.73 261 391ZM327 334C327.67 332.67 328.33 331.33 329 330C329.88 332.63 329.04 331.91 327 334ZM316 328C312.3 329.79 308.1 336.35 304 339C302.67 339.33 301.33 339.67 300 340H298C298.67 338.67 299.33 337.33 300 336C297.67 335.67 295.33 335.33 293 335H292C290.87 339.27 289.82 337.42 294 339C293.33 342 292.67 345 292 348C290.67 348.33 289.33 348.67 288 349H287C285.67 347.33 284.33 345.67 283 344C285 342.67 287 341.33 289 340C286 341 283 342 280 343C280 343 257.88 368.83 255 371C246.67 369.68 247.31 365.27 242 363C240.63 362.42 219.01 366.01 216 366C216.67 365 217.33 364 218 363V362L216 364C212.16 364.55 211.76 368.48 207 371C210.11 372.21 210.84 372.21 213 370H216C215 371.67 214 373.33 213 375C211 376.67 209 378.33 207 380C193.74 379.95 191.07 372.89 185 372C176.89 370.81 165.33 376.61 152 373C151 375 150 377 149 379C144.12 376.78 85.48 372.54 77 375V373C75.48 371.24 75.89 367.75 75 364C78.98 362.6 90.72 346.86 96 343C106.29 337.32 128.85 348.48 133 329C154.43 328.01 169.73 323.37 184 316C188.22 318.26 189.56 318.27 190 320H195C194.67 318.33 194.33 316.67 194 315C207.01 317.39 289.74 292.19 306 285H308V282C302.25 281.88 304.4 282.53 299 284C301.71 277.74 303.86 275.84 310 276C310.67 275 311.33 274 312 273C309.79 271.77 309.52 271.93 308 270H313C313.67 270.33 314.33 270.67 315 271C314.89 274.99 315 272.18 314 276C316 275.67 318 275.33 320 275C327.24 287.46 330.37 299 342 306C340.68 306.78 346.28 324.34 352 328V329C344.31 333.67 329.67 321.38 316 328ZM351 337C351.33 336.33 351.67 335.67 352 335H353L351 337ZM440 421C440.33 420.33 440.67 419.67 441 419H442L440 421ZM457 386C456.33 384.67 455.67 383.33 455 382H459C458.33 383.33 457.67 384.67 457 386ZM456 379C454.71 376.02 456.04 377.8 454 376C455 374 456 372 457 370H459C458.33 370.33 457.67 370.67 457 371C460.43 374.23 458.01 372.89 462 372C462.67 374.33 463.33 376.67 464 379H456ZM479 288C478.33 288.33 477.67 288.67 477 289C476.33 288.33 475.67 287.67 475 287L476 286C477 286.33 478 286.67 479 287V288ZM489 270H488V266C489 266.67 490 267.33 491 268L489 270ZM652 345H656C655.33 347 654.67 349 654 351H644C643.67 350.33 643.33 349.67 643 349C646 347.67 649 346.33 652 345ZM638 344H641C639.2 346.02 641.02 344.74 638 346V344ZM639 353C635.64 355.2 636.58 355.45 634 352C635.67 352.33 637.33 352.67 639 353ZM621 346C621.67 346.67 622.33 347.33 623 348C622.33 348.33 621.67 348.67 621 349C620.67 348.33 620.33 347.67 620 347L621 346ZM710 269C711.67 269.33 713.33 269.67 715 270L711 274C710 272.67 709 271.33 708 270C708.67 269.67 709.33 269.33 710 269ZM686 264C686.67 264.67 687.33 265.33 688 266C687.33 266.33 686.67 266.67 686 267V264ZM692 275V278C690 277 688 276 686 275H692ZM691 286V288C688 288.67 685 289.33 682 290C681.33 289.67 680.67 289.33 680 289C679.33 288 678.67 287 678 286C679.33 285.33 680.67 284.67 682 284C685 284.67 688 285.33 691 286ZM669 270C671.67 269.67 674.33 269.33 677 269C677.33 271 677.67 273 678 275H672C671 274.33 670 273.67 669 273V270ZM662 294C661 292.67 660 291.33 659 290C662 291.92 660.68 290.17 662 294ZM629 273C628.33 272.33 627.67 271.67 627 271C628 270.67 629 270.33 630 270C630.82 272.46 630.37 270.85 629 273ZM626 263C627.67 263.33 629.33 263.67 631 264C631.67 265.33 632.33 266.67 633 268C631 267.67 629 267.33 627 267C626.33 266.33 625.67 265.67 625 265C625.33 264.33 625.67 263.67 626 263ZM607 295C609 294.33 611 293.67 613 293C614.33 293.33 615.67 293.67 617 294V298C614.67 298.67 612.33 299.33 610 300C609 299.67 608 299.33 607 299V295ZM607 243V241C607.91 242.78 607.98 241.25 607 243ZM629 236V232C629.67 231.67 630.33 231.33 631 231C631.33 232.67 631.67 234.33 632 236H629ZM630 209V207C630.67 206.67 631.33 206.33 632 206C632.67 207 633.33 208 634 209H630ZM640 195C640.91 196.78 640.98 195.25 640 197V195ZM648 232H641C640.67 231 640.33 230 640 229C644.29 228.36 643.86 229.3 646 227C647 227.33 648 227.67 649 228C648.67 229.33 648.33 230.67 648 232ZM649 220C645.4 220.26 647.86 221.09 646 218C647 218.33 648 218.67 649 219V220ZM659 216C662.09 218 661.36 214.75 663 220C660.11 217.99 660.93 220.66 659 216ZM679 223H675C677.02 219.88 675.47 220.86 680 220C677.61 215.31 675.57 215.92 670 217C669.33 215.67 668.67 214.33 668 213C673.67 213.33 679.33 213.67 685 214C685.33 215.67 685.67 217.33 686 219C681.84 220.54 683 220.32 679 223ZM689 192C687.67 193 686.33 194 685 195C682.67 194 680.33 193 678 192C674.9 194.67 678.76 195.26 672 196C670.28 198.77 669.26 196.45 666 197C662.33 195.37 661.2 195.06 659 192C659.33 191.33 659.67 190.67 660 190C664.21 189.28 666.28 188.89 669 192C670 190.67 671 189.33 672 188H689V192ZM698 194C697.33 193.67 696.67 193.33 696 193C696.33 190 696.67 187 697 184C701.7 185.38 701.92 186.25 704 190C702 191.33 700 192.67 698 194ZM716 208C715.33 207.33 714.67 206.67 714 206C714.67 205.67 715.33 205.33 716 205C716.67 205.67 717.33 206.33 718 207C717.33 207.33 716.67 207.67 716 208ZM169 158V161C169.67 160.67 170.33 160.33 171 160C170.33 159.33 169.67 158.67 169 158ZM1837 168H1834C1833.67 170 1833.33 172 1833 174C1835.63 171.83 1835.86 172.02 1837 168ZM1578 298C1577.67 297.33 1577.33 296.67 1577 296C1579.67 295 1582.33 294 1585 293V298C1587.78 295.1 1586.15 284.41 1587 281C1583.53 280.7 1584.36 279.91 1582 283C1580.04 279.16 1581.46 280.15 1584 276C1582.5 271.3 1584.77 273.45 1580 272C1579.33 271 1578.67 270 1578 269C1579.67 268.33 1581.33 267.67 1583 267C1580.25 265.19 1575.86 267.35 1573 265C1571.51 260.99 1576.24 253.59 1576 244C1569.32 240.18 1570.11 236.95 1562 235C1561.7 231.83 1561.77 233.01 1563 230C1555.79 221.54 1547.55 208.94 1539 203C1533.51 199.19 1525.74 198.88 1521 195C1518.2 194.53 1518.52 198.57 1514 197C1512.05 194.72 1513.89 197 1514 194C1506.48 192.25 1504.98 190.95 1499 187C1498.57 189.6 1499.95 187.54 1498 190C1495.97 188.95 1493.56 188.03 1490.96 187.12C1489.89 190.6 1490.18 189.97 1488 192H1487V187H1490.64C1487.91 186.04 1484.97 185.09 1482 184C1482.33 185 1482.67 186 1483 187C1482.67 187.67 1482.33 188.33 1482 189C1480.33 186.33 1478.67 183.67 1477 181C1474 182.65 1468.49 184.41 1465 186C1461.62 183.42 1461.37 183.92 1460 179C1454.24 182.6 1450.6 179.56 1445 177C1444.67 177.67 1444.33 178.33 1444 179C1443 179.67 1442 180.33 1441 181C1440.49 177.6 1440.7 179.85 1442 177H1438C1437 178.67 1436 180.33 1435 182C1428.78 180.64 1424.75 179.52 1420 183C1417.6 180.71 1417.77 181.42 1417 177C1415.07 178.12 1414.35 177.49 1416 179V183C1412.34 181.01 1414.31 183.47 1413 179C1407.27 181.08 1400.32 188.17 1397 191C1397.42 195.29 1395.81 193.54 1400 196V197C1399 198 1398 199 1397 200C1392.75 195.48 1395 190.72 1387 190C1389.01 186.35 1388.59 187.13 1394 187C1391.33 186.33 1388.67 185.67 1386 185C1382.87 187.54 1380.21 189.18 1376 191C1374.67 189 1373.33 187 1372 185C1368.33 185.67 1364.67 186.33 1361 187C1360.67 188.67 1360.33 190.33 1360 192C1358.63 195.42 1359.17 193.03 1356 193C1356.67 194.67 1357.33 196.33 1358 198C1355.67 199 1353.33 200 1351 201C1350 201.33 1349 201.67 1348 202C1349.33 200.67 1350.67 199.33 1352 198C1351.33 196.67 1350.67 195.33 1350 194H1349C1348.09 196.48 1347.13 199.17 1346 201C1344.02 198.55 1345.43 200.6 1345 198C1339.55 200.06 1345 204 1345 204C1348.09 211.39 1335.48 208.61 1331 212C1329.28 213.3 1324.78 224.49 1319 229C1319.67 231 1320.33 233 1321 235C1316.7 232.99 1316.97 233.35 1315 229C1310.16 230.77 1308.28 232.54 1304 234C1303 236.67 1302 239.33 1301 242V243H1306C1306.41 250.76 1308.07 249.74 1310 255H1305C1304.33 254 1303.67 253 1303 252C1300.48 250.54 1302.64 250.67 1303 246H1302L1297 251C1295.67 252.33 1294.33 253.67 1293 255C1294.33 255.67 1295.67 256.33 1297 257C1299.97 253.95 1298.2 257.17 1299 253C1302.53 255.87 1301.91 256.64 1303 260C1301.33 264.1 1302.46 264.31 1298 266C1299.33 263.03 1298.59 263.75 1301 262C1300.67 261 1300.33 260 1300 259C1293.43 261.68 1289.29 266.27 1288 275C1291.33 274 1294.67 273 1298 272C1295.33 274.33 1292.67 276.67 1290 279C1292.76 281.12 1290.2 279.6 1294 280C1293.74 284.04 1293.62 282.67 1295 286C1291.66 288.4 1291.59 287.67 1288 286C1287.67 287.67 1287.33 289.33 1287 291C1289 291.67 1291 292.33 1293 293C1301.16 292.7 1299.64 291.14 1304 288C1302.33 287.67 1300.67 287.33 1299 287C1299.52 281.6 1301.33 283.17 1301 277C1301.67 276.67 1302.33 276.33 1303 276H1304C1305.53 280.33 1308.34 281.24 1310 287C1314.52 283.46 1324.04 281.31 1324 276H1328C1328.73 285.37 1330.61 292.88 1335 306C1331.05 309.3 1329.4 312.03 1328 318C1324.77 316.81 1325.28 316.61 1323 315C1322.67 315.67 1322.33 316.33 1322 317C1322.67 317.33 1323.33 317.67 1324 318C1322.67 321.33 1321.33 324.67 1320 328H1315C1315.33 325.33 1315.67 322.67 1316 320C1315 319.33 1314 318.67 1313 318C1311.82 327.24 1311.53 325.36 1308 331C1312.4 330.63 1310.96 329.95 1314 332C1311.79 335.22 1310.47 336.42 1310 339C1309.33 339.67 1308.67 340.33 1308 341H1312C1318.54 328.6 1327.03 324.48 1341 318C1350 328.67 1352.05 343.65 1367 345V352C1377.97 349.65 1409.23 377.61 1431 375V381C1455.15 380.81 1462.5 379.4 1482 379C1481.67 377.67 1481.33 376.33 1481 375C1483.33 376.33 1485.67 377.67 1488 379C1486.18 381.05 1485.18 381.18 1482 382C1484 382.67 1486 383.33 1488 384C1489.67 379.67 1491.33 375.33 1493 371C1494 370.33 1495 369.67 1496 369C1496.67 371 1497.33 373 1498 375C1499.33 375.33 1500.67 375.67 1502 376H1503C1503.33 375.33 1503.67 374.67 1504 374C1501.7 369.97 1500.89 369.61 1506 368C1507 367 1508 366 1509 365H1510C1509.33 367 1508.67 369 1508 371V372C1514.48 369.83 1515.28 366.77 1522 369C1521.67 368 1521.33 367 1521 366H1533V365C1528.36 363.05 1526.83 362 1526 356C1530.33 354 1534.67 352 1539 350C1539.33 350.33 1539.67 350.67 1540 351C1539 352.33 1538 353.67 1537 355C1537.67 356.33 1538.33 357.67 1539 359C1545.51 356.18 1545.64 354.04 1545 346C1546.67 345.67 1548.33 345.33 1550 345C1548.67 346.33 1547.33 347.67 1546 349C1547 349.67 1548 350.33 1549 351C1553.46 348.23 1557.84 345.89 1561 350C1565.23 345.53 1562.51 349.04 1562 343C1564.39 339.47 1565.24 337.47 1570 336C1569 335 1568 334 1567 333C1571.13 326.73 1578.87 325.95 1585 324C1585.33 323.33 1585.67 322.67 1586 322C1584 319.33 1582 316.67 1580 314C1581.67 313.33 1583.33 312.67 1585 312V311C1581.81 309.08 1584.73 310.02 1581 311H1580C1580.92 305.59 1581.37 309.46 1579 305H1587C1586.67 306.33 1586.33 307.67 1586 309C1588.5 310.95 1589.4 310.4 1592 311C1590.45 303.75 1585.08 299.7 1578 298ZM1314 242H1321C1319.34 243.8 1317.58 244.09 1315 245C1314.33 244.33 1313.67 243.67 1313 243C1313.33 242.67 1313.67 242.33 1314 242ZM1313 275C1312.33 275.67 1311.67 276.33 1311 277C1309.55 273.42 1308.77 273.9 1307 271C1305.38 268.69 1306.57 270.87 1308 267C1309.67 268.33 1311.33 269.67 1313 271V275ZM1316 268C1313.67 267.33 1311.33 266.67 1309 266C1308.67 265.33 1308.33 264.67 1308 264C1308.67 263.33 1309.33 262.67 1310 262H1316C1316.33 263 1316.67 264 1317 265C1316.67 266 1316.33 267 1316 268ZM1318 261C1317.33 260 1316.67 259 1316 258C1314.03 255.06 1314.98 256.85 1316 253H1320C1321.36 256.51 1320.82 258.41 1322 264C1318.7 262.59 1319.28 257.08 1318 261ZM1325 267V263C1326 264 1327 265 1328 266C1327 266.33 1326 266.67 1325 267ZM1332 231C1330.33 230.67 1328.67 230.33 1327 230C1328.71 226.14 1329.03 227.17 1332 225C1332.67 226.67 1333.33 228.33 1334 230C1333.33 230.33 1332.67 230.67 1332 231ZM1330 319C1330.33 318.33 1330.67 317.67 1331 317H1333C1332 317.67 1331 318.33 1330 319ZM1335 314C1335.33 313.33 1335.67 312.67 1336 312H1337C1336.33 312.67 1335.67 313.33 1335 314ZM1349 216V214C1349.91 215.78 1349.98 214.25 1349 216ZM1499 214C1498.67 214.67 1498.33 215.33 1498 216C1496.07 213.3 1496.78 214.33 1497 211C1497.67 212 1498.33 213 1499 214ZM1497 196C1494.98 194.2 1496.26 196.02 1495 193C1495.67 194 1496.33 195 1497 196ZM1490 204C1490.67 204.67 1491.33 205.33 1492 206C1489.61 204.07 1490.35 205.4 1489 202C1489.33 202.67 1489.67 203.33 1490 204ZM1457 209H1456C1452.27 206.3 1453.5 207.77 1453 204C1455.63 206.68 1455.57 203.89 1457 209ZM1435 188H1437C1436.23 191.55 1436.3 190.88 1435 193H1434C1434.33 191.33 1434.67 189.67 1435 188ZM1424 191C1424.33 194 1424.67 197 1425 200C1424.33 200.33 1423.67 200.67 1423 201C1421.31 197.47 1420.95 195.87 1420 191H1424ZM1412 206C1413.9 208.93 1412.88 207.03 1413 211C1412.33 211.33 1411.67 211.67 1411 212H1410C1410.67 210 1411.33 208 1412 206ZM1404 211C1404.67 211.33 1405.33 211.67 1406 212C1405.33 212.67 1404.67 213.33 1404 214V211ZM1367 322H1363V321C1364 320 1365 319 1366 318C1367 318.67 1368 319.33 1369 320C1368.33 320.67 1367.67 321.33 1367 322ZM1370 212C1370.33 210.67 1370.67 209.33 1371 208C1372.33 208.33 1373.67 208.67 1375 209C1374 210.33 1373 211.67 1372 213C1371.33 212.67 1370.67 212.33 1370 212ZM1386 350C1384.67 349.33 1383.33 348.67 1382 348C1382.67 347 1383.33 346 1384 345C1386.67 346 1389.33 347 1392 348C1388.4 351.56 1386.73 348.2 1386 350ZM1395 344C1394.67 342.67 1394.33 341.33 1394 340C1394.67 339.67 1395.33 339.33 1396 339C1396.33 339.67 1396.67 340.33 1397 341C1397.33 342.33 1397.67 343.67 1398 345C1397 344.67 1396 344.33 1395 344ZM1399 349V346C1399.67 346.67 1400.33 347.33 1401 348C1400.33 348.33 1399.67 348.67 1399 349ZM1517 352C1515.33 352.33 1513.67 352.67 1512 353C1512.33 351 1512.67 349 1513 347C1514.33 347.33 1515.67 347.67 1517 348V352ZM1526 326H1524V323H1526V326ZM1491 316C1488.67 319.46 1489.68 318.8 1490 323C1475.44 318.5 1448.97 325.12 1427 318C1415.04 314.12 1406.28 300.58 1394 300C1389.03 289.74 1378.42 262.15 1385 251C1380 247.6 1378.87 242.23 1374 239C1376.56 233.16 1379.38 230.6 1385 228C1388.45 226.97 1385.63 226.63 1389 229C1391.57 226.54 1401.16 224.18 1406 221C1410.27 223.43 1409.76 220.56 1411 226C1423.93 222.62 1424.69 217.03 1437 222H1438C1438.72 219.94 1437.29 215.48 1436 210C1438.33 211.79 1438.88 212.96 1440 216C1444.78 216.92 1452.86 214.18 1457 220C1461.97 218.67 1461.27 219.63 1462 214C1464.67 213.67 1467.33 213.33 1470 213C1470.39 218.64 1471.21 219.45 1473 223C1478.01 221.77 1477.79 222.02 1479 217C1478.33 216.67 1477.67 216.33 1477 216V215C1485.95 217.37 1494.04 221.68 1500 226V221C1506.7 224.14 1507.36 227.92 1518 228C1517.64 232.7 1520.27 233 1519 237C1519.33 237.33 1519.67 237.67 1520 238C1521.67 237.67 1523.33 237.33 1525 237C1523.76 232.94 1525.43 234.92 1522 234V229C1525.67 229.33 1529.33 229.67 1533 230C1534 231.33 1535 232.67 1536 234C1533.33 234.33 1530.67 234.67 1528 235V236C1530.53 239.19 1530.67 238.46 1530 243C1530.67 243.33 1531.33 243.67 1532 244C1535.2 243.05 1534.7 243.68 1537 246C1535.33 245.67 1533.67 245.33 1532 245C1531.67 246.67 1531.33 248.33 1531 250C1539.8 255.54 1539.44 256.71 1546 258C1544.23 266.91 1541.81 280.46 1547 290C1540.34 298.87 1500.34 319.39 1491 316ZM1552 231C1555 232.92 1553.68 231.17 1555 235C1554 234.67 1553 234.33 1552 234V231ZM1554 345C1554.49 339.87 1554.91 339.82 1557 337C1558.91 338.51 1558.8 338.77 1560 341C1557.51 343.34 1558.12 343.76 1554 345ZM1565 298C1565.33 299 1565.67 300 1566 301C1565.33 300.33 1564.67 299.67 1564 299C1564.33 298.67 1564.67 298.33 1565 298ZM1561 318C1562.33 316.67 1563.67 315.33 1565 314C1569.57 315.74 1563.77 317.34 1561 318ZM1576 288C1576.91 289.78 1576.98 288.25 1576 290V288ZM1570 246C1571.67 247.33 1573.33 248.67 1575 250C1574.67 251.67 1574.33 253.33 1574 255C1573 255.33 1572 255.67 1571 256H1570V246ZM1569 259H1572C1571 259.67 1570 260.33 1569 261V259ZM1571 313C1571.67 312 1572.33 311 1573 310C1573.02 312.72 1574.39 311.77 1571 313ZM1579 325C1578.67 324.33 1578.33 323.67 1578 323C1579.8 324.32 1578.58 324.07 1579 325ZM1580 322H1575V317L1580 322ZM1400 179V182H1403C1401.18 178.47 1403.58 180.78 1400 179ZM1692 181C1691.67 182.33 1691.33 183.67 1691 185C1692 183.67 1693 182.33 1694 181H1692ZM1834 184C1833 185.67 1832 187.33 1831 189C1832.4 194.1 1831.5 194.81 1832 202H1827C1826.33 203 1825.67 204 1825 205C1826.33 205.33 1827.67 205.67 1829 206C1833 201.67 1837 197.33 1841 193C1837.28 189.04 1836.56 185.54 1834 184ZM1491 187H1490.64C1490.75 187.04 1490.85 187.08 1490.96 187.12C1490.97 187.08 1490.98 187.05 1491 187ZM724 202C727.33 202.33 730.67 202.67 734 203C735 202.33 736 201.67 737 201C737.33 199 737.67 197 738 195V194C733.71 195.27 733.26 196.01 731 199H727C726.76 194.18 727.85 196.18 726 194C724.67 193.33 723.33 192.67 722 192C720.67 194.33 719.33 196.67 718 199C720 200 722 201 724 202ZM745 198V203C753.05 202.36 761 203.81 762 205C763.33 204.33 764.67 203.67 766 203V202C765.67 201 765.33 200 765 199C756.83 197.99 752.14 198.41 745 198ZM1812 204V203H1808C1809.33 203.33 1810.67 203.67 1812 204ZM1479 221V225H1482C1482.67 224 1483.33 223 1484 222C1480.2 221.92 1482.28 222.27 1479 221ZM1431 225H1432C1431.67 224 1431.33 223 1431 222V225ZM1753 226C1754.8 224.68 1753.58 224.93 1754 224C1753.67 224.67 1753.33 225.33 1753 226ZM1488 230H1491C1490 229 1489 228 1488 227V230ZM1492 231C1495.53 229.18 1493.22 231.58 1495 228H1493C1492.67 229 1492.33 230 1492 231ZM1501 234C1502.33 233.67 1503.67 233.33 1505 233C1503.33 232.67 1501.67 232.33 1500 232C1500.33 232.67 1500.67 233.33 1501 234ZM112 242L114 240H111C111.33 240.67 111.67 241.33 112 242ZM702 245C700.67 245.67 699.33 246.33 698 247C701.02 249.99 702.72 250.93 704 256H708C706.57 251.27 706.78 246.97 702 245ZM692 248C691 248.67 690 249.33 689 250C690.33 251.67 691.67 253.33 693 255C695.98 253.71 694.2 255.04 696 253C695.06 252.19 694.95 250.53 692 248ZM1050 252C1050.67 252.67 1051.33 253.33 1052 254C1051.67 252.33 1051.33 250.67 1051 249C1050.67 250 1050.33 251 1050 252ZM241 256C240 256.67 239 257.33 238 258C238.67 258.33 239.33 258.67 240 259C239.33 259.33 238.67 259.67 238 260C241.55 259.23 240.88 259.3 243 258C242.33 257.33 241.67 256.67 241 256ZM683 260C683.67 259 684.33 258 685 257V256H681C680.67 256.67 680.33 257.33 680 258C681 258.67 682 259.33 683 260ZM672 261H675C673.18 257.47 675.58 259.78 672 258V261ZM498 259C497.67 259.67 497.33 260.33 497 261C497.67 261.67 498.33 262.33 499 263C498.72 259.14 499.85 261.79 498 259ZM238 265H239C238.33 263.67 237.67 262.33 237 261C237.33 262.33 237.67 263.67 238 265ZM715 263H716C714.2 260.98 716.02 262.26 713 261C713.67 261.67 714.33 262.33 715 263ZM732 265C731.67 266.33 731.33 267.67 731 269H734C733.04 265.37 734.07 266.96 732 265ZM173 267C171.33 266.67 169.67 266.33 168 266C168.67 266.67 169.33 267.33 170 268C171 267.67 172 267.33 173 267ZM1289 282H1287C1287.33 283 1287.67 284 1288 285C1288.33 284 1288.67 283 1289 282ZM1314 295C1312.67 293 1311.33 291 1310 289C1308.44 292.73 1307.92 291.61 1310 295H1314ZM706 293V292H702C703.33 292.33 704.67 292.67 706 293ZM1265 292H1262C1262.33 292.67 1262.67 293.33 1263 294C1263.67 293.33 1264.33 292.67 1265 292ZM1046 303V316C1047 316.33 1048 316.67 1049 317H1050C1050.36 311.75 1051.1 305.89 1046 303ZM624 312C624.09 311.97 624.17 311.94 624.26 311.91C624.17 311.9 624.09 311.88 624 311.87V312ZM1328 309C1328.67 308.33 1329.33 307.67 1330 307H1328V309ZM197 316V319C197.87 316.53 199.65 317.41 197 316ZM634 316H632V318L634 316ZM1305 329H1303C1304.78 329.91 1303.25 329.98 1305 329ZM1330 331C1330.33 332 1330.67 333 1331 334C1331.74 330.93 1332.74 332.58 1330 331ZM1325 339C1327.67 338.67 1330.33 338.33 1333 338C1333.33 337.33 1333.67 336.67 1334 336C1330.33 334.67 1326.67 333.33 1323 332C1324.62 336.17 1324.69 335 1325 339ZM1270 339C1270.67 338 1271.33 337 1272 336H1268C1268.67 337 1269.33 338 1270 339ZM694 349C695.33 349.33 696.67 349.67 698 350V347H695C694.67 347.67 694.33 348.33 694 349ZM472 353C472.67 353.67 473.33 354.33 474 355C473.67 353.67 473.33 352.33 473 351C472.67 351.67 472.33 352.33 472 353ZM1531 363C1531.33 363.33 1531.67 363.67 1532 364H1533C1533.33 361.33 1533.67 358.67 1534 356H1531V363ZM1540 362C1542.98 360.71 1541.2 362.04 1543 360H1541C1540.67 360.67 1540.33 361.33 1540 362ZM1701 366C1701.67 365.33 1702.33 364.67 1703 364H1701V366ZM1505 369V371C1505.67 370.33 1506.33 369.67 1507 369H1505ZM1671 370H1669C1670.78 370.91 1669.25 370.98 1671 370ZM1632 382V373H1629C1629.1 379.74 1628.42 381.54 1626 385C1628 384 1630 383 1632 382ZM1513 378H1516C1514.67 376.67 1513.33 375.33 1512 374C1512.33 375.33 1512.67 376.67 1513 378ZM1507 377C1508 376.33 1509 375.67 1510 375H1508C1507.67 375.67 1507.33 376.33 1507 377ZM667 379H670C669 378.33 668 377.67 667 377V379ZM1492 380V381C1494.74 379.8 1497.61 380.3 1495 377C1494 378 1493 379 1492 380ZM1806 380C1806.67 379.33 1807.33 378.67 1808 378H1805C1805.33 378.67 1805.67 379.33 1806 380ZM1812 381V384C1812.87 381.53 1814.65 382.41 1812 381ZM1037 389H1041C1041.33 388 1041.67 387 1042 386C1041 385.67 1040 385.33 1039 385C1038.33 386.33 1037.67 387.67 1037 389ZM1812 388C1812.33 388.33 1812.67 388.67 1813 389H1814C1813.67 388 1813.33 387 1813 386C1812.67 386.67 1812.33 387.33 1812 388ZM1614 389C1613.33 390 1612.67 391 1612 392C1613.33 392.33 1614.67 392.67 1616 393C1616.67 392 1617.33 391 1618 390C1616.67 389.67 1615.33 389.33 1614 389ZM816 395C819.33 393.63 820 395 818 392C817.33 393 816.67 394 816 395ZM1033 392C1032.33 393 1031.67 394 1031 395C1031.67 395.67 1032.33 396.33 1033 397H1039C1037.31 393.03 1037.13 393.35 1033 392ZM1021 396C1020.67 397.67 1020.33 399.33 1020 401H1024C1022.92 397.89 1023.2 397.81 1021 396ZM825 400C826.67 399.33 828.33 398.67 830 398C828.33 397.67 826.67 397.33 825 397V400ZM1028 401C1028.33 402 1028.67 403 1029 404C1029.67 404.33 1030.33 404.67 1031 405H1034C1032.33 403 1030.67 401 1029 399C1028.67 399.67 1028.33 400.33 1028 401ZM1015 403C1014 402 1013 401 1012 400V404C1012.67 404.33 1013.33 404.67 1014 405C1014.33 404.33 1014.67 403.67 1015 403ZM1752 404H1753C1754 403 1755 402 1756 401H1753C1752.67 402 1752.33 403 1752 404ZM463 403H461C462.78 403.91 461.25 403.98 463 403ZM1733 408C1733.33 407.67 1733.67 407.33 1734 407C1733.33 406.33 1732.67 405.67 1732 405C1732.33 406 1732.67 407 1733 408ZM1013 406C1014 409 1015 412 1016 415H1021C1021.33 414.33 1021.67 413.67 1022 413C1021.33 410.67 1020.67 408.33 1020 406C1015.6 407.33 1016.6 407.16 1013 406ZM1621 408C1620.33 408.33 1619.67 408.67 1619 409C1621.16 409.56 1620.29 408.94 1621 408ZM1712 413C1714 414.33 1716 415.67 1718 417H1723V416C1720.33 414 1717.67 412 1715 410C1714 411 1713 412 1712 413ZM1029 417C1031 416.33 1033 415.67 1035 415C1033 414.67 1031 414.33 1029 414V417ZM1037 419H1040C1039 418.33 1038 417.67 1037 417V419ZM1229 537C1230.8 535.68 1229.58 535.93 1230 535C1229.67 535.67 1229.33 536.33 1229 537ZM1226 546C1226.33 546.67 1226.67 547.33 1227 548C1228.33 547.33 1229.67 546.67 1231 546V545H1228L1226 546ZM1225 554L1227 555C1228.33 554.67 1229.67 554.33 1231 554V553C1229.67 552.33 1228.33 551.67 1227 551C1226.33 552 1225.67 553 1225 554Z" fill="#F9C414"/>
</svg>
