<?xml version="1.0" encoding="UTF-8"?>
<svg id="Layer_1" data-name="Layer 1" xmlns="http://www.w3.org/2000/svg" viewBox="0 0 5.98 10.64">
  <path d="m5.52,7.16v.03l-.05.09v.03h-.05s.03.03.03.03c0,.02,0,.03-.02.03l-.06.09.02.02-.03.06s-.03.03-.06.08c0,.03-.03.03-.06.03-.02.03-.02.06-.03.12v.06s-.03.02-.06.02c-.05.03-.08.05-.08.06.02.03.02.05.02.06h.02s.03-.02.05-.02v.02s-.02.03-.02.03v.03s-.05.04-.09.09c0,.02,0,.03-.02.05,0,.02-.02.02-.02.03,0,0,.02.01.02.03-.02,0-.03.03-.08.1h-.05c-.05.12-.08.19-.08.21,0,.03-.03.09-.11.13l.02.03h-.03s-.03.01-.03.01c0,0-.02,0-.02.02v.02l.02.03s-.05.03-.09.09v.03h.05v.02s-.03.03-.06.03c-.02.03-.03.03-.03.05h0s.02.05.02.05h0c-.02.09-.06.12-.11.12t-.02.01v.03s.03.01.03.01v.02c-.66.87-1.52,1.47-2.49,1.42-1.73-.08-2.52-2.14-1.58-3.64-.48.87.17,2.38,1.18,2.32.18-.01.4-.09.6-.19,0,.02.02.02.03.02l.03-.02s.03-.05.03-.06c.08-.02.12-.06.14-.13.02-.01.03-.03.06-.05l.03.12s.02.02.03.02l.05-.03s.06-.06.05-.12c.08-.06.09-.12.09-.18.08-.03.11-.07.09-.13l.06-.02s.05-.03.03-.06c.06-.02.14-.13.21-.31l-.02-.02h-.03c.15-.22.28-.46.4-.73.55-1.17.78-2.5.35-2.68l.03-.03h-.03s-.05-.01-.05-.01c0-.03.28-.21.29-.22l-.29.12s-.05,0-.09.05c-.02.02-.03.02-.06.02l-.11.06h-.03l-.09.09-.02.03c-.08.03-.17.06-.25.1h-.05l-.03.05s-.05.01-.06.03l-.02-.02h0s-.02,0-.02,0l-.02.03c-.06.03-.12.07-.18.1-.03,0-.05.02-.06.02l-.02.03s-.03.02-.05.03h-.02c-.2.12-.4.24-.55.36-.02.02-.03,0-.05-.02l-.05.06-.02.03-.06.03-.05.06c-.06.03-.12.06-.17.07,0,0-.03.02-.08.03l-.08.09v.03s-.08-.02-.08,0h-.02v.06c-.06.02-.14.02-.2,0-.74-.21-.94-.07-.94-1.03C.31,4.35.78.91,1.18.49,1.44.14,2.38.14,2.84,0c2.45-.08,1.86.48,2.39.75.14.07.26.07.34.15.06.06.2.13.2.21,0,.13.26.27.2.27-.48-.21-2.87-.48-3.47.13-.12.13-1,2.9-.4,2.56.81-.46,1.66-.97,2.59-.97.34,0,.34.34.8.69.57.49.52,1.94.03,3.37Z"/>
</svg>