<?xml version="1.0" encoding="UTF-8"?>
		<svg xmlns="http://www.w3.org/2000/svg" viewBox="0 0 1000 2000">
    <g id="Grit-Parts">
    <path transform="scale(0.7739577740499936 1.6304822463438422) rotate(96.48663998149864 858.7498581321349 247.9003921771623) translate(858.7498581321349,247.9003921771623)" d="M2.391,3.48892289 C3.913,2.62492289 5,1.54592289 5,0.89792289 C5,-0.82807711 3.043,0.03492289 1.522,2.62492289 L0,4.99992289 L2.391,3.48892289 Z" fill="rgba(255,255,255,0.9873618948082361)"></path><path transform="scale(0.5982279800198242 0.6617303792473516) rotate(187.16577053651923 388.95711526216115 1740.016760223163) translate(388.95711526216115,1740.016760223163)" d="M3,9 L5,7.085 L7,5.17 L6,2.489 L5,0 L4.8,3.447 L4.6,6.894 L2.2,5.553 L0,4.213 L1.6,6.511 Z" fill="rgba(255,255,255,0.721040128398446)"></path><path transform="scale(1.0912021006772594 0.7841856998338101) rotate(92.10967907867871 410.13396563256333 1593.3134812849764) translate(410.13396563256333,1593.3134812849764)" d="M2.857,4 C4.381,4 6.286,3 6.857,2 L8,0 L5.143,0 C3.619,0 1.714,0.8 1.143,2 L0,4 L2.857,4 Z" fill="rgba(255,255,255,0.7042411470639591)"></path><path transform="scale(1.0909704260172273 0.8181458811764067) rotate(260.7196392767495 651.37065053908 1840.5599530028853) translate(651.37065053908,1840.5599530028853)" d="M3.238,4 C3.619,4 4,3 4,2 L4,0 L1.905,0 L0,0 L1.143,2 C1.714,3 2.667,4 3.238,4 Z" fill="rgba(255,255,255,0.5954410329144111)"></path><path transform="scale(1.2897756935305544 0.6299879197741913) rotate(182.19855601303203 969.1978848766545 1391.669978945468) translate(969.1978848766545,1391.669978945468)" d="M0,5 L1.615,3.846 L3,2.5 L1.615,1.154 L0,0 L0,2.5 Z" fill="rgba(255,255,255,0.22727534388595827)"></path><path transform="scale(0.5803272911139888 1.4698079590990845) rotate(295.5679525970164 324.3017299166906 1217.7512524238914) translate(324.3017299166906,1217.7512524238914)" d="M10,5.949 L10,3.077 L10,0 L8.2,0 C7.4,0 6.6,1.026 6.6,2.256 L6.6,4.513 L3.4,3.282 L0,2.051 L2.4,4.923 L4.8,8 L7.4,6.974 L10,5.949 Z" fill="rgba(255,255,255,0.13333845351286722)"></path><path transform="scale(0.8557926220810617 1.9099949885078864) rotate(95.60768632505388 1.6283797263549893 1394.299403010246) translate(1.6283797263549893,1394.299403010246)" d="M2.857,4 C4.381,4 6.286,3 6.857,2 L8,0 L5.143,0 C3.619,0 1.714,0.8 1.143,2 L0,4 L2.857,4 Z" fill="rgba(255,255,255,0.4987281632089269)"></path><path transform="scale(0.8071197307256481 0.5366782222251918) rotate(119.15275385931307 496.73213977959006 612.5357885717153) translate(496.73213977959006,612.5357885717153)" d="M3.238,4 C3.619,4 4,3 4,2 L4,0 L1.905,0 L0,0 L1.143,2 C1.714,3 2.667,4 3.238,4 Z" fill="rgba(255,255,255,0.6758500527586)"></path><path transform="scale(1.7166439235681925 1.1660123824978663) rotate(359.3906560232928 707.2410329607721 1102.749725046447) translate(707.2410329607721,1102.749725046447)" d="M3.238,4 C3.619,4 4,3 4,2 L4,0 L1.905,0 L0,0 L1.143,2 C1.714,3 2.667,4 3.238,4 Z" fill="rgba(255,255,255,0.06586440225464196)"></path><path transform="scale(1.6982166199458748 1.349352119292878) rotate(270.17185928762257 775.4923849214588 116.47006189288112) translate(775.4923849214588,116.47006189288112)" d="M3.238,4 C3.619,4 4,3 4,2 L4,0 L1.905,0 L0,0 L1.143,2 C1.714,3 2.667,4 3.238,4 Z" fill="rgba(255,255,255,0.2587533457344109)"></path><path transform="scale(1.0440567346395562 1.7276904284688248) rotate(4.731912576651824 400.88543501601737 1895.8351222952201) translate(400.88543501601737,1895.8351222952201)" d="M0,5 L1.615,3.846 L3,2.5 L1.615,1.154 L0,0 L0,2.5 Z" fill="rgba(255,255,255,0.24129286716080456)"></path><path transform="scale(1.764606281156956 0.5833219480402371) rotate(22.271082553078394 985.2542551228698 1520.5523999096501) translate(985.2542551228698,1520.5523999096501)" d="M4,6 L2.8,3.077 C1.4,-0.429 0,-1.014 0,1.713 C0,2.882 0.8,4.246 2,4.831 L4,6 Z" fill="rgba(255,255,255,0.29426036809905276)"></path><path transform="scale(0.8391076853487867 1.334005706916956) rotate(335.0739677305881 844.6462412021791 509.07154593394256) translate(844.6462412021791,509.07154593394256)" d="M2.5,3 L3.846,1.615 L5,0 L2.5,0 L0,0 L1.154,1.615 Z" fill="rgba(255,255,255,0.9835852989155955)"></path><path transform="scale(1.8297083121465052 1.9074595795360336) rotate(308.52217718475185 436.54227271861924 807.6019268826524) translate(436.54227271861924,807.6019268826524)" d="M4,6 L2.8,3.077 C1.4,-0.429 0,-1.014 0,1.713 C0,2.882 0.8,4.246 2,4.831 L4,6 Z" fill="rgba(255,255,255,0.6538914296873397)"></path><path transform="scale(1.7354666265474177 0.8926253410807072) rotate(174.4216888459297 409.8033101153786 1226.2266459626132) translate(409.8033101153786,1226.2266459626132)" d="M3,9 L5,7.085 L7,5.17 L6,2.489 L5,0 L4.8,3.447 L4.6,6.894 L2.2,5.553 L0,4.213 L1.6,6.511 Z" fill="rgba(255,255,255,0.28009641060271595)"></path><path transform="scale(0.8796612020574252 0.775512188976579) rotate(137.00153119327535 679.8883898432604 1453.4304921516243) translate(679.8883898432604,1453.4304921516243)" d="M4,6 L2.8,3.077 C1.4,-0.429 0,-1.014 0,1.713 C0,2.882 0.8,4.246 2,4.831 L4,6 Z" fill="rgba(255,255,255,0.7825181601277169)"></path><path transform="scale(1.0912482056353223 1.8996645195977535) rotate(305.1446767643847 139.47896472343336 1695.6673142710356) translate(139.47896472343336,1695.6673142710356)" d="M1,2 C1.6,2 2,1.6 2,1 C2,0.4 1.6,0 1,0 C0.4,0 0,0.4 0,1 C0,1.6 0.4,2 1,2 Z" fill="rgba(255,255,255,0.367577022604326)"></path><path transform="scale(1.1237529334109522 0.8505637716481675) rotate(202.8366175018886 704.5110323436778 1792.3653267175407) translate(704.5110323436778,1792.3653267175407)" d="M2.391,3.48892289 C3.913,2.62492289 5,1.54592289 5,0.89792289 C5,-0.82807711 3.043,0.03492289 1.522,2.62492289 L0,4.99992289 L2.391,3.48892289 Z" fill="rgba(255,255,255,0.24863622086758874)"></path><path transform="scale(1.223950652618015 1.889893116719032) rotate(284.0992939972978 238.90893512210874 461.1795484391106) translate(238.90893512210874,461.1795484391106)" d="M10,5.949 L10,3.077 L10,0 L8.2,0 C7.4,0 6.6,1.026 6.6,2.256 L6.6,4.513 L3.4,3.282 L0,2.051 L2.4,4.923 L4.8,8 L7.4,6.974 L10,5.949 Z" fill="rgba(255,255,255,0.03521612266976604)"></path><path transform="scale(1.113860907527837 1.685558721974867) rotate(275.56884014056425 134.74832099065748 577.2372210623846) translate(134.74832099065748,577.2372210623846)" d="M10,5.949 L10,3.077 L10,0 L8.2,0 C7.4,0 6.6,1.026 6.6,2.256 L6.6,4.513 L3.4,3.282 L0,2.051 L2.4,4.923 L4.8,8 L7.4,6.974 L10,5.949 Z" fill="rgba(255,255,255,0.28055840473829496)"></path><path transform="scale(1.4889458073870494 0.9481401303971979) rotate(122.91421090661166 764.0462490108548 1295.9134892229304) translate(764.0462490108548,1295.9134892229304)" d="M2.5,3 L3.846,1.615 L5,0 L2.5,0 L0,0 L1.154,1.615 Z" fill="rgba(255,255,255,0.48143227836587243)"></path><path transform="scale(1.6847753364399716 1.3760334638491303) rotate(162.80601769839984 295.63530796794237 817.0379027917365) translate(295.63530796794237,817.0379027917365)" d="M2.5,3 L3.846,1.615 L5,0 L2.5,0 L0,0 L1.154,1.615 Z" fill="rgba(255,255,255,0.6532019813186121)"></path><path transform="scale(1.9405486758444521 1.1124031488429105) rotate(138.29396708538297 401.51611376012306 1497.2554429825236) translate(401.51611376012306,1497.2554429825236)" d="M10,5.949 L10,3.077 L10,0 L8.2,0 C7.4,0 6.6,1.026 6.6,2.256 L6.6,4.513 L3.4,3.282 L0,2.051 L2.4,4.923 L4.8,8 L7.4,6.974 L10,5.949 Z" fill="rgba(255,255,255,0.6199560231336134)"></path><path transform="scale(0.9635746199050039 0.951993943938408) rotate(131.2986962941128 217.28794084517665 668.0357424456221) translate(217.28794084517665,668.0357424456221)" d="M4,6 L2.8,3.077 C1.4,-0.429 0,-1.014 0,1.713 C0,2.882 0.8,4.246 2,4.831 L4,6 Z" fill="rgba(255,255,255,0.06004333433226994)"></path><path transform="scale(0.869800743269797 1.5447807173591852) rotate(299.1607769096225 335.6226636445041 1600.3328770247326) translate(335.6226636445041,1600.3328770247326)" d="M3.238,4 C3.619,4 4,3 4,2 L4,0 L1.905,0 L0,0 L1.143,2 C1.714,3 2.667,4 3.238,4 Z" fill="rgba(255,255,255,0.1849389329699358)"></path><path transform="scale(0.5053822589825356 1.1624844244721062) rotate(203.65755041070994 854.3612027532259 220.90099161600608) translate(854.3612027532259,220.90099161600608)" d="M3.238,4 C3.619,4 4,3 4,2 L4,0 L1.905,0 L0,0 L1.143,2 C1.714,3 2.667,4 3.238,4 Z" fill="rgba(255,255,255,0.3268873144966806)"></path><path transform="scale(1.8069117013203473 1.5996692068141642) rotate(357.0154351641063 639.4394310161431 1088.0006508643403) translate(639.4394310161431,1088.0006508643403)" d="M2.857,4 C4.381,4 6.286,3 6.857,2 L8,0 L5.143,0 C3.619,0 1.714,0.8 1.143,2 L0,4 L2.857,4 Z" fill="rgba(255,255,255,0.007125957560760066)"></path><path transform="scale(1.1357382012041555 1.3872403878660677) rotate(287.0508763346426 762.0429860605847 215.50365661006188) translate(762.0429860605847,215.50365661006188)" d="M2.5,3 L3.846,1.615 L5,0 L2.5,0 L0,0 L1.154,1.615 Z" fill="rgba(255,255,255,0.612890817325352)"></path><path transform="scale(1.0329533140761056 0.9187002504754269) rotate(129.03555140521638 188.46871524964382 1234.683322557799) translate(188.46871524964382,1234.683322557799)" d="M3.238,4 C3.619,4 4,3 4,2 L4,0 L1.905,0 L0,0 L1.143,2 C1.714,3 2.667,4 3.238,4 Z" fill="rgba(255,255,255,0.9271551307619343)"></path><path transform="scale(1.857674148604658 1.8021033564324405) rotate(214.44632860890584 223.53310161894458 1943.5916362728083) translate(223.53310161894458,1943.5916362728083)" d="M3.238,4 C3.619,4 4,3 4,2 L4,0 L1.905,0 L0,0 L1.143,2 C1.714,3 2.667,4 3.238,4 Z" fill="rgba(255,255,255,0.8267275624389068)"></path><path transform="scale(0.5481306404165937 1.2441915812501656) rotate(50.35735124433802 516.0253559386381 1007.677278735804) translate(516.0253559386381,1007.677278735804)" d="M3.238,4 C3.619,4 4,3 4,2 L4,0 L1.905,0 L0,0 L1.143,2 C1.714,3 2.667,4 3.238,4 Z" fill="rgba(255,255,255,0.06059038425426899)"></path><path transform="scale(1.0565354175780224 1.0345385255643635) rotate(121.65604727961505 228.12162467746643 1559.9715581985713) translate(228.12162467746643,1559.9715581985713)" d="M2.5,3 L3.846,1.615 L5,0 L2.5,0 L0,0 L1.154,1.615 Z" fill="rgba(255,255,255,0.027595741830761966)"></path><path transform="scale(0.5567137051626029 0.8141477342715072) rotate(158.1413826048736 271.65136456838667 584.9309044618765) translate(271.65136456838667,584.9309044618765)" d="M1,2 C1.6,2 2,1.6 2,1 C2,0.4 1.6,0 1,0 C0.4,0 0,0.4 0,1 C0,1.6 0.4,2 1,2 Z" fill="rgba(255,255,255,0.42138184254760325)"></path><path transform="scale(0.6012901188450229 1.5857046566106323) rotate(204.1992426466783 362.3556144756943 336.65850390121886) translate(362.3556144756943,336.65850390121886)" d="M3,9 L5,7.085 L7,5.17 L6,2.489 L5,0 L4.8,3.447 L4.6,6.894 L2.2,5.553 L0,4.213 L1.6,6.511 Z" fill="rgba(255,255,255,0.23174560913919584)"></path><path transform="scale(1.4884349442318678 0.6341329382819095) rotate(237.076682091862 55.12422938560846 970.6042496979) translate(55.12422938560846,970.6042496979)" d="M3,9 L5,7.085 L7,5.17 L6,2.489 L5,0 L4.8,3.447 L4.6,6.894 L2.2,5.553 L0,4.213 L1.6,6.511 Z" fill="rgba(255,255,255,0.37369111243580666)"></path><path transform="scale(0.7371925787028241 0.9737072314846712) rotate(322.4482848712886 512.1375819847791 1263.0375596711874) translate(512.1375819847791,1263.0375596711874)" d="M4,6 L2.8,3.077 C1.4,-0.429 0,-1.014 0,1.713 C0,2.882 0.8,4.246 2,4.831 L4,6 Z" fill="rgba(255,255,255,0.942983119579766)"></path><path transform="scale(1.0466395807631543 1.455128776153456) rotate(240.39336194423288 981.8963574750106 1478.9206306144313) translate(981.8963574750106,1478.9206306144313)" d="M3.238,4 C3.619,4 4,3 4,2 L4,0 L1.905,0 L0,0 L1.143,2 C1.714,3 2.667,4 3.238,4 Z" fill="rgba(255,255,255,0.45735658086807174)"></path><path transform="scale(1.0210845681643241 1.8446355322502637) rotate(104.62644918998726 90.90598628902158 637.3954301482482) translate(90.90598628902158,637.3954301482482)" d="M1,2 C1.6,2 2,1.6 2,1 C2,0.4 1.6,0 1,0 C0.4,0 0,0.4 0,1 C0,1.6 0.4,2 1,2 Z" fill="rgba(255,255,255,0.17546026911969226)"></path><path transform="scale(0.550899871647155 1.9197866922641178) rotate(311.4126271780705 935.4834332255729 635.9435496555305) translate(935.4834332255729,635.9435496555305)" d="M2.857,4 C4.381,4 6.286,3 6.857,2 L8,0 L5.143,0 C3.619,0 1.714,0.8 1.143,2 L0,4 L2.857,4 Z" fill="rgba(255,255,255,0.2278639983028925)"></path><path transform="scale(1.0673340492398573 1.0864049827649587) rotate(248.77174059218774 781.3665676656543 739.31996239333) translate(781.3665676656543,739.31996239333)" d="M3,9 L5,7.085 L7,5.17 L6,2.489 L5,0 L4.8,3.447 L4.6,6.894 L2.2,5.553 L0,4.213 L1.6,6.511 Z" fill="rgba(255,255,255,0.3563964770929271)"></path><path transform="scale(1.7377823366575795 0.8743003393361076) rotate(243.56295688739965 514.2739291833016 1703.864338356397) translate(514.2739291833016,1703.864338356397)" d="M1,2 C1.6,2 2,1.6 2,1 C2,0.4 1.6,0 1,0 C0.4,0 0,0.4 0,1 C0,1.6 0.4,2 1,2 Z" fill="rgba(255,255,255,0.43783937238528314)"></path><path transform="scale(1.648784306965795 0.8754249248226981) rotate(67.91004343088245 399.1941323753365 1734.8563151040967) translate(399.1941323753365,1734.8563151040967)" d="M4,6 L2.8,3.077 C1.4,-0.429 0,-1.014 0,1.713 C0,2.882 0.8,4.246 2,4.831 L4,6 Z" fill="rgba(255,255,255,0.11580306898646353)"></path><path transform="scale(1.385682837363325 1.8733074901180298) rotate(115.20526203882613 656.0530786824341 722.8169206765056) translate(656.0530786824341,722.8169206765056)" d="M4,6 L2.8,3.077 C1.4,-0.429 0,-1.014 0,1.713 C0,2.882 0.8,4.246 2,4.831 L4,6 Z" fill="rgba(255,255,255,0.24309682371273422)"></path><path transform="scale(1.1945297939093358 1.112503770809231) rotate(315.6311557071705 179.34495666128657 537.2510767436962) translate(179.34495666128657,537.2510767436962)" d="M0,5 L1.615,3.846 L3,2.5 L1.615,1.154 L0,0 L0,2.5 Z" fill="rgba(255,255,255,0.19151529246955068)"></path><path transform="scale(1.3710711265569075 0.5525121784139698) rotate(267.1858319384737 727.8689056630026 1989.4355442054325) translate(727.8689056630026,1989.4355442054325)" d="M10,5.949 L10,3.077 L10,0 L8.2,0 C7.4,0 6.6,1.026 6.6,2.256 L6.6,4.513 L3.4,3.282 L0,2.051 L2.4,4.923 L4.8,8 L7.4,6.974 L10,5.949 Z" fill="rgba(255,255,255,0.4085463446766484)"></path><path transform="scale(1.8946008855384386 0.6853967661675261) rotate(191.01690370667828 674.116874014722 348.11732968927123) translate(674.116874014722,348.11732968927123)" d="M2.5,3 L3.846,1.615 L5,0 L2.5,0 L0,0 L1.154,1.615 Z" fill="rgba(255,255,255,0.8842800756329816)"></path><path transform="scale(0.6581165511936532 1.5019022665019757) rotate(290.8592389055481 901.4059955873421 282.3093240152006) translate(901.4059955873421,282.3093240152006)" d="M3.238,4 C3.619,4 4,3 4,2 L4,0 L1.905,0 L0,0 L1.143,2 C1.714,3 2.667,4 3.238,4 Z" fill="rgba(255,255,255,0.7382335363572654)"></path><path transform="scale(1.9050565220829712 1.2937955931786107) rotate(171.1669950442896 642.4052515546712 1732.75369895656) translate(642.4052515546712,1732.75369895656)" d="M2.391,3.48892289 C3.913,2.62492289 5,1.54592289 5,0.89792289 C5,-0.82807711 3.043,0.03492289 1.522,2.62492289 L0,4.99992289 L2.391,3.48892289 Z" fill="rgba(255,255,255,0.5292009922101724)"></path><path transform="scale(0.6092568335583511 0.9813757502402101) rotate(55.464494964910145 490.51483414366027 129.81055161086897) translate(490.51483414366027,129.81055161086897)" d="M4,6 L2.8,3.077 C1.4,-0.429 0,-1.014 0,1.713 C0,2.882 0.8,4.246 2,4.831 L4,6 Z" fill="rgba(255,255,255,0.5459125273136494)"></path><path transform="scale(1.8462849685163139 0.605905103861621) rotate(113.57479989029991 415.5868872590531 1400.9593305594442) translate(415.5868872590531,1400.9593305594442)" d="M3.238,4 C3.619,4 4,3 4,2 L4,0 L1.905,0 L0,0 L1.143,2 C1.714,3 2.667,4 3.238,4 Z" fill="rgba(255,255,255,0.3126005829924863)"></path>
</g>
		</svg>
	