<svg width="902" height="109" viewBox="0 0 902 109" fill="none" xmlns="http://www.w3.org/2000/svg">
<g clip-path="url(#clip0_52_590)">
<path fill-rule="evenodd" clip-rule="evenodd" d="M579.355 63.6067L579.259 62.5422C578.973 59.3938 578.688 56.2431 578.399 53.0952C578.36 52.9354 578.322 52.7751 578.284 52.6146L578.254 52.4911L578.224 52.3675C578.186 52.2071 578.148 52.0467 578.109 51.8869C578.65 51.6056 578.683 51.0589 578.514 50.638C577.991 49.3156 578.292 48.0526 578.595 46.7837C578.63 46.6389 578.664 46.4941 578.697 46.3492C578.931 46.3392 579.077 46.252 579.007 45.9842C578.964 45.5639 578.923 45.1445 578.881 44.7251C578.84 44.3057 578.799 43.8863 578.756 43.4659C578.89 40.6094 578.884 37.7717 578.676 34.9049C578.531 32.9216 578.556 30.8624 579.066 28.8592C579.494 27.175 577.972 23.7969 576.529 22.887C576.459 22.8672 576.386 22.8525 576.313 22.8378C576.157 22.8065 576 22.7751 575.874 22.6943C573.781 21.3506 571.496 22.5094 571.257 25.0543C570.322 26.834 570.605 28.6553 570.888 30.4794C570.938 30.7965 570.987 31.1137 571.03 31.4308C571.153 33.527 571.128 35.6269 571.102 37.7265C571.065 40.805 571.028 43.883 571.459 46.9484C571.253 48.8313 571.199 50.7208 571.31 52.6098C571.112 54.7053 570.928 56.7976 571.11 58.9004C571.522 59.7557 571.581 60.6748 571.64 61.5884C571.654 61.8046 571.668 62.0205 571.687 62.2352C571.916 64.9079 571.891 64.911 569.228 64.7554C568.745 64.7499 568.535 64.3859 568.332 64.0354C568.145 63.7105 567.964 63.3971 567.578 63.3914C566.014 63.3689 565.202 62.3361 564.409 61.3266C564.068 60.8925 563.731 60.4628 563.338 60.1195C560.695 57.8038 558.329 55.1477 555.991 52.4849C553.569 49.7233 551.26 46.8954 548.973 44.0284C548.445 43.3664 548.01 42.6347 547.575 41.9038C546.807 40.6118 546.04 39.3221 544.764 38.4237C544.75 38.3694 544.742 38.3104 544.734 38.2513C544.716 38.1213 544.698 37.9914 544.623 37.9132C544.123 37.3964 543.703 36.8039 543.283 36.211C542.439 35.0195 541.593 33.8265 540.1 33.2424C539.575 33.0379 538.972 32.6266 538.74 32.1468C538.31 31.256 537.632 31.1656 536.887 31.0661C536.719 31.0438 536.549 31.021 536.377 30.9887C535.604 30.8431 534.877 31.0494 534.155 31.2544C533.347 31.4839 532.544 31.7118 531.688 31.4424C531.572 31.3932 531.455 31.3431 531.339 31.293C531.223 31.2432 531.108 31.1935 530.992 31.1446C530.497 30.7354 529.979 30.7218 529.346 30.8861C528.131 31.1986 526.888 31.2735 525.64 31.3487C524.159 31.4379 522.672 31.5275 521.219 32.0156C520.563 32.2361 519.843 32.1898 519.099 32.1421C518.406 32.0976 517.693 32.0518 516.992 32.2189C515.137 32.662 513.245 32.9567 511.353 33.2514L511.353 33.2515C510.569 33.3736 509.785 33.4957 509.004 33.6284C508.169 33.7411 507.338 33.8539 506.507 33.9667L506.498 33.9679L506.49 33.969L506.489 33.9684C506.13 33.7565 505.771 33.5445 505.416 33.3326C505.424 33.2536 505.389 33.2061 505.31 33.1938C505.028 31.233 503.67 30.1843 502.06 29.3468C500.926 28.6732 499.796 28.882 498.758 29.5066C496.869 30.6479 496.199 30.3325 495.98 28.0777C495.955 27.8306 495.961 27.5825 495.966 27.3337L495.966 27.333C495.969 27.2223 495.972 27.1116 495.972 27.0009C496.427 25.736 496.395 24.4358 496.362 23.1399C496.343 22.3364 496.323 21.5345 496.419 20.7438C496.603 19.2365 495.812 18.4787 494.935 17.6394L494.882 17.5887C492.067 15.4821 490.599 15.8248 489.563 18.8333C490.024 20.3329 490.059 21.8784 490.022 23.4297C489.455 23.8834 489.467 24.3877 489.889 24.9323C490.247 25.3767 490.172 25.881 490.101 26.357C490.052 26.6842 490.005 26.9981 490.103 27.2699C491.151 30.196 491.142 33.0946 489.069 35.3774C486.983 37.6763 487.489 39.992 488.016 42.4087C488.067 42.6449 488.119 42.882 488.169 43.1201C487.988 43.7288 488.217 44.1581 488.785 44.3923C490.387 45.0532 490.251 46.3145 489.831 47.5956C489.678 48.0608 489.62 48.4918 489.647 48.9568C489.84 49.0387 490.053 49.1061 490.238 49.0989C490.053 49.1071 489.839 49.0406 489.643 48.9604C489.516 49.8726 489.388 50.7847 489.259 51.6969C489.131 52.6091 489.003 53.5213 488.876 54.4335C488.806 54.6357 488.747 54.8543 488.688 55.0757L488.687 55.0767C488.46 55.9205 488.221 56.8053 487.338 56.9822C486.125 57.2273 485.149 57.8123 484.162 58.4043C484.076 58.4557 483.99 58.5071 483.904 58.5583C483.568 58.7601 483.374 58.6696 483.16 58.5692C483.127 58.554 483.094 58.5387 483.06 58.524C483.039 58.5149 483.018 58.506 482.995 58.4977C482.958 58.3025 482.919 58.1064 482.881 57.9103C482.842 57.7142 482.804 57.5181 482.766 57.323C482.748 57.2394 482.729 57.1559 482.709 57.0723C482.69 56.9895 482.671 56.9067 482.653 56.8239C482.511 56.7809 482.325 56.8359 482.147 56.8887C481.863 56.973 481.597 57.0515 481.562 56.7165C481.362 54.7217 479.975 53.9636 478.593 53.2083C478.035 52.9035 477.478 52.5991 477 52.2141C476.886 52.1222 476.759 52.0468 476.633 51.972C476.315 51.7828 476.004 51.5977 475.92 51.1599C475.577 50.6384 475.235 50.1169 474.892 49.599C474.782 48.9625 474.772 48.315 474.761 47.6675L474.761 47.6669C474.746 46.6789 474.73 45.6908 474.359 44.7419C474.369 44.6508 474.42 44.5904 474.473 44.5263C474.545 44.4412 474.622 44.3495 474.615 44.1706C474.514 42.0457 473.994 40.0072 473.474 37.9698L473.474 37.9689C473.201 36.8998 472.928 35.831 472.717 34.7501C472.632 33.1497 471.601 31.7051 469.623 30.4164C467.342 28.9286 466.132 29.215 464.885 31.5389C464.446 31.7609 464.353 32.0761 464.383 32.5916C464.433 33.4402 464.573 34.2669 464.712 35.0918L464.712 35.0927C464.761 35.3819 464.81 35.6708 464.854 35.9603C464.909 36.3099 464.936 36.6546 464.961 36.9937C465.045 38.0979 465.124 39.1428 466.181 40.1053C466.782 40.6533 467.026 42.0156 467.039 43.2257C467.051 44.2944 467.4 45.3607 467.748 46.4269L467.749 46.4275C467.898 46.8846 468.048 47.3418 468.171 47.7991C468.108 48.7953 467.836 49.4995 466.583 49.1838C466.27 49.1047 465.932 49.1273 465.595 49.1499C465.45 49.1596 465.305 49.1693 465.162 49.1709C465.08 49.1297 464.99 49.1136 464.897 49.1154C464.519 48.6332 464.036 48.6765 463.553 48.7197C463.341 48.7387 463.129 48.7578 462.926 48.7318C462.095 48.6247 461.259 48.631 460.422 48.6374C458.879 48.649 457.332 48.6607 455.81 47.9615C454.063 47.1573 452.074 47.328 450.177 47.7813L450.147 47.7951C449.774 47.7148 449.361 47.7233 448.949 47.7318C447.859 47.7542 446.769 47.7766 446.391 46.1602C446.827 45.7483 447.386 45.5895 447.945 45.4307C448.53 45.2643 449.116 45.0978 449.561 44.6402C449.7 44.5848 449.841 44.53 449.981 44.4751L449.987 44.473C452.387 43.5346 454.784 42.5975 454.789 39.3068C454.871 39.1228 455.013 38.9674 455.155 38.8119C455.44 38.4995 455.726 38.1864 455.523 37.6392C455.329 37.1154 455.152 36.5841 454.974 36.0527C454.624 35.0059 454.273 33.9589 453.803 32.9682C453.426 32.1759 452.707 31.4023 451.558 31.6575C451.366 31.605 451.161 31.6011 450.956 31.5972C450.556 31.5895 450.155 31.5818 449.851 31.2142C449.819 31.1386 449.8 31.0392 449.782 30.9391C449.738 30.703 449.693 30.4627 449.472 30.5192C448.377 30.7968 447.287 30.6886 446.198 30.5805C445.291 30.4905 444.385 30.4006 443.478 30.5337C442.445 30.1826 441.416 30.0008 440.415 30.6226C440.226 30.5552 440.035 30.4677 439.845 30.3801C439.432 30.1907 439.02 30.0011 438.614 30.0154C435.484 30.1273 432.354 30.2909 429.226 30.4545C428.227 30.5067 427.229 30.5589 426.231 30.6095C425.642 30.9295 425.043 31.2132 424.355 31.2396C422.671 31.0597 421.153 31.4302 419.616 32.2217C417.411 33.3569 414.864 33.7113 412.483 33.7088C411.012 33.7093 409.776 33.7793 408.536 34.472C407.36 35.0184 406.456 34.7022 405.786 33.6162C405.583 32.0335 405.654 30.4476 405.725 28.8648C405.758 28.1372 405.791 27.4103 405.797 26.6846L405.801 26.2436L405.801 26.2432C405.83 23.2441 405.858 20.2853 405.026 17.3721C405.006 17.1004 405.002 16.8239 404.997 16.5472L404.997 16.5458L404.997 16.5455C404.987 15.9454 404.977 15.3447 404.813 14.7898C404.64 14.2003 404.534 13.5748 404.429 12.9483C404.105 11.0268 403.779 9.09694 401.483 8.17571C400.671 7.39554 399.784 7.63952 398.929 7.87494C398.712 7.93445 398.498 7.99341 398.288 8.03514C397.049 8.28142 395.984 8.68588 395.961 10.4175C395.935 12.5416 396.252 14.5714 396.756 16.6012C396.789 16.7783 396.821 16.9553 396.85 17.1323C396.995 17.6866 397.151 18.2384 397.308 18.7903C397.782 20.4619 398.257 22.1344 398.404 23.8779C398.412 23.9659 398.419 24.0538 398.426 24.1417C398.533 25.4374 398.638 26.7175 399.466 27.8126C399.104 29.1956 399.143 30.5827 399.447 31.9713C399.453 32.1244 399.462 32.2783 399.472 32.4321L399.472 32.4363C399.55 33.748 399.628 35.0543 398.06 35.7905C397.917 35.8587 397.839 36.0637 397.761 36.2687C397.728 36.355 397.696 36.4413 397.658 36.5173L393.722 37.4572C391.739 37.9026 389.864 38.664 387.99 39.4256C386.136 40.1787 384.282 40.9319 382.322 41.3794C378.021 41.1096 374.88 43.5844 374.553 47.4995C373.996 48.0326 373.99 48.695 374.099 49.3885C374.745 49.8798 375.328 50.4096 375.892 51.0217C376.213 51.3705 376.453 51.791 376.693 52.2116C377.146 53.0066 377.6 53.8017 378.599 54.1129C381.367 54.9799 384.884 53.3442 386.242 50.4715C386.624 49.8592 387.246 49.5883 387.856 49.3226C388.103 49.2147 388.349 49.1075 388.576 48.9787L388.879 48.8073C391.148 47.5231 393.445 46.2222 396.178 46.1575C396.935 46.3336 397.597 46.0713 398.258 45.8096C398.525 45.7038 398.792 45.5981 399.064 45.5215C399.99 45.2584 400.597 45.6842 400.394 46.5481C400.305 46.9282 400.288 47.3329 400.271 47.7387C400.232 48.6801 400.192 49.6278 399.257 50.2893C397.598 50.3114 396.15 50.7734 395.18 52.2383C394.526 52.3626 394.309 52.7798 394.078 53.4091C393.418 55.2005 393.559 56.8164 394.659 58.3643C394.65 58.4186 394.633 58.4775 394.616 58.5362C394.58 58.6638 394.543 58.7909 394.588 58.8707C395.858 61.1169 398.294 62.2331 400.948 61.8916C401.092 61.8733 401.249 61.8212 401.41 61.768C401.937 61.5939 402.502 61.407 402.749 62.3439C402.909 62.9015 403.07 63.4582 403.231 64.0149C403.387 64.5572 403.544 65.0994 403.7 65.6426C403.641 65.7423 403.642 65.8431 403.701 65.9415C403.733 66.5363 404.14 66.7061 404.639 66.7625L404.695 67.7575C404.394 68.1282 404.348 68.6186 404.301 69.1093C404.231 69.8479 404.161 70.5871 403.221 70.9196L403.199 70.9264C402.751 70.6781 402.461 70.9109 402.17 71.1436C401.985 71.292 401.8 71.4404 401.574 71.4641C401.51 71.4197 401.452 71.4258 401.397 71.4787L398.473 71.4226C397.679 71.2744 396.899 71.4049 396.119 71.5356C395.378 71.6596 394.637 71.7838 393.882 71.6693C393.535 71.0217 393.07 71.038 392.541 71.4311C392.541 71.4311 392.519 71.4451 392.523 71.4452C390.986 71.7014 389.437 71.7213 387.883 71.7412C386.657 71.7569 385.428 71.7726 384.2 71.9047C383.377 71.9931 382.5 71.9425 381.602 71.8907C380.698 71.8386 379.773 71.7852 378.859 71.8706C377.951 71.954 376.82 71.9935 375.855 71.1395C375.374 70.7126 373.669 70.3053 373.42 71.2656C373.399 71.3477 373.376 71.4349 373.351 71.5261C373.068 72.5889 372.641 74.1932 373.173 74.5882C373.92 75.14 374.338 75.8536 374.746 76.5503C375.024 77.0252 375.297 77.4923 375.667 77.8949C376.333 78.6243 377.576 78.7454 378.662 78.7734C379.51 78.7969 380.311 79.032 381.011 79.4847C383.172 80.8765 385.499 81.0725 388.042 81.1141C389.24 81.1339 390.294 80.6697 391.341 80.208C392.632 79.639 393.915 79.0739 395.449 79.4234C395.65 79.469 395.854 79.4821 396.053 79.495C396.56 79.5278 397.041 79.5589 397.389 80.1161C397.637 80.5169 398.059 80.6547 398.485 80.5512C399.026 80.4174 399.554 80.2177 400.081 80.018C401.306 79.5543 402.532 79.0904 403.928 79.4494C403.986 79.4652 404.081 79.3735 404.161 79.2952C404.179 79.2777 404.196 79.2608 404.212 79.246C404.923 78.5683 405.232 78.9559 405.687 79.6308C406.677 81.101 407.406 82.6634 407.881 84.3578C407.952 84.5169 408.031 84.674 408.11 84.831L408.111 84.8323C408.48 85.5634 408.846 86.2904 408.405 87.1946C408.128 87.7618 408.587 88.0407 409.014 88.2794C408.968 89.1565 409.038 90.0456 409.109 90.926C409.192 91.9774 409.275 93.0163 409.156 94.0076C408.955 95.6566 409.338 96.3481 410.599 96.9557C410.605 97.0654 410.597 97.19 410.588 97.3147C410.57 97.5833 410.552 97.8522 410.677 97.9726C412.81 100.041 415.541 99.8233 417.652 97.462C419.1 96.707 418.667 95.6396 418.277 94.6804C418.192 94.4704 418.108 94.2655 418.048 94.0703C417.804 93.2875 417.345 92.5722 416.886 91.858C416.686 91.5477 416.487 91.2375 416.306 90.922C416.474 90.7812 416.517 90.6164 416.398 90.4233C416.831 90.1723 417.021 89.6214 416.738 89.3855C416.066 88.8251 416.045 88.1304 416.024 87.4329C416.016 87.1534 416.007 86.8734 415.957 86.6014C415.67 85.0475 415.355 83.493 414.761 82.016C414.397 81.5884 414.49 81.1272 414.583 80.6658C414.657 80.2977 414.731 79.9295 414.574 79.5782C414.991 78.2755 415.794 77.0882 417.228 77.5478C418.802 78.0543 420.271 77.7246 421.737 77.3955C422.599 77.2021 423.459 77.0089 424.34 76.9858C424.708 76.9762 425.078 77.0434 425.448 77.1106C426.119 77.2327 426.791 77.3547 427.451 77.0167C429.311 76.0694 431.296 75.7366 433.371 75.6144C434.615 75.54 435.831 75.1977 437.03 74.8602C437.983 74.5921 438.925 74.3269 439.863 74.2014C440.789 74.0767 441.71 73.8834 442.633 73.6897C444.46 73.306 446.294 72.9209 448.195 73.0651C449.299 73.1497 450.35 72.8457 451.407 72.5399C452.571 72.2034 453.741 71.8647 454.999 72.0398C455.799 72.1524 456.727 72.1702 457.535 71.4943C458.069 71.0473 459.033 71.2242 459.606 71.5269C460.938 72.2331 461.788 71.6156 462.764 70.8457C465.025 69.0635 467.663 68.7973 470.435 69.0737C471.843 69.2156 472.586 70.141 473.33 71.0672C473.636 71.4476 473.942 71.8281 474.293 72.1546C474.7 72.6188 474.899 73.1911 475.099 73.7633C475.322 74.4009 475.544 75.0385 476.053 75.5265C476.377 76.7382 477.154 77.6459 477.933 78.555L477.933 78.5555C478.171 78.8329 478.408 79.1103 478.633 79.3966C480.372 80.2546 482.128 80.9725 484.088 80.1027C485.582 79.476 486.562 78.4434 486.703 76.7572C487.159 76.5469 487.143 76.1863 487.127 75.8246C487.119 75.6571 487.111 75.4894 487.151 75.3363C488.055 75.1087 489.908 72.4328 489.616 71.3541C489.333 70.3073 489.75 69.8197 490.327 69.1444L490.386 69.0751C491.004 68.3515 491.751 67.8632 492.507 67.3683C492.603 67.306 492.698 67.2435 492.794 67.1804C493.71 66.8762 494.645 66.9092 495.58 66.9421C495.953 66.9552 496.326 66.9684 496.697 66.9601C496.715 66.9713 496.733 66.9821 496.75 66.9926C496.782 67.0116 496.814 67.0297 496.844 67.0474C497.146 67.2215 497.382 67.357 497.265 67.9613C497.249 68.0439 497.231 68.1295 497.212 68.2173C497.06 68.9302 496.878 69.7878 497.697 70.3678C497.697 70.8341 497.693 71.3004 497.689 71.7665C497.68 72.8266 497.671 73.8861 497.706 74.9448C497.78 77.293 499.451 78.695 501.001 79.9949L501.002 79.9961C501.14 80.1119 501.277 80.2269 501.412 80.3417C501.543 80.4529 501.684 80.5877 501.835 80.7317L501.835 80.7321C502.604 81.4661 503.619 82.436 504.728 81.7017C505.677 81.0728 506.724 80.9415 507.76 80.8116C508.673 80.6972 509.577 80.5839 510.399 80.1326C510.83 80.1841 511.192 80.0614 511.468 79.721C511.554 79.7048 511.639 79.6876 511.724 79.6705L511.726 79.6701L511.728 79.6698C511.813 79.6527 511.898 79.6355 511.984 79.6193C512.459 79.4998 512.96 79.4363 513.461 79.3729C515.034 79.1735 516.609 78.9741 517.38 77.033C517.475 76.7895 517.776 76.6285 518.077 76.4675C518.218 76.3922 518.358 76.3168 518.478 76.233C518.75 76.123 519.022 76.0121 519.294 75.9012C519.566 75.7903 519.838 75.6794 520.11 75.5694C523.113 75.7819 525.36 74.3595 527.293 72.2504C527.735 71.8028 528.255 71.4528 528.775 71.1027C529.426 70.6649 530.076 70.227 530.574 69.5983C530.938 69.5729 531.298 69.5438 531.436 69.1179L531.564 69.0196C532.367 68.7308 532.695 68.0537 533.021 67.3823L533.021 67.3815C533.146 67.1233 533.271 66.8659 533.423 66.6318C533.701 66.2014 534.03 65.52 533.609 64.9718C533.121 64.3394 532.292 64.4603 531.797 64.7677C530.677 65.4617 529.428 65.7228 528.183 65.9834C527.184 66.1922 526.187 66.4007 525.26 66.8316C524.333 67.0662 523.469 67.4787 522.605 67.8911C521.387 68.473 520.168 69.0549 518.773 69.1376C517.71 69.2707 516.801 69.7639 515.892 70.2572C515.372 70.5392 514.853 70.8212 514.304 71.036C513.507 70.9774 512.849 71.1161 512.047 71.5076C510.024 72.4986 507.837 73.3893 505.542 72.0848C505.439 71.5982 505.313 71.1121 505.187 70.626C504.664 68.6165 504.141 66.6052 505.284 64.5395C506.169 64.4728 506.98 64.1581 507.791 63.8437C508.48 63.5767 509.168 63.3099 509.9 63.195C509.99 63.182 510.083 63.1762 510.178 63.1704C510.384 63.1577 510.591 63.1448 510.756 63.0565C513.868 61.3302 517.194 60.2814 520.711 59.7872C520.794 59.7757 520.877 59.7654 520.96 59.7558C521.032 59.7474 521.104 59.7395 521.177 59.7316C522.008 59.6405 522.844 59.5488 523.425 58.7806L523.436 58.7736C524.264 59.3153 525.066 59.147 525.859 58.6941C526.117 58.9079 526.383 58.9346 526.653 58.7166C528.268 58.321 529.331 57.1981 530.395 56.0744C530.974 55.4623 531.554 54.8499 532.223 54.3547C532.683 54.0143 533.376 52.2127 532.401 51.8519C531.347 51.4608 529.905 51.055 528.657 51.8124C527.595 51.8888 526.529 51.9355 525.463 51.9821C521.97 52.1349 518.477 52.2878 515.116 53.4897C515.09 53.5232 515.065 53.5567 515.039 53.5903C514.993 53.6494 514.947 53.709 514.902 53.7701C514.805 53.7682 514.736 53.8137 514.698 53.903C512.011 53.8838 509.383 54.3303 506.758 54.8273C505.751 55.0204 505.545 54.2998 505.575 53.4938C505.654 51.373 505.74 49.2539 505.825 47.1342C505.868 46.0711 505.911 45.0078 505.953 43.9441C506.095 43.827 506.238 43.7095 506.38 43.5918L506.556 43.4462C506.757 43.2799 506.958 43.1136 507.159 42.9482C507.406 42.2796 507.68 41.6655 508.183 41.1638C507.684 41.6656 507.41 42.276 507.163 42.9483C508.197 43.0726 509.183 42.8358 510.014 42.272C510.718 41.7958 511.588 41.6109 512.2 41.7991C513.662 42.2503 514.942 41.804 516.209 41.3619L516.219 41.3587C516.318 41.3241 516.417 41.2895 516.516 41.2554C517.908 40.775 519.332 40.4957 520.761 40.2153L520.764 40.2146C521.17 40.1348 521.577 40.055 521.984 39.9704C522.647 39.8332 523.339 39.7587 524.03 39.6842C525.697 39.5048 527.368 39.3249 528.654 38.2656C530.102 37.0691 531.409 36.8061 533.06 37.1691L533.395 37.5392C533.173 38.4244 533.652 38.9377 534.264 39.5004C534.89 40.0742 535.688 40.8205 535.311 41.7315C534.677 43.2641 535.453 44.064 536.525 44.8336C536.7 45.4131 536.64 45.995 536.581 46.5773C536.536 47.0214 536.49 47.4657 536.549 47.9093C536.947 48.623 537.133 49.4105 537.318 50.198C537.519 51.053 537.721 51.9081 538.195 52.6689C539.039 54.097 539.323 55.6865 539.606 57.2743C539.648 57.5089 539.69 57.7435 539.733 57.9775C540.112 59.0614 540.49 60.1418 540.873 61.2258C541.017 62.1893 541.16 63.1521 541.304 64.1146L541.348 64.4094C541.539 65.6899 541.729 66.9698 541.921 68.2498C542.283 69.8267 542.645 71.4073 543.003 72.9842C543.369 73.5926 543.823 74.1126 544.42 74.5022C545.958 76.6779 547.18 76.9138 549.298 75.4457C550.048 74.7975 550.727 74.0867 551.261 73.2436C551.882 71.1129 552.026 69.0163 551.066 66.9094C550.863 66.4645 550.652 66.0224 550.441 65.5803C549.392 63.3797 548.342 61.1788 548.229 58.6339L548.226 58.5653C548.204 58.0676 548.168 57.2436 547.323 57.0933L547.307 56.254C547.613 55.122 548.033 54.5863 548.849 55.9379C549.006 56.1966 549.236 56.3811 549.58 56.2904C550.136 56.744 550.597 57.2534 550.579 58.0345C550.841 59.1522 551.403 60.0848 552.443 60.6089C553.077 60.9272 553.362 61.4548 553.621 62.0395C557.82 66.4593 562.67 70.0165 568.006 72.9313C568.639 73.4862 569.397 73.8264 570.147 74.163C570.711 74.416 571.271 74.667 571.769 75.0057C573.186 75.9691 574.363 75.9305 575.685 75.0809C576.871 74.5635 577.949 73.8748 578.94 73.0512C580.783 71.8911 581.546 69.0466 580.261 67.794C580.109 67.0961 579.956 66.3973 579.803 65.6985C579.65 64.9996 579.497 64.3008 579.345 63.6029L579.355 63.6067ZM437.191 42.4834C437.142 42.4875 437.089 42.49 437.032 42.4915C437.059 42.4904 437.085 42.4891 437.11 42.4878L437.148 42.4857L437.191 42.4834ZM408.407 48.8913C407.387 47.9305 407.416 46.7194 407.445 45.5272L407.445 45.5269C407.454 45.1503 407.463 44.7755 407.439 44.4112C407.38 43.5386 408.627 43.0548 409.058 43.0667C410.913 43.1234 412.667 42.6159 414.403 42.1138C415.922 41.6745 417.426 41.2394 418.969 41.1901C421.352 41.1154 423.659 40.6336 425.967 40.1516C428.49 39.6244 431.015 39.0971 433.64 39.1023C435.289 39.1059 436.984 38.9442 438.678 38.7826L438.679 38.7825C439.376 38.716 440.073 38.6495 440.766 38.5946C441.602 38.5278 442.193 38.6616 441.903 39.7147L441.902 39.7471C441.781 39.7016 441.704 39.7397 441.666 39.8578C441.416 39.958 441.154 40.0297 440.891 40.1013C440.317 40.2582 439.743 40.4149 439.297 40.871C439.053 40.9867 438.783 41.016 438.512 41.0453C438.111 41.0888 437.71 41.1323 437.394 41.4574C437 41.3922 436.715 41.5812 436.469 41.8574C435.678 41.9978 435.216 42.5715 434.753 43.1462L434.728 43.1779C434.583 43.1677 434.439 43.1559 434.294 43.144C432.962 43.035 431.629 42.9259 430.59 44.1175C429.235 44.0987 427.909 44.1849 426.753 45.0161C425.81 44.9217 424.94 45.1441 424.04 45.3747C423.877 45.4162 423.714 45.4581 423.549 45.4983C419.353 46.516 415.171 47.5448 411.055 48.8594C410.507 49.0331 409.888 48.9859 409.268 48.9387C408.98 48.9167 408.692 48.8947 408.41 48.895L408.407 48.8913ZM439.295 40.877C439.219 41.0705 439.231 41.2933 439.243 41.5163C439.255 41.7371 439.267 41.9581 439.194 42.1509C439.265 41.9591 439.253 41.7395 439.242 41.5199C439.231 41.2957 439.219 41.0716 439.295 40.877ZM460.552 62.9316C459.987 62.9568 459.516 63.1026 459.027 63.302C456.587 64.2922 454.147 65.2465 451.423 65.1185C450.481 65.0737 449.595 65.3364 448.697 65.6025C448.025 65.8015 447.347 66.0024 446.634 66.0781C445.81 66.165 444.987 66.2561 444.163 66.3471C441.524 66.6389 438.884 66.9306 436.233 67.0883C435.113 67.1536 434.055 67.4687 432.994 67.7846C431.941 68.0979 430.886 68.412 429.766 68.4837C429.425 68.505 429.077 68.5531 428.728 68.6015C428.081 68.6911 427.427 68.7815 426.798 68.704C425.494 68.5397 424.242 68.8188 422.992 69.0974C421.72 69.3808 420.45 69.6638 419.131 69.4786C419.186 69.7002 419.252 70.0107 419.254 70.2547C419.252 70.0107 419.184 69.7002 419.128 69.4786C417.976 69.166 416.925 69.5188 415.881 69.8695C415.488 70.0015 415.096 70.1332 414.699 70.2289C413.275 70.5761 412.407 70.0913 411.735 68.9369C411.474 68.9458 411.262 68.9015 411.085 68.8183C411.261 68.9006 411.474 68.9436 411.735 68.9333C411.562 68.1006 411.309 67.286 411.057 66.4711C410.616 65.05 410.176 63.628 410.157 62.108C410.156 62.024 409.984 61.9417 409.813 61.86C409.735 61.8226 409.657 61.7853 409.595 61.7479C409.178 60.2607 410.073 59.8086 410.97 59.3556C411.317 59.18 411.665 59.0043 411.937 58.7681C412.451 58.778 412.928 58.6059 413.404 58.4337C413.951 58.2363 414.497 58.0389 415.101 58.1159C415.233 58.0861 415.364 58.0566 415.496 58.0272L415.805 57.9584C416.04 57.9062 416.275 57.854 416.51 57.8008C416.558 57.7255 416.61 57.6275 416.662 57.5291C416.751 57.3617 416.841 57.193 416.912 57.1327C416.841 57.1932 416.752 57.3624 416.663 57.5309L416.663 57.5312C416.612 57.6283 416.561 57.7252 416.514 57.8009C416.562 57.8071 416.612 57.8157 416.661 57.8254C416.707 57.8344 416.754 57.8445 416.8 57.8545C417.008 57.8993 417.215 57.9439 417.4 57.9008C420.552 57.1438 423.769 56.8923 426.976 56.9827C428.094 57.015 428.89 56.7926 429.718 56.2215C430.082 56.3335 430.455 56.2337 430.827 56.1339C431.361 55.9908 431.895 55.8478 432.403 56.3307C432.505 56.3703 432.612 56.4272 432.719 56.4841C432.95 56.6071 433.181 56.73 433.357 56.6767C435.726 55.9449 438.15 55.9567 440.573 55.9684C441.192 55.9715 441.811 55.9745 442.429 55.9651C442.869 55.9575 443.269 55.8137 443.673 55.6689C444.175 55.4889 444.682 55.3071 445.275 55.3824C448.185 55.7504 451.082 55.4545 453.984 55.158L453.984 55.158C454.296 55.1262 454.607 55.0944 454.918 55.0634C455.423 55.0122 455.846 54.813 456.259 54.618C456.629 54.4437 456.992 54.2729 457.399 54.2144C457.592 54.1863 457.821 54.074 458.054 53.9598C458.747 53.6208 459.471 53.2659 459.361 55.0551C459.325 55.6521 460.272 55.9944 461.021 56.142C463.529 56.6258 466.048 56.9406 468.609 56.9395L468.61 56.9431C468.77 57.1963 469.044 57.3044 469.322 57.4139C469.724 57.5724 470.133 57.7337 470.213 58.3423C470.361 59.4434 469.89 59.9889 468.958 60.3707C468.482 60.5647 468.02 60.7981 467.559 61.0309L467.559 61.0311L467.558 61.0317C467.349 61.1371 467.141 61.2423 466.932 61.3437C466.26 61.3091 465.623 61.513 465.126 61.9067C463.944 62.8473 462.57 62.886 461.207 62.9243L461.207 62.9243C460.99 62.9304 460.774 62.9365 460.559 62.9461L460.552 62.9316ZM496.759 44.2861C496.818 44.3089 496.877 44.3297 496.934 44.3499L496.991 44.3698C496.916 44.3468 496.837 44.3164 496.759 44.2861ZM496.079 44.2875C496.075 44.2928 496.071 44.2963 496.068 44.2998L496.065 44.3028C496.069 44.2974 496.075 44.2911 496.079 44.2875ZM481.205 69.3165L481.204 69.3162L481.201 69.3129L481.205 69.3165ZM481.204 69.3162C479.401 68.7698 477.779 66.9458 477.665 65.356C477.646 65.0675 477.763 64.9473 478.031 64.8732C479.078 64.5787 479.597 63.7447 480.106 62.9268C480.285 62.6402 480.462 62.3557 480.66 62.097C481.888 60.4965 482.713 60.4368 483.874 62.2127C483.495 62.9021 483.841 63.3797 484.186 63.8573C484.423 64.1845 484.66 64.5117 484.664 64.907C486.036 65.7399 486.162 66.711 485.01 67.8484C484.745 68.1112 484.497 68.3946 484.25 68.6778L484.25 68.6782C484.122 68.825 483.994 68.9718 483.863 69.1155C483.756 69.1941 483.65 69.2781 483.543 69.3621C482.807 69.9415 482.072 70.5206 481.204 69.3162ZM894.734 53.5678C896.74 53.7196 898.75 53.8718 900.723 53.4254L900.745 53.4258C901.133 54.4544 900.722 55.2512 900.273 56.1236C900.131 56.3987 899.986 56.6812 899.86 56.9809C899.814 56.9297 899.754 56.8997 899.678 56.891C896.775 56.5184 893.972 56.7455 891.992 59.2209C890.964 60.5047 889.95 60.46 888.818 59.6857C888.172 59.2448 887.632 59.2488 887 59.5572C887.016 59.4783 887.064 59.4036 887.127 59.3327C887.06 59.4035 887.012 59.4782 887 59.5572C886.678 59.8355 886.353 60.1137 886.031 60.392C885.65 62.0375 884.432 62.3562 883.005 62.2496C882.352 62.2005 881.712 62.3971 881.101 62.585C880.509 62.7669 879.944 62.9407 879.418 62.8757C878.007 62.701 876.673 62.7006 875.275 62.7853C873.726 62.8816 873.491 63.1508 874.147 64.7442C874.512 66.2613 875.522 67.3576 876.532 68.4544L876.688 68.6244C876.984 68.9475 877.272 69.2805 877.56 69.6145C877.694 69.7692 877.828 69.9242 877.963 70.0785C878.398 70.5361 878.812 71.0157 879.226 71.4953C880.231 72.6606 881.236 73.8257 882.558 74.6751C882.913 74.9709 883.263 75.2742 883.612 75.5775L883.613 75.5778C885.442 77.1641 887.272 78.7503 889.784 79.261C889.903 79.3097 890.052 79.3518 890.2 79.3938C890.513 79.4823 890.823 79.5702 890.854 79.7173C891.062 80.7216 891.657 80.6483 892.249 80.5753C892.492 80.5454 892.735 80.5155 892.95 80.5605C893.093 80.5815 893.282 80.566 893.474 80.5503C893.964 80.5102 894.471 80.4686 894.279 81.0289C894.181 81.3184 894.315 81.6568 894.449 81.9932C894.694 82.6089 894.936 83.2178 893.742 83.5069C893.429 83.5825 893.168 83.8715 892.908 84.1605C892.789 84.2922 892.67 84.4239 892.546 84.5354C891.509 86.8417 890.561 87.126 888.538 85.6648C888.219 85.4318 887.923 85.2821 887.573 85.333C884.552 85.7665 882.294 84.1659 880.032 82.5624L879.908 82.4743C878.717 81.7564 877.925 80.6645 877.177 79.5303C876.725 79.1344 876.255 78.755 875.785 78.3755L875.785 78.375L875.783 78.3738C874.052 76.9752 872.322 75.5768 871.467 73.3602C871.395 73.1716 871.183 72.9911 870.99 72.901C868.88 71.9206 868.116 70.1018 867.884 67.944C866.728 68.1088 866.555 67.3247 866.399 66.6146C866.359 66.4359 866.321 66.2619 866.268 66.1089C865.856 64.9199 863.452 62.7096 862.201 62.6459C861.217 62.5935 860.232 62.5538 859.247 62.5141L859.246 62.514C858.753 62.4941 858.259 62.4742 857.766 62.4527C856.716 62.9439 855.622 63.1606 854.467 62.9872L852.688 62.9314C851.364 63.4174 849.993 63.4218 848.622 63.4262C847.802 63.4289 846.982 63.4315 846.172 63.5373C846.098 63.5936 846.025 63.6474 845.954 63.7002L845.953 63.7009L845.951 63.7019C845.367 64.1323 844.873 64.4955 845.089 65.605C845.224 66.3124 844.783 67.1554 844.364 67.9577C844.245 68.1843 844.129 68.4077 844.027 68.6239C843.183 70.4297 842.762 72.3229 842.411 74.2787C842.093 76.0731 841.034 77.6228 839.902 79.0666C839.692 79.3343 839.401 79.3254 839.11 79.3166C839.042 79.3146 838.974 79.3125 838.908 79.314C837.051 79.3575 835.208 77.8926 834.54 76.1549C833.372 73.1229 834.383 70.4315 835.396 67.7359C835.559 67.2997 835.723 66.8635 835.878 66.4256C835.943 66.2407 836.027 66.0623 836.111 65.882C836.301 65.4762 836.496 65.0608 836.501 64.5399C835.426 64.0141 834.855 64.6661 834.275 65.3269C834.025 65.6129 833.773 65.9006 833.478 66.0951C833.127 66.5396 832.87 67.0546 832.614 67.5702C832.028 68.7456 831.441 69.9243 829.732 70.2795C829.296 70.3703 828.909 70.2438 828.541 70.1231C828.066 69.9678 827.621 69.822 827.136 70.1612C827.025 70.2101 826.913 70.2583 826.801 70.3065L826.8 70.3071C826.027 70.6396 825.254 70.9722 824.606 71.535C822.463 73.5563 819.884 73.5768 817.307 73.5973C816.32 73.6052 815.334 73.613 814.372 73.7331C814.238 73.7496 814.088 73.7437 813.939 73.7378C813.579 73.7237 813.221 73.7097 813.083 74.0073C812.764 74.7069 812.077 74.8486 811.635 74.8257C810.511 74.7699 809.437 75.0605 808.36 75.3516C806.946 75.7343 805.529 76.1177 803.992 75.716C801.368 75.0283 800.619 75.6296 799.453 78.668C799.595 79.1007 799.66 79.5449 799.725 79.9919C799.809 80.5672 799.894 81.1472 800.146 81.7134C800.615 82.763 799.991 83.7881 798.953 84.0923C798.748 84.1516 798.542 84.3684 798.329 84.5919C797.826 85.1192 797.289 85.6832 796.661 84.3003C796.505 83.9557 796.218 83.9744 795.952 83.9919L795.904 83.9949C795.888 83.9959 795.872 83.9968 795.857 83.9975C795.814 83.9994 795.772 84.0002 795.731 83.998C794.79 83.9439 794.464 83.466 794.607 82.5865C794.462 82.1484 794.317 81.7098 794.173 81.2711L794.169 81.2572C793.844 80.267 793.519 79.2771 793.175 78.2954C793.001 77.7952 792.784 77.2905 792.105 77.2738C791.405 77.2555 790.7 77.1684 789.995 77.0814C788.097 76.8469 786.198 76.6123 784.39 77.7199C783.275 78.4041 782.378 77.9427 781.474 77.4777C781.257 77.3661 781.039 77.2542 780.818 77.1579C780.507 77.1392 780.187 77.1727 779.867 77.2062C779.012 77.2957 778.156 77.3854 777.453 76.4812C777.232 76.196 776.57 76.1905 776.122 76.4988C775.557 76.8877 775.034 76.5752 774.681 76.2335C773.25 74.8484 771.51 73.996 769.77 73.1432C769.211 72.8696 768.653 72.5959 768.104 72.3046L767.6 71.9124L766.623 71.1541L766.615 71.1479L766.607 71.1417C766.126 70.7687 765.646 70.3957 765.166 70.0228C764.434 69.7387 763.717 69.4296 763.152 68.857C761.427 67.9476 760.02 66.6441 758.612 65.3401L758.609 65.3375L758.608 65.3367C758.143 64.9057 757.678 64.4747 757.201 64.0579C756.833 63.7376 756.534 63.379 756.472 62.87C756.157 62.4479 755.795 62.0629 755.433 61.6777L755.433 61.6772C754.83 61.0357 754.227 60.3936 753.84 59.5787C753.644 59.4921 753.474 59.3844 753.518 59.1223L753.511 59.097C752.36 58.3403 751.421 57.4076 750.98 56.056L750.864 56.061L750.798 55.9661C749.889 55.6858 749.326 55.0772 749.062 54.1719C748.983 54.0677 748.855 54.0161 748.727 53.9645C748.524 53.8823 748.322 53.8004 748.316 53.5058C748.302 52.915 748.098 52.2953 747.45 52.4989C746.915 52.6651 746.194 52.9429 746.17 53.7887C746.155 54.3626 746.125 54.9361 746.095 55.5097C746.072 55.9506 746.049 56.3915 746.033 56.8325C746.028 56.9453 746.027 57.0586 746.025 57.1717C746.016 57.8304 746.007 58.4835 745.466 59.0109C745.345 59.131 745.178 59.3547 745.216 59.4599C745.842 61.1472 745.322 62.6911 744.807 64.2252C744.403 65.4247 744.002 66.6181 744.151 67.8692C744.416 70.0907 743.664 72.0033 742.904 73.9371L742.828 74.13L742.758 74.3098C742.126 75.9289 740.511 76.1139 738.856 75.9453C736.999 75.7569 736.491 74.5562 735.992 73.3794C735.856 73.0585 735.721 72.7394 735.559 72.4431C734.729 70.922 734.408 69.2846 735.349 67.4734C735.812 66.5856 736.004 65.3794 736.012 64.2272C736.019 63.0534 736.377 61.9354 736.735 60.8159C737.205 59.3463 737.676 57.8742 737.356 56.2697C736.916 54.983 736.682 53.6749 736.932 52.3114C736.505 51.6839 736.709 51.0896 736.915 50.491C737.07 50.0385 737.227 49.5835 737.112 49.11C737.075 48.9629 737.161 48.7705 737.242 48.5889C737.324 48.4041 737.401 48.2306 737.339 48.1277C736.75 47.1501 736.923 46.1727 737.095 45.198C737.181 44.7125 737.267 44.2276 737.258 43.7438C736.091 42.1513 736.725 39.2864 738.597 37.7055C738.95 37.4756 738.954 37.075 738.958 36.675C738.963 36.1741 738.968 35.6742 739.657 35.5113C740.973 35.198 742.251 35.1433 743.549 35.7228C744.397 36.1002 744.641 36.7933 744.891 37.5056L744.891 37.5061C744.938 37.6389 744.985 37.7725 745.036 37.9047C746.514 38.6713 747.741 39.6275 747.795 41.4902C747.467 42.4123 748 42.8222 748.533 43.2318C748.791 43.4307 749.05 43.6295 749.21 43.8868C750.115 44.4189 750.627 45.2714 751.138 46.1246L751.139 46.1264L751.14 46.1276C751.251 46.3121 751.361 46.4966 751.476 46.6779C752.31 47.1011 752.734 47.8647 753.161 48.6318C753.564 49.357 753.969 50.0853 754.723 50.532C755.942 51.253 756.756 52.3574 757.572 53.4654C758.163 54.2677 758.756 55.0719 759.505 55.7336C760.817 56.8931 762.062 58.1245 763.308 59.356L763.308 59.3563C764.948 60.9785 766.589 62.6011 768.385 64.0602C768.53 64.1781 768.665 64.3005 768.799 64.4213C769.293 64.8676 769.763 65.2921 770.594 65.3846C771.624 65.498 771.791 65.4328 771.952 64.3592C772.108 63.3313 772.005 62.3108 771.902 61.2933L771.902 61.2928C771.784 60.1177 771.666 58.9467 771.948 57.773C772.558 57.0317 772.331 56.3002 772.096 55.5409C771.938 55.033 771.777 54.5127 771.86 53.9687C771.887 53.7922 771.914 53.6137 771.942 53.4335C772.131 52.2014 772.333 50.8888 772.414 49.615C772.481 48.5453 772.32 47.5275 772.16 46.5156L772.159 46.5146C772.033 45.7169 771.907 44.9228 771.894 44.1099C771.892 43.9244 771.886 43.7387 771.881 43.5527L771.881 43.5503L771.881 43.5496L771.881 43.5489C771.866 42.985 771.85 42.419 771.902 41.8523C772.351 42.0383 772.709 41.8451 773.077 41.6462C773.112 41.627 773.148 41.6078 773.184 41.5888C773.162 41.6004 773.14 41.6121 773.118 41.6239L773.083 41.6427C772.713 41.8422 772.354 42.0357 771.902 41.8487C771.556 40.2883 771.72 38.7533 771.886 37.2059C771.931 36.7844 771.977 36.3621 772.012 35.938C772.133 34.4712 771.779 32.8872 771.313 31.4595C770.583 29.2272 771.006 27.2044 771.912 25.1981C772.423 24.0628 773.943 23.9696 775.399 25.1282L775.434 25.1562C776.568 26.0591 777.756 27.0045 778.082 28.5754C778.996 30.2062 780.566 30.3516 782.144 30.2054C783.827 30.0469 784.615 30.9587 785.165 32.3196C786.049 33.1959 787.174 33.5167 788.3 33.8374C788.806 33.9816 789.312 34.1259 789.796 34.3206C791.433 34.8598 792.738 34.7228 793.062 32.6693C793.119 32.3013 793.35 32.0662 793.581 31.8311C793.678 31.7313 793.776 31.6315 793.861 31.5215C796.055 29.4679 798.096 30.3677 799.754 32.7906C800.368 33.6867 800.632 34.671 800.892 35.6386C801.176 36.7002 801.456 37.7415 802.186 38.624C802.21 38.6528 802.233 38.6818 802.257 38.7108L802.343 38.817C802.964 39.5824 803.556 40.3127 804.67 39.806C805.097 39.6135 805.332 39.7889 805.556 39.9557C805.625 40.0074 805.693 40.0582 805.766 40.0971C806.082 40.2664 806.385 40.4576 806.689 40.6488C807.304 41.0354 807.919 41.4221 808.632 41.6285C809.416 41.6508 810.196 41.6945 810.729 42.4034L814.592 44.1088C814.795 44.2804 815.063 44.3462 815.33 44.412C815.764 44.5184 816.196 44.6247 816.352 45.1796C816.582 45.2328 816.806 45.3086 817.031 45.3845C817.519 45.5498 818.008 45.7153 818.56 45.6469C819.054 45.5844 819.533 45.716 819.538 46.3859C819.896 46.5936 820.249 46.809 820.601 47.0241C821.898 47.8158 823.191 48.605 824.733 49.0027C825.186 49.1196 825.435 49.5991 825.702 50.1146C825.933 50.5603 826.178 51.0329 826.581 51.3212C826.598 51.3338 826.616 51.3465 826.633 51.3592C826.666 51.3831 826.698 51.407 826.73 51.4308C827.015 51.6419 827.277 51.8361 827.657 51.828C827.812 51.9595 828.015 52.0167 828.217 52.0736C828.547 52.1667 828.876 52.2592 828.99 52.6746C829.239 53.5688 830.002 53.5583 830.574 53.3604C832.205 52.7999 833.779 53.0863 835.355 53.373C835.841 53.4614 836.327 53.5498 836.815 53.6135C837.361 53.3183 837.977 53.3554 838.593 53.3924C839.406 53.4413 840.22 53.4903 840.874 52.7732C841.091 51.9931 841.306 51.2131 841.521 50.433C841.733 49.6657 841.945 48.8983 842.158 48.131C842.163 47.2605 842.534 46.5149 842.906 45.767C843.228 45.1198 843.55 44.4708 843.638 43.7374C843.655 43.5991 843.681 43.4579 843.707 43.317L843.708 43.3162C843.817 42.7329 843.925 42.1542 843.341 41.798C841.294 40.5494 842.294 39.5782 843.318 38.5838C843.401 38.5034 843.484 38.4228 843.565 38.3418C843.577 38.2685 843.58 38.1875 843.583 38.1068C843.589 37.9383 843.596 37.7711 843.682 37.6779C845.035 36.1964 844.587 34.5877 844.156 33.0411L844.156 33.0392C844.084 32.7835 844.014 32.5295 843.952 32.278C843.594 30.838 844.098 30.2715 845.355 29.9968C845.723 28.6247 847.1 28.4927 847.887 28.7418C849.145 29.1441 850.263 29.965 851.215 31.1356C851.417 31.3824 851.621 31.6274 851.826 31.8725C852.561 32.7534 853.296 33.635 853.922 34.6048C853.998 34.604 854.093 34.5963 854.187 34.5887C854.385 34.5727 854.582 34.5568 854.598 34.6034C854.87 35.3868 855.36 36.0547 855.849 36.7219C856.507 37.62 857.165 38.5169 857.289 39.6928C858.425 40.6062 859.082 41.8296 859.752 43.0776L859.752 43.0781C859.861 43.2816 859.971 43.4859 860.083 43.6895C860.851 45.082 861.825 46.3609 862.798 47.6372L862.798 47.6376L862.802 47.6431C863.079 48.0061 863.355 48.3689 863.626 48.734L863.667 48.7897C863.946 49.1675 864.188 49.4963 864.034 49.9878C864.207 50.1227 864.391 50.2337 864.575 50.3447C865.01 50.6072 865.446 50.8699 865.733 51.45C865.986 51.959 866.807 52.4501 867.793 52.4222C869.259 52.3784 870.731 52.4941 872.203 52.6098C872.795 52.6563 873.387 52.7029 873.979 52.739C874.307 52.7618 874.64 52.7475 874.972 52.7332C875.73 52.7005 876.487 52.6679 877.199 53.0745C879.243 53.357 881.284 53.2695 883.333 53.1816C883.65 53.168 883.967 53.1544 884.285 53.1422C885.444 53.096 886.631 53.108 887.81 53.5195C888.897 53.8988 890.009 53.7549 891.129 53.6098C891.843 53.5173 892.562 53.4243 893.279 53.4661C893.763 53.4943 894.248 53.531 894.732 53.5677L894.734 53.5678ZM846.422 63.2612C846.444 63.2383 846.465 63.2171 846.485 63.1981C846.506 63.1792 846.526 63.1624 846.546 63.1484C846.506 63.1764 846.462 63.2152 846.422 63.2612ZM779.183 56.9859C779.287 57.9421 779.394 58.9226 778.663 59.7708L778.666 59.7745C779.162 61.6942 779.094 63.6354 779.026 65.5765L779.026 65.5771C778.992 66.5338 778.958 67.4905 778.992 68.4446C779.585 69.4353 780.48 69.4099 781.372 69.3846C781.65 69.3767 781.929 69.3688 782.197 69.392C782.681 69.4331 783.165 69.4459 783.649 69.4587C783.783 69.4623 783.917 69.4658 784.051 69.47C784.145 69.4729 784.239 69.4761 784.333 69.4798C784.368 69.446 784.403 69.4119 784.438 69.3776L784.496 69.3209C785.2 68.629 785.887 67.9547 786.69 69.4314C786.77 69.5824 787.098 69.5965 787.427 69.6106C787.581 69.6173 787.736 69.6239 787.866 69.6449C788.803 69.1234 789.658 69.4374 790.512 69.7511C790.735 69.8332 790.959 69.9152 791.183 69.9822C791.341 69.7358 791.506 69.4995 791.669 69.2653C792.339 68.3063 792.985 67.3805 792.985 65.9189C792.984 64.5233 793.174 63.1314 793.364 61.7349C793.578 60.166 793.792 58.5913 793.739 56.9995C793.44 55.8918 793.678 54.9349 794.499 54.1405C793.31 54.103 793.458 53.483 793.607 52.8617C793.678 52.5659 793.749 52.2698 793.676 52.0361L793.794 52.3057L793.676 52.0325C793.699 51.4801 793.708 50.926 793.718 50.3721C793.739 49.1365 793.76 47.9014 793.929 46.6864C794.142 45.1601 793.398 44.5912 792.19 44.1648C791.398 43.8853 790.579 43.7146 789.759 43.5435C789.002 43.3857 788.244 43.2276 787.504 42.9837C787.084 42.8463 786.695 42.6283 786.308 42.4114C785.661 42.0487 785.02 41.6891 784.247 41.7148C783.369 41.7448 782.803 41.417 782.375 40.6634C782.029 40.0562 781.363 39.8105 780.758 39.5875L780.758 39.5873C780.652 39.5483 780.548 39.5099 780.448 39.4705C780.045 39.3115 779.701 40.1548 779.527 40.6051C779.34 41.0898 779.442 41.6107 779.545 42.1346C779.693 42.8932 779.843 43.658 779.117 44.3279C779.877 44.9989 779.775 45.8138 779.672 46.6286C779.598 47.2217 779.523 47.8147 779.781 48.3521C779.76 49.5117 779.6 50.6585 779.44 51.8061L779.44 51.8067L779.44 51.8074L779.44 51.8079L779.44 51.8084C779.231 53.3031 779.022 54.7991 779.121 56.3263C779.134 56.5435 779.158 56.7641 779.183 56.9859ZM802.022 46.2368C802.029 46.2118 802.041 46.1868 802.055 46.1655C802.044 46.1904 802.033 46.2118 802.022 46.2368ZM800.153 66.3519L800.165 66.3197C800.164 66.3305 800.157 66.3411 800.153 66.3519ZM821.642 62.8296C822.4 62.3463 823.161 61.8611 824.056 61.593L824.06 61.5859C824.375 61.4911 826.374 60.5933 825.092 59.726C824.511 59.3322 824.001 58.8521 823.492 58.3736C822.712 57.6408 821.937 56.9118 820.92 56.5023C820.652 56.5728 820.55 56.4304 820.515 56.2028C819.191 56.0514 818.355 55.1783 817.593 54.2022L817.522 54.1721L817.447 54.1034C817.09 53.7739 816.751 53.4601 816.172 53.4692C814.11 53.4984 812.513 52.4639 810.916 51.4296C810.258 51.0035 809.6 50.5773 808.91 50.2257C808.716 50.1964 808.525 50.2014 808.334 50.2064C807.851 50.219 807.371 50.2315 806.866 49.6931C806.527 49.3337 805.61 48.3727 804.481 48.9091C803.911 49.1791 803.622 48.5001 803.539 47.9368C802.997 47.9084 802.458 47.8764 801.919 47.8445C801.26 49.7259 800.658 51.6625 801.25 53.6292C801.852 55.6248 801.791 57.5106 801.12 59.453C800.895 60.1077 800.71 60.9359 800.926 61.5378C801.261 62.4831 801.165 63.3757 801.067 64.2872L801.066 64.2965C801.053 64.4203 801.04 64.5444 801.027 64.669C801.01 64.6937 800.993 64.7183 800.977 64.7428C800.94 64.7973 800.904 64.8513 800.869 64.905C800.895 64.8655 800.921 64.8258 800.949 64.786C800.974 64.7483 801 64.7105 801.027 64.6726C801.013 64.7979 800.993 64.9275 800.973 65.0584C800.846 65.8771 800.713 66.7445 801.916 66.9042C803.732 67.148 805.684 66.8505 807.287 66.334C810.465 65.3075 813.659 64.6091 816.948 64.2005C817.463 63.5493 818.088 63.6563 818.728 63.7659C819.197 63.8461 819.675 63.9277 820.123 63.7141C820.653 63.4609 821.147 63.1457 821.642 62.8296ZM817.486 51.91C817.445 51.8545 817.4 51.799 817.349 51.7444C817.371 51.767 817.391 51.7897 817.41 51.8125C817.438 51.8448 817.463 51.8772 817.486 51.91ZM850.127 51.6221C849.72 53.1735 850.314 53.3181 851.393 53.166C852.181 53.2368 852.923 53.1441 853.651 53.0531C854.289 52.9733 854.916 52.8949 855.556 52.929C856.16 52.9622 856.648 52.6547 856.584 51.4688C856.492 49.8114 855.517 48.8973 854.551 47.9906C854.058 47.5288 853.568 47.0689 853.197 46.5137C852.732 45.8169 851.432 46.4258 851.111 47.2226C850.764 48.0881 850.616 48.9905 850.468 49.8876L850.468 49.8881L850.468 49.8893C850.373 50.473 850.277 51.0545 850.127 51.6221ZM728.895 52.6717C728.944 52.561 729.484 52.5498 729.719 52.6587L729.716 52.6515C730.131 52.838 730.057 53.1948 729.986 53.536C729.971 53.6076 729.957 53.6785 729.947 53.747C729.705 55.4467 728.867 56.8524 728.027 58.2597C727.664 58.8684 727.301 59.4774 726.986 60.1106C725.736 62.6253 724.283 64.8624 722.216 66.67C722.121 66.753 722.026 66.8364 721.931 66.9199L721.912 66.9363L721.894 66.952L721.877 66.9672L721.861 66.9818C720.202 68.4409 718.513 69.9276 716.289 70.51C715.245 70.7833 714.766 71.5571 714.286 72.3327L714.286 72.3333C714.106 72.6238 713.926 72.9146 713.716 73.1793C713.602 73.3224 713.495 73.4806 713.388 73.638L713.388 73.6387C712.855 74.4256 712.336 75.1907 711.108 73.9251C710.688 73.4921 709.777 73.5214 709.119 74.0741C708.742 74.3904 708.33 74.6676 707.918 74.944L707.917 74.9444C707.738 75.0648 707.559 75.185 707.383 75.3083C707.348 76.0243 707.12 76.4304 706.345 75.951C706.227 75.9291 706.108 75.9065 705.99 75.8839C705.847 75.8565 705.704 75.8291 705.56 75.8027L705.452 75.8474L705.337 75.8344L705.303 75.9346L705.198 75.9362C704.876 76.2241 704.616 76.5869 704.357 76.9497C703.81 77.7152 703.264 78.4807 702.123 78.5418C701.676 79.1202 701.192 79.6006 700.355 79.3505C700.198 79.3043 699.939 79.3065 699.836 79.4054C698.164 81.0144 696.117 81.0831 694.057 81.1523C692.551 81.2029 691.038 81.2537 689.658 81.907C687.545 82.9071 685.056 82.8845 682.684 82.3817C682.539 82.3621 682.384 82.3769 682.23 82.3916C681.853 82.4276 681.476 82.4636 681.227 82.0044C680.67 81.8566 680.097 81.7716 679.524 81.6866C678.382 81.517 677.24 81.3475 676.227 80.6805C676.215 80.6794 676.203 80.6784 676.191 80.6777C676.181 80.6771 676.171 80.6766 676.161 80.6762C676.125 80.6748 676.089 80.6748 676.053 80.6756C676.015 80.6763 675.976 80.6778 675.938 80.6794C675.638 80.6913 675.336 80.7032 675.15 80.3465C674.811 80.1116 674.429 79.9397 674.047 79.7678C673.302 79.4328 672.557 79.0978 672.128 78.2972C671.988 78.1897 671.911 78.0285 671.833 77.8656C671.696 77.5808 671.557 77.2907 671.072 77.2722C669.207 77.204 668.314 76.4523 667.559 74.4104C667.264 73.6171 667.139 72.773 667.015 71.9316C666.808 70.5266 666.601 69.1292 665.606 67.9885C665.568 67.9457 665.586 67.8548 665.604 67.7636C665.609 67.7393 665.614 67.715 665.618 67.6915C665.62 67.6748 665.622 67.6586 665.624 67.6431C664.888 65.6665 664.53 63.7079 665.883 61.8218C665.868 61.115 666.223 60.5735 666.577 60.032L666.578 60.0314C666.758 59.7561 666.939 59.4807 667.07 59.1835C667.563 58.0738 667.692 56.968 667.834 55.7547L667.834 55.752C668.182 52.8023 668.605 49.728 670.773 47.3498C670.827 47.2903 670.878 47.213 670.929 47.1366L670.93 47.1361C671.027 46.99 671.122 46.8474 671.229 46.84C673.112 46.6937 673.914 45.3959 674.715 44.1004C675.02 43.6066 675.325 43.1131 675.69 42.6838C676.041 42.2717 676.514 42.1452 676.994 42.0172C677.355 41.9206 677.72 41.8232 678.038 41.6018C678.715 41.1301 679.373 40.6287 680.032 40.1272L680.033 40.1265C681.586 38.9439 683.14 37.7603 684.934 36.9629C686.868 36.1034 688.841 35.2555 691.022 35.2253C691.086 35.2244 691.151 35.2249 691.216 35.2258L691.276 35.2267C691.721 35.2337 692.152 35.2404 692.503 34.8721L692.614 34.8316L692.741 34.7846C693.593 34.47 694.447 34.1542 695.391 34.3766C695.545 34.3903 695.696 34.4004 695.851 34.4106C696.065 34.3766 696.281 34.3458 696.497 34.3149C696.974 34.2467 697.451 34.1784 697.918 34.0758C701.49 33.2875 705.002 33.7866 708.515 34.2858C709.489 34.4243 710.464 34.5629 711.441 34.6739C712.252 34.7666 713.076 34.7644 713.898 34.7623C714.112 34.7617 714.326 34.7611 714.54 34.7623C715.169 34.7635 715.733 34.832 715.975 35.5316C716.242 35.5379 716.512 35.5344 716.782 35.5309C718.157 35.513 719.534 35.495 720.556 36.7791C720.792 36.8232 721.032 36.871 721.269 36.9188C721.748 37.2575 722.289 37.2873 722.83 37.3172C723.099 37.3321 723.368 37.347 723.63 37.3998L723.691 37.4107L723.768 37.4239C724.373 37.5277 724.969 37.6299 724.918 38.5157C724.89 39.0152 725.218 39.2478 725.551 39.4838C725.657 39.5588 725.764 39.6341 725.859 39.7184C725.977 39.8215 726.102 39.9191 726.227 40.0168L726.227 40.0172C726.808 40.4707 727.39 40.9245 727.184 41.9189C727.082 42.4303 727.51 42.7082 727.961 43.0006L728.014 43.035L728.079 43.0775C729.195 43.812 729.991 44.8463 729.873 46.324C729.869 46.3776 729.866 46.4336 729.863 46.4905C729.845 46.8653 729.825 47.2783 729.322 47.2749C728.826 47.2726 728.519 46.9534 728.412 46.368C727.997 44.1527 726.974 43.1391 724.845 43.1055C722.345 43.0647 719.919 42.9425 717.477 42.1754C716.576 41.8921 715.633 41.982 714.667 42.074C713.698 42.1663 712.707 42.2608 711.714 41.9819C708.583 41.1008 705.34 41.377 702.169 42.0075C701.766 42.0877 701.401 41.9099 701.042 41.7353C700.536 41.4885 700.043 41.2482 699.473 41.7541C698.478 43.1321 697.336 44.1653 695.452 44.1183C693.986 44.0824 692.837 44.881 691.707 45.6664C691.265 45.9734 690.827 46.2783 690.373 46.5306C690.123 46.6699 689.872 46.8149 689.62 46.9606C688.706 47.4883 687.778 48.0244 686.827 48.3279C685.683 48.6917 684.886 49.3968 684.081 50.108C683.827 50.3328 683.572 50.5583 683.305 50.7737C683.099 52.3145 682.031 53.0358 680.702 53.5072C680.616 53.5791 680.53 53.6507 680.444 53.722L680.22 53.9074C680.081 54.0217 679.944 54.1358 679.807 54.2498C679.55 54.6986 679.243 55.1033 678.767 55.3426C678.86 56.0816 678.37 56.5092 677.92 56.9027L677.919 56.9034C677.776 57.0286 677.637 57.1503 677.522 57.2776C676.728 58.1458 676.091 59.1233 675.453 60.1026C674.768 61.1549 674.081 62.2094 673.197 63.1325C672.687 63.6646 672.623 64.6392 672.561 65.5911C672.537 65.9486 672.514 66.3029 672.467 66.6294C672.398 67.1185 672.393 67.6177 672.388 68.1158C672.386 68.3308 672.384 68.5457 672.376 68.7594C672.381 68.8077 672.386 68.8561 672.391 68.9047L672.406 69.0619C672.416 69.1646 672.426 69.2673 672.436 69.3692C672.623 69.5577 672.806 69.7505 672.99 69.9434C673.715 70.7078 674.44 71.4718 675.405 71.9648C675.676 71.9684 675.788 72.1882 675.899 72.4084C676.032 72.6695 676.165 72.9311 676.565 72.8333C677.275 73.2654 678.068 73.4292 678.86 73.5929C679.431 73.711 680.002 73.829 680.542 74.0476L688.696 74.4526C689.584 74.0248 690.539 73.9152 691.495 73.8053C692.04 73.7427 692.586 73.68 693.12 73.5581C693.484 73.4748 693.843 73.3675 694.201 73.2602L694.202 73.26C694.787 73.0849 695.372 72.9097 695.98 72.8388C696.441 72.4886 696.944 72.5482 697.448 72.6079C697.813 72.6512 698.178 72.6945 698.528 72.5817C699.067 72.0627 699.71 71.931 700.442 72.0062C701.229 72.0862 701.84 71.9178 702.326 71.1242C702.793 70.3648 703.544 70.3348 704.303 70.3045C704.853 70.2826 705.407 70.2605 705.86 69.9605C706.304 69.5834 706.839 69.5013 707.374 69.4192C707.729 69.3649 708.083 69.3105 708.411 69.1705C710.022 68.6361 711.63 68.0908 712.891 66.8798C713.673 66.1303 714.649 65.9948 715.625 65.8595C716.308 65.7647 716.991 65.6699 717.607 65.3644C717.767 65.1697 717.927 64.9751 718.086 64.7805L718.582 64.1743C718.837 63.8627 719.091 63.5514 719.346 63.2408C719.706 62.9474 720.057 62.6395 720.408 62.3317L720.408 62.3314L720.409 62.3308L720.411 62.3289L720.412 62.3286C721.205 61.6336 721.997 60.9389 722.886 60.41C724.739 59.3077 725.591 57.61 726.357 55.7486C726.62 55.1164 727.118 54.6626 727.621 54.2052C728.115 53.7553 728.614 53.3019 728.895 52.6717ZM294.892 72.3581C295.33 72.3585 295.769 72.3589 296.205 72.3721L296.209 72.3578C297.18 72.3872 298.141 73.4535 297.963 73.7598C297.805 74.0325 297.683 74.3612 297.56 74.6943C297.253 75.5268 296.936 76.3863 296.004 76.4661C293.853 76.6481 291.639 76.5551 289.591 75.6696C289.063 75.4434 288.657 75.4104 288.086 75.5327C287.992 75.5529 287.898 75.5746 287.802 75.5964C287.023 75.7744 286.197 75.9632 285.422 75.4671C285.191 75.2671 284.869 75.2438 284.546 75.2205C284.031 75.1833 283.516 75.1461 283.378 74.3908C281.552 74.7313 280.174 73.8345 278.796 72.9384C278.523 72.7605 278.249 72.5826 277.973 72.4145C277.968 72.4113 277.963 72.4081 277.957 72.4048C277.949 72.3999 277.941 72.3949 277.932 72.3899L277.932 72.3898L277.932 72.3896L277.931 72.3895C277.889 72.3648 277.844 72.339 277.834 72.3038C277.329 70.4973 276.154 69.8985 274.368 70.3324C274.238 70.3659 273.971 70.2311 273.916 70.1076C273.891 70.0526 273.866 69.9971 273.842 69.9413L273.789 69.8205C273.426 68.9814 273.072 68.1642 271.779 68.6046C271.73 68.6207 271.587 68.355 271.442 68.0864C271.372 67.9566 271.302 67.8262 271.242 67.7265C271.118 67.5636 270.99 67.4033 270.863 67.243C270.389 66.6484 269.914 66.0533 269.648 65.3192C266.483 64.1314 264.327 61.9438 263.172 58.7636C263.102 58.7031 263.032 58.6426 262.963 58.5821C262.892 58.5211 262.822 58.4601 262.751 58.399L262.72 58.3855C262.551 58.3115 262.38 58.2365 262.435 57.9933C262.021 57.7562 261.599 57.8239 261.177 57.8917C261.015 57.9177 260.853 57.9437 260.691 57.9526C260.578 57.9583 260.444 57.9729 260.307 57.9879C259.939 58.0278 259.55 58.0702 259.49 57.9511C258.694 56.4015 258.043 56.9662 257.391 57.5324C257.114 57.7728 256.837 58.0134 256.548 58.0927C256.243 58.1763 255.939 58.2835 255.635 58.3908L255.634 58.3908L255.634 58.3909L255.634 58.3909L255.634 58.391L255.634 58.391L255.634 58.3911C254.519 58.7845 253.398 59.1797 252.178 58.4265C251.548 58.0363 250.868 58.0916 250.113 58.2104C249.848 58.2527 249.584 58.3042 249.319 58.3557L249.319 58.3558C248.337 58.5473 247.351 58.7396 246.274 58.4608C245.318 58.2119 244.196 58.5613 244.161 59.9938C244.154 60.3502 243.95 60.5263 243.635 60.6103L243.591 62.3631L243.626 62.4209L243.678 62.5039L243.761 62.6361C244.501 63.8185 245.178 64.9007 244.567 66.5985C244.175 67.6929 244.808 69.2319 245.799 70.27C246.528 70.9688 246.499 71.825 246.47 72.6843C246.451 73.2484 246.432 73.8138 246.627 74.3369C246.774 74.7334 246.808 75.1732 246.842 75.6124C246.858 75.8159 246.873 76.0193 246.9 76.2183C247.591 76.588 247.354 76.9508 246.897 77.3129C246.899 77.4389 246.836 77.5026 246.71 77.5002C245.361 79.3863 243.727 79.0741 242.007 78.1192C240.45 77.7561 240.026 76.5201 239.602 75.2854L239.602 75.2849L239.602 75.2847L239.602 75.2846L239.602 75.2844C239.54 75.1051 239.479 74.9259 239.414 74.7494C238.627 74.0198 238.607 73.1008 238.587 72.1817C238.577 71.725 238.567 71.2684 238.463 70.8349C238.36 70.4067 238.367 69.9533 238.373 69.5008C238.376 69.2958 238.379 69.0909 238.371 68.8886C236.875 66.8109 236.222 64.4902 236.4 61.9369C234.402 59.748 232.082 60.3182 229.805 60.8779C229.436 60.9686 229.068 61.059 228.703 61.1374L228.585 61.1627C227.149 61.4708 225.815 61.7571 224.333 61.2659C223.273 60.9135 222.221 61.1322 221.159 61.3529C220.297 61.5319 219.429 61.7123 218.546 61.5905C218.04 61.5196 217.76 62.2452 217.773 62.8396C217.789 63.4812 217.812 64.1196 217.834 64.7611L217.834 64.7637L217.835 64.7665L217.836 64.8141C217.499 64.3792 217.282 63.9069 217.183 63.4296C217.278 63.9068 217.496 64.3755 217.836 64.8141C218.693 65.7092 219.463 66.6423 219.117 68.0184C219.424 68.5713 219.751 69.1133 220.078 69.6553C221.044 71.2539 222.009 72.8522 222.459 74.7299C222.612 75.3738 222.463 75.6446 222.075 75.9865C221.185 78.6881 218.394 78.6453 216.286 77.3553C215.511 77.1871 215.34 76.605 215.17 76.0234L215.17 76.0233C215.105 75.7989 215.039 75.5746 214.939 75.3741C214.878 75.3294 214.803 75.2877 214.728 75.2461C214.568 75.1568 214.408 75.0677 214.386 74.9494C213.954 72.7554 212.855 70.8834 211.757 69.0123C211.105 67.9025 210.454 66.793 209.942 65.6168C209.907 65.5343 209.867 65.4514 209.828 65.368C209.618 64.9232 209.401 64.4615 209.608 63.9288C206.878 62.6052 204.18 62.395 201.344 63.7809C200.817 64.0378 200.21 63.9871 199.578 63.9342C199.016 63.8873 198.435 63.8387 197.872 64.0023C196.236 64.4822 195.444 65.4825 196.197 66.9121C196.781 68.0217 197.076 69.2295 197.37 70.4338C197.744 71.9695 198.118 73.4998 199.089 74.8141L200.1 76.6592C200.801 77.047 201.188 77.6959 201.579 78.3515C201.936 78.951 202.296 79.556 202.904 79.9719C203.575 80.4313 203.05 81.1414 202.369 81.2219C201.873 81.2804 201.38 81.3705 200.887 81.4607C199.919 81.6378 198.949 81.815 197.952 81.7529C197.316 81.7155 196.823 81.5044 196.394 81.0208C195.846 80.402 195.288 79.7926 194.73 79.1832C193.877 78.2521 193.024 77.321 192.209 76.3565C191.32 75.3059 190.89 73.8861 190.6 72.6634C190.348 71.596 190.016 70.5505 189.685 69.5058L189.685 69.5056C189.196 67.9623 188.707 66.4206 188.474 64.8121C186.501 63.2875 186.833 61.4308 187.165 59.5708C187.369 58.4304 187.574 57.2889 187.247 56.2219C186.8 54.7657 186.707 53.2443 186.675 51.7025C186.662 51.0649 186.333 49.8271 185 50.3236L184.841 50.371L184.691 50.2997C180.295 51.8177 177.073 54.939 173.949 58.1919C173.864 59.0009 173.4 59.6155 172.936 60.2302C172.503 60.8033 172.07 61.3765 171.945 62.1073C172.03 62.181 172.115 62.2582 172.2 62.3355C172.173 62.3459 172.147 62.356 172.121 62.366C172.06 62.3888 172 62.411 171.939 62.4349L171.876 62.5129C171.972 63.765 171.188 63.9415 170.405 64.1176C170.013 64.2058 169.622 64.2939 169.341 64.5168C168.899 64.8684 168.093 64.8745 167.448 64.592L166.818 64.5799C166.371 64.8198 166.012 64.6185 165.672 64.3419C164.957 64.3472 164.297 64.1055 163.637 63.8638C162.923 63.602 162.208 63.3401 161.423 63.3925C160.78 63.2129 160.121 63.0819 159.463 62.9509C157.895 62.6389 156.328 62.327 154.965 61.36C153.548 61.3796 152.21 60.9794 151.033 60.2582C150.157 59.724 149.186 59.4687 148.217 59.2139C147.25 58.9598 146.286 58.7063 145.421 58.1771C144.282 58.1352 143.342 57.5809 142.404 57.0277C142.333 56.9856 142.262 56.9434 142.19 56.9016C141.867 56.8594 141.548 56.8136 141.229 56.7679C140.942 56.4842 140.557 56.3371 140.172 56.1899C139.566 55.9578 138.959 55.7258 138.738 54.9592C138.291 54.8102 137.844 54.6647 137.394 54.5193C136.426 56.2366 136.877 57.9706 137.313 59.6466L137.314 59.648L137.314 59.649C137.388 59.9331 137.461 60.2154 137.527 60.4958C137.99 62.4564 138.093 64.3597 137.94 66.3409L137.927 66.5153C137.802 68.1193 137.676 69.7358 137.898 71.349C138.037 72.3563 137.618 73.2125 137.166 74.0572C137.055 74.3249 136.839 74.5156 136.622 74.7065C136.339 74.9563 136.055 75.2065 136.006 75.6302C135.143 77.1296 133.007 77.0922 131.374 75.5449C130.944 74.9788 131.03 74.3762 131.116 73.7736L131.116 73.7734L131.116 73.7732L131.116 73.7731L131.116 73.7729L131.116 73.7728L131.116 73.7726C131.163 73.4418 131.21 73.111 131.172 72.7862C129.95 71.7617 128.824 71.4052 127.147 72.2084C125.99 72.7611 124.675 72.7574 123.353 72.7537C122.663 72.7518 121.971 72.7499 121.3 72.8271C120.805 73.3831 120.23 73.2873 119.655 73.1914L119.655 73.1914C119.431 73.1541 119.208 73.1168 118.988 73.1177C117.992 73.1469 117 73.2447 116.008 73.3424C114.488 73.4923 112.968 73.6421 111.433 73.5451C110.84 73.9339 110.195 73.9141 109.55 73.8943L109.549 73.8942C109.318 73.8871 109.086 73.88 108.857 73.8918C108.272 74.7664 107.485 74.9025 106.557 74.5174C106.014 75.0831 105.374 75.0672 104.699 74.8274C103.693 75.655 102.488 75.9495 101.284 76.2439C100.742 76.3764 100.201 76.5089 99.6769 76.6899C99.2676 76.7415 98.8583 76.7939 98.449 76.8464C98.0397 76.8988 97.6304 76.9513 97.2211 77.0028C95.7354 77.1868 94.2583 77.1116 92.8121 76.7381C92.7115 76.7121 92.6026 76.6928 92.4916 76.6732C91.9898 76.5845 91.4453 76.4882 91.4394 75.7215L91.3145 75.5809L91.1743 75.4235L91.0626 75.2984C90.9367 75.1573 90.8108 75.0163 90.6858 74.8752C89.8644 73.7924 89.5141 72.5275 89.1636 71.2615L89.1635 71.2613L89.1635 71.2611L89.1634 71.2609L89.1633 71.2607L89.1633 71.2606L89.1632 71.2604C88.9673 70.553 88.7714 69.8453 88.493 69.1688C88.4018 68.9461 88.3445 68.7146 88.2888 68.4892C88.1091 67.7629 87.945 67.0999 86.7144 66.9993C85.5363 66.9011 84.9359 64.4445 85.7849 63.5102C86.3142 62.928 86.2098 62.4174 86.0933 61.8476C86.0731 61.7488 86.0525 61.6482 86.0348 61.5452C85.7564 59.9339 86.16 59.3367 87.556 59.1402L87.6496 59.1348C87.7808 58.8326 87.9361 58.5462 88.0902 58.2619C88.6081 57.3069 89.1126 56.3767 88.6436 54.9552C88.4732 54.4354 88.067 54.2537 87.6988 54.089C87.2815 53.9022 86.9129 53.7373 86.9915 53.1266C86.8524 53.0191 86.7119 52.913 86.5708 52.8065L86.4426 52.7097L86.3249 52.6205C85.128 52.1906 84.0098 49.3496 84.819 48.238C85.1454 47.7904 85.215 47.3279 85.2832 46.8752C85.3307 46.5593 85.3776 46.2482 85.5105 45.9503C85.2028 44.9253 85.6259 44.4329 86.6545 44.449C86.7303 44.4501 86.8061 44.4519 86.8817 44.4537C87.4487 44.4674 88.0091 44.4809 88.52 44.1572C89.0886 43.7832 89.6826 43.9256 90.2764 44.0681C90.8661 44.2095 91.4556 44.3508 92.02 43.9867C93.7209 43.2704 95.3796 43.6299 97.0309 44.1909C98.2854 43.0425 99.8646 43.2097 101.276 43.3592L101.276 43.3592C101.611 43.3947 101.937 43.4293 102.247 43.4449C104.19 43.5433 106.108 43.3036 108.022 43.0644C110.393 42.768 112.758 42.4724 115.156 42.8213C115.796 42.9139 116.442 42.8731 117.091 42.8321C118.364 42.7519 119.646 42.671 120.901 43.5942C121.727 44.2006 123.482 44.6124 124.325 42.8677C124.366 42.7825 124.608 42.7951 124.85 42.8077C124.963 42.8136 125.075 42.8194 125.168 42.8155L125.183 42.7717L125.199 42.7245C125.211 42.69 125.223 42.6553 125.234 42.6207C125.256 42.5553 125.278 42.49 125.301 42.4256C128.057 39.6157 130.5 39.587 133.331 42.3961C133.466 42.5302 133.638 42.6278 133.81 42.7254C134.151 42.9193 134.493 43.1134 134.546 43.5933L134.556 43.6043C134.818 43.6418 134.93 43.7988 134.922 44.0543C135.807 44.6245 136.694 45.1938 137.58 45.7631L137.59 45.7696L137.594 45.7717L137.597 45.7737C138.476 46.3386 139.356 46.9034 140.234 47.4691C140.89 47.4097 141.366 47.7573 141.826 48.1299C141.862 48.1486 141.897 48.1744 141.925 48.2074C144.856 49.8324 147.967 51.0445 151.078 52.2568L151.078 52.2569L151.45 52.4017C151.954 52.6001 152.471 52.6516 152.99 52.7033C153.502 52.7542 154.017 52.8054 154.525 52.9973C155.343 53.3083 155.995 53.6341 156.529 54.2817C156.763 54.3236 156.996 54.3666 157.229 54.4096C159.846 54.8922 162.463 55.3749 165.08 54.2911C167.01 53.2983 168.69 51.9694 170.272 50.5017C170.269 50.2784 170.351 50.1468 170.602 50.202C171.224 49.663 171.849 49.1205 172.475 48.5779C172.736 47.7485 173.406 47.4887 174.076 47.2283C174.427 47.092 174.778 46.9556 175.072 46.7373C175.627 46.3233 176.141 45.856 176.656 45.389C177.567 44.5611 178.477 43.734 179.615 43.2056C179.742 43.1461 179.862 43.0618 179.984 42.9769C180.293 42.7608 180.608 42.5406 181.049 42.7146C181.566 42.4332 182.059 42.1235 182.549 41.8152L182.549 41.8151C184.076 40.8545 185.581 39.908 187.755 39.8761C189.397 39.8529 191.02 39.2975 192.655 38.7383C193.92 38.3053 195.192 37.87 196.485 37.6779C199.97 37.1579 203.533 36.8806 207.086 37.3162C208.584 36.5742 210.056 37.1201 211.391 37.615C211.578 37.6844 211.763 37.7527 211.944 37.8163C213.08 38.2127 213.948 38.3661 215.141 38.2378C216.428 38.1005 217.804 38.0225 219.125 38.1631C219.701 38.2247 220.271 38.344 220.841 38.4633C221.936 38.6926 223.032 38.9219 224.175 38.7426C226.479 38.7076 228.661 38.0257 230.718 37.1253C232.666 36.2769 234.612 36.3035 236.617 36.414C237.34 36.2771 238.083 36.2835 238.825 36.29C240.034 36.3004 241.239 36.3108 242.347 35.703C242.843 35.4318 243.231 35.6009 243.606 35.764C243.789 35.8436 243.968 35.9217 244.155 35.9466C245.101 36.0708 246.037 35.9554 246.968 35.8405C248.062 35.7057 249.15 35.5715 250.245 35.8258C251.581 35.9199 252.914 36.0139 254.243 36.1079C255.339 36.5904 256.459 36.4943 257.58 36.398C258.182 36.3464 258.784 36.2947 259.383 36.3326C260.22 36.3858 261.058 36.4222 261.896 36.4586C264.713 36.5809 267.529 36.7032 270.276 37.4636C270.523 37.5324 270.733 37.7373 270.943 37.9425L270.943 37.9428C271.04 38.0372 271.136 38.1317 271.237 38.213C271.904 38.2307 272.523 38.4554 273.144 38.6805C273.895 38.9529 274.648 39.226 275.489 39.1337C275.956 39.0824 276.048 39.4082 276.142 39.7415C276.2 39.9461 276.259 40.1536 276.406 40.2784C278.768 40.1689 280.97 40.5461 282.709 42.3403C282.78 42.3669 282.826 42.4182 282.846 42.4942L282.866 42.5141L282.867 42.5151C283.037 42.6847 283.21 42.8573 283.383 43.0266C284.692 43.9556 285.72 45.1565 286.674 46.4279C288.249 48.6943 288.114 49.9197 286.088 51.4724C285.972 51.5607 285.858 51.6501 285.743 51.7395C284.658 52.5844 283.573 53.4293 282.06 53.4296C281.51 53.4298 281.075 53.7672 280.725 54.2214C280.43 54.601 280.01 54.9422 279.508 54.8354C277.269 54.352 275.327 55.1329 273.305 55.946L273.121 56.0199C271.334 56.7346 270.926 57.1984 271.749 59.1119L271.767 59.1231C272.03 59.0885 272.158 59.1954 272.134 59.465C272.622 59.5464 272.948 59.8155 273.075 60.3041C273.55 60.6877 274.021 61.0677 274.496 61.4477C275.529 62.0014 276.365 62.8036 277.202 63.6062C278.059 64.4278 278.916 65.2498 279.985 65.8058C280.055 65.8428 280.075 65.9834 280.095 66.1227C280.103 66.1803 280.111 66.2377 280.123 66.2874C282.025 66.3059 283.608 67.0889 284.986 68.3541C285.412 68.9351 286.032 69.1749 286.653 69.4149C287.036 69.5625 287.418 69.7103 287.755 69.9376C289.349 69.5147 290.03 70.5859 290.711 71.6574C290.744 71.7087 290.776 71.76 290.809 71.8112C291.211 71.8953 291.632 71.8577 292.053 71.82C292.821 71.7513 293.588 71.6827 294.238 72.3559C294.385 72.3571 294.532 72.3576 294.68 72.3579L294.891 72.3581L294.892 72.3581ZM125.763 66.858C126.671 66.7897 127.449 66.7311 128.327 67.1429L128.331 67.1286C129.718 67.7818 130.531 67.2069 130.862 65.5244C130.772 64.8081 130.69 64.0905 130.607 63.3729C130.186 59.7148 129.765 56.0565 128.43 52.5719C128.433 52.514 128.429 52.4539 128.425 52.3939L128.423 52.3744L128.425 52.4022L128.425 52.4023C128.428 52.4596 128.431 52.517 128.43 52.5719C127.786 52.4266 127.791 51.957 127.795 51.4923C127.798 51.1012 127.802 50.7135 127.419 50.5251C127.151 50.3937 126.883 50.2563 126.615 50.1186C125.009 49.294 123.384 48.4596 121.49 48.8521C120.702 49.0158 119.916 49.2005 119.131 49.3854C116.751 49.945 114.37 50.505 111.915 50.4795C107.804 50.4402 103.777 50.8922 99.7905 51.8527C98.8327 52.0828 98.0466 52.5574 98.1379 53.6071C98.1678 53.9659 98.1814 54.3251 98.1949 54.6833L98.195 54.6837C98.2105 55.096 98.226 55.5069 98.2663 55.9142C98.4051 57.3032 99.1362 58.3867 100.697 58.0566C101.519 57.884 102.343 57.8819 103.164 57.8799C103.676 57.8786 104.188 57.8773 104.698 57.8345C105.051 57.8046 105.413 57.7611 105.778 57.7173C107.203 57.546 108.685 57.368 109.976 57.9575C111.674 58.7319 113.11 58.529 114.715 57.9224C116.034 57.422 117.451 57.0531 118.551 58.439C118.74 58.6767 118.987 58.7499 119.162 58.656C120.041 58.1867 120.942 58.3193 121.176 59.2204C121.421 60.1505 121.278 61.2137 120.236 61.8959C118.925 62.7565 117.462 63.2398 115.997 63.6689C114.651 64.062 113.255 64.2114 111.869 64.3598L111.868 64.3598C111.086 64.4436 110.305 64.5271 109.538 64.654C108.673 64.7967 107.805 64.9373 106.937 65.078L106.932 65.0789C105.23 65.3546 103.524 65.6309 101.826 65.9247C101.793 65.9227 101.759 65.9208 101.725 65.9189C101.672 65.9161 101.619 65.9134 101.566 65.9107C101.478 65.9063 101.391 65.902 101.305 65.8967C101.227 65.9116 101.148 65.9261 101.07 65.9407C99.8517 66.1668 98.6148 66.3963 97.686 67.7789C98.3148 67.74 98.8951 67.7975 99.4494 67.8526L99.4495 67.8526C100.264 67.9333 101.022 68.0086 101.795 67.7642C103.859 67.1082 105.992 66.9005 108.129 66.6924C109.687 66.5407 111.246 66.3889 112.781 66.0631C114.322 65.7371 115.907 65.8459 117.495 65.9548C118.625 66.0324 119.757 66.1101 120.876 66.0312C121.752 65.9695 122.552 66.2178 123.336 66.4611L123.336 66.4612C124.098 66.6974 124.844 66.9291 125.63 66.8679L125.763 66.858ZM201.277 59.854C202.047 60.1674 202.983 60.5483 203.132 60.0018L203.136 60.0055C203.445 58.8796 204.27 58.3394 205.081 57.8089C205.723 57.3891 206.355 56.9754 206.715 56.2824C206.629 56.1044 206.414 56.0594 206.198 56.0143C205.859 55.9433 205.519 55.8722 205.68 55.2831C204.732 54.7495 204.693 53.8773 204.655 53.0191C204.64 52.666 204.624 52.3154 204.545 51.9916C204.282 50.9069 204.168 49.7839 204.054 48.6601L204.054 48.6597L204.054 48.6594L204.054 48.659L204.054 48.6587L204.054 48.6584L204.054 48.658C204.006 48.1859 203.958 47.7136 203.899 47.244L203.889 47.2186C202.825 46.0099 201.43 46.1595 200.081 46.3785C200.041 46.3848 200.001 46.3912 199.962 46.3978C199.909 46.4064 199.857 46.4152 199.805 46.424L199.802 46.4245L199.802 46.4246L199.801 46.4247L199.8 46.4248C199.251 46.5177 198.715 46.6082 198.157 46.4928C196.069 47.3349 194.14 48.3097 194.375 51.0726C194.424 51.4861 194.478 51.8995 194.532 52.3129L194.532 52.3137C194.776 54.1768 195.02 56.0402 194.787 57.9187C194.641 59.0768 195.337 59.2995 196.03 59.5212C196.384 59.6344 196.738 59.7474 196.977 59.9845C197.426 60.4252 198.166 60.4502 198.687 59.74C199.209 59.0247 199.781 59.2587 200.39 59.5082C200.51 59.5573 200.631 59.6069 200.754 59.6501C200.909 59.7042 201.088 59.777 201.277 59.854ZM212.254 53.7097C212.324 54.3772 212.606 54.8615 213.042 55.2012C212.606 54.8579 212.328 54.3773 212.254 53.7097ZM213.042 55.2012C213.187 55.3156 213.347 55.4159 213.526 55.4985C213.347 55.4123 213.187 55.3156 213.042 55.2012ZM223.388 54.2691C225.269 54.8454 226.462 53.9789 227.761 53.0244L227.754 53.0278C231.03 50.8689 231.11 50.622 229.111 48.7003C227.385 48.9949 225.866 48.5048 224.494 47.4666L223.796 47.4316C221.271 47.4263 218.713 47.0531 216.347 46.4675C214.252 45.9448 212.282 45.9033 210.227 45.9323C209.288 45.9467 208.818 46.4238 208.986 47.4065C209.393 48.1874 209.874 48.9263 210.354 49.6653C211.063 50.754 211.771 51.8433 212.245 53.0685C214.288 55.7184 214.763 55.8608 218.043 54.9839C218.365 54.8976 218.689 54.8007 219.014 54.7033C220.464 54.2698 221.945 53.8268 223.388 54.2691ZM266.681 49.8615C266.915 49.7581 267.157 49.6175 267.399 49.4771C267.934 49.1659 268.468 48.8556 268.911 48.9532C269.702 49.1278 270.397 48.9363 271.087 48.7464C271.488 48.6359 271.887 48.526 272.302 48.489C272.976 48.4299 274.106 48.2103 274.09 47.1657C274.076 46.2364 273.156 45.9955 272.391 45.916C271.26 45.8001 270.126 45.7102 268.991 45.6203C266.917 45.456 264.843 45.2917 262.793 44.9683C262.223 44.8785 261.643 44.8306 261.061 44.7827C259.624 44.6643 258.179 44.5453 256.873 43.7924C256.932 43.7287 256.99 43.6686 257.049 43.6085C256.987 43.6685 256.928 43.7286 256.873 43.7924C251.957 44.4362 247.017 44.4817 242.074 44.4841C241.98 44.5291 241.89 44.5165 241.805 44.4537C240.193 44.8524 239.494 45.9349 239.71 47.7011C239.304 47.4953 238.87 47.2457 238.588 46.9378C238.496 46.8316 238.419 46.7221 238.364 46.6058C238.416 46.7256 238.493 46.8351 238.588 46.9378C238.87 47.2493 239.304 47.4989 239.71 47.7011C239.669 47.938 239.629 48.1713 239.588 48.4082C240.201 48.726 240.507 49.2684 240.671 49.909C240.571 49.8468 240.462 49.7892 240.353 49.7316C240.274 49.6899 240.195 49.6481 240.119 49.6046C240.197 49.6494 240.277 49.6922 240.358 49.7351C240.464 49.7915 240.571 49.848 240.671 49.909C241.006 50.0595 241.07 50.3616 241.133 50.6637C241.189 50.9277 241.245 51.1917 241.482 51.3541C241.503 51.3512 241.525 51.3479 241.547 51.3445C241.772 51.311 242.052 51.269 242.083 51.5313C242.347 53.6717 243.637 53.4048 245.197 53.0639C245.497 52.9981 245.801 52.8938 246.108 52.7885C247.098 52.4488 248.12 52.0982 249.149 52.9921C249.311 53.1357 249.752 53.0577 250.023 52.9621C250.823 52.6838 251.619 52.3967 252.415 52.1097L252.415 52.1096L252.415 52.1096L252.415 52.1095L252.415 52.1094L252.415 52.1094L252.416 52.1093C253.522 51.71 254.629 51.311 255.743 50.9365C256.175 50.7921 256.37 50.5474 256.62 50.233L256.67 50.1707L256.71 50.1214L256.723 50.1055C257.024 49.7361 257.229 49.2979 257.433 48.8607C257.784 48.1103 258.134 47.3625 258.967 46.969C259.273 46.3519 259.762 46.1885 260.395 46.3915L260.461 46.447C261.49 47.3134 262.519 48.1793 264.021 47.8979C264.073 47.9499 264.124 48.0023 264.175 48.0547L264.257 48.1386L264.258 48.1394L264.259 48.141L264.262 48.1443C264.961 48.8609 265.657 49.5762 266.678 49.8574L266.681 49.8615ZM351.626 43.9913C351.293 43.5312 350.879 43.5448 350.366 43.8123C349.461 44.2846 348.639 44.3841 348.453 43.0121C348.419 42.7558 348.169 42.6574 347.902 42.6739C347.343 42.7096 346.781 42.5618 346.217 42.4136C345.12 42.1252 344.016 41.8351 342.919 42.8915C342.589 43.2092 341.633 43.018 341.013 42.8693C339.76 42.5643 338.572 42.3903 337.448 43.2293C337.185 43.4259 336.96 43.3496 336.688 43.1067C335.45 41.9954 334.169 41.4415 332.316 41.6724C331.997 41.7119 331.64 41.8413 331.267 41.9762C330.14 42.3847 328.87 42.8444 328.094 41.0188C328.049 40.9171 327.467 40.8915 327.277 41.0283C326.27 41.7677 325.207 41.6157 324.144 41.4636C323.86 41.423 323.575 41.3824 323.292 41.3587C323.137 40.7231 322.694 40.7207 322.251 40.7182C322.114 40.7174 321.977 40.7167 321.848 40.6972C321.153 40.5907 320.466 40.6952 319.779 40.7998C319.033 40.9134 318.287 41.027 317.531 40.87C315.365 40.3639 313.186 40.2716 310.989 40.6255C309.409 40.8401 307.787 40.9998 306.235 41.0672C304.506 41.1423 302.774 41.0688 301.038 40.9952C299.137 40.9146 297.232 40.8338 295.323 40.9477C293.227 41.0731 292.413 41.8461 291.649 44.1792C290.823 46.7048 292.053 48.5074 293.298 50.3343C293.454 50.5627 293.61 50.7914 293.762 51.022L293.785 51.0274L293.823 51.036L293.89 51.0507C293.912 51.0554 293.933 51.0601 293.956 51.0653L294.043 51.1455L294.107 51.2043C294.178 51.2703 294.25 51.3369 294.32 51.4036C296.296 51.9025 296.721 52.6092 296.199 54.5149C295.808 55.9406 295.627 57.3306 296.951 58.4292L296.931 58.4965L296.902 58.5896L296.859 58.7263L296.858 58.7288L296.857 58.7315C296.634 59.439 296.411 60.1483 296.569 60.9173C296.823 61.2713 296.906 61.6903 296.99 62.1096C297.086 62.5939 297.183 63.0786 297.542 63.4638C297.079 65.2308 297.785 66.6801 298.492 68.13C298.851 68.8675 299.211 69.6051 299.416 70.3848C299.181 71.2588 299.691 71.7867 300.188 72.3027C300.405 72.527 300.619 72.749 300.769 72.9963C301.181 73.674 301.253 74.039 300.533 74.036C299.182 74.0279 298.652 74.8929 298.087 75.8139C297.966 76.0112 297.843 76.2109 297.711 76.4053C298.206 76.242 298.696 76.0147 299.184 75.788L299.185 75.7879C300.803 75.0367 302.404 74.2934 304.152 75.9204L304.878 75.9559C305.875 76.6089 306.987 76.5632 308.097 76.5176L308.267 76.5107L308.296 76.5149C310.673 77.6696 313.204 77.7398 315.723 77.3345C316.909 77.1433 318.1 77.0781 319.291 77.0128C320.326 76.9562 321.361 76.8995 322.393 76.7604C323.102 76.665 323.818 76.6065 324.533 76.5481C326.935 76.3518 329.321 76.1568 331.389 74.5673C331.788 74.7196 332.155 74.5965 332.521 74.4741C332.819 74.374 333.117 74.2742 333.43 74.3256C334.506 74.5047 334.944 74.0018 334.956 73.0009C335.132 72.9599 335.307 72.9192 335.483 72.8786L335.79 72.8078C336.067 72.7439 336.344 72.68 336.621 72.6152C337.077 72.7092 337.305 72.4192 337.533 72.1288C337.565 72.0882 337.597 72.0476 337.63 72.008C337.63 72.008 337.673 72.0052 337.676 72.0053C338.367 72.0149 339.097 71.8381 339.194 71.1162C339.332 70.0782 339.889 69.5775 340.742 69.1402C340.999 69.0093 341.172 68.7177 341.347 68.4248C341.426 68.2906 341.506 68.1561 341.595 68.0367C342.385 66.9751 342.101 66.4043 340.795 66.3937C340.385 66.3914 339.972 66.4658 339.56 66.54C339.486 66.5534 339.411 66.5667 339.337 66.5796C339.295 66.5869 339.254 66.594 339.212 66.6009C338.061 66.7919 336.969 67.1669 335.871 67.5435C334.019 68.1792 332.154 68.8195 329.972 68.5877C328.729 68.4549 327.43 68.5708 326.112 68.6884C324.858 68.8001 323.589 68.9133 322.337 68.8156C322.232 68.8071 322.123 68.7898 322.014 68.7726C321.759 68.7321 321.503 68.6915 321.288 68.763C317.985 69.8879 314.593 69.704 311.201 69.4948C309.905 69.432 308.984 68.6958 308.063 67.9602C307.5 67.51 306.937 67.06 306.289 66.7646C306.268 66.5005 306.223 66.2275 306.178 65.9545C305.985 64.7848 305.792 63.6139 307.56 63.134L307.585 63.1345C308.557 62.8094 309.545 62.8554 310.535 62.9013C311.027 62.9242 311.52 62.9471 312.01 62.9242L316.701 61.9988C317.649 62.0753 318.601 62.0934 319.553 62.1114C321.188 62.1424 322.822 62.1734 324.437 62.5002C324.892 62.5918 325.226 62.4182 325.601 62.2057C326.743 61.5615 327.922 61.6129 329.159 62.0039C330.368 62.3837 331.629 62.4295 332.83 61.934C332.994 61.8662 333.158 61.797 333.322 61.7277C334.748 61.1258 336.165 60.5277 337.799 60.9563C337.995 61.0069 338.407 60.9248 338.445 60.8139C338.786 59.8028 339.584 59.2668 340.378 58.7334C340.623 58.5685 340.868 58.4038 341.099 58.2254C341.589 57.8451 341.473 57.4094 341.362 56.9924C341.314 56.812 341.267 56.6351 341.27 56.4678C341.281 55.9182 340.527 56.0667 340.09 56.1528L340.071 56.1567C339.255 56.3141 338.531 56.1428 337.769 55.9624L337.768 55.9623L337.768 55.9622L337.767 55.9622L337.767 55.9621C337.578 55.9174 337.387 55.8722 337.192 55.8313C334.58 55.2806 331.861 54.8539 329.133 55.1148C328.666 55.1122 328.223 54.9748 327.779 54.8374C327.215 54.6626 326.651 54.4877 326.038 54.5909C325.286 54.4049 324.528 54.537 323.774 54.6685C322.899 54.8211 322.029 54.9728 321.181 54.6237C318.942 53.7031 316.64 53.7836 314.341 53.864C313.14 53.9059 311.94 53.9479 310.749 53.8472C310.587 53.8441 310.422 53.8373 310.26 53.8306C309.985 53.8062 309.71 53.7716 309.436 53.7371L309.435 53.737C308.831 53.6609 308.227 53.585 307.627 53.618C306.18 53.6947 305.411 53.0677 305.19 51.6735C305.134 50.815 305.73 50.5622 306.304 50.3184C306.417 50.2704 306.53 50.2228 306.636 50.1709C307.351 49.8201 308.112 49.8442 308.873 49.8682C309.217 49.8791 309.561 49.89 309.901 49.8663C311.44 50.0174 312.981 49.9847 314.52 49.9522C315.261 49.9365 316.002 49.9208 316.742 49.9256C317.801 49.9325 318.853 49.8599 319.907 49.7872C321.392 49.6847 322.88 49.582 324.391 49.7016C324.642 49.7217 324.906 49.7551 325.178 49.7896L325.179 49.7896C326.572 49.9661 328.178 50.1695 329.352 48.749C329.525 48.5362 330.454 47.9707 330.65 48.8135C330.806 49.4906 331.154 49.4566 331.512 49.4217C331.632 49.41 331.753 49.3982 331.869 49.4131C333.3 49.5954 334.72 49.4858 336.119 49.1454C336.882 48.9593 337.728 48.9856 338.539 49.0108C339.517 49.0413 340.443 49.0701 341.113 48.7227C341.714 48.4118 342.38 48.2927 343.041 48.1747C344.069 47.9909 345.081 47.8099 345.806 46.9115C346.027 46.6349 346.416 46.4731 346.786 46.6387C348.784 47.5305 350.034 46.5138 351.074 44.9746C351.142 44.8741 351.275 44.808 351.408 44.7419C351.689 44.602 351.971 44.4623 351.633 43.9986L351.626 43.9913ZM337.629 72.005C337.615 71.9553 337.595 71.9054 337.579 71.8522C337.583 71.8663 337.588 71.8808 337.593 71.8954C337.606 71.932 337.619 71.9694 337.629 72.005ZM79.2818 62.877C79.168 62.4357 79.0484 61.9954 78.9287 61.555C78.277 59.1566 77.6248 56.7564 77.9232 54.1944C77.9965 53.5621 77.9792 52.7768 77.3704 52.2573C77.3417 52.0659 77.3129 51.8781 77.2806 51.6867C77.2692 51.2226 77.2831 50.7552 77.297 50.2879L77.297 50.2875C77.3445 48.6943 77.392 47.1028 76.4324 45.6534C76.5719 44.9467 76.6609 44.2462 76.1656 43.6209C76.1724 43.5495 76.1839 43.4771 76.1954 43.4046C76.2451 43.0909 76.2949 42.7765 75.9635 42.5332C75.8447 42.2157 75.7926 41.8426 75.7404 41.4695C75.5852 40.3591 75.43 39.2488 73.5195 39.6056L73.5054 39.5909C73.5488 39.391 73.4312 39.3745 73.3128 39.3579C73.2804 39.3534 73.248 39.3488 73.2189 39.3406C71.5557 37.5298 68.8528 37.4095 68.2382 39.2521C67.8488 40.4221 67.4604 41.729 67.8406 43.0974C68.0471 43.8423 68.2639 44.5853 68.4807 45.3285L68.481 45.3294C69.3872 48.436 70.2946 51.5462 70.4611 54.8181C70.3787 55.2766 70.6988 55.5347 71.0083 55.7842C71.3189 56.0346 71.6186 56.2763 71.4897 56.7031C71.0074 58.3062 71.5945 59.7409 72.1509 61.1009L72.151 61.1013C72.2818 61.4208 72.4108 61.7362 72.5238 62.0486C73.2754 64.1228 74.0911 66.2305 75.1428 68.2276C75.2926 68.5118 75.4102 68.8131 75.5244 69.1056C75.9395 70.1688 76.3093 71.1159 78.0127 70.7025C78.1211 70.6764 78.2563 70.7749 78.3945 70.8756L78.3946 70.8757C78.4682 70.9294 78.5427 70.9837 78.6146 71.0201C78.7402 71.0832 78.8405 71.2028 78.9407 71.3224C79.156 71.5794 79.3714 71.8364 79.8386 71.5333C80.4105 71.1626 80.4809 70.6815 80.4286 70.0323C80.2448 67.6162 79.8804 65.2362 79.2744 62.8876L79.2818 62.877ZM67.8971 63.3899C67.5911 63.219 67.3009 63.0129 67.0108 62.8069C66.2311 62.2532 65.4519 61.6999 64.3691 61.8314C62.513 60.5505 60.3746 60.0139 58.251 59.4811L58.2506 59.481L58.2503 59.4809L58.2499 59.4808L58.2495 59.4807L58.2491 59.4806C57.7696 59.3603 57.2909 59.2401 56.8164 59.1117C54.712 58.5419 52.4977 58.0781 50.3387 58.1051C49.1022 58.1217 48.0283 57.6999 46.9684 57.2836C46.1408 56.9585 45.3217 56.6367 44.4404 56.5298C41.2582 56.1443 38.1155 55.5431 34.9729 54.9419L34.9728 54.9419C33.3021 54.6223 31.6315 54.3027 29.955 54.0155C29.6945 54.0015 29.4348 53.9866 29.1752 53.9717C28.9156 53.9568 28.656 53.9419 28.3954 53.9279C24.1489 52.5104 19.7682 51.897 15.3271 51.43C13.4458 51.2319 11.5264 50.3992 9.96132 49.098C9.29562 48.5451 9.10136 47.9832 9.80467 47.3269C10.2079 47.1794 10.5817 46.9614 10.9555 46.7434C11.596 46.3698 12.2365 45.9962 13.0251 45.9772C13.5472 45.7895 14.0914 45.6654 14.6354 45.5414L14.6355 45.5414C15.6769 45.3039 16.7179 45.0666 17.6029 44.3834C18.344 44.5586 18.9592 44.267 19.5742 43.9755C19.9636 43.7909 20.3529 43.6064 20.774 43.5405C21.2158 43.4215 21.6584 43.3034 22.101 43.1853L22.1047 43.1843L22.1084 43.1834C22.5511 43.0653 22.9937 42.9472 23.4354 42.8282C23.8949 42.7866 24.3535 42.7441 24.8121 42.7016L24.8124 42.7016L24.8127 42.7015L24.813 42.7015L24.8133 42.7015C25.2715 42.659 25.7296 42.6165 26.1887 42.575C27.1135 42.4365 28.0392 42.2972 28.9649 42.1578L28.9685 42.1572L28.971 42.1569L28.9722 42.1567L28.9734 42.1565L28.9758 42.1562L28.9794 42.1556C29.9051 42.0162 30.8308 41.8769 31.7556 41.7384C33.778 41.7088 35.7735 42.1361 37.5721 42.8944C38.9389 43.468 39.9132 43.3138 41.0093 42.6183L41.0193 42.6319L41.0301 42.647L41.0301 42.6471L41.0301 42.6471L41.0301 42.6471L41.0302 42.6471L41.0302 42.6472C41.0576 42.6857 41.085 42.7242 41.1219 42.7537C41.1396 42.7684 41.2046 42.7553 41.2156 42.7411C42.3637 40.4657 41.9266 39.0638 39.7684 38.1149C39.7087 37.8473 39.5754 37.6719 39.2685 37.7308C39.1275 37.553 39.043 37.3236 38.9585 37.094C38.7736 36.5916 38.5885 36.0886 37.81 36.1256L37.774 36.1249C37.7478 35.6303 37.4216 35.6464 37.0962 35.6624L37.0961 35.6624L37.0723 35.6636C37.0452 35.6649 37.0182 35.6661 36.9914 35.6669C36.976 35.6153 36.964 35.5512 36.952 35.4875C36.9269 35.3547 36.9023 35.2237 36.849 35.2105C34.387 34.6148 31.871 34.3953 29.3609 34.1763C29.0855 34.1523 28.8102 34.1283 28.535 34.1038C27.7521 34.0347 26.9227 34.1376 26.2366 34.6502C24.6142 35.206 22.9857 35.7077 21.2419 35.2853C21.0308 35.2236 20.8786 35.2855 20.799 35.4965C20.128 36.0171 19.3333 36.1099 18.5388 36.2026C17.8371 36.2845 17.1355 36.3665 16.5193 36.743C16.2045 36.9357 15.8327 37.024 15.461 37.1124C14.775 37.2754 14.0894 37.4384 13.7633 38.2565C13.6554 38.2545 13.5898 38.3 13.5626 38.4075C13.2083 38.474 12.8779 38.636 12.5469 38.7983C11.8861 39.1223 11.223 39.4474 10.3636 39.0159C8.54987 38.1096 6.97713 38.8932 5.50308 39.9704C5.2364 40.3343 4.86887 40.5971 4.50157 40.8597C3.98355 41.2301 3.46599 41.6001 3.23244 42.253C3.1175 42.2436 3.04454 42.2962 3.01715 42.4109L2.89669 42.5023C1.2485 43.6553 0.736007 45.4279 0.888585 47.2241C1.02671 48.8364 1.77797 50.3668 3.19339 51.4059C3.64018 51.7373 4.04977 52.12 4.45946 52.5028C5.30195 53.29 6.14481 54.0775 7.31215 54.4197C7.87004 55.2539 8.71579 55.5 9.5571 55.7449C9.98146 55.8684 10.4047 55.9916 10.7893 56.1898C11.9599 56.7968 13.1906 56.8863 14.4269 56.9762C15.3613 57.0441 16.2989 57.1123 17.2162 57.4042C18.3177 57.7559 19.5018 57.9602 20.687 58.1647C21.8907 58.3725 23.0955 58.5804 24.216 58.943C27.3433 59.9563 30.5438 60.592 33.7392 61.2267L33.7392 61.2267C35.143 61.5055 36.5458 61.7842 37.9409 62.0945C39.4138 62.4223 40.9137 62.6306 42.4133 62.8387C45.6728 63.2912 48.9308 63.7435 51.907 65.4235C52.0992 65.5316 52.3719 65.5692 52.5954 65.5447C53.9156 65.4005 55.1465 65.7538 56.3784 66.1075C57.2387 66.3545 58.0994 66.6016 58.9914 66.6794C59.9216 66.7621 59.7739 67.3354 59.3562 67.9143C58.9866 68.4294 58.3383 68.8418 57.8725 68.7465C56.0437 68.3761 54.4627 69.0221 52.8855 69.6666C51.7864 70.1158 50.6891 70.5642 49.5111 70.6673C48.7779 70.6409 48.1024 70.8843 47.4269 71.1278C46.7213 71.382 46.0159 71.6363 45.245 71.5828C44.6652 71.6427 44.0845 71.6972 43.5037 71.7518L43.5034 71.7518L43.5031 71.7519L43.5027 71.7519L43.5024 71.7519L43.5021 71.752C42.2274 71.8717 40.9524 71.9914 39.6865 72.1675C38.6615 72.3089 37.6155 72.2972 36.5716 72.2856C34.8384 72.2663 33.111 72.247 31.4949 72.9284C28.822 74.0546 26.0377 74.048 23.3662 73.7878C21.2405 73.5778 19.0578 73.345 16.9284 72.9512C16.8445 72.9357 16.7537 72.909 16.66 72.8814C16.2935 72.7737 15.8836 72.6532 15.6765 73.1396C15.4735 73.6238 15.8505 73.9363 16.1884 74.2164C16.2269 74.2483 16.265 74.2798 16.3016 74.3111C16.3729 74.3728 16.4452 74.4267 16.5157 74.4793L16.5158 74.4794C16.7739 74.6719 17.0098 74.8479 17.1023 75.3276C17.4487 77.1419 17.8712 78.558 20.4902 78.7451C21.5007 78.8178 22.5051 79.0385 23.516 79.2607L23.5161 79.2608C25.1034 79.6097 26.7067 79.9621 28.3745 79.7499C29.1638 79.6498 29.9505 79.6899 30.7405 79.7301C31.6538 79.7766 32.5715 79.8234 33.5026 79.6539C35.3464 79.3188 37.2246 79.1666 39.102 79.0143C39.7427 78.9624 40.3832 78.9105 41.0223 78.8513C41.6256 78.7955 42.2799 78.9064 42.8937 79.0105L42.8938 79.0105C43.4937 79.1123 44.055 79.2074 44.492 79.1339C47.5706 78.6169 50.6727 77.9959 53.7058 77.2223C54.7989 76.9439 55.9097 76.7579 57.0211 76.5719C58.8905 76.259 60.7612 75.9458 62.5513 75.192C63.0289 74.9914 63.5119 74.8057 63.9936 74.6205L63.9942 74.6203L63.9943 74.6203C65.7954 73.9279 67.5792 73.2421 68.9945 71.812C69.087 71.7652 69.1799 71.7187 69.2729 71.6722C70.7712 70.9231 72.2691 70.1743 71.9347 68.0046C71.69 67.6172 71.4686 67.2092 71.2473 66.8011L71.2472 66.8009L71.2471 66.8007L71.2469 66.8005L71.2468 66.8003L71.2467 66.8001C70.4705 65.3692 69.6941 63.9378 67.9078 63.3937L67.8971 63.3899ZM899.838 56.9805C899.703 57.302 899.592 57.6384 899.534 58.0117C899.926 57.4755 899.972 57.1343 899.838 56.9805ZM641.396 50.5382C641.884 50.0435 642.532 49.8326 643.146 49.686L643.157 49.6754C644.021 49.4687 644.872 49.7659 645.67 50.1342C645.514 50.4455 645.461 50.7898 645.408 51.1361C645.307 51.7854 645.206 52.4416 644.423 52.9009C643.517 53.4344 642.538 53.7017 641.559 53.9689C640.868 54.1577 640.177 54.3464 639.511 54.6287C637.455 55.5003 635.319 56.2155 633.115 56.7061C632.954 56.7413 632.798 56.7802 632.643 56.8188C632.201 56.9289 631.771 57.0361 631.27 57.0452C630.316 57.0665 629.191 57.2249 628.957 58.5419C629.725 58.9502 629.637 59.5647 629.55 60.179C629.518 60.4023 629.486 60.6256 629.496 60.8389C630.527 61.6124 630.817 62.7294 631.107 63.8471C631.28 64.513 631.453 65.1791 631.782 65.7729C631.675 67.2364 632.168 68.571 632.66 69.9056C632.58 70.8773 633.047 71.6462 633.515 72.4149C633.919 73.0798 634.324 73.7447 634.373 74.5405C635.42 75.4717 636.256 76.5284 636.354 78.0067C636.953 78.8104 637.402 79.5968 637.417 80.7098C637.426 81.5814 637.554 82.5525 638.508 83.2838C639.072 83.7123 639.79 84.5507 639.649 85.5203C639.618 85.7301 639.633 85.96 639.649 86.1914C639.691 86.8389 639.735 87.4976 638.778 87.7578C638.345 87.8758 637.96 88.1009 637.576 88.3247C636.638 88.8725 635.713 89.4128 634.13 88.3599C632.62 87.3544 632.05 85.9761 631.487 84.6142C631.157 83.8165 630.83 83.0245 630.317 82.3163C629.576 81.2937 629.111 80.0892 628.644 78.878C628.375 78.1817 628.106 77.4832 627.782 76.8158C627.697 76.6393 627.609 76.4617 627.522 76.283C626.735 74.6845 625.904 72.9936 625.856 71.1109C625.133 70.7443 625.151 70.1086 625.17 69.4743C625.173 69.3899 625.175 69.3055 625.176 69.2218C625.02 68.3864 624.659 67.6113 624.298 66.8363C623.747 65.6533 623.196 64.4704 623.373 63.0727C622.463 62.2432 622.354 61.0431 622.258 59.9889C622.246 59.8557 622.234 59.7248 622.22 59.5973C622.069 58.1288 621.206 57.9286 620.247 57.8454C619.061 57.7434 617.823 57.77 616.661 58.0034C615.534 58.2298 614.385 58.2789 613.236 58.328C611.467 58.4036 609.698 58.4791 608.018 59.2022C607.977 59.2217 607.898 59.1527 607.822 59.0857C607.79 59.0577 607.759 59.0301 607.73 59.0094C607.475 58.9973 607.216 58.9887 606.961 58.9802C605.668 59.4631 604.362 59.6505 603.124 58.8886C602.706 58.6316 602.287 58.6947 601.872 58.7573C601.543 58.8069 601.216 58.8562 600.893 58.7449C598.209 59.1507 597.492 59.9615 597.079 63.072C597.036 63.3908 597.015 63.7134 596.994 64.0347C596.984 64.184 596.974 64.3331 596.962 64.4813C596.87 64.887 596.776 65.2924 596.681 65.6978C596.033 68.4737 595.385 71.2505 595.521 74.1438C595.499 74.1952 595.47 74.2465 595.441 74.2978C595.38 74.4068 595.319 74.5159 595.314 74.626C595.196 77.2931 593.035 77.7399 591.172 78.1254L591.106 78.1389C589.392 78.4936 588.343 77.23 587.244 75.9068L587.172 75.82C585.344 73.6207 585.987 71.5733 586.778 69.3739C587.015 67.1375 587.628 64.989 588.241 62.8405C588.726 61.1397 589.21 59.4389 589.509 57.6945C589.522 57.6165 589.538 57.5395 589.552 57.463C589.617 57.1347 589.679 56.8172 589.569 56.4821C589.265 56.0537 589.347 55.6007 589.429 55.1483C589.446 55.0533 589.464 54.9583 589.477 54.8635C588.471 54.8262 588.134 54.3876 588.108 53.3068C588.024 50.0139 588.492 49.0255 590.833 48.361C591.749 47.7824 591.939 46.8403 592.123 45.9246C592.187 45.6071 592.251 45.2928 592.343 44.9979C592.38 44.8797 592.417 44.7614 592.454 44.6432C592.726 43.7695 592.998 42.8965 593.35 42.0501C593.381 41.9762 593.415 41.9029 593.449 41.8296C593.539 41.6372 593.629 41.445 593.664 41.2423C594.177 38.2994 594.31 35.3203 594.407 32.3406C594.47 30.3289 595.012 28.5424 596.67 27.2491C598.097 26.0162 599.825 25.927 600.754 27.0323C602.257 27.4284 602.965 26.5058 603.434 25.3301C604.131 23.577 605.439 22.3436 606.746 21.1108C607.579 20.3256 608.411 19.5407 609.085 18.622C609.178 18.4933 609.456 18.5028 609.734 18.5123C609.862 18.5167 609.991 18.5211 610.102 18.5119C610.591 18.5455 611.098 18.4782 611.605 18.4108C612.832 18.2478 614.06 18.0847 615.046 19.3522C615.284 19.8933 615.816 20.1124 616.293 20.172C617.682 20.3463 618.537 21.3673 618.779 22.4199C619.023 23.4869 619.468 24.462 619.912 25.4354C620.294 26.2734 620.675 27.1102 620.928 28.003C621.07 28.5083 621.453 28.8772 621.841 29.2514C622.324 29.7163 622.815 30.1894 622.864 30.9425C622.96 31.4108 622.945 31.8872 622.929 32.3631C622.91 32.982 622.89 33.6003 623.115 34.199C623.987 36.1567 624.741 38.1336 624.274 40.3429C625.198 40.7891 625.177 41.8544 625.164 42.4945L625.163 42.5421C625.137 43.7705 625.598 44.8159 626.056 45.8548C626.361 46.5449 626.664 47.2321 626.822 47.9682C627.04 48.9806 627.671 49.2664 628.589 49.2264C628.948 49.0952 629.183 49.2836 629.42 49.4723C629.492 49.5296 629.563 49.587 629.639 49.6355C630.616 50.3412 631.439 49.9282 632.265 49.5144C632.699 49.297 633.133 49.0793 633.59 49.0236C634.508 48.9105 635.42 49.0148 636.322 49.1181C637.607 49.2652 638.872 49.41 640.107 48.9218C640.359 49.1699 640.276 49.3426 640.198 49.5025C640.177 49.5462 640.157 49.5889 640.143 49.6319C640.104 49.7616 640.034 49.8974 639.963 50.0342C639.77 50.4074 639.572 50.7883 639.993 51.073C640.459 51.3881 641.011 50.9269 641.396 50.5382ZM616.959 36.8137C616.996 36.895 617.033 36.9762 617.07 37.0573C617.016 36.9351 616.961 36.8142 616.906 36.6938C616.869 36.6138 616.833 36.5341 616.797 36.4543C616.851 36.5751 616.905 36.6946 616.959 36.8137ZM605.882 29.1905C605.887 29.1257 605.892 29.061 605.893 28.9962C605.892 29.061 605.89 29.1258 605.882 29.1905ZM605.443 30.6831C605.548 30.4208 605.653 30.1593 605.735 29.8934C605.656 30.1488 605.555 30.4002 605.454 30.6521C605.38 30.838 605.305 31.0243 605.239 31.2127C605.235 31.2876 605.238 31.3653 605.24 31.4428C605.246 31.6108 605.252 31.7783 605.193 31.9176C604.415 33.7363 603.858 35.6263 603.301 37.5163C603.095 38.217 602.888 38.9177 602.671 39.6148C602.358 40.6135 602.156 41.6386 601.955 42.6654C601.665 44.1409 601.374 45.6197 600.751 47.0283L600.735 47.0653C600.423 47.7709 599.682 49.4469 601.422 49.7527C603.476 50.1126 605.59 50.2 607.683 50.2402C609.179 50.2689 610.675 50.2013 612.172 50.1337C612.841 50.1035 613.51 50.0733 614.18 50.0517C614.615 49.9661 615.059 50.0057 615.502 50.0452C616.146 50.1027 616.791 50.1602 617.411 49.8328C618.413 49.8989 619.014 49.5179 618.971 48.4224C618.731 46.8477 618.492 45.273 618.254 43.6984C618.015 42.1238 617.776 40.5493 617.537 38.9748L617.537 38.9676C616.259 37.8916 616.189 36.4534 616.34 34.9512C615.899 34.4453 615.803 33.8239 615.707 33.2025C615.628 32.6855 615.548 32.1687 615.269 31.7185C614.885 31.547 614.789 31.2052 614.692 30.8625C614.666 30.7693 614.64 30.6759 614.608 30.5859C613.987 30.1239 613.939 29.4568 613.974 28.7625C613.616 28.6255 613.618 28.3533 613.621 28.0803C613.622 27.9528 613.623 27.825 613.587 27.7108C612.695 27.1699 611.728 27.1782 610.761 27.1865C610.304 27.1904 609.848 27.1943 609.4 27.1407C608.954 27.5832 608.539 28.0577 608.124 28.5322C607.257 29.5232 606.391 30.514 605.239 31.2127C605.303 31.0348 605.373 30.8588 605.443 30.6831Z" fill="#F9C414"/>
</g>
<defs>
<clipPath id="clip0_52_590">
<rect width="900" height="91.458" fill="white" transform="translate(1.75574) rotate(1.1)"/>
</clipPath>
</defs>
</svg>
