<?xml version="1.0" encoding="UTF-8"?>
<svg id="Layer_1" data-name="Layer 1" xmlns="http://www.w3.org/2000/svg" viewBox="0 0 89.08 44.09">
  <path class="cls-1" d="m46.24,39.92c.22,0,.49-.04.76-.04.27.04.49.09.71.09.31-.05.67-.09.94-.05h.94c.31.05.49-.04.85.05.31,0,.58,0,.94-.05.36,0,.62.05.98.05.31-.09.67-.05.94-.05.36-.04.71.05,1.03,0,.31-.04.62,0,1.03.05.36-.05.62,0,1.03-.05.27,0,.58-.04.98.05.31-.09.67-.05.98-.05.36,0,.67-.04.98-.09.4.09.67,0,1.03.04.36,0,.67-.09,1.03-.04.31.04.67-.05.94-.05.4-.04.71,0,.94.05.36-.05.67-.05.94-.09.36.04.71-.09.94-.05.36,0,.62-.09.94-.09s.54-.04.8,0c.27-.04.54-.09.85-.13.22,0,.58,0,.85-.09.22,0,.45-.05.67-.05.27,0,.54-.09.67-.13.27-.05.45-.05.67-.09.4-.04.67-.22,1.03-.27.27,0,.49-.05.67.18.27.13.49.36.76.76.09.27.22.49.36.85.04.22.04.54.13.72-.04.22-.13.45-.31.58-.13.18-.4.27-.8.36-.45-.04-.76-.04-1.43.04-.27-.18-.49-.18-.8-.13-.22-.05-.54-.13-.76-.13-.31,0-.58-.05-.85-.13-.27.05-.49-.04-.8-.04-.27-.05-.54-.05-.85-.05-.36,0-.58,0-.85-.04-.31.04-.62-.09-.89-.05-.36-.09-.62-.09-.98-.04-.27-.05-.62-.09-.89-.13-.27.05-.58.05-.94,0-.31,0-.67-.09-.94,0-.31-.09-.67-.09-.98-.13-.27.04-.58.09-.89.04-.36.05-.62,0-.94-.04-.31,0-.67.04-.94.04s-.62-.04-.98-.04c-.31,0-.54-.05-.94-.05-.31,0-.58.05-.89,0-.27,0-.58,0-.89-.04-.31.09-.58.09-.89,0-.36,0-.62.09-.89.04h-.89c-.22-.04-.49.05-.76.05s-.62,0-.8-.05c-.31,0-.54.05-.85,0v.05h-.31c-.13,0-.31.04-.58.04-.31.05-.49,0-.89,0-.27,0-.71.05-1.03-.04-.36.04-.71,0-1.25,0-.27.04-.71.04-1.16,0-.49,0-.85.09-1.34.09-.4,0-.8.09-1.07,0-.36.09-.85.04-1.21,0-.36.04-.62.04-.98.04-.27.05-.58,0-.76-.04-.22.04-.36.04-.49.04h-.18c0-.09-.22-.09-.54.09l-1.07-.13-.09-.05-.58.22h-.13l-.4.18h-1.03c-.13,0-.22-.09-.4-.22l-.36.13-.18.18h-.13l-.09-.09v-.22l-.09.05-.13.27-1.07.04c-.13-.04-.27-.13-.49-.22l-.18.09v.13h-.4c-.36.05-.62.05-.98.09-.31.05-.58-.04-.94,0-.31.09-.62.09-1.03.09-.22.13-.58.05-.94.09h-.04l-.36.27.8.04c-.13,0-.4.05-.67.05-.31,0-.58.04-.76,0-.27-.05-.58.04-.98-.05-.49.13-.85.13-1.25.13-.27-.05-.62-.09-.8-.13l-.04.05c0,.09-.13.09-.45,0l-.58.27-1.07.18.8.04h1.74l.85.09.85-.04.94.04.8.09.85.05.89-.05c-.18.05-.31.05-.54.05-.27-.05-.45,0-.76.04-.27-.04-.49,0-.89-.04-.22,0-.62.09-.98,0-.4.04-.76.09-1.07.09-.27,0-.89,0-1.12.18-.45-.04-.89.05-1.16-.04-.36.09-.62,0-1.03.09-.36.04-.67.09-1.03.04-.27.09-.58.13-.71.22-.27,0-.49,0-.67.04l-.36.09c-.45-.04-.76-.09-1.03-.22-.27-.09-.45-.31-.71-.54-.13-.36-.27-.67-.27-.99-.04-.18-.18-.49-.18-.76-.04-.31-.09-.63-.09-1.03.04-.22.04-.58.09-.85.09-.22.13-.49.4-.67.13-.13.4-.13.76-.13.31-.05.58.04.76,0,.27.09.58.04.89.18h.89c.31.09.62.04.94.13.31.04.76,0,1.07.04.36.09.67.05,1.07.09.31,0,.8.09,1.12.05.27.04.71.04,1.16.18.22.04.67-.13,1.03-.05.36.18.71.18,1.07.13.49.04.8-.05,1.16.04.36,0,.76-.04,1.16,0,.31.13.67.13,1.07.27.45-.09.76.05,1.12-.04.36,0,.71,0,1.07.04.31-.04.67.13.94.09.31,0,.76.05,1.03.05.36,0,.58.09.89,0,.27.09.67.09.94.04.22,0,.4,0,.67.05.27.04.49,0,.76.04h1.96l.22-.04h.49c.27,0,.58,0,.94-.05.31-.04.71.05,1.16.13.36-.04.85-.04,1.25.05.36-.05.76-.13,1.12-.13.27.04.54,0,.71-.09l.22-.18c.18,0,.49,0,.8,0Z"/>
  <path class="cls-1" d="m86.13,15.95c.84.2,1.44.64,1.87,1.21.27.34.8,1.04.9,1.51.17.67.13,1.44.17,2.45,0,1.44-.23,2.95-.47,4.29l-.07.03c-.1.3-.17.47-.2.47,0,.13-.07.44-.27.9-.1.37-.2.8-.37,1.21-.07.3-.13.57-.13.74-.1.2-.17.44-.2.8,0,.03,0,.1.03.13.07-.1.1-.23.1-.37.1,0,.13-.03.17-.13l.03-.27-.03-.1c.1-.47.17-.74.23-.77,0-.03.03-.07.13-.13-1.1,4.49-3.51,10.85-8.5,12.23-1.41.37-1.91-.44-3.72-.64-1.71-.17-2.81-3.12-3.01-6.8-.2-4.35.9-9.71,3.88-12.39-.03.07-.07.13-.13.2v.17h.03l.17-.3h.13s0,.07.03.07c.13-.03.2-.1.23-.17v-.03s0-.03-.07-.03l-.1.1h-.07c0-.07,0-.13.03-.23,1.1-.9,2.48-1.47,4.15-1.54,1.31-1.88,3.85-2.88,5.02-2.58Zm-6.56,14.74c-1.14-1.74-1.44-5.02-1-7.47h.1v-.03l-.1-.07c.03-.13.07-.27.1-.37h-.03s.07-.1.13-.13c0-.13.07-.3.2-.47.03-.03.07,0,.07,0l-.1.17-.1.4c.07,0,.2-.34.23-.3h.03c0-.07.03-.13.17-.27-.03-.1,0-.13.07-.17v-.17l-.33.07c-.07,0-.17.13-.27.34.03.07-.1.17-.3.27v.07c.07,0,.1,0,.1.03v.03c-.17.23-.27.4-.27.44-.07.03-.1.1-.1.2-.07.03-.07.2-.1.5-.2.03-.3.1-.3.17v.07c.1,0,.17,0,.17.07-.03.03-.1.13-.13.23-.07.03-.1.13-.1.27-.13.17-.2.27-.23.27l.07.13v.03s-.07.1-.2.13l-.03.03.03.07.03.1c-.1,0-.17.1-.27.27l.07.07v.07c-.03.07-.07.13-.13.2l.03.13.03.07-.03.07s.03.03.07.03c-.03.07-.1.17-.23.3v.07l.07.07v.07c-.03.2-.07.3-.17.34,0,.2-.03.3-.07.34l-.23,2.18c.1-.6.27-1.51.44-2.18-.7,3.92-.67,10.22,1.27,10.52,1.27.17,2.44-.67,3.25-1.57.74-.84,1.41-1.81,1.31-2.01.5-.27,2.21-7.03,2.38-7.67l-.77,1.81c.1-.44.23-.87.33-1.31.64-2.41,2.81-13.63-2.58-6.23-2.61,3.65-3.08,6.63-2.54,9.75Zm8.54-3.25c0-.07.03-.2.07-.4.07-.03.1-.2.1-.47.03-.07.07-.1.1-.13-.1.47-.23.9-.33,1.31l.07-.3Zm-.07.3v.07-.07Z"/>
  <path class="cls-1" d="m65.27,25.46c.03-.07.3-.3.33-.3.47.07,1.47-.34,1.87-.13.03,0,.07.03.07.1-.07.17-.07.27,0,.4h-.07s-.03.07-.03.07c.07.03.1.03.1.03l.07-.03s.03-.07.03-.1v.37c-.27,1.34-.23,1.64-.43,2.98,1-1.37,1.74-2.91,2.71-4.32.17-.84,2.81,0,2.68.54-.07.44-.17.9-.27,1.34v.1c-.1.47-.2.94-.33,1.41v.03c-.07.34-.17.67-.3,1.34-.3,1.24-.37,2.45-.37,3.65,1.14-1.41,3.01-3.32,3.05-3.35-.97,1.54-3.58,7.07-4.15,7-.5-.07-2.01-.4-2.04-.8-.03-.07-.17-.54-.13-.64.94-2.75.97-4.66,1.37-7.94-.4.74-.84,1.47-1.21,2.21-.8,1.71-1.64,3.38-1.67,5.26,0,.07,0,.17-.07.27v-.07s-.03,0-.1.03l.03-.03v-.37c0-.17.03-.27.03-.34,0,.03-.03.07-.07.1-.03.17-.03.27-.07.3h-.07l-.03.03v.1s.03-.03.03,0v.03c-.03.13-.1.27-.13.47-.03.03-.07.1-.07.17,0,.1-.03.17-.07.23-.07.07-.13.1-.17.13-.3.13-1.54,0-1.57-.4-.07-.57.1-1.61.03-2.24.03-.13.03-.27.03-.4.1-2.14.84-4.69.6-5.13.34-1,.04-1.07.37-2.11Z"/>
  <path class="cls-1" d="m66.11,35.47c.07-.1.13-.23.13-.3v-.1s.07,0,.13-.03v.1c-.1.13-.2.23-.27.33Z"/>
  <path class="cls-1" d="m67.45,25.76c-.03.1-.03.17-.03.17v.3l.03.03v-.03c.03-.13.03-.2.07-.2-.03-.1,0-.17.03-.17l.03-.03-.03.07s.03.03.07,0v-.13l-.03-.03s-.1,0-.17-.03c0,0,0,.03.03.07Z"/>
  <path class="cls-1" d="m71.1,27.17s-.07.1-.13.23c0,.23-.07.44-.1.54,0,.03,0,.07.03.03.03,0,.03-.03.03-.07.07-.07.1-.13.07-.17.03-.03.07-.07.03-.13.07-.1.1-.23.13-.4l-.07-.03Z"/>
  <path class="cls-1" d="m71.33,26.76c.03-.1.03-.13.03-.13,0-.07,0-.27.07-.6h-.07c-.07.13-.07.23-.07.23-.03,0-.03.13-.03.34-.07.1-.1.2-.13.37v.03c.03-.07.1-.1.17-.17l.07-.03c0,.1-.03.13-.03.13.03.13,0,.2-.03.2v.2s-.07.1-.07.27v.03l.07-.03c.03-.27.1-.44.13-.54.03-.07.03-.1.03-.13-.03,0,.03-.07.1-.2-.03-.07-.03-.17,0-.3-.03.03-.07.13-.13.3l-.1.03Z"/>
  <path class="cls-1" d="m71.63,25.99c-.07.03-.07.1-.07.17-.03.07-.03.13.03.23,0,0,0-.03.03-.07,0-.1,0-.13.03-.17.03,0,.07-.13.07-.34-.07.07-.1.13-.1.17Z"/>
  <path class="cls-1" d="m63.8,26.26c-.43,1.64-.84,3.28-1.27,4.96v-.03l-.03-.07s.03-.07.03-.13l-.03-.03v-.13l-.03.03s-.03.03-.03.07h-.07v.03c.03.07.03.1-.03.13,0,.1.03.13.03.13-.03.07-.07.13-.1.13l.03.03s.03-.03.03,0c0,0,0,.07-.03.13,0,0-.03.03-.03.07-.07.03-.07.07-.03.1h-.03v.13h-.07v.03s.07.03.07.03c0,0-.03.03-.1.03v.07s.03,0,.03.03v.1s-.03.03-.03.03c.03.1.03.17,0,.2l-.03.03.03.07-.07.07.07.34.03-.17s.03-.03.07-.1l-.03-.07.03-.03-.03-.03c0-.07.03-.1.07-.13.03,0,.03-.03.03-.07h-.03s.07-.07.07-.07l-.03-.13h.03l.03-.03s-.03,0-.03-.03c0,0,0-.03.03-.07v-.03l.03-.03-.03-.03v-.13c.07-.07.1-.13.1-.17-.03-.07,0-.13.03-.23h.07c-.03.2-.1.37-.13.54-.03.13-.13.77-.17.9.07.03.23-.47.33-.44,1.47-1.71,2.28-2.38,3.65-4.09l-2.75,5.06c-.3.57-.5,1.11-.77,1.57-.23.4-.7,1.04-.87,1.01-.54-.07-1.21-.3-1.41-.74-.3-.64-.3-1.47-.43-2.31.03-.84.8-3.38,1.21-5.53l.03.03c-.07.1-.07.2-.07.23v.13l.03-.03c.07-.1.1-.2.1-.34.03,0,.07-.03.07-.1l.03-.03s.03,0,.07.07c-.03,0-.03.07-.03.13,0,.03-.03.1-.07.23,0,0-.03.03-.03.1l-.03.03s-.07.07-.07.2c-.03.07-.07.13-.07.2v.1l.03.03.07-.03s.03-.03.03-.03h.07v-.17s.07-.07.07-.07v-.13l.07-.2s.03-.03.03-.13c0,0,.03,0,.03-.07l-.07-.13h-.03c.07-.07.1-.2.13-.34.03-.1.07-.17.1-.2v-.07s-.07-.07-.07-.07l-.03.03c-.03.1-.07.17-.1.17l.03.1-.07.13h-.03s-.07,0-.07-.03c0-.17.03-.23.1-.27.03-.1.03-.13.07-.13v-.07l-.03-.03v-.13h-.03l.03-.07v-.1l-.03-.03h.03s.07-.07.07-.13l-.03-.03c.07-.1.1-.17.1-.17l-.03-.1v-.03s0-.03.07-.07v-.17l.07-.03v-.13l-.07.07v.03l-.03-.03-.03.03h-.03l-.07.2s0,.07-.03.2v.17l.03.03-.07.07s-.03.03-.07.07c.03-.34.07-.64.07-.9.03-.74,1.14-.4,1.67-.37.74.03.94.57.7,1.37Z"/>
  <path class="cls-1" d="m64.6,21.91c-.03.13-.07.3-.13.47-.1.37-.17.74-.2,1.07-.1.74-1.17.4-1.71.4-.57-.03-.77-.37-.7-.9.03-.13.07-.27.13-.44.07-.4.17-.77.2-1.11.1-.74,1.17-.4,1.71-.37.57,0,.77.34.7.87Z"/>
  <path class="cls-1" d="m64.04,22.98v-.03h-.3c-.17.03-.3.07-.33.1l.03.03.17-.03.03.03c.17,0,.27,0,.3.03l.1-.13Z"/>
  <path class="cls-1" d="m64.54,23.05s-.03,0-.07-.03l-.03.07h.07l.03-.03Z"/>
  <path class="cls-1" d="m54.66,23.85c-.74-.03.17-.97.23-1.44.07-.34.17-.7.37-.7.54-.03,1.61.17,2.44.13.4-1.14.3-1.84.27-2.85.23-.54.67-.6,1.97-.5.23.03.77,0,.67.23l-.07.1.03.07h.03l.03-.07.03.07-.07.17c0,.07,0,.1-.07.13v.1s.07,0,.07.03c0,.1-.03.2-.07.2,0,.13-.03.23-.07.34.03.1,0,.17-.03.27,0,.03,0,.1-.03.2,0,.13-.1.77-.13,1.01,0,.07,0,.13-.07.23l.03.1c.07-.03.1-.07.07-.17.03,0,.17-.57.2-.8l.1-.13s.07-.1.13-.23h.03c-.17.77-.33,1.14-.37,1.81,2.95.34,6.23.64,8.6,1-.17,0-.74.03-1.51.07v-.03h-.3l-.13-.03s-.1.03-.23.03c-.33-.03-.54-.03-.54,0-.1-.03-.2-.03-.37-.03l-.13-.03h-.03v-.03c-.1.07-.2.07-.27.07-.17.03-.27.03-.33.03-.13-.03-.27-.03-.37.03-.13,0-.23.03-.23.03l-.1-.07-.07-.03c-.07,0-.1,0-.13.03h-.47s-.13.03-.3.03l-.07-.07-.13-.03c-.1,0-.17.03-.2.07-.17-.03-.3-.03-.3,0-.17-.03-.23-.03-.27,0l.03.03c-.07.03-.1.03-.13.03h-.03s0-.07-.03-.07h-.23l-.13-.03-.07.07s0,.03.07.03h-.1l-.03.07h-.1l-.03.03.1.03.07-.07h.13c.1-.03.17-.03.17-.03h.03s.07,0,.03.03l-.03.03.03.03s.1,0,.2-.03c.2,0,.3,0,.33-.03l.13.03.23-.03.27.07c-1.74.07-3.25.13-3.28.17-.13.1-.2.77-.27,1.04-.27,1.37-.6,3.08-.64,3.15-.03.1-.03-.13-.07-.03l-.03.13c-.3,1.44-.57,3.82-.7,5.16.54-.97,3.31-4.49,3.65-5.16-1.41,3.45-3.58,7.5-4.18,9.92-.07.44-.33.57-.7.67-.57-.03-1.71-1.21-1.64-2.01.07-1.11.1-2.38.37-3.72,1.07-5.03,1.27-7.34,1.71-9.11-.06,0-2.57.03-2.98.27Z"/>
  <path class="cls-1" d="m55.93,35.64c-.1.1-.13.13-.1.17v.03l.13-.07s.03,0,.03-.03l-.07-.2-.03.03.03.07Z"/>
  <path class="cls-1" d="m55.83,36.04l.03.13c0-.13,0-.2.03-.2l-.03-.03s-.03.03-.03.1Z"/>
  <path class="cls-1" d="m55.93,35.37c.07,0,.07-.03.07-.07l-.03-.07h-.07l.03.13Z"/>
  <path class="cls-1" d="m56.07,36.38h-.03v.03h.03v-.03Z"/>
  <path class="cls-1" d="m56.07,34.24h.03v-.07s-.03.03-.03.07Z"/>
  <path class="cls-1" d="m56.1,33.87c.07-.1.1-.13.1-.17h-.03l-.03-.07v-.03s0-.1.07-.17t-.03-.03c-.07.07-.1.23-.07.47Z"/>
  <path class="cls-1" d="m56.34,31.92h.03c.1-.07.13-.1.13-.1-.03,0-.07,0-.1-.03l-.07.03s-.03,0-.03.03c0,0,.03.03.03.07Z"/>
  <path class="cls-1" d="m60.65,20l-.03.03v.03h.03s.03-.03,0-.07Z"/>
  <path class="cls-1" d="m60.96,18.96s0,.1-.03.13l.03.13c-.07.17-.1.23-.13.23h-.03l-.03-.03c-.03.07-.07.13-.07.27v.03l.13-.03v.03s-.03.07-.03.07c-.07.03-.1.07-.1.1.03.03,0,.07-.03.1.1,0,.17-.07.2-.17l.03-.03c.03-.1.03-.2.07-.3.07-.34.1-.57.07-.77-.03.13-.07.23-.07.23Z"/>
  <path class="cls-1" d="m61.22,23.28l-.1-.03s-.07,0-.1.03c-.03,0-.03.03,0,.03h.03s.03-.03.03-.03l.17.03-.03-.03Z"/>
  <path class="cls-1" d="m61.19,27.23c0-.07.03-.1.03-.17v.03c0,.07,0,.1-.03.13Z"/>
  <path class="cls-1" d="m61.42,23.01l.03-.03h-.23v.03c.1,0,.17.03.2,0Z"/>
  <path class="cls-1" d="m61.66,23.25s0-.03-.03-.03c-.03.03-.1.03-.13,0,0,.03,0,.07-.03.1l.13.03.07-.1Z"/>
  <path class="cls-1" d="m50.19,34.34c1.21.13,3.58-.64,2.91-1.24-.17-.17-.3-.27-.47-.4-.84-.7-1.67-1.34-2.14-2.04-.23-.34-.64-.77-.7-1.14-.17-1.24,1.44-4.89,3.18-5.13.5-.13,1.47-.2,1.91.5.03-.17.07-.3.1-.4.23-.67.97-.17,1.41-.07,1.64.4-1.21,1.81-2.01,4.72-.23-.03-.07-1.71.17-2.85-.33-.1-.8.03-1.24.57-.9,1.07-1.27,2.04-.94,3.02.1.23.2.47.37.7.1.13.23.3.37.44.4.44.94.9,1.61,1.41.74.54.8,1.54.7,2.01-.17.74-1.21,1.14-2.28,1.51v-.03h.03l.03-.07h-.03v-.03s-.03-.07,0-.07h.03v.07h.03c.03-.07.03-.1,0-.1v-.03h.03v-.03s.03,0,0-.03c-.03.03-.07.07-.13.07-.03,0-.03.03-.07.03s-.1.03-.17.07c-.03-.03-.07-.03-.1-.03l-.07.07s-.07.03-.1.03c-.03.03-.07.07-.1.03l-.03.03h-.03c-.1.03-.17.07-.17.03l-.03.03h-.1l-.03.03s-.1.03-.1.07c-.03-.03-.07.03-.13.07l-.03-.03c-.07.03-.17.07-.33.07v-.03s-.03.03-.1.07h-.1s-.03.03-.07.03v-.03l-.03.03s-.07.03-.1.03-.57.1-.57.1h-.64l-.03-.03s-.07.03-.1,0c-.07.03-.13.03-.13,0-.07.03-.1,0-.13,0s-.1,0-.17-.03c0,.03-.03.03-.1,0h-.13c-.64-.4-.84-1.21-.54-2.01.3-.7,1.34-1.51,2.01-1.71-1.44,1.17-1.17,1.67-.4,1.74Z"/>
  <path class="cls-1" d="m49.29,36.41l.03.03s-.07-.03-.07-.03h.03Z"/>
  <path class="cls-1" d="m49.32,36.45s.07,0,.17.03t.07-.03l-.03.07h-.03c-.07-.03-.13-.07-.17-.07Z"/>
  <path class="cls-1" d="m49.96,36.58s.07-.03.13,0t.03-.03s.03,0,.07.03h.07s-.03,0-.03-.03h.03s.07-.03.07-.03c.03,0,.1.03.13,0h.03l.03.07.07-.07h.13v.03h.07v.03h-.13v.03h-.74l.03-.03Z"/>
  <path class="cls-1" d="m50.9,36.58v-.07h-.03v-.03s-.03,0-.07.07c0,0,.03.03.07.03h.03Z"/>
  <path class="cls-1" d="m50.93,36.51h.03l.03-.03h-.03s-.03,0-.03.03Z"/>
  <path class="cls-1" d="m51.37,34.44l-.03-.03.03-.03v-.03h-.07v.07s-.07-.03-.1-.03t.03.07h-.03l-.07-.03-.03.03s-.07,0-.13.03h.03c.07.03.1.03.13,0l.13.03c.07-.03.07-.07.07-.07h.03Z"/>
  <path class="cls-1" d="m51.6,34.3s-.03.03-.07.03-.03-.03-.03-.03h-.07v.07h-.03v.07s.03-.03.03-.03c.07.03.1.03.13,0,.07-.03.1-.03.17-.07h-.03s-.03,0-.1-.03Z"/>
  <path class="cls-1" d="m52.2,34.17s-.1,0-.13.03l-.03.03s-.07,0-.1.03l-.03-.03s.03,0,.03-.03c-.03.03-.07.03-.1.03,0,.03-.03.07-.07.07v.03l.07.03.1.03v-.03h-.1v-.03l.03-.03s.03.03.03,0t.07-.03s.07,0,.13-.03c.03,0,.07-.03.13-.07h-.03Z"/>
  <path class="cls-1" d="m51.94,36.31h-.03v.03l.03-.03Z"/>
  <path class="cls-1" d="m52.07,36.28c.33-.1.7-.23,1.07-.34l-.03-.03h-.1c-.07.03-.1.07-.1.03-.07.07-.1.07-.17.07v-.07s.07,0,.17-.03v-.03s.03-.03,0-.03h-.07v.07l-.07-.03-.03.03s-.03-.03-.07,0v.03h-.13s-.03.03-.07.07c-.03-.03-.07-.03-.1,0l-.03.03.03.03s.07-.03.1-.03c0,0,.03,0,.13-.03.03,0,.07-.03.07-.03l.03.03-.1.07h-.07s-.07.03-.1.03l-.03.03h-.1v.03h-.07s-.07.03-.07.03c-.03,0-.1,0-.13.03-.03,0-.07,0-.1.03h.03v.03s.07-.03.1-.03Z"/>
  <path class="cls-1" d="m52.34,36.04h-.03s-.1.03-.13,0q-.07.07-.1.03s-.07.07-.1.07v.03c.07,0,.1-.03.1-.03.03,0,.03-.03.07-.03l.03-.03s.07.03.13.03l.03-.07Z"/>
  <path class="cls-1" d="m53.17,35.84s-.07.03-.1,0c-.03,0-.07,0-.13.03v-.03h.03v-.03c.07.03.07,0,.1,0h.03v.03s.03-.03.07,0Z"/>
  <path class="cls-1" d="m53.41,35.68h.13v-.03h.07s.07-.07.1-.07c0,0,.03,0,.07.03v-.03h.03l.03-.03s.03,0,.07-.03v.03l.03-.03v-.07l-.07.03s-.03,0-.1.03c0,0-.03,0-.1.03,0,0-.03,0-.07.03h-.07s-.03,0-.1.07l-.03.03Z"/>
  <path class="cls-1" d="m54.04,35.41s0,.03-.03.1t.07-.03l.1-.07s.03-.03.03-.03v-.03l-.1.07h-.07Z"/>
  <path class="cls-1" d="m50.85,29.41c-1.94,2.45-3.48,3.35-4.62,4.09-.94-.34-1.14-1.17-.94-2.14,1.31-.67,2.95-1.41,3.85-2.31.7-.67.8-1.17.47-2.45-.13-.54-.23-.9-.64-1.34-.87-1.11-3.15-1.04-4.18.77-.03.07-.07.13-.1.17v.03s0,.03-.03.03c-.17.3-.33.57-.47.9h.03s-.03.03-.1.1v.07l-.03.03s-.03.07-.07.1v.07s-.03.07-.07.07v.03s.03.07.03.07v.03h-.07v.07s-.03.03-.07.03c-.03.07-.03.1-.07.17v.03c-.67,1.51-1.07,3.18-.77,4.66.2,1,.74,1.91,1.77,2.65.5.4.97.54,1.31.37.94-.47,4.35-4.72,4.89-6.33-.07.04-.13,0-.13.04Zm-2.74-3.45c.33,1.11-1.17,3.45-2.71,4.12.64-1.37,1.47-3.22,2.71-4.12Z"/>
  <path class="cls-1" d="m42.1,34.54v-.23l-.07.1h-.03l.03-.03h-.07l-.07.03c.03.07,0,.17-.1.27l-.07-.03.1-.3-.03-.07-.03-.03.03-.13-.07-.17s.03-.1.1-.23v-.03h-.07l-.03-.07.1-.03s.03-.1.03-.27l.07-.07.07-.03c.03-.17.07-.3.07-.47.03-.1.07-.17.07-.17v-.03l-.07-.03v-.13c.07-.13.07-.23.03-.27h.1c.03-.64.1-1.27.2-1.91v-.03h.03c.03-.17.07-.34.1-.54,0-.07.03-.13.03-.2v-.03l.03-.03c-.03-.07,0-.13.03-.23.1-.4.2-.87.3-1.34l-.03-.03.07-.03c0-.1.03-.17.07-.27l-.03-.03.03-.03c.07-.3.13-.57.2-.87,0,0,0-.03.03-.07v-.03c-.07-.13-.03-.3.07-.47,0-.17,0-.27.03-.27.07-.1.07-.2.03-.34.03-.03.03-.1,0-.2.07-.1.07-.13.07-.17.07-.1.1-.2.13-.27l-.07-.03c.07-.13.1-.23.07-.27l.13-.07c.64-2.61,1.31-5.36,1.84-7.3.1-.27-.07-.8-.2-.84-.7-.07-1.44-.1-2.18.07-.27.03-.7.6-.84.94-.17,2.21-1,6.7-1.57,8.71-.33-.67-1.67-.97-2.31-.97-1.51.07-3.78,5.36-3.21,8.64.17,1.11.6,1.57,1.54,1.94,1.04.44,1.77.47,2.21-.77.17-.47.47-.9.64-1.34.13,1.94-.4,2.61-.07,4.76.1.6.64.44,1.27.3,1.64-.17,1.51-.77,1.71-1.51.13-.57.33-1.17.57-1.74l.47-1.24,2.04-4.22.64-1.34c-1.87,2.24-2.64,3.85-4.18,6.13Zm-1.64-7.17c-.2,1-.2,1.37-.6,2.34-.4.97-1.34,2.51-1.87,3.45-1.27,0,.2-4.52.44-5.49.23-.97,1.37-1.24,1.91-.8.1.07.17.4.13.5Z"/>
  <path class="cls-1" d="m27.87,25.46c.03-.07.3-.3.33-.3.47.07,1.47-.34,1.87-.13.03,0,.07.03.07.1-.07.17-.07.27,0,.4h-.07s-.03.07-.03.07c.07.03.1.03.1.03l.07-.03s.03-.07.03-.1v.37c-.27,1.34-.23,1.64-.43,2.98,1-1.37,1.74-2.91,2.71-4.32.17-.84,2.81,0,2.68.54-.07.44-.17.9-.27,1.34v.1c-.1.47-.2.94-.33,1.41v.03c-.07.34-.17.67-.3,1.34-.3,1.24-.37,2.45-.37,3.65,1.14-1.41,3.01-3.32,3.05-3.35-.97,1.54-3.58,7.07-4.15,7-.5-.07-2.01-.4-2.04-.8-.03-.07-.17-.54-.13-.64.94-2.75.97-4.66,1.37-7.94-.4.74-.84,1.47-1.21,2.21-.8,1.71-1.64,3.38-1.67,5.26,0,.07,0,.17-.07.27v-.07s-.03,0-.1.03l.03-.03v-.37c0-.17.03-.27.03-.34,0,.03-.03.07-.07.1-.03.17-.03.27-.07.3h-.07l-.03.03v.1s.03-.03.03,0v.03c-.03.13-.1.27-.13.47-.03.03-.07.1-.07.17,0,.1-.03.17-.07.23-.07.07-.13.1-.17.13-.3.13-1.54,0-1.57-.4-.07-.57.1-1.61.03-2.24.03-.13.03-.27.03-.4.1-2.14.84-4.69.6-5.13.34-1,.04-1.07.37-2.11Z"/>
  <path class="cls-1" d="m28.71,35.47c.07-.1.13-.23.13-.3v-.1s.07,0,.13-.03v.1c-.1.13-.2.23-.27.33Z"/>
  <path class="cls-1" d="m30.05,25.76c-.03.1-.03.17-.03.17v.3l.03.03v-.03c.03-.13.03-.2.07-.2-.03-.1,0-.17.03-.17l.03-.03-.03.07s.03.03.07,0v-.13l-.03-.03s-.1,0-.17-.03c0,0,0,.03.03.07Z"/>
  <path class="cls-1" d="m25.35,32.69c0-.13,0-.27.03-.4.47-1.84.94-3.72,1.44-5.56.2-.84,0-1.37-.74-1.37-.87-.03-1.74,0-2.61-.03-.64-.03-1.1.27-1.44.84-1.74,2.58-4.42,6.26-2.98,8.98.4.74,1.17,1.04,2.08.9.9-.17,1.14-.97,1.44-1.67.17-.37.27-.7.4-1.11.17.84.13,1.67.47,2.31.2.4.84.64,1.37.74.17.03.64-.64.87-1.01.3-.47.5-1,.77-1.61l2.61-5.46c-.47.6-3.28,4.59-3.72,4.45Zm-1.1-4.62l-.07.07v.1s0,.03.03.07l-.03.07.03.03s-.03.03-.07.07c0,.03-.03.13-.1.34v.1s-.07.1-.07.2c0,0-.03.03-.07.1v.03s-.03.1-.03.2c-.03,0-.03.03-.07.13-.03,0-.03.03-.03.1-.03,0-.03.03-.03.1v.07h-.03v.07c-.07,0-.1.07-.1.2-.03,0-.07.03-.1.07,0,.1,0,.2-.03.23h.03s.03-.07.07-.1c0-.03,0-.03-.03-.03.03,0,.07-.03.1-.1v-.07l.1-.07v-.1s.03-.07.1-.1c0-.07.03-.1.03-.13h-.03v-.1s.07-.07.07-.13c.03-.1.1-.13.13-.13l-.03-.07h.07s0,.03.03.03l.03.03s-.07.1-.07.17c-.03,0-.03.07-.03.17,0,0-.03,0-.03.03v.1h-.03s-.03.07-.07.13c0,0-.03.03-.07.13,0,0-.03.03-.03.1-.03,0-.03.03-.03.1-.03.03-.03.1-.07.17,0,0-.03.03-.07.13-.03,0-.07.07-.07.13,0,.03-.03.07-.07.13t-.03.07s-.03.1-.07.13c0,.03-.03.07-.07.13l-.03.17c-.07,0-.1.03-.1.1,0,0-.03.03-.03.07s0,.07-.03.07h-.03c-.07.07-.1.13-.1.13v.03s-.03.03-.07.03v-.03h-.03l-.03.03v.03h.07v.07s-.07.03-.07.1c0,0-.03,0-.1.03v.1s-.03,0-.07.03h-.03v-.03l.03-.07h-.07s-.03.03-.03.07c-.03.03-.03.07-.07.1h.03v.07c0,.07-.03.1-.1.13l-.03-.03v.07c-.07.07-.1.1-.1.13h-.03c-.33.54-.77,1.01-1.31,1.47-.13-1.67,2.11-6.03,3.55-6.73-.1.23-.23.47-.33.7l.03.04Z"/>
  <path class="cls-1" d="m21.06,17.25s0,.07.03.13c0,.1-.03.27-.1.54-.03.03-.03.13-.1.3-.2.67-.47,1.57-.6,2.41-.84,5.06-1.71,8.68-2.31,13.83-.03.34.7-.3.57-.1-.44.74-.77,1.54-1.31,1.47-.64-.03-1.84-.2-1.77-.6l.1-.6c.07-.54.17-1.21.3-1.94.37-2.28.94-5.43,1.44-8.54l-.03.37c0,.07-.03.34-.07.74-.07.1-.1.4-.1.9-.1.27-.17.47-.17.54v.34c-.1.47-.13.77-.17.94v.5l.07-.17c.1-.6.2-.94.2-.94,0-.23.1-.77.27-1.67.1-.74.2-1.54.37-2.34.07-.57.13-1.04.13-1.37.1-.37.17-.84.2-1.51,0-.1,0-.17-.03-.23-.03.07-.03.17-.07.23.2-1.31.4-2.51.54-3.55.1-.67.94-.37,1.74-.2.6.13.74.03.87.54Z"/>
  <path class="cls-1" d="m17.71,21.81v.1c-.1.87-.17,1.34-.23,1.47,0,0,0,.07-.07.13l.3-1.71Z"/>
  <path class="cls-1" d="m17.88,20.7v.2h-.03l.03-.2Z"/>
  <path class="cls-1" d="m13.86,19.95s-.02.04-.02.06c0-.01.01-.03.02-.06Z"/>
  <path class="cls-1" d="m11.14,28.57s-.02,0-.08.04c.03,0,.06,0,.08-.04Z"/>
  <path class="cls-1" d="m13.79,20.13s.03-.08.04-.12c0,.01,0,.02,0,.02l-.03.1Z"/>
  <path class="cls-1" d="m16.63,29.45c-.64,1.01-2.48,3.25-4.92,4.99h.03l1.67-1.21-1.67,1.34c-.07,0-.13.07-.23.23-.17-.1-1.44,1.07-2.08,1.24-.07.1-.13.13-.23.13-.1.03-.17.07-.23.1,0,.03.03.07.1.13l-.03.03c-.03.07-.13.03-.33-.07-.17.2-.27.3-.33.3-.07.1-.13.13-.17.1-.03.03-.2.07-.47.17-.03.03,0,.07.07.1l-.03.03c-.23-.03-.37-.03-.4.03-.2.07-.3.1-.37.07l-.27-.13.03-.07c-.17.03-.33.07-.5.07l-.03.03s.03-.07.03-.1l.03-.1.1-.17.03-.03v-.03l.07-.2c.17-.39.67-1.54.86-1.98,0-.02.02-.05.03-.07,0-.02.01-.03.02-.04.02-.05.02-.06.02-.05.47-1.17.94-2.45,1.67-3.89.31-.63,1.63-1.6,1.96-1.81-.18-.02-.49-.54-.46-.94.57-1.44.94-2.78,1.57-4.05-.13.23-.27.5-.43.84l-.02.05s-.02.09-.05.12l.05-.12s.01-.03.02-.05l.37-.8.07-.17c.07-.13.17-.3.23-.44.13-.34.27-.6.37-.77,0-.07.07-.17.1-.3.03-.1.07-.17.1-.23.03-.03.07-.13.13-.27l.2-.47s.07-.07.13-.2c.03-.13.13-.34.27-.6l.17-.34s-.02.06-.03.09c.02-.04.04-.08.07-.12.5-.17.97-.27,1.37-.2.84-.2,1.17,2.75-.87,5.43,1.91-1.88,4.95-4.99,1.84-7.47-.33-.1-.74-.3-1.1-.5.1-.27.2-.5.33-.74.03-.17.5-1.51.5-1.88-.27.57-.74,1.78-1.07,2.48-.77-.4-1.54-.77-2.24-.57C8.6,17.39.87,26.33.06,32.73c-.37,3.01.84,5.46,4.69,6.23.54.1.27.97-.07,1.67.3-.57.64-1.24.8-1.57.27.07.6.1.9.1,6.73.54,10.85-10.65,10.24-9.71Zm-11.85,7.17c-.7-.77-.84-2.11-.57-3.58-.3.13-.3,1.71-.23,2.14l-.1-.37.03-1.31v-.07c.07-.34.13-.5.23-.5.03-.13.07-.23.1-.3v-.03l-.03-.1v-.07l.13-.23v-.03c-.1-.07-.17-.13-.17-.2t.03-.03c.07-.13.13-.2.2-.2l.13.03.03-.03s.03-.03.03-.07v-.03l-.07-.1c.07,0,.1-.03.13-.03,0-.03,0-.07.03-.1v-.03l-.1-.03v-.1s.07-.07.2-.13c0-.03.03-.07.03-.1v-.03l-.03-.13.1-.03.1-.2s.03-.07.03-.1c.03-.03.03-.07.03-.07v-.03c0-.07-.03-.1-.07-.1h-.13s0-.07-.03-.1c.13-.17.2-.27.27-.27h.07v.13c0,.13-.03.13-.03.23,0-.03.03-.13.07-.13.03-.1.1-.23.13-.34l.03-.27c.03-.07.07-.07.07-.07.07-.27.1-.44.2-.4.07-.2.07-.3.1-.34v-.17c.07-.1.13-.13.17-.17,0-.07.1-.17.33-.37,0-.23.1-.4.3-.5.03-.03.07-.07.07-.13,0,0,0-.03-.03-.07.03-.03.07-.07.1-.07h.03c1.74-2.85,4.05-5.56,6.09-6.83,1.61-1.24-2.28,6.73-3.08,7.03-.2.3-1.64,1.34-1.64,1.37.1.17.64.97.54,1.34-.84,2.38-1.41,3.72-2.01,5.16-.33.87-.63,2.61-1.84,1.27Z"/>
  <path class="cls-1" d="m67.57,18.71c-.49.09-.71.09-.89.09h-.58c-.13,0-.4,0-.85.09l-.85.13-.89.04-.85.13h-.89l-.98.09-.85.05-.85.05-.85.05-.98.18h-.85l-.89.05-.94.05-.85.09c-.31-.05-.54.04-.76.04-.36,0-.62.05-.94.13-.31-.05-.58,0-.85.09-.22-.05-.45-.05-.58-.05-.13-.05-.27-.27-.36-.54-.13-.22-.18-.63-.22-.99.09-.36,0-.63.13-.9.18-.31.36-.45.67-.4.18.05.49.05.71,0,.18.09.45.13.8.13.22,0,.4-.05.71-.05.31.05.54.09.89.13.22-.09.45-.09.8-.09.31.05.58,0,.89-.05.31.05.54-.05.89-.05.27,0,.62-.09.94-.13.27-.05.67-.13.89-.22.4-.05.71-.09.98-.22.4.05.71-.18,1.16-.36.4,0,.62,0,.98-.18.22,0,.58-.05.8-.13.13-.09.36-.27.62-.31.22-.05.49-.13.71-.22.18-.13.45-.22.62-.36.22-.05.54-.22.76-.36.22-.18.58-.27.85-.45-.18,0-.36.05-.54.05s-.4.05-.58.05-.4.05-.62.05c-.22.05-.45.05-.67.09-.27,0-.49,0-.67-.05-.27.09-.49.09-.8.09-.18.13-.45.09-.76.09-.22.09-.45.05-.76.09-.27,0-.54,0-.89.09-.22.05-.54.05-.76.09-.36.09-.62.13-.94.18-.36,0-.58,0-.89.05-.27,0-.62,0-.89.09-.4.09-.76.13-1.03.13-.36.05-.67.05-.98.13-.31-.05-.67.05-.98.09-.31,0-.67,0-1.07.05-.36.05-.62.09-.94.13-.36.05-.76.09-1.03.09-.36.09-.71.09-1.12.13-.31,0-.67.13-1.07.13-.31.05-.62.09-.94.09-.4,0-.76.05-1.12.05-.36.05-.76.13-1.12.22-.31,0-.67-.05-1.03.05-.36,0-.67.09-1.07.13-.4,0-.71.05-1.03,0-.36.09-.76.05-1.07.13-.36.04-.67,0-1.03.04-.45.05-.76.05-1.03.09-.4.05-.71.05-1.03.05-.45.05-.71.05-1.12,0-.31.09-.58.09-.94.13-.36-.05-.71.05-.94.05-.36-.05-.76-.05-1.03-.05-.31.05-.58,0-.98,0-.27.05-.58.05-.89.05-.31.05-.54-.05-.85,0-.36,0-.67-.09-.98-.05-.22,0-.58,0-.8-.05-.31,0-.58,0-.8-.05-.22.05-.49-.05-.8-.09-.27.05-.49,0-.71-.05-.27-.09-.49,0-.67-.13-.31,0-.54.05-.76-.05-.22-.05-.4-.09-.62-.13-.22-.05-.45-.09-.62-.13-.18-.05-.36-.09-.54-.13-.49-.22-.94-.31-1.16-.45-.18-.13-.27-.31-.27-.54.04-.18.04-.49.18-.99.18-.31.18-.54.36-.85.13-.22.22-.45.45-.72.18-.13.36-.27.54-.36.27-.09.45-.18.85-.22.45,0,.85.18,1.25.18l.4.05c.18,0,.36.05.58.05.18.05.54.05.76.05s.58.09.94.09c.36.05.62.09,1.07.09.22-.05.71.05,1.12,0,.31,0,.67.18,1.16.18.4-.05.8-.13,1.25.05.31-.09.76-.13,1.16,0,.22-.13.58.09,1.07.05.27-.05.62,0,.98,0,.31.05.71.05.98,0,.22.05.45.09.71.05.22.05.45.09.62.09l.36.05-.09.05c-.18-.05-.4.05-.71.05-.27.09-.76.13-1.16.05-.45-.05-.85-.05-1.38,0-.58.05-.98.05-1.34.05-.36.05-.85,0-1.16-.05-.36.13-.58.13-.71.13l-.09.05c.36.05.62.09.89.09.27.13.62.05.94.18.27,0,.58.05.94,0,.27.05.54.09.85.09.36.09.62.13.94.09.22.09.54.09.85.05.31,0,.54.18.89.18.36-.05.58-.05.94.05.27,0,.54.05.8-.05.36.05.58.05.98.09h.85c.36,0,.58.05.8,0,.36.05.62.05.94,0,.36,0,.62,0,.89.09.31-.05.58-.05.89-.05.31.05.49,0,.8-.05.36,0,.62,0,.94-.05.31.05.58.09.94.05.27.05.49-.09.8-.05.31,0,.58-.05.89-.05.31-.05.62-.05.94-.05.31.05.45-.05.8-.05.31-.05.58-.05.89,0,.36-.05.54-.05.8-.13.36-.09.67.05.98-.05.31-.05.49-.05.8-.13.31.05.58,0,.89,0,.27-.05.58-.05.85-.18.31-.05.54-.05.89-.09.27-.05.58-.05.94-.05.22-.13.54-.05.89-.09.31-.13.49-.09.8-.22.31,0,.58-.05.89-.05.27,0,.54-.13.85-.09.31-.09.62-.13.85-.18.36-.05.62-.09.89-.18.36-.05.58-.09.89-.13.31,0,.58-.05.89-.05.31-.05.58-.22.89-.27.27-.05.62,0,.89-.05.31-.09.49-.18.85-.18.31-.13.58-.13.89-.13.36-.13.54-.13.89-.27.31.05.58-.09.94-.18.04.49.18.81.18,1.26,0,.31,0,.63-.04.85,0,.27-.04.45-.13.63-.09.18-.22.36-.4.49-.18.18-.4.18-.67.36-.22.09-.54.22-.8.31-.31.27-.62.4-1.07.36-.22.18-.58.31-.8.4-.31.09-.58.22-.89.36-.18.09-.58.18-.76.22-.31.18-.58.31-.85.4-.31.22-.54.31-.85.45-.31.18-.54.22-.8.45h.94l.94.05.85.13,1.03-.05.8.05,1.03.09h1.79l.94.09.94.05h.89l.98.09.85.05.94-.05-.89.09-.98.09h-.89l-.98.09-.89-.05-.98.09-.94-.05-.85.13-.98-.05Z"/>
  <path class="cls-1" d="m59.02,8.18c.55.06,1.64-.28,1.33-.55-.08-.07-.14-.12-.21-.18-.38-.31-.77-.6-.98-.91-.11-.15-.29-.34-.32-.51-.08-.55.66-2.19,1.46-2.29.23-.06.68-.09.87.22.02-.07.03-.13.05-.18.11-.3.44-.07.64-.03.75.18-.55.81-.92,2.11-.11-.01-.03-.76.08-1.27-.15-.05-.37.01-.57.25-.41.48-.58.91-.43,1.35.05.11.09.21.17.31.05.06.11.13.17.19.18.19.43.4.74.63.34.24.37.69.32.9-.08.33-.55.51-1.04.67v-.02h.02l.02-.03h-.02v-.02s-.02-.03,0-.03h.02v.03h.02s.02-.04,0-.04v-.02h.02v-.02s.02,0,0-.01c-.02.01-.03.03-.06.03-.02,0-.02.02-.03.02s-.05.01-.08.03c-.02-.02-.03-.02-.05-.02l-.03.03s-.03.02-.05.02c-.02.02-.03.03-.05.02h-.02s-.02.01-.02.01c-.05.02-.08.03-.08.02l-.02.02h-.06s-.05.03-.05.05c-.02-.02-.03.01-.06.03l-.02-.02s-.08.03-.15.03v-.02s-.02.02-.05.03h-.05s-.02.02-.03.02v-.02l-.02.02s-.03.01-.05.01-.26.05-.26.05h-.31s-.03,0-.05-.01c-.03.01-.06.01-.06,0-.03.01-.05,0-.06,0s-.05,0-.08-.02c0,.02-.02.02-.05,0h-.06c-.29-.18-.38-.54-.25-.9.14-.31.61-.67.92-.76-.66.52-.54.75-.19.78Zm-.41.93l.02.02s-.03-.02-.03-.02h.01Zm.02.02s.03,0,.08.02t.03-.02l-.02.03h-.02s-.06-.03-.08-.03Zm.29.06s.03-.01.06,0c.02,0,.02,0,.02-.01t.03.01h.03s-.02,0-.02-.01h.02s.03-.02.03-.02c.02,0,.05.02.06,0h.02l.02.03.03-.03h.06v.02h.03s-.06.01-.06.01v.02h-.34l.02-.02Zm.43,0h0v-.03h-.02s-.02-.01-.03.02c0,0,.02.01.03.01h.02Zm.02-.03h.03s-.02-.01-.02-.01t-.02.01Zm.2-.93l-.02-.02h.02v-.03h-.03v.03s-.03-.01-.05-.01t.02.03h-.02l-.03-.02-.02.02s-.03,0-.06.02h.02s.05.01.06,0h.06s.03-.02.03-.02h.01Zm.11-.06s-.02.02-.03.02-.02-.02-.02-.02h-.03v.03h-.02v.03s.02-.02.02-.02c.03.02.05.02.06,0,.03-.01.05-.01.08-.03h-.02s-.02,0-.05-.02Zm.25-4.09c.11-.07.15-.13.14-.15h-.03s-.05,0-.06-.02v.02l-.03.02h0s-.03.01-.03.01c-.02,0-.02.02-.02.03,0,0,.02.02.03.02l-.02.03h-.02c-.03.06-.08.12-.14.16h.02s.03.01.03.01h.02c.06-.06.09-.1.11-.14Zm.03,4.03s-.05,0-.06.02h-.02s-.03.01-.05.03l-.02-.02s.02,0,.02-.01c-.02.01-.03.01-.05.01,0,.02-.02.03-.03.03h0s.03.03.03.03l.05.02v-.02h-.05v-.02h.02s.02,0,.02-.01t.03-.02s.03,0,.06-.02c.02,0,.03-.01.06-.03h-.02Zm-.12.96h-.02v.02l.02-.02Zm.06-.01c.15-.05.32-.11.49-.15l-.02-.02h-.05s-.05.03-.05.02c-.03.03-.05.03-.08.03v-.03s.03,0,.08-.02v-.02s.02-.01,0-.01h-.03v.03l-.03-.02-.02.02s-.02-.02-.03,0v.02h-.06s-.02.01-.03.03c-.02-.02-.03-.02-.05,0l-.02.02h.06s.02,0,.06-.02c.02,0,.03-.02.03-.02l.02.02-.05.03h-.03s-.03.02-.05.02l-.02.02h-.05s-.03.01-.03.01c-.02,0-.03.02-.03.02-.02,0-.05,0-.06.01-.02,0-.03,0-.05.02h.02v.02s.03-.02.04-.02Zm.12-.1h-.02s-.05.01-.06,0t-.05.01s-.03.03-.05.03h0s.05,0,.05,0c.02,0,.02-.02.03-.02l.02-.02s.03.02.06.02l.02-.03Zm.38-.09s-.03.01-.05,0c-.02,0-.03,0-.06.01h0s.02-.01.02-.01v-.02s.03,0,.05,0h.02v.02s.02-.02.03,0Zm.11-.07h.06v-.02h.03s.03-.03.05-.03c0,0,.02,0,.03.02v-.02h.02l.02-.02s.02,0,.03-.01h0s.02,0,.02,0v-.03l-.03.02s-.02,0-.05.02c0,0-.02,0-.05.01,0,0-.02,0-.03.02h-.03s-.02,0-.05.03l-.02.02Zm.29-.12s0,.01-.02.05t.03-.02l.05-.03s.02-.02.02-.02h0s-.05.02-.05.02h-.03Z"/>
  <path class="cls-1" d="m57.85,7.45c0-.06,0-.12.02-.18.21-.82.43-1.66.66-2.48.09-.37,0-.61-.34-.61-.4-.02-.8,0-1.2-.02-.29-.01-.51.12-.66.37-.8,1.15-2.03,2.8-1.37,4.01.18.33.54.46.95.4.41-.08.52-.43.66-.75.08-.16.12-.31.18-.49.08.37.06.75.21,1.03.09.18.38.28.63.33.08.02.29-.28.4-.45.14-.21.23-.45.35-.72l1.2-2.44c-.21.27-1.5,2.05-1.7,1.99Zm-1.92-2.16s.02-.03.03-.07c.02.02.03,0,.05-.05v-.02h0v-.03s.05-.03.06-.05h-.02s.02-.03.02-.03v-.05s.03-.02.03-.03v-.03s.05-.05.08-.05l-.02-.03.02-.02s.05,0,.05-.02v-.03s.02-.01.06-.05c0-.03.02-.05.03-.05.02-.03.03-.05.05-.05,0-.01-.02-.01-.03-.03v-.02s.02-.01.08-.01c.02-.06.03-.09.03-.09.02-.03.03-.03.05-.03,0-.02.02-.05.08-.07v-.02h-.03l.02-.03s.08-.02.08-.03c.03-.03.06-.06.08-.06h.06v.05s-.03.01-.03.03c-.03.02-.05.03-.05.05-.02,0-.02-.02-.03-.02h0s.03-.05.03-.05h-.02s-.06.06-.06.08c-.03.01-.06.04-.08.07l.03.05h-.05s-.05.05-.05.06c-.03.05-.06.07-.09.09-.03.05-.06.09-.06.09-.02.05-.03.06-.05.06-.02.03-.03.05-.03.05-.02.03-.03.05-.03.06l-.05.08s-.03.05-.05.05c0,.03-.03.06-.06.1v.02s-.05.06-.05.07h0s0,.03-.03.03c-.02.03-.03.03-.05.03h-.02v-.03Zm-.17.37s-.02.02-.03.03l-.02.06s-.02.02-.02.02c0,.02-.02.03-.05.04v.06l-.03.03s0,.01.02.01v.03s-.05.01-.08.07l-.02-.02-.02-.02h0s.02-.04.02-.04v-.03l.02-.06s.03-.03.08-.09h-.02v-.02s.06-.06.09-.06v-.03s.02,0,.02-.01l-.02-.02.02-.06s0-.02.02-.02h.02l-.02.07.03.02h-.02Zm.05-.12s0,.03-.02.05h-.02s0-.03-.02-.05c.03-.03.05-.05.05-.05h.02v.05Zm1.53-.16l-.03.03v.05s0,.01.02.03l-.02.03.02.02s-.02.02-.03.03c0,.02-.02.06-.05.15v.04s-.03.05-.03.09c0,0-.02.02-.03.05v.02s-.02.05-.02.09c-.02,0-.02.02-.03.06-.02,0-.02.01-.02.04-.02,0-.02.02-.02.05h0v.03h-.02v.03s-.05.03-.05.09c-.02,0-.03.02-.05.03,0,.04,0,.09-.02.1h.02s.02-.03.03-.05t-.02-.02s.03-.01.05-.05v-.03l.05-.03v-.05s.02-.03.05-.05c0-.03.02-.05.02-.06h-.02v-.05s.03-.03.03-.06c.02-.05.05-.06.06-.06l-.02-.03h.03s0,.02.02.02h.02s-.03.06-.03.09c-.02,0-.02.03-.02.08,0,0-.02,0-.02.01v.05h-.02s-.02.03-.03.06c0,0-.02.01-.03.06,0,0-.02.02-.02.05-.02,0-.02.02-.02.05-.02.02-.02.05-.03.07,0,0-.02.02-.03.06-.02,0-.03.03-.03.06,0,.01-.02.03-.03.06t-.02.03s-.02.05-.03.06c0,.02-.02.03-.03.06l-.02.08s-.05.01-.05.05c0,0-.02.01-.02.03s0,.03-.02.03h-.02s-.05.06-.05.06h0s-.02.03-.03.03v-.02h-.02l-.02.02v.02h.03v.03s-.03.02-.03.05c0,0-.02,0-.05.01v.05s-.02,0-.03.02h-.02v-.02l.02-.03h-.03s-.02.02-.02.03c-.02.02-.02.03-.03.05h.02v.03s-.02.05-.05.06h-.02s0-.01,0,0v.02s-.05.05-.05.06h-.02c-.15.24-.35.45-.6.66-.06-.75.97-2.69,1.63-3.01-.05.1-.11.21-.15.31h.01Z"/>
  <path class="cls-1" d="m56.94,6.38s.03-.09.05-.13v.05s-.03.07-.05.09Z"/>
  <path class="cls-1" d="m57.03,6.1c.05-.09.08-.18.11-.27-.02.07-.03.12-.05.15-.03.06-.05.11-.06.12Z"/>
  <path class="cls-1" d="m57.16,5.8s0-.03.02-.03c-.02.02-.02.03-.02.03Z"/>
  <path class="cls-1" d="m57.17,5.74s.03-.06.05-.1v.02l-.03.04s0,.05-.02.05Z"/>
  <path class="cls-1" d="m57.28,5.46l.02.03s-.02.02-.03.02c.02-.02.02-.03.02-.05Z"/>
  <path class="cls-1" d="m53.71.25c.09.05.11.25.08.39-.03.19-.2.79-.4,1.51v-.08s-.03.05-.03.05v-.05c.03-.12.05-.19.06-.19h.03v-.11c0-.11.05-.28.12-.57.03-.13.05-.21.06-.24.02-.03.03-.11.05-.22t.02-.01l.02-.15h-.03c-.03.06-.05.12-.06.21l-.03.08v.13s-.02.04-.03.04v.06l.02.03c-.05.12-.08.16-.09.18,0,.06-.02.12-.05.19v.06s.02,0,.02.01c-.02.03-.03.08-.05.16h-.02s-.03.07-.08.18c0,.03,0,.06.02.08-.03.09-.05.13-.06.13-.05.09-.06.13-.06.15l.02.11-.02.04v.16l-.02.11s-.05.09-.06.12c0,0-.02.06-.06.15v.09s-.02.09-.03.19c-.02.01-.03.04-.03.06l-.12.57.12-.39c-.28,1.02-.52,1.96-.57,2.23.46-.61.89-1.15,1.34-1.78.31-.45.38-.4.98-.34.11.09.18.3.15.43-.03.19-.08.4-.12.6v.05c-.05.21-.09.42-.15.63h0c-.03.16-.08.31-.14.61-.08.27-.15.85-.17,1.15.57-.4,1.61-1.48,1.63-1.5-.49,1.02-1.23,1.87-1.53,2.5h-.02v-.02s.02-.03.05-.05h-.02c.03-.06.03-.09.03-.1.03,0,.05-.05.06-.11l-.02-.03v.03l-.09.15s-.05.08-.06.09c-.02.06-.03.09-.05.09-.02.06-.03.11-.05.11,0,.03-.02.05-.05.06,0,.02,0,.05-.03.07-.05.06-.06.11-.06.13-.08.15-.14.24-.17.27l.02.03h.02c.03-.06.06-.1.08-.13.05-.06.09-.11.12-.13-.17.33-.18.57-.32.55-.23-.03-.97.05-.98-.13-.02-.03-.02-.08-.02-.12.23-.94.49-2.68.58-3.85-.18.33-.4.66-.55.99-.21.45-.43.88-.58,1.33,0-.02,0-.03-.02-.03t.03-.05l-.03-.02.03-.03s.02-.03,0-.05h-.03s-.02.06-.02.09c-.02.06-.03.09-.05.12,0,.03-.02.08-.05.13,0,.02-.02.05-.03.07.02.02.02.05-.02.11v.04s-.03.02-.03.02v.06s-.03.05-.03.1c-.02.02-.02.05,0,.09,0,.02,0,.03-.03.07l.03.03-.02.03s-.02-.02-.03-.02c-.02.06-.03.11-.05.12-.02.05-.02.07-.02.1-.02.02-.02.05-.02.09h.02l.03.03-.05.04h-.02v-.03l-.02.02s0,.05.02.06c-.02,0-.02.05-.03.13,0,.07-.09.1-.14.13-.17.09-.87.06-.89-.1-.02-.25.23-.79.2-1.08,0-.05.02-.1.02-.18.09-1.02.67-3.47,1.04-4.97.17-.69.32-1.72.52-2.33.1-.35.86.03,1.04.1Z"/>
  <path class="cls-1" d="m52.18,7.82c-.03.16-.05.33-.05.51,0,.09-.06.21-.15.31v-.04c.03-.09.03-.15.03-.16.02,0,.03-.05.03-.11,0,0,.02-.03.02-.09.02-.02.02-.03.02-.09.02-.03.05-.09.06-.21.02-.02.02-.05,0-.06,0,0,.02-.03.05-.06Z"/>
  <path class="cls-1" d="m52.21,7.69s-.03.09-.03.13c0-.03,0-.07.02-.1,0,0,0-.01.01-.03Z"/>
  <path class="cls-1" d="m52.21,7.69s0-.03.02-.05c-.02.02-.02.05-.02.05Z"/>
  <path class="cls-1" d="m52.24,7.57l-.02-.02.02-.03h.02s-.02.03-.02.05Z"/>
  <path class="cls-1" d="m52.27,7.43v-.02l.02-.03s0,.03-.02.05Z"/>
  <path class="cls-1" d="m53.01,3.5s.03-.1.05-.15v.02l-.05.13Z"/>
  <path class="cls-1" d="m53.35,2.18l.02.03c-.06.25-.12.52-.2.78l.02-.06v-.05c0-.08.02-.12.05-.16.02-.15.03-.25.06-.3,0-.01.03-.1.06-.24Z"/>
  <path class="cls-1" d="m53.38,2.21h-.02s.02-.02.02-.03v.03Z"/>
  <path class="cls-1" d="m53.44,1.94h-.03s-.02.12-.02.12h0s.03-.02.05-.09v-.03Z"/>
  <path class="cls-1" d="m54.21,8.54l-.02-.06s.05-.09.11-.15c0-.06.03-.12.09-.18v.02c-.08.13-.14.25-.18.37Z"/>
  <path class="cls-1" d="m54.63,4.59c.05-.11.12-.43.15-.55-.02-.01-.06,0-.08.02,0,.02-.06.46-.09.54-.02.06-.02.12-.02.11.02-.06.03-.08.03-.11Z"/>
  <path class="cls-1" d="m54.65,4.81s.05-.19.06-.24c0-.02-.03,0-.03,0,0,0-.02.02-.02.05-.02.05-.02.16-.02.18-.02.03-.02.05-.02.05.02-.02.02-.03.02-.03Z"/>
  <path class="cls-1" d="m48.99,8.63c-.48-.33-.72-.73-.81-1.18-.21-.97.29-2.11.81-2.98.09-.16.31-.48.46-.57.32-.16,1.14-.16,1.46.22.18.19.23.36.29.6.06.34-.29.94-1.06,1.32.03-.06.08-.1.11-.15v.02l.02-.02h.02s.02.02.02.02v.03l.02-.02h0s.02-.03.02-.03c0-.02.02-.03.02-.03.03-.03.03-.06.05-.07-.02-.02,0-.06.03-.09h0s.02-.02.02-.02c0-.01-.02-.03-.02-.03v-.02h.03s.03-.05.03-.05c0,0,0-.01.02-.01v-.04h.02v-.02s.03-.06.03-.06c.02-.03.03-.05.03-.06h-.02v.02h-.02s-.02.01-.02.01c0,.02-.02.02,0,.03t-.02.03h-.02c.14-.34.14-.63.02-1.05-.57.4-.86,1.05-1.15,1.66-.12.43-.37,1.62.29,1.71h.02s-.02.02-.05.03h0s.05.01.05.01v-.03h.05s.02-.02.02-.03.03-.02.06-.02c.03-.05.06-.06.09-.09h.02v.02h.02s.05-.02.08-.05c0,0,.02-.03.06-.07,0-.03.02-.05.02-.05h.03s.02.01.02.01c0,0,.02,0,.03-.03h.02v-.03s.03-.03.06-.05h.02v-.02h.02s.05-.03.08-.05v-.03c.41-.28.89-.7,1.43-1.38.02-.01.03,0,.06-.01.15.55-1.79,2.62-2.22,2.83-.17.08-.37.02-.6-.16Z"/>
  <path class="cls-1" d="m49.38,4.29h-.03s-.02.01-.02.01v.03s-.02.02-.03.02l-.03.03s0,.03-.05.05c-.02.03-.03.08-.06.11l-.02-.02h-.02s-.03.05-.05.07c0,0-.02.03-.03.09,0,.03,0,.05-.02.05h-.05s-.02.02-.02.03l-.02.02v.03s-.02.03-.05.06v.03s-.03.02-.08.06c.02.03,0,.07-.03.13h-.03v.02s0,.03-.02.06c0,.02,0,.03-.02.06,0,0-.02.02-.05.03,0,0,0,.02-.02.02v.03s-.02.07,0,.11c0,.01,0,.03-.02.03h-.03s-.02,0-.02.02c.02,0,.02.01.03.03t-.02.01v.02s.03-.03.06-.05c0,0,0-.01.03-.05l-.02-.03v-.02s0-.03.02-.05c.02-.01.03-.06.06-.09v-.02s.02.03.02.03h.02s.02-.01.02-.05h-.03s.02-.07.08-.16c0-.02.02-.03.02-.06.03-.03.05-.06.05-.09l.06-.05s.02-.03.03-.06h-.02v-.02s0-.02.03-.03h.03s0-.06.05-.11c.02-.01.02-.03.03-.05,0-.01.02-.03.03-.05,0-.01.02-.04.05-.07.02-.03.05-.06.08-.09h0s.03-.01.03-.01c-.02-.02,0-.05.02-.05l.02-.03Z"/>
  <path class="cls-1" d="m49.23,4.62s-.03.07-.06.09c.02.03,0,.05-.05.05v.09h-.03s-.03.08-.03.11l-.05.05.02.02.02-.02s.03-.05.06-.06c0-.03.02-.05.02-.05,0-.03,0-.05.03-.06-.02-.02,0-.05.03-.07.02-.02.03-.03.02-.05h.03s.02-.02.02-.02v-.02h-.02s.02-.06.03-.06c.02-.02.03-.03.03-.05v-.02s-.03.03-.05.06h-.02Z"/>
  <path class="cls-1" d="m49.31,4.56s.06-.09.09-.1l.02-.02s0-.05.03-.06v-.02h-.02s-.05.06-.08.09c-.02.01-.02.03-.02.03-.03.05-.05.06-.05.07h.02Z"/>
  <path class="cls-1" d="m49.4,4.29v-.03h-.02s-.02.02,0,.03h.02Z"/>
  <path class="cls-1" d="m49.61,7.85s-.02.03-.03.03v-.03h.03Z"/>
  <path class="cls-1" d="m49.86,7.67s-.03.03-.08.05c-.02.03-.05.05-.09.06t-.02.01h-.02c.06-.05.12-.07.2-.12Z"/>
  <path class="cls-1" d="m50.27,5.86l-.02.02s0-.02.02-.02Z"/>
  <path class="cls-1" d="m50.29,5.88h-.02v.02h.02v-.02Z"/>
  <path class="cls-1" d="m50.3,5.85h.02s0,.03-.02.05v-.05Z"/>
  <path class="cls-1" d="m46.14,3.97c.05.12-.03.25-.06.37-.02.06-1.18,4.3-.23,3.29.31-.45.49-.84.63-1.24,0,.02.02.02.02.02l.02.04s-.02,0-.03.02l.02.03s-.02.03-.02.05c-.02.05-.03.07-.02.07-.02.06-.03.09-.03.11-.02.02-.03.03-.03.05l.02.05s.03.03.03.05h.02s.02-.03.02-.05l-.02-.05c.06-.12.09-.16.08-.18l.05-.04s-.02-.02-.03-.02v-.05l.05-.1s0-.09.03-.12h.02v.03s-.02.03-.03.03v.02s.03.02.03.02h.02s.03-.06.05-.06c0-.03,0-.09.02-.18v-.02s-.02-.02-.02-.02l-.02.02s-.02.02-.02.02c-.02.07-.02.1-.03.12t-.02-.01l.02-.02s0-.03.02-.03l-.02-.07v-.09h.03s.02.01.02.01t.02-.03h0s-.02-.03-.02-.03v-.06s.03-.07.03-.12c.02-.03.03-.06.02-.11v-.03s.03-.06.03-.09c.03-.05.03-.06.03-.07v-.02l-.03-.05h.02s-.02-.01-.02-.03c.08-.28.15-.61.25-.97.14-.46.58-.37.89-.34.2.02.38.22.31.48-.52,1.74-.41,1.2-.66,2.3-.03.27-.05.55-.08.84.6-.63.77-.82,1.52-1.78-.17.66-1.15,2.07-1.52,2.92-.11.24-1.07.16-1.09-.07-.05-.51-.03-.06-.03-.57,0-.1,0-.21.02-.33-.15.22-.15.4-.29.61-.4.57-1.1.3-1.52-.03-.29-.19-.35-.6-.31-.88.02-.05.02-.07.03-.12.14-.78.28-1.8.44-2.6.02.02.03.02.05.03,0,.02,0,.03-.02.05l.02.03h.02s.05-.05.05-.05v-.05l.03-.03-.02-.03v-.03s.05-.06.05-.1c0-.02.02-.05.05-.08h-.02s.03-.06.02-.15l-.02-.03h-.02l-.06.08s.02.01.02.03l-.02.04.02.08s-.08.07-.06.13c0,.02.02.02.02.02-.02.01-.02.03-.03.03h-.02s-.02-.02-.03-.02c.06-.28.14-.54.21-.75.09-.27,1.06-.19,1.18-.07Z"/>
  <path class="cls-1" d="m43.42,9.6c.89-.09,7-.46,6.57-.31-.35.12-.52.43-.91.51-.12.01-.2.12-.64.16-.8.06-1.15.15-1.83.22t-.02-.03h-.03s-.06,0-.08.02l-.03-.03s-.08.01-.09,0c-.03,0-.05.01-.06.05-.02-.03-.02-.05,0-.05l-.02-.02c-.06.02-.09.03-.11.07h-.02v-.03s-.03,0-.08.03h-.03v-.03s-.06,0-.06.02v-.03l.02-.03h-.03s-.06.05-.06.05h.02l.02.02s-.02.01,0,.01c-.03-.01-.08,0-.12.03l-.02-.02-.03-.02s-.02.02-.03.02l-.05.03-.02-.03h-.03s-.08.02-.11.02c-.05.05-.09.06-.14.03-.03.02-.06.03-.09.03h-.05s-.03.05-.08.06h-.06s-.05-.05-.06-.06c-.02.02-.03.03-.08.03l-.11.03v.03s-.02.02-.05.03h-.05s.06-.05.06-.05h-.09s-.02-.01-.02-.01l-.02-.02s-.02,0-.03-.01c-.03.03-.06.04-.09.03-.05.01-.09.03-.11.03-.08-.03-.12-.03-.14-.03h-.02c-.06-.02-.09,0-.09.03l-.09.02-.03-.02v.02c-.08-.02-.12-.02-.12.01t-.02-.01h-.03l.02-.03h-.05s-.03,0-.08.02l-.05-.03h0s-.06.05-.06.06c-.08.02-.11.03-.12.05-.08.02-.12.02-.14.02-.08,0-.11,0-.12.02v.04s.08-.01.09-.03l.02.02s.02.01.02,0h.03s-.08.06-.21.06h-.03s-.05-.03-.08-.03c-.06,0-.11.02-.18.02h0s.02.05.02.05c-.08.01-.14.01-.17.01-.05.03-.08.03-.11.02-.06,0-.15.02-.28.06-.03-.02-.06-.02-.09-.02l-.18.16s.2-.05.26-.05l.02-.03.03-.03c.08-.01.14-.01.2-.01.06-.02.08-.03.09-.03l.02.03h.08c.06-.02.09-.02.12,0v-.05h.02s.12-.02.25-.05c.09,0,.14,0,.14-.02.05.02.09.02.11,0l.03.02s.08-.03.08-.05c.06,0,.11,0,.14-.02l.02.02s.02.01.02.03c-.38.09-.75.21-1.14.34-.25.09-.44.12-.64.1-.26-.02-.52-.13-.77-.36-.21-.19-.44-.39-.37-.55.18-.46.46-1.36.75-2.45.23-.84.48-1.8.71-2.71h.03l.02-.05s.03-.03.08-.12c-.02-.03-.02-.06.02-.11l-.03-.06v-.03h-.02c.03-.1.05-.18.06-.25.03-.06.05-.12.05-.16,0-.02,0-.05.03-.09,0-.03.02-.07.05-.16l.03.03h.02c.02-.06.03-.12.03-.18.02-.01.02-.04.02-.07l-.02-.03c.03-.13.05-.19.08-.19v.05l.02.02s-.03.05-.03.07l.02.02h.02s.03-.05.03-.11c.02-.01.02-.06.05-.15.02,0,.03-.03.06-.09l.06-.06-.02-.05s.03-.07.05-.07l-.02-.05h-.03s-.02-.03-.02-.03c.05-.02.05-.05.05-.12h.02l-.02-.03.03-.09s.05-.03.05-.07v-.03s0-.04,0-.13c0-.02.02-.05.03-.09,0-.03.02-.06.05-.09v-.03l-.02-.03v-.09s-.02.02-.03.05l-.02.02-.02-.03s.06-.06.06-.06h.02s.05-.11.05-.11c.02-.05.03-.06.05-.06v-.02s-.02-.04-.06-.07c.03-.06.08-.11.11-.11v-.05s.02-.06.03-.09c0-.05.02-.08.06-.12,0-.03.02-.06.03-.11v-.03h-.02s.03-.06.03-.06c0-.01,0-.03.02-.03h0s-.03-.05-.03-.05c.03-.03.06-.06.06-.11h.02s.03.01.03.01c0,0,.02-.01.05-.03v-.05h-.05s-.02.01-.02,0c0,0,0-.01.02-.05h0s-.02-.03-.02-.03c.03-.04.03-.06.03-.07h-.02l-.02-.03s.08-.03.09-.09c-.02,0-.03,0-.05-.01.03-.02.05-.03.05-.06,0-.01,0-.04.02-.07h-.02s-.02-.05-.02-.05c.03-.01.05-.03.05-.06l-.02-.05s-.02-.01-.02-.03h-.05s-.03.03-.03.03c0,.02-.02.06-.05.11l.02.03s-.02.06-.06.12l-.03.06s0,.08-.02.09c0,.06,0,.11-.03.15-.02,0-.03.05-.02.12-.06.06-.09.13-.06.21-.03.05-.03.09-.03.12-.02.11-.03.13-.05.15l-.02.06s-.02.01-.03.05l-.03.06v.03l.02.02h0c-.02.06-.02.07-.03.07h-.05s.02.08.02.08l-.03.11c.02.06,0,.1-.05.12v.05l-.06.09c.2-.84.34-1.53.4-1.87.12-.64,2.26-.28,2.07.09-1.17,2.44-2.44,8.47-2.62,9.03.21-.03.41-.1.63-.12Z"/>
  <path class="cls-1" d="m42.36,4.96v.02l-.02.02.02-.03Z"/>
  <path class="cls-1" d="m42.96,2.54s0,.02-.03.03c0-.01,0-.05.02-.07v.04Z"/>
  <path class="cls-1" d="m42.94,3.21v-.02l.02-.05-.02-.02s.02-.01.03-.01c0,.01-.02.05-.02.07v.02Z"/>
  <path class="cls-1" d="m43.92,10.41h-.08l.03-.02h.09s-.03.02-.03.03v-.02Z"/>
  <path class="cls-1" d="m36.93,7.19v.03l-.05.09v.03h-.05s.03.03.03.03c0,.02,0,.03-.02.03l-.06.09.02.02-.03.06s-.03.03-.06.08c0,.03-.03.03-.06.03-.02.03-.02.06-.03.12v.06s-.03.02-.06.02c-.05.03-.08.05-.08.06.02.03.02.05.02.06h.02s.03-.02.05-.02v.02s-.02.03-.02.03v.03s-.05.04-.09.09c0,.02,0,.03-.02.05,0,.02-.02.02-.02.03,0,0,.02.01.02.03-.02,0-.03.03-.08.1h-.05c-.05.12-.08.19-.08.21,0,.03-.03.09-.11.13l.02.03h-.03s-.03.01-.03.01c0,0-.02,0-.02.02v.02l.02.03s-.05.03-.09.09v.03h.05v.02s-.03.03-.06.03c-.02.03-.03.03-.03.05h0s.02.05.02.05h0c-.02.09-.06.12-.11.12t-.02.01v.03s.03.01.03.01v.02c-.66.87-1.52,1.47-2.49,1.42-1.73-.08-2.52-2.14-1.58-3.64-.48.87.17,2.38,1.18,2.32.18-.01.4-.09.6-.19,0,.02.02.02.03.02l.03-.02s.03-.05.03-.06c.08-.02.12-.06.14-.13.02-.01.03-.03.06-.05l.03.12s.02.02.03.02l.05-.03s.06-.06.05-.12c.08-.06.09-.12.09-.18.08-.03.11-.07.09-.13l.06-.02s.05-.03.03-.06c.06-.02.14-.13.21-.31l-.02-.02h-.03c.15-.22.28-.46.4-.73.55-1.17.78-2.5.35-2.68l.03-.03h-.03s-.05-.01-.05-.01c0-.03.28-.21.29-.22l-.29.12s-.05,0-.09.05c-.02.02-.03.02-.06.02l-.11.06h-.03l-.09.09-.02.03c-.08.03-.17.06-.25.1h-.05l-.03.05s-.05.01-.06.03l-.02-.02h0s-.02,0-.02,0l-.02.03c-.06.03-.12.07-.18.1-.03,0-.05.02-.06.02l-.02.03s-.03.02-.05.03h-.02c-.2.12-.4.24-.55.36-.02.02-.03,0-.05-.02l-.05.06-.02.03-.06.03-.05.06c-.06.03-.12.06-.17.07,0,0-.03.02-.08.03l-.08.09v.03s-.08-.02-.08,0h-.02v.06c-.06.02-.14.02-.2,0-.74-.21-.94-.07-.94-1.03,0-.63.48-4.07.87-4.49.26-.34,1.2-.34,1.66-.48,2.45-.08,1.86.48,2.39.75.14.07.26.07.34.15.06.06.2.13.2.21,0,.13.26.27.2.27-.48-.21-2.87-.48-3.47.13-.12.13-1,2.9-.4,2.56.81-.46,1.66-.97,2.59-.97.34,0,.34.34.8.69.57.49.52,1.94.03,3.37Z"/>
  <path class="cls-1" d="m31.8,7.03s.06-.11.11-.16c-.05.06-.08.1-.11.16Z"/>
  <path class="cls-1" d="m32.36,2.15h-.02l-.05-.02h-.02s-.02.03-.02.03l.03.16s0,.03.02.03l.02.07s0,.03-.02.03v.03l-.02.04.02.05s-.03.05-.06.13c0,.07,0,.13-.02.15,0,.03-.02.07-.06.11v.03h.02c.06-.07.09-.15.08-.18.05-.15.06-.22.06-.25.02-.06.03-.12.03-.16.08-.21.11-.33.09-.37h-.02c-.05.09-.06.12-.08.12Z"/>
  <path class="cls-1" d="m32.43,1.34v.06l-.03.02c0,.07.02.12.03.16h-.03s-.03.08-.03.08c.02.01.02.03.03.07h-.02l-.03.03v.02c-.03.07-.03.11-.03.12-.02.11-.03.16-.02.16l.03.03h.02c.06-.16.08-.24.06-.25.05-.16.06-.27.05-.28l.06-.09.06.03.03-.03c-.03-.06-.05-.09-.03-.11l-.05-.03s0-.04.03-.12c-.02-.02-.02-.08.03-.16v-.07h-.03c-.06.15-.09.24-.09.28l-.02.06s-.02.01-.03.03Z"/>
  <path class="cls-1" d="m33.58,9.15s0-.02.02-.02t-.02.02Z"/>
  <path class="cls-1" d="m36.48,8.26s-.05.03-.05.03l.02.02s.02-.03.03-.05Z"/>
  <path class="cls-1" d="m36.97,6.38s-.05.02-.05.05l.02.03s-.02.02-.03.05v.03l.02.02s-.02.03-.02.03t-.02-.02h-.02c-.02.08-.05.12-.06.13v.02s0,.07-.02.07v.1l-.02.02v.02h.02s-.03.04-.03.06c-.02.03-.03.06-.03.11,0,.01-.02.03-.03.03,0,.02,0,.03-.02.06,0,0,0,.02-.02.06l-.02.02h-.03l.02.06.02.03s-.02.03-.03.05l-.02.02s.02.02.02.02h.03v-.05s.06-.05.05-.09c.03-.03.05-.06.05-.06l.03-.03v-.03h-.02s.02-.02.02-.06c.02,0,.03-.03.03-.07,0,0,.02,0,.02-.02v-.05h-.02s.03-.06.03-.06l.02.02s-.02,0-.02.01v.02h.02s.03-.02.05-.06h-.03s-.02-.01-.02-.01v-.02s.02-.03,0-.06h.03v-.04l.03-.03h0s-.02-.03-.02-.03v-.02h.02s-.02-.01-.02-.01v-.02l.02-.02h.02s.03-.01.03-.03l.02-.02s-.02-.01-.03-.03l.02-.05h0s-.02-.03-.02-.03c0-.02.02-.03.02-.06.02,0,.02-.03.03-.07h-.02s0,.03-.02.03Z"/>
</svg>