<svg width="2605" height="692" viewBox="0 0 2605 692" fill="none" xmlns="http://www.w3.org/2000/svg">
<g clip-path="url(#clip0_213_1012)">
<path fill-rule="evenodd" clip-rule="evenodd" d="M917 414.46L911 390.46C912.33 387.46 913.67 384.46 915 381.46C912.33 382.13 909.67 382.79 907 383.46C908.96 381.42 907.35 382.37 911 381.46C916.83 361.63 903.73 345.61 904 336.46C901.68 333.96 902.04 336.33 900 333.46H898C898.33 332.46 898.67 331.46 899 330.46C903.04 331.17 900.2 330.38 904 332.46C903.11 329.74 902.81 327.22 901 325.46C897.33 323.13 893.67 320.79 890 318.46C888 320.79 886 323.13 884 325.46C882.67 325.13 881.33 324.79 880 324.46C881.33 322.13 882.67 319.79 884 317.46C883.67 316.46 883.33 315.46 883 314.46H880C877.51 328.15 877.05 334.76 874 344.46C876.45 346.44 874.4 345.03 877 345.46C883.99 357.11 870.26 460.22 827 438.46C795.42 422.57 772.14 375.77 760 348.46C757 340.46 754 332.46 751 324.46C747.94 320.63 726.16 309.89 720 303.46C716.33 304.13 712.67 304.79 709 305.46C706.91 309.36 705.89 313.16 702 315.46C710.13 324.79 697.25 329.56 699 340.46C700.62 350.54 705.72 357.52 709 368.46C702.33 367.79 695.67 367.13 689 366.46C688.41 362.91 688.57 364.32 690 361.46C666.08 357.95 627.69 349.89 607 348.46C606 348.13 605 347.79 604 347.46C608.32 342.19 625.03 342.18 630 343.46C631.97 340.03 631.14 342.29 630 338.46C630.33 337.79 630.67 337.13 631 336.46C660.71 346.6 693.18 333.84 695 305.46C683.01 300.68 678.18 286.62 667 281.46C652.44 274.74 633.72 291.47 622 288.46C594.1 281.29 529.57 318.05 505 323.46C504.33 327.46 503.67 331.46 503 335.46C504 336.46 505 337.46 506 338.46C506.33 339.13 506.67 339.79 507 340.46C501.75 341.38 502.44 340.75 501 345.46L505 349.46C503.19 351.85 502.82 352 500 353.46C520.55 386.9 532.59 390.49 572 400.46C596.95 406.77 611.27 392.07 627 407.46C631.75 400.48 645.14 408.5 646 410.46H649C633.08 426.45 557.31 445.66 530 432.46H529C527.95 437.05 527.73 433.56 529 437.46C527.67 438.13 526.33 438.79 525 439.46C524.72 435.6 525.85 438.25 524 435.46C519 436.79 514 438.13 509 439.46C502.58 443.24 500.04 452.2 495 457.46H494C495.01 449.21 493.76 445.93 498 438.46L496 436.46C493.33 440.13 490.67 443.79 488 447.46C483.67 448.13 479.33 448.79 475 449.46C476.07 443.73 483.52 439.06 480 436.46C476.14 432.64 466.58 439.54 465 434.46C462.67 436.79 460.33 439.13 458 441.46C428.26 436.39 399.03 451.4 371 446.46L369 444.46C370.93 438.11 371.2 436.3 371 429.46C397.66 425.24 426.7 427.49 456 415.46C459.96 416.98 456.67 415.64 459 418.46C477.7 411.64 481.66 397.28 498 393.46C498.33 392.46 498.67 391.46 499 390.46C492.76 388.3 495.63 386.79 497 381.46C485.87 382.63 475.18 388.79 470 378.46C465.22 381.02 464.37 380.92 459 382.46L457 380.46H462V374.46C461.33 374.13 460.67 373.79 460 373.46C443.01 380.42 412.01 360.68 403 376.46C397.68 375.51 399.48 377.33 398 372.46C395 373.79 392 375.13 389 376.46C389.13 373.91 388.89 375.29 390 372.46C386.12 371.36 387.73 371.63 384 371.46C384.24 361.12 387.63 355.79 388 341.46C399.65 339.14 416.67 342.23 426 339.46C436.7 336.29 439.35 329.61 454 328.46C451.24 331.29 449.57 332.14 444 332.46C443.33 333.46 442.67 334.46 442 335.46C443 336.46 444 337.46 445 338.46C453.78 333.98 469.63 318.77 478 319.46C478.67 318.79 479.33 318.13 480 317.46C478.76 316.05 477.82 313.44 478 310.46C475.57 308.18 477.32 308.59 473 307.46C471.67 309.79 470.33 312.13 469 314.46C460.62 314.23 456.81 314.28 451 315.46L449 313.46C450 312.79 451 312.13 452 311.46C451.2 311.81 454.84 312.57 458 307.46H460C459 306.46 458 305.46 457 304.46C452.28 305.7 453.62 305.77 451 308.46C447.3 304.01 450.06 304.46 445 305.46C442.99 301.67 443.92 304.33 446 300.46C441.67 301.13 437.33 301.79 433 302.46C434.04 298.59 433.35 299.45 436 297.46C426.39 291.87 397.39 285.52 390 294.46C387.67 292.33 388.67 294.61 389 291.46C384.57 288.07 376.38 284.8 372 282.46C370.54 279.66 370.76 284.09 369 281.46C365.76 280.67 360.1 277.43 355 273.46C346.71 275.83 341.24 275.81 339 284.46C332 285.13 325 285.79 318 286.46C313.33 289.79 308.67 293.13 304 296.46C305.7 303.33 307.03 310.9 299 314.46C299.86 323.98 305.53 327.58 312 331.46C311 332.13 310 332.79 309 333.46C314.45 338.29 322.62 343.74 330 343.46C327.52 354 325.98 359.35 325 372.46C313.66 375.34 311.33 364.8 303 366.46C302.4 363.16 302.45 355.56 306 352.46C304.13 348.6 297.67 345.21 294 343.46C295 341.46 296 339.46 297 337.46L296 336.46C293.67 336.13 291.33 335.79 289 335.46C288.93 327.21 259.28 267.77 257 266.46C260.18 262.43 261.75 261.26 262 256.46C264 256.13 266 255.79 268 255.46V256.46C264.11 259.44 264.6 259.09 263 262.46C267 261.46 271 260.46 275 259.46C274.67 258.13 274.33 256.79 274 255.46C287.59 256.11 342.21 235.98 346 238.46C350.17 234.67 348.32 232.65 357 232.46C356.67 231.13 356.33 229.79 356 228.46C387.9 223.05 432.25 195.01 443 153.46C437.45 144.62 429.22 125.66 419 123.46C416.27 120.74 416.39 121.42 417 117.46C413.61 114.52 410.86 116.84 406 114.46C401.28 112.15 403.34 108.25 398 105.46C391.24 102.65 387.04 106.38 381 107.46C381.67 106.79 382.33 106.13 383 105.46C378.7 97.2501 354.12 85.5601 346 88.4601C338.37 87.8801 336.73 83.1901 331 78.4601V82.4601C326.76 82.8201 327.05 82.3601 325 84.4601C318.78 82.8901 319.04 78.2601 315 76.4601C297.46 68.6401 260.83 76.7001 248 73.4601C247 72.7901 246 72.1301 245 71.4601C241.83 73.3301 235.93 77.1901 234 79.4601C232.33 77.4601 230.67 75.4601 229 73.4601C226.67 73.1301 224.33 72.7901 222 72.4601C222.43 63.1101 228.77 28.5601 233 23.4601C233.69 16.2501 225.84 9.33011 226 2.46011C218.19 4.87011 217.18 2.69011 212 0.460107C207.43 -1.50989 198.78 3.38011 192 4.46011C190.03 10.1401 182.93 15.7301 185 22.4601H180C181.67 24.7901 183.33 27.1301 185 29.4601C176.19 37.2601 165.39 62.8901 165 74.4601C158.74 73.8701 127 74.4601 127 74.4601C111.22 85.4701 123.91 110.79 126 120.46C132.17 123.44 134.65 125.69 142 126.46C142.72 132.7 139.18 138.32 144 142.46C141.67 143.79 139.33 145.13 137 146.46C135.55 168.79 120.23 194.07 115 223.46C117.33 223.79 119.67 224.13 122 224.46C119.04 226.97 115.65 227.09 112 226.46C111.67 227.79 111.33 229.13 111 230.46H114C108.07 238.51 101.23 236.17 99 246.46C95.07 244.11 96.52 242.78 91 241.46C83.11 239.1 77.86 245.88 70 245.46C69.79 249.61 69.55 247.36 71 250.46C69 250.79 67 251.13 65 251.46C64.56 255.97 64.37 257.6 62 261.46V264.46C67.36 263.91 66.04 264.93 67 262.46L71 266.46C70 266.13 69 265.79 68 265.46C66.55 277.3 79.37 285.92 88 287.46C86.63 291.78 83.05 307.36 86 310.46C84.89 314.84 81.7 313.15 79 317.46C79.54 318.2 74.11 346.23 74 352.46C71.25 353.68 72.37 353.18 70 353.46C66.94 358.63 67.28 365.33 70 373.46C68 373.13 66 372.79 64 372.46C63.54 374.51 66.44 382.58 66 383.46C63.33 387.13 60.67 390.79 58 394.46C58.67 396.13 59.33 397.79 60 399.46C57.5 402.84 52 404.33 51 409.46C49.98 414.7 54.23 427.84 53 430.46C45.92 445.52 41.02 482.69 27 496.46C33.66 501.19 23.86 540.1 23 542.46V543.46H30C30.73 548.96 29.13 552.91 33 557.46C32.67 558.46 32.33 559.46 32 560.46C27 561.46 22 562.46 17 563.46V564.46C19.06 566.65 18.35 566.4 22 567.46C22.23 567.85 12.76 573.72 11 576.46C11 576.46 2.55 630.24 1 633.46C3.66 636.76 6.23 637 11 635.46C6.08 643.11 3.21 644.29 0 651.46V652.46C3.33 651.46 6.67 650.46 10 649.46C10.67 650.46 11.33 651.46 12 652.46C5.01 663.06 2.19 669.25 7 680.46C6.63 684.35 11.49 687.41 13 690.46C18.58 690.32 18.17 690.15 22 691.46C31.53 688.81 24.51 683.15 35 682.46C34.11 676.36 39.58 665.03 42 659.46C40.67 658.79 39.33 658.13 38 657.46C41.33 653.98 38.72 655.37 43 656.46C47.21 650.47 41.93 647.89 44 640.46C47.8 626.79 59.34 598.34 53 588.46C64.9 581.72 70.67 556.51 71 541.46C71.33 542.46 71.67 543.46 72 544.46H73C72.31 532.05 74.41 530.42 73 520.46C74.97 518.86 74.37 519.1 78 518.46C75.55 516.48 77.6 517.89 75 517.46C76 515.79 77 514.13 78 512.46C76.33 511.46 74.67 510.46 73 509.46C74.67 509.13 76.33 508.79 78 508.46C75.91 504.08 75.73 502.83 74 497.46C77 496.46 80 495.46 83 494.46C85.17 489.37 85.53 463.16 94 458.46C90.79 454.54 93.06 455.61 89 456.46V452.46C91 453.13 93 453.79 95 454.46C93.43 447.67 107.84 399.69 112 396.46C112.42 391.38 118.08 362.74 124 354.44V353.46H124.78C125.19 353.02 125.6 352.68 126 352.46C124.67 347.83 123.92 349.02 122 345.46C126.81 346.77 132.94 330.8 131 321.46H136C137.93 315.37 144.59 288.61 144 285.46C157.98 288.16 178.33 270.46 195 275.46C206 279.71 206.38 294.91 211 302.46C214 304.46 217 306.46 220 308.46C217.98 309.3 224.76 329.23 226 331.46C229 332.79 232 334.13 235 335.46C239.83 340.66 250.32 356.63 253 367.46C255.33 367.13 257.67 366.79 260 366.46C258.46 375.15 266.88 383.25 273 387.46C271.46 394.64 270.2 399.78 269 406.46C279.41 422.9 286.48 433.94 313 433.46V434.46C312 439.79 311 445.13 310 450.46C301.3 454.96 280.71 453.18 270 455.46C269.33 455.79 268.67 456.13 268 456.46C266.22 469.63 267.38 475.14 266 489.46C270.18 493.43 272.82 494.07 274 500.46C274.67 499.46 275.33 498.46 276 497.46C278.91 508.19 284.7 505.06 289 512.46C290.87 511.8 328 505.46 328 505.46C329.6 506.17 337.46 510.13 341 508.46C348.04 505.13 385.74 505.66 386 505.46C395.78 497.83 406.91 506.03 428 499.46C447.41 493.41 471.8 488.22 487 480.46C484.89 484.48 484.58 484.07 481 486.46C490.46 489.52 493.62 479.86 500 477.46C505.67 477.79 511.33 478.13 517 478.46C518.81 483.25 518.83 487.14 522 489.46C533.07 494.52 562.25 490.65 565 483.46C584.21 487.19 602.33 489.86 618 479.46C617.67 480.79 617.33 482.13 617 483.46C628.32 480.7 637.94 483.34 649 476.46L659 466.46C660.84 466.19 663.99 469.58 669 470.46C671.93 463.32 698 454.69 710 454.46C710.67 452.13 711.33 449.79 712 447.46C716.93 444.82 734.93 436.71 737 429.46C738.33 429.13 739.67 428.79 741 428.46C743.1 434.05 751.36 449.78 760 448.46C763.21 452.3 765.21 459.92 768 464.46C775.22 476.22 791.93 476.36 798 488.46C803.92 488.89 803.23 488.34 808 486.46C807.67 488.46 807.33 490.46 807 492.46C821.57 495.8 859.51 500.5 868 496.46C893.87 484.16 929 451.9 913 422.46C914.33 419.79 915.67 417.13 917 414.46ZM641 403.46L639 399.46H642C641.67 400.79 641.33 402.13 641 403.46ZM439 378.46L441 380.46V381.46C440 381.79 439 382.13 438 382.46C437.33 381.46 436.67 380.46 436 379.46C439.13 379.94 436.76 380.69 439 378.46ZM438 308.46C441.38 310.87 440.28 309.61 441 312.46C443.02 314.26 441.74 312.44 443 315.46C442.67 316.46 442.33 317.46 442 318.46H441C439.67 316.79 438.33 315.13 437 313.46C437.33 311.79 437.67 310.13 438 308.46ZM413 296.46H419C419.67 297.46 420.33 298.46 421 299.46C416.9 298.7 418.18 299.38 415 301.46H411C411.67 299.79 412.33 298.13 413 296.46ZM428 134.46H430C429 135.13 428 135.79 427 136.46C427.33 135.79 427.67 135.13 428 134.46ZM72 250.46C72.33 249.79 72.67 249.13 73 248.46H74C73.33 249.13 72.67 249.79 72 250.46ZM83 271.46V269.46H86C84.2 271.48 86.02 270.2 83 271.46ZM87 263.46C83 262.79 79 262.13 75 261.46C75.33 260.46 75.67 259.46 76 258.46C82.63 258.9 83.83 260.22 87 262.46V263.46ZM21 634.46H16C17.33 634.13 18.67 633.79 20 633.46C18.26 630.3 20.47 632.28 17 631.46C17.33 630.79 17.67 630.13 18 629.46H22C21.67 631.13 21.33 632.79 21 634.46ZM42 514.46C39.02 513.17 40.8 514.5 39 512.46C37.67 512.79 36.33 513.13 35 513.46L36 509.46H41C41.67 510.46 42.33 511.46 43 512.46C42.67 513.13 42.33 513.79 42 514.46ZM66 434.46C65.67 433.46 65.33 432.46 65 431.46C66 432.13 67 432.79 68 433.46C67.33 433.79 66.67 434.13 66 434.46ZM268 249.46C268.33 248.13 268.67 246.79 269 245.46C270.67 245.79 272.33 246.13 274 246.46C272 247.46 270 248.46 268 249.46ZM349 115.46C349.02 118.18 350.39 117.23 347 118.46C347.67 117.46 348.33 116.46 349 115.46ZM167 215.46H169C168 216.46 167 217.46 166 218.46C166.33 217.46 166.67 216.46 167 215.46ZM198 208.46C195.33 210.13 192.67 211.79 190 213.46C189.05 223.7 188.89 232.43 177 238.46C177.31 232.03 172.32 234.61 165 234.46C165.03 218.11 174.85 205.87 179 195.46C186.4 176.9 197.74 140.92 199 124.46C206.33 123.46 213.67 122.46 221 121.46C253.03 127.53 273.75 119.07 304 129.46C304.73 129.16 323 128.46 323 128.46C327.55 133.31 364.93 145.32 376 147.46C376.33 148.79 376.67 150.13 377 151.46C372.67 158.13 368.33 164.79 364 171.46C359.57 170.84 362.13 173.39 360 169.46C355.67 171.13 351.33 172.79 347 174.46C347.02 178.57 345.72 175.84 348 178.46C337.64 185.37 329.33 176.49 324 190.46C314.72 188.84 277.51 196.54 269 203.46C268.67 205.13 268.33 206.79 268 208.46C264 207.79 260 207.13 256 206.46C233 215.51 223.9 214.82 198 208.46ZM273 369.46V368.46C273.67 368.13 274.33 367.79 275 367.46C274.33 368.13 273.67 368.79 273 369.46ZM566 444.46C565 444.79 564 445.13 563 445.46C562.67 444.46 562.33 443.46 562 442.46C562.67 441.46 563.33 440.46 564 439.46C565 439.79 566 440.13 567 440.46C566.67 441.79 566.33 443.13 566 444.46ZM2224 400.46H2216C2216.87 397.28 2216.93 396.3 2219 394.46C2219.07 397.4 2218.82 397.2 2222 399.46C2218.06 388.86 2222.54 379.18 2214 365.46C2198.99 341.33 2178.21 335.61 2151 322.46C2145.89 326.86 2148.25 326.53 2141 325.46C2141.67 326.46 2142.33 327.46 2143 328.46C2141.67 328.13 2140.33 327.79 2139 327.46C2137.39 324.53 2137.48 325.12 2138 321.46C2136.33 322.46 2134.67 323.46 2133 324.46C2130.32 320.57 2127.47 317.9 2121 316.46C2114.04 314.1 2090.71 327.18 2081 317.46C2078.37 319.63 2078.14 319.44 2077 323.46C2065.36 323.39 2066.07 319.43 2057 315.46H2056C2053.8 318.78 2054.24 319.76 2054 323.46C2052 322.46 2050 321.46 2048 320.46C2048.33 322.46 2048.67 324.46 2049 326.46H2045V319.46C2041.08 321.54 2030.35 319.67 2026 319.46C2021.75 323.21 2022.88 322.32 2024 329.46C2016.67 328.46 2009.33 327.46 2002 326.46V332.46C2000 332.13 1998 331.79 1996 331.46C1995.67 334.13 1995.33 336.79 1995 339.46C1991.37 338.5 1992.96 339.53 1991 337.46C1986.87 339.23 1984.04 342.53 1983 347.46C1973.49 347.21 1971.67 347.78 1965 349.46C1965.67 351.13 1966.33 352.79 1967 354.46C1956.8 363.56 1955.18 366.63 1949 376.46H1947C1925.05 359.94 1928.49 352.14 1900 348.46C1897.49 347.84 1894.13 340.64 1889 337.46C1880.74 332.34 1870.04 331.27 1862 334.46C1856.49 329.19 1853.43 326.22 1845 325.46C1845.67 326.46 1846.33 327.46 1847 328.46C1845.63 329.44 1834.72 321.26 1827 320.46C1824.33 321.13 1821.67 321.79 1819 322.46C1816.36 321.48 1813.95 316.63 1811 315.46C1805 316.13 1799 316.79 1793 317.46C1791.67 315.13 1790.33 312.79 1789 310.46C1777.5 309.38 1763.56 315.03 1760 306.46L1762 307.46C1757.74 300.98 1743.47 309.85 1740 306.46C1720.79 287.7 1670.19 291.27 1643 284.46C1643.33 285.79 1643.67 287.13 1644 288.46C1641.33 286.46 1638.67 284.46 1636 282.46C1631.43 287.97 1632.3 286.84 1626 287.46C1627 288.79 1628 290.13 1629 291.46C1626.27 298.25 1622.49 296.61 1618 302.46C1617.49 297.78 1618.21 298.56 1619 293.46C1616.01 292.79 1610.53 294.59 1607 289.46C1613.1 290.11 1620.77 287.51 1627 284.46C1627.33 283.79 1627.67 283.13 1628 282.46C1620.88 280.74 1616.46 282.05 1611 278.46C1608.54 283.42 1605.37 283.83 1602 287.46C1600.07 284.76 1600.78 285.79 1601 282.46C1598.67 281.79 1596.33 281.13 1594 280.46C1595.92 283.46 1594.17 282.14 1598 283.46C1594.99 286.78 1594.53 284.27 1589 285.46C1587.7 279.8 1588.02 280.67 1589 275.46C1587.33 276.13 1585.67 276.79 1584 277.46C1571.19 269.13 1560.31 264.93 1548 253.46C1544 255.13 1540 256.79 1536 258.46C1531.65 263 1531.58 273.09 1527 274.46C1522.03 281.49 1482.46 279.1 1477 278.46C1476.67 279.13 1476.33 279.79 1476 280.46C1476.86 285.75 1471.74 285.61 1467 288.46C1466 285.79 1465 283.13 1464 280.46C1462 281.46 1460 282.46 1458 283.46C1457 282.46 1456 281.46 1455 280.46C1457 280.13 1459 279.79 1461 279.46V278.46C1451.78 274.65 1425.33 281.38 1417 282.46C1417.33 284.13 1417.67 285.79 1418 287.46C1417 286.46 1416 285.46 1415 284.46C1413.22 288.4 1414.49 287.24 1410 288.46C1411 289.79 1412 291.13 1413 292.46C1411 293.46 1409 294.46 1407 295.46C1406.67 292.13 1406.33 288.79 1406 285.46C1408 284.79 1410 284.13 1412 283.46C1412.67 282.46 1413.33 281.46 1414 280.46C1413.33 279.79 1412.67 279.13 1412 278.46C1401.92 282.84 1399.85 287.07 1391 289.46C1392.65 285.73 1391.39 287.11 1395 285.46C1395.33 284.79 1395.67 284.13 1396 283.46H1394C1392.67 282.79 1391.33 282.13 1390 281.46C1388.67 284.13 1387.33 286.79 1386 289.46H1385C1379.48 287.6 1381.44 285.78 1375 284.46C1370.74 278.98 1365.4 289.82 1358 288.46C1353.67 286.46 1349.33 284.46 1345 282.46C1344.19 282.7 1341.02 283.45 1341 283.46C1339.67 284.13 1338.33 284.79 1337 285.46L1335 286.46C1334.67 284.79 1334.33 283.13 1334 281.46C1331.33 281.79 1328.67 282.13 1326 282.46C1323.87 286.14 1322.5 292.27 1323 295.46C1318.42 292.56 1321.69 290.32 1323 284.46C1318.33 283.79 1313.67 283.13 1309 282.46C1307.53 285.87 1308.05 284.36 1308 289.46C1301.91 287.32 1295.12 291.51 1290 290.46C1289 292.46 1288 294.46 1287 296.46C1285.48 292.9 1286.45 288.73 1288 287.46C1282.4 284.96 1273.97 286.79 1269 289.46C1267.67 289.13 1266.33 288.79 1265 288.46V292.46C1266.67 291.79 1268.33 291.13 1270 290.46C1270.33 291.13 1270.67 291.79 1271 292.46C1269.67 294.46 1268.33 296.46 1267 298.46H1263V292.46C1260.33 293.42 1261.94 291.42 1260 294.46V287.46C1250.99 289.41 1238.71 289.2 1222 289.46C1221 291.13 1220 292.79 1219 294.46C1218.34 297.26 1218.82 296.71 1220 299.46C1214.42 299.21 1213.32 296.49 1204 297.46V296.46C1206.66 294.21 1207.33 294.64 1210 294.46C1203.18 286.07 1186.72 297.9 1173 296.46C1150.98 294.15 1100.62 311.6 1084 307.46C1079.5 319.66 1080.59 330.81 1075 340.46C1083.99 348.78 1081.61 355.76 1086 362.46C1088 362.13 1090 361.79 1092 361.46C1103.25 362.93 1114.1 367.41 1122 360.46H1123C1124.67 361.13 1126.33 361.79 1128 362.46C1128.67 361.46 1129.33 360.46 1130 359.46C1132.67 359.79 1135.33 360.13 1138 360.46H1142C1141.67 359.13 1141.33 357.79 1141 356.46C1152.16 360.62 1167.05 357.61 1180 352.46C1181.33 353.46 1182.67 354.46 1184 355.46C1182.67 356.46 1181.33 357.46 1180 358.46C1186.88 357.23 1188.8 353.1 1195 354.46C1198.23 351.03 1196.89 353.45 1196 349.46C1200 350.46 1204 351.46 1208 352.46V348.46C1212.21 348.46 1211.45 350.58 1216 350.46C1218.81 352.67 1217.22 351.6 1219 348.46C1221.33 349.79 1223.67 351.13 1226 352.46C1228.4 350.17 1228.23 350.88 1229 346.46C1243.93 353.39 1256.73 347.72 1273 345.46C1269.33 362.13 1265.67 378.79 1262 395.46V455.46C1265.27 463.3 1279.09 468.51 1284 470.46C1284.67 469.46 1285.33 468.46 1286 467.46C1286.36 470.4 1287.62 468.68 1285 470.46C1287.88 472.08 1300.62 463.16 1305 462.46C1305.13 457.55 1310.65 448.49 1308 446.46C1310.13 439.91 1312.36 443.25 1316 438.46V409.46C1319.72 389.23 1325.42 364.97 1331 339.46H1332C1332.67 341.79 1333.33 344.13 1334 346.46C1337.76 344.42 1338.01 340.96 1338 335.46C1339.33 335.13 1340.67 334.79 1342 334.46C1343.24 338.38 1343.13 336.55 1343 341.46C1349.98 340.25 1351.69 339.09 1358 338.46C1357.31 334.2 1359.63 337.07 1356 334.46V333.46C1361.25 334.38 1360.56 333.75 1362 338.46C1365.33 337.46 1368.67 336.46 1372 335.46C1371.67 336.79 1371.33 338.13 1371 339.46H1374V335.46L1376 334.46C1377 336.13 1378 337.79 1379 339.46C1382.7 337.65 1381.34 339.36 1380 335.46C1405.81 337.22 1428.34 338.55 1449 332.46C1453.05 333.7 1454.2 331.37 1455 326.46H1458C1456.82 330.06 1456.87 329.2 1455 331.46L1461 337.46C1468.52 333.91 1472.68 332.91 1479 336.46C1478.67 335.46 1478.33 334.46 1478 333.46C1480 334.46 1482 335.46 1484 336.46C1483.67 334.79 1483.33 333.13 1483 331.46C1485.67 331.79 1488.33 332.13 1491 332.46C1489.88 330.12 1491.82 330.78 1487 329.46C1488.94 326.18 1494.73 327.86 1499 324.46C1499.33 325.13 1499.67 325.79 1500 326.46C1505.53 332.82 1492.84 368.1 1484 371.46C1482.88 372.27 1440.93 376.52 1427 376.46C1423.15 389.71 1419.72 397.54 1418 413.46C1423.33 420.13 1428.67 426.79 1434 433.46C1444.24 434.37 1452.06 432.27 1461 431.51V431.46H1461.56C1464.83 431.2 1468.25 431.13 1472 431.46C1473.33 434.79 1474.67 438.13 1476 441.46C1481.46 446.47 1486.05 443.55 1484 451.46L1490 457.46C1499.73 457.11 1500.67 455.73 1509 456.46C1510 454.46 1511 452.46 1512 450.46C1514.34 448.59 1516.27 448.4 1521 448.46C1525.04 442.99 1528.77 441.14 1529 431.46C1539.34 433.83 1602.18 428.48 1609 425.46C1613.31 429.93 1611.42 429.89 1618 428.46C1617.26 434.64 1631.02 446.58 1637 447.46C1639.4 459.91 1646 458.87 1648 467.46C1645.67 467.79 1643.33 468.13 1641 468.46C1641.67 469.79 1642.33 471.13 1643 472.46C1639.76 476.88 1633.54 481.14 1630 488.46C1630.67 489.13 1631.33 489.79 1632 490.46V487.46C1633 487.79 1634 488.13 1635 488.46C1632.86 492.81 1636.67 492.28 1631 493.46C1636.62 500.4 1640.93 500.62 1638 509.46C1645.67 507.75 1651.08 506.14 1661 505.46C1660.67 511.44 1678.19 513.25 1686 513.46C1704.42 540.57 1700.35 531.61 1729 532.46C1734.19 525.14 1734.05 522.17 1739 516.46C1737.68 513.06 1737.26 510.05 1734 506.46C1736 505.46 1738 504.46 1740 503.46C1739 502.13 1738 500.79 1737 499.46C1745.48 496.05 1754.21 499.11 1761 500.46C1771.21 486.61 1815.79 488.87 1819 476.46C1821 477.13 1823 477.79 1825 478.46H1822C1823 479.79 1824 481.13 1825 482.46C1828.11 479.31 1838.13 473.53 1845 475.46C1846.67 473.37 1846.6 473.49 1847 469.46C1849.67 470.13 1852.33 470.79 1855 471.46C1861.99 464.57 1869.48 457.46 1879 460.46C1882.35 457.34 1881.57 451.04 1889 453.46V447.46C1900.73 442.53 1911.32 443.9 1919 432.46C1923 433.46 1927 434.46 1931 435.46C1929.5 448.42 1935.67 449.27 1936 460.46C1938.58 461.3 1939.43 460.43 1942 462.46C1941 462.13 1940 461.79 1939 461.46C1938 462.46 1937 463.46 1936 464.46C1938.33 465.13 1940.67 465.79 1943 466.46C1942.33 465.46 1941.67 464.46 1941 463.46C1947.39 466.14 1951.94 466.11 1957 466.46C1956.98 464.87 1964.15 472.81 1965 477.46H1966C1970.72 473.4 1969.45 472.38 1969 465.46H1975C1992.67 478.36 2012.33 509.89 2039 502.46C2038.33 503.46 2037.67 504.46 2037 505.46H2035C2046.5 514.02 2053.83 503.76 2068 508.46C2068.33 506.79 2068.67 505.13 2069 503.46C2076 505.13 2083 506.79 2090 508.46C2094.46 506.25 2094.43 507.95 2095 501.46C2100.35 503.37 2111.77 503.56 2117 501.46C2120.08 498.91 2118.01 500.41 2117 497.46C2123.83 499.51 2178.23 481.78 2186 475.46C2191.82 470.73 2190.11 466.08 2199 463.46V452.46C2203.1 450.79 2203.31 451.92 2205 447.46C2207.33 450.13 2205.91 450 2210 451.46C2210.29 439.43 2225.5 431.5 2219 418.46C2220 418.79 2221 419.13 2222 419.46C2223 419.13 2224 418.79 2225 418.46C2223.09 408.21 2223.31 410.94 2224 400.46ZM1164 353.46V351.46C1164.91 353.24 1164.98 351.71 1164 353.46ZM1167 312.46H1165V309.46H1167V312.46ZM1180 349.46C1177.17 350.45 1179.52 351.09 1177 349.46L1175 348.46C1176.33 347.79 1177.67 347.13 1179 346.46H1182C1180.71 349.44 1182.04 347.66 1180 349.46ZM1194 313.46C1192.67 312.79 1191.33 312.13 1190 311.46L1191 310.46H1194V313.46ZM1191 302.46H1190V301.46C1191 300.46 1192 299.46 1193 298.46L1197 302.46C1193.18 301.41 1194.95 301.08 1191 302.46ZM1203 308.46H1202C1201.33 307.79 1200.67 307.13 1200 306.46L1201 305.46H1203V308.46ZM1209 300.46L1210 299.46C1211 300.46 1212 301.46 1213 302.46C1211.67 301.79 1210.33 301.13 1209 300.46ZM1218 310.46C1216.67 310.79 1215.33 311.13 1214 311.46C1214.33 310.13 1214.67 308.79 1215 307.46C1216 308.13 1217 308.79 1218 309.46V310.46ZM1233 295.46H1226C1225.67 294.79 1225.33 294.13 1225 293.46C1226.33 293.13 1227.67 292.79 1229 292.46C1230.33 293.13 1231.67 293.79 1233 294.46V295.46ZM1268 342.46L1266 343.46H1262V342.46C1262.67 341.46 1263.33 340.46 1264 339.46C1265.33 340.13 1266.67 340.79 1268 341.46V342.46ZM1271 300.46H1270C1270.33 299.13 1270.67 297.79 1271 296.46V300.46ZM1284 296.46C1279.11 295.87 1280.26 296.24 1278 293.46C1279.67 292.13 1281.33 290.79 1283 289.46C1283.67 288.79 1284.33 288.13 1285 287.46C1284.67 290.46 1284.33 293.46 1284 296.46ZM1296 455.46C1294.67 453.79 1293.33 452.13 1292 450.46C1293 450.13 1294 449.79 1295 449.46C1298.42 452.18 1298.06 452.17 1296 455.46ZM1327 294.46C1327.67 293.46 1328.33 292.46 1329 291.46C1329.33 292.46 1329.67 293.46 1330 294.46H1327ZM1353 300.46C1351.67 299.79 1350.33 299.13 1349 298.46C1348.33 295.46 1347.67 292.46 1347 289.46C1349 292.13 1351 294.79 1353 297.46V300.46ZM1363 299.46H1362C1361.33 298.46 1360.67 297.46 1360 296.46C1361 297.13 1362 297.79 1363 298.46V299.46ZM1370 310.46C1370.33 309.46 1370.67 308.46 1371 307.46C1371.16 310.08 1372.09 308.17 1370 310.46ZM1369 293.46L1371 292.46C1373.16 293.04 1369 293.46 1369 293.46ZM1374 329.46H1373C1373.33 327.79 1373.67 326.13 1374 324.46H1376C1376.33 325.46 1376.67 326.46 1377 327.46C1376 328.13 1375 328.79 1374 329.46ZM1394 326.46C1392.98 323.31 1393.71 323.23 1395 320.46C1395.74 322.94 1395.35 323.96 1394 326.46ZM1404 300.46H1402V298.46L1404 297.46V300.46ZM1403 285.46C1403.67 286.46 1404.33 287.46 1405 288.46C1402.98 286.66 1404.26 288.48 1403 285.46ZM1431 300.46C1430.33 301.13 1429.67 301.79 1429 302.46C1428.67 301.46 1428.33 300.46 1428 299.46C1429 299.79 1430 300.13 1431 300.46ZM1409 295.46L1411 294.46C1411.67 295.13 1412.33 295.79 1413 296.46C1411.67 296.79 1410.33 297.13 1409 297.46V295.46ZM1414 312.46C1412.67 311.79 1411.33 311.13 1410 310.46C1410.33 309.79 1410.67 309.13 1411 308.46H1414V312.46ZM1415 320.46V318.46H1418C1416.2 320.48 1418.02 319.2 1415 320.46ZM1417 300.46C1417.33 299.79 1417.67 299.13 1418 298.46C1418.67 299.13 1419.33 299.79 1420 300.46H1417ZM1423 324.46H1421V321.46H1423V324.46ZM1433 311.46C1428.19 310.05 1427.72 310.01 1426 305.46C1428.8 307.21 1428.55 307.71 1433 308.46V311.46ZM1432 287.46C1431.67 286.79 1431.33 286.13 1431 285.46L1433 284.46C1433.82 286.92 1433.37 285.31 1432 287.46ZM1447 300.46V296.46C1448 297.13 1449 297.79 1450 298.46C1449 299.13 1448 299.79 1447 300.46ZM1451 296.46C1450 295.13 1449 293.79 1448 292.46L1452 296.46H1451ZM1459 318.46C1456.51 315.78 1456.64 313.61 1457 311.46C1459 312.13 1461 312.79 1463 313.46C1460.97 315.75 1460.45 315.13 1459 318.46ZM1473 303.46C1467.53 302.73 1469.43 302.69 1469 307.46C1465.45 305.95 1462.32 305.25 1460 302.46H1469C1468.67 300.13 1468.33 297.79 1468 295.46C1463.71 296.64 1465.43 296.16 1463 298.46C1462 297.46 1461 296.46 1460 295.46C1461 294.46 1462 293.46 1463 292.46H1467C1470.28 294.67 1472.21 300.2 1475 301.46C1474.33 302.13 1473.67 302.79 1473 303.46ZM1478 294.46C1480.1 295.44 1478.87 295.37 1481 292.46H1482C1481.67 295.13 1481.33 297.79 1481 300.46L1479 301.46C1477.67 298.13 1476.33 294.79 1475 291.46C1476 292.46 1477 293.46 1478 294.46ZM1476 312.46C1477 313.46 1478 314.46 1479 315.46V316.46L1477 317.46C1475.78 314.49 1476.03 315.42 1476 312.46ZM1480 328.46C1479 328.13 1478 327.79 1477 327.46C1477.33 326.79 1477.67 326.13 1478 325.46C1479.33 325.79 1480.67 326.13 1482 326.46C1483 327.13 1484 327.79 1485 328.46C1482.11 330.5 1483.74 329.59 1480 328.46ZM1483 289.46C1482 289.13 1481 288.79 1480 288.46C1479.24 285.11 1480.22 286.56 1481 282.46C1482 283.46 1483 284.46 1484 285.46C1484.67 286.46 1485.33 287.46 1486 288.46C1485 288.79 1484 289.13 1483 289.46ZM1488 321.46C1488.67 322.79 1489.33 324.13 1490 325.46C1486 323.46 1488.07 325.25 1488 321.46ZM1489 310.46C1490 312.13 1491 313.79 1492 315.46C1488.27 312.76 1489.5 314.23 1489 310.46ZM1482 385.46V383.46C1482.91 385.24 1482.98 383.71 1482 385.46ZM1502 340.46C1502.33 339.46 1502.67 338.46 1503 337.46C1503.16 340.08 1504.09 338.17 1502 340.46ZM1503 304.46L1501 305.46C1501.33 303.79 1501.67 302.13 1502 300.46C1505.42 301.83 1503.03 301.29 1503 304.46ZM1508 284.46C1507.67 285.13 1507.33 285.79 1507 286.46C1506 287.13 1505 287.79 1504 288.46L1502 287.46C1501.67 285.13 1501.33 282.79 1501 280.46H1508V284.46ZM1523 282.46C1519.64 281.08 1520.92 281.88 1519 279.46H1523V282.46ZM1556 331.46C1556.33 332.46 1556.67 333.46 1557 334.46C1556 334.79 1555 335.13 1554 335.46C1553.67 333.79 1553.33 332.13 1553 330.46C1554 330.79 1555 331.13 1556 331.46ZM1546 426.46V423.46L1548 424.46C1547.33 425.13 1546.67 425.79 1546 426.46ZM1574 395.46H1573C1572.33 394.46 1571.67 393.46 1571 392.46H1574V395.46ZM1582 377.46C1579.17 376.06 1578.96 376.88 1581 374.46C1580.67 373.13 1580.33 371.79 1580 370.46H1574C1571.66 372.95 1571.24 372.34 1570 376.46C1565.37 377.02 1568.54 374.3 1564 377.46C1563 374.79 1562 372.13 1561 369.46C1555.67 369.13 1550.33 368.79 1545 368.46C1549.28 356.26 1556.2 351.31 1556 336.46C1567.7 342.65 1577.49 361.48 1582 374.46V377.46ZM1597 402.46H1593C1592.67 401.79 1592.33 401.13 1592 400.46C1593 399.79 1594 399.13 1595 398.46C1595.67 399.46 1596.33 400.46 1597 401.46V402.46ZM1624 305.46C1625 306.13 1626 306.79 1627 307.46C1627.33 309.13 1627.67 310.79 1628 312.46L1627 313.46C1626 313.79 1625 314.13 1624 314.46C1622.04 312.42 1623.65 313.37 1620 312.46C1621.17 308.1 1621.85 308.27 1624 305.46ZM1605 305.46C1604 304.13 1603 302.79 1602 301.46C1603.67 301.79 1605.33 302.13 1607 302.46C1607.67 303.13 1608.33 303.79 1609 304.46C1607.67 304.79 1606.33 305.13 1605 305.46ZM1611 319.46C1610.67 318.46 1610.33 317.46 1610 316.46C1610.67 315.79 1611.33 315.13 1612 314.46C1613.33 315.46 1614.67 316.46 1616 317.46C1618.33 316.79 1620.67 316.13 1623 315.46H1624C1621.67 317.79 1619.33 320.13 1617 322.46C1615 321.46 1613 320.46 1611 319.46ZM1678 378.46H1677C1674.61 382.02 1675.05 382.39 1671 384.46C1669.18 382.48 1664.1 384.44 1663 377.46C1662.67 379.13 1662.33 380.79 1662 382.46C1658 379.79 1654 377.13 1650 374.46C1651.5 379.23 1649.41 376.75 1654 377.46C1654.33 379.79 1654.67 382.13 1655 384.46C1649.57 382.9 1648.46 380.75 1646 376.46C1648.6 376.03 1646.54 377.41 1649 375.46C1638.59 365.46 1627.98 353.57 1623 339.46C1620.54 340.24 1622.53 339.01 1620 341.46C1618.99 336.17 1617.41 333.59 1618 329.46C1617.19 325.56 1618.13 326.78 1620 323.46C1621.33 323.79 1622.67 324.13 1624 324.46C1629.79 328.13 1631.12 338.06 1636 339.46C1637.18 342.27 1661.91 345.02 1668 348.46C1669.67 347.13 1671.33 345.79 1673 344.46C1676.17 349.66 1691.9 349.79 1698 347.46C1697.11 350.89 1696.92 349.58 1700 351.46C1713.3 359.58 1704.01 375.26 1712 390.46C1711.67 392.13 1711.33 393.79 1711 395.46H1706C1704.62 392.1 1705.42 393.37 1703 391.46C1704.36 387.03 1702.27 389.42 1706 387.46V386.46C1702.37 387.42 1703.96 386.39 1702 388.46H1696V387.46C1696.33 386.13 1696.67 384.79 1697 383.46C1698 384.46 1699 385.46 1700 386.46C1700.67 385.79 1701.33 385.13 1702 384.46C1701.33 383.13 1700.67 381.79 1700 380.46H1699C1689.85 386.71 1689.76 385.02 1679 389.46C1680 387.13 1681 384.79 1682 382.46C1679.09 380.21 1679.84 383.73 1678 378.46ZM1703 401.46C1707.96 400.4 1706.37 401.83 1708 397.46L1712 401.46C1711.67 402.79 1711.33 404.13 1711 405.46C1708.82 403.56 1711 405.29 1706 405.46C1705 404.13 1704 402.79 1703 401.46ZM1705 409.46L1703 410.46C1702.67 411.13 1702.33 411.79 1702 412.46C1702.33 411.46 1702.67 410.46 1703 409.46H1705ZM1698 406.46H1696C1694.31 411.95 1691.44 411.59 1688 408.46C1692.15 403.36 1692.33 397.32 1695 392.46C1696.33 393.13 1697.67 393.79 1699 394.46C1697.33 396.46 1695.67 398.46 1694 400.46C1696.12 403.06 1696.71 402.5 1698 406.46ZM1688 396.46H1690V402.46H1689C1686.91 399.62 1687.61 400.47 1688 396.46ZM1684 393.46C1685.33 394.13 1686.67 394.79 1688 395.46C1683.4 397.43 1685.43 395.6 1685 399.46C1681.1 396.51 1683.45 398.99 1684 393.46ZM1685 437.46C1685.31 433.36 1685.07 435.07 1683 429.46V423.46C1684.67 424.46 1686.33 425.46 1688 426.46C1689.7 429.26 1699.71 420.44 1704 418.46C1706.76 420.83 1703.68 421.28 1709 420.46C1710 420.79 1711 421.13 1712 421.46C1708.66 414.99 1710.61 414.15 1714 407.46C1714.67 408.13 1715.33 408.79 1716 409.46C1717.87 412.04 1715.42 415.58 1713 419.46C1717.62 426.24 1721.21 433.82 1721 446.46C1716 449.11 1711.99 451.24 1708 454.46C1700.15 449.26 1693.87 437.59 1685 437.46ZM1708 523.46C1707 523.13 1706 522.79 1705 522.46V518.46C1706.33 519.13 1707.67 519.79 1709 520.46C1708.67 521.46 1708.33 522.46 1708 523.46ZM1719 518.46V513.46H1718C1718.33 517.46 1718.67 521.46 1719 525.46C1718.67 524.79 1718.33 524.13 1718 523.46C1713.94 522.73 1717.22 521.89 1714 524.46C1713.67 522.79 1713.33 521.13 1713 519.46H1708C1709 518.46 1710 517.46 1711 516.46C1711.33 517.13 1711.67 517.79 1712 518.46C1717.59 516.07 1713.67 515.5 1718 512.46C1721.17 510.15 1723.65 509.98 1725 515.46C1726 514.46 1727 513.46 1728 512.46C1728.67 513.46 1729.33 514.46 1730 515.46C1730.67 516.13 1731.33 516.79 1732 517.46C1726.65 518.47 1726.11 518.59 1719 518.46ZM1735 306.46C1730.92 305.45 1730.01 305.61 1728 302.46C1730.33 302.79 1732.67 303.13 1735 303.46V306.46ZM1874 336.46V339.46C1870.2 338.08 1871.93 339.49 1870 336.46H1874ZM1835 344.46C1834.67 343.79 1834.33 343.13 1834 342.46C1835.8 343.78 1834.58 343.53 1835 344.46ZM1770 316.46V321.46C1767.47 319.04 1767.49 319.42 1767 314.46C1769.48 317.03 1767.27 315.92 1770 316.46ZM1759 365.46V362.46L1761 363.46C1760.33 364.13 1759.67 364.79 1759 365.46ZM1806 429.46C1803.75 430.8 1802.69 430.67 1800 427.46C1786.83 431.81 1793.43 435.72 1778 436.46C1777.23 416.79 1756.93 373.22 1762 367.46C1760.68 364.87 1764.21 365.98 1766 364.46C1782.19 374.29 1844.07 378.14 1853 388.46H1854L1854.87 386.72C1854.25 386.63 1853.62 386.55 1853 386.46H1855C1854.96 386.55 1854.91 386.63 1854.87 386.72C1861.58 387.63 1868.29 388.55 1875 389.46C1879.31 402.26 1818.74 422.09 1806 429.46ZM1887 371.46C1889.04 373.42 1888.09 371.81 1889 375.46C1884.98 373.51 1888.43 375.11 1887 371.46ZM1926 430.46C1925.63 427.75 1926.34 430.22 1925 427.46C1927.32 429.61 1927.2 427.53 1926 430.46ZM1934 440.46C1933.33 439.13 1932.67 437.79 1932 436.46C1933 436.79 1934 437.13 1935 437.46C1934.67 438.46 1934.33 439.46 1934 440.46ZM1946 458.46C1946.33 459.79 1946.67 461.13 1947 462.46C1945.04 459.86 1946.02 461.52 1946 458.46ZM1948 463.46C1949.98 460.53 1949.49 461.42 1949 457.46C1952.47 459.72 1951.09 460.51 1952 463.46H1948ZM2086 336.46C2085.67 337.13 2085.33 337.79 2085 338.46C2084.67 337.79 2084.33 337.13 2084 336.46H2086ZM2062 361.46C2059.02 360.17 2060.8 361.5 2059 359.46C2060 360.13 2061 360.79 2062 361.46ZM2050 333.46H2057C2056.67 334.79 2056.33 336.13 2056 337.46C2054 337.13 2052 336.79 2050 336.46V333.46ZM2036 324.46C2031.74 326.67 2030.2 326.24 2027 323.46C2030 323.79 2033 324.13 2036 324.46ZM2030 344.46V342.46C2030.91 344.24 2030.98 342.71 2030 344.46ZM2028 349.46C2028.33 350.13 2028.67 350.79 2029 351.46H2027C2027.33 350.79 2027.67 350.13 2028 349.46ZM2161 420.46C2159.13 424.04 2156.71 423.81 2152 422.46C2151.67 424.46 2151.33 426.46 2151 428.46C2145.67 428.79 2140.33 429.13 2135 429.46C2133.24 434.35 2133.35 431.99 2134 435.46C2107.4 439.93 2084.57 445.85 2053 447.46L2051 448.46C2045.46 442.84 2028.56 435.32 2023 435.46C2019.24 425.91 2027.17 413.1 2031 405.46C2036.9 395.74 2026.19 381.59 2023 372.46H2024C2028.13 375.05 2032.32 372.49 2037 374.46V370.46C2043.33 369.79 2049.67 369.13 2056 368.46C2057.92 365.27 2056.98 368.19 2056 364.46C2064.15 361.27 2077.89 364.92 2086 356.46C2090.81 358.76 2101.45 358.32 2102 362.46C2104.37 360.71 2103.72 361.47 2105 358.46C2112 360.13 2119 361.79 2126 363.46V360.46C2131.83 363.16 2166.92 376.77 2170 376.46C2169.41 382.9 2172.07 391.45 2177 395.46C2175.79 399.52 2166.59 417.31 2161 420.46ZM2214 411.46C2214.33 410.79 2214.67 410.13 2215 409.46H2216C2215.33 410.13 2214.67 410.79 2214 411.46ZM1358 283.46H1356C1357.78 284.37 1356.25 284.44 1358 283.46ZM1626 289.46H1624C1624.33 290.46 1624.67 291.46 1625 292.46C1625.33 291.46 1625.67 290.46 1626 289.46ZM2605 487.46C2598.43 476.03 2588.51 462.53 2579 455.46C2562 452.46 2545 449.46 2528 446.46C2524.33 444.13 2520.67 441.79 2517 439.46C2508.19 437.34 2507.36 443.19 2501 444.46C2493.38 437 2487.55 435.29 2480 430.46C2471.48 431.36 2468 433.79 2463 436.46H2462V430.46C2460.67 431.13 2459.33 431.79 2458 432.46C2458.33 431.13 2458.67 429.79 2459 428.46C2451.19 423.43 2448.24 430.68 2443 428.46C2432.62 424.07 2428.42 413.55 2417 421.46C2411.07 416.78 2406.64 412.61 2399 417.46C2397.67 415.46 2396.33 413.46 2395 411.46C2386.57 411.83 2388.45 412.18 2384 414.46C2382.46 409.93 2381.31 410.65 2379 407.46C2369.72 410.69 2338.67 401.61 2327 395.46C2326 394.79 2325 394.13 2324 393.46C2326.14 380.76 2356.28 376.74 2368 372.46C2373.06 370.61 2401.7 360.72 2407 355.46L2408 356.46C2415.4 356.17 2436.2 355.1 2446 351.46C2458.29 346.9 2466.85 336.16 2477 330.46C2475.94 325.5 2477.37 327.09 2473 325.46C2474.54 322.2 2472.49 324.28 2476 323.46V318.46C2473.67 317.79 2471.33 317.13 2469 316.46C2467.66 312.3 2468.41 313.88 2471 309.46C2464.37 306.98 2451.53 299.59 2448 290.46C2439.14 289.56 2434.97 293.83 2428 295.46C2423.33 294.79 2418.67 294.13 2414 293.46C2388.7 299.8 2373.23 303.73 2350 308.46C2341.63 310.16 2332.67 318.11 2322 320.46C2321.33 322.79 2320.67 325.13 2320 327.46C2303.42 327.08 2254.56 354.9 2247 365.46C2239.66 375.72 2234.48 390.18 2232 399.46C2236.41 411.1 2243.04 419.66 2243 425.46C2253.71 434.58 2276.2 444.83 2291 449.46C2305.9 454.12 2318.25 450.89 2327 455.46C2340.7 462.62 2354.12 455.57 2358 468.46C2350.67 466.68 2342.47 470.18 2336 472.46V478.46C2324.25 473.03 2303.44 484.2 2291 481.46V484.46C2287.82 486.2 2285.39 486.22 2280 486.46C2279 491.79 2278 497.13 2277 502.46C2276.33 501.79 2275.67 501.13 2275 500.46L2273 501.46C2273.93 506 2274.4 505.29 2276 508.46C2275 508.13 2274 507.79 2273 507.46V515.46C2275.4 516.95 2274.13 516.06 2275 513.46V520.46H2280C2278.52 522.25 2276.64 522.93 2275 524.46L2276 525.46C2276.77 526.45 2277.47 527.52 2283 527.46C2281.44 528.72 2280.88 531.5 2280 528.46C2279.33 529.13 2278.67 529.79 2278 530.46C2282.16 536.6 2287.61 538.73 2291 536.46C2297.7 537.25 2295.75 537.99 2299 541.46C2304.54 533.74 2325.95 539.28 2332 529.46C2336.55 530.28 2336.98 530.15 2339 533.46C2342.38 534.37 2343.16 531.55 2343 528.46C2357.61 529.98 2355.34 528.92 2366 522.46C2366.33 523.13 2366.67 523.79 2367 524.46C2365.77 526.22 2392.42 527.29 2393 523.46C2398.82 523.87 2396.97 522.64 2398 526.46C2410.39 520.22 2434.02 517.7 2453 521.46V515.46C2463.76 519.78 2475.31 524.51 2479 515.46C2502.85 524.16 2580.92 521 2596 507.46C2595.67 506.79 2595.33 506.13 2595 505.46C2599.09 498.35 2599.66 493.84 2605 487.46ZM2323 395.46C2321.67 394.79 2320.33 394.13 2319 393.46C2319.33 392.79 2319.67 392.13 2320 391.46C2321 391.79 2322 392.13 2323 392.46V395.46ZM2290 526.46H2289L2287 525.46V522.46L2289 521.46C2290 521.79 2291 522.13 2292 522.46C2291.33 523.79 2290.67 525.13 2290 526.46ZM2370 467.46H2359C2358.67 466.79 2358.33 466.13 2358 465.46V464.46C2360 463.79 2362 463.13 2364 462.46C2366 462.79 2368 463.13 2370 463.46V467.46ZM2372 466.46C2372.33 465.79 2372.67 465.13 2373 464.46C2373.67 465.13 2374.33 465.79 2375 466.46H2372ZM2377 467.46C2376.67 466.46 2376.33 465.46 2376 464.46H2379C2377.71 467.44 2379.04 465.66 2377 467.46ZM2387 464.46C2386.67 465.13 2386.33 465.79 2386 466.46H2385C2384.67 465.13 2384.33 463.79 2384 462.46C2385.33 461.79 2386.67 461.13 2388 460.46C2388.33 461.79 2388.67 463.13 2389 464.46H2387ZM2481 443.46C2481.33 442.13 2481.67 440.79 2482 439.46C2482.33 440.13 2482.67 440.79 2483 441.46L2485 442.46C2483.67 442.79 2482.33 443.13 2481 443.46ZM1620 294.46L1622 295.46C1622.67 294.79 1623.33 294.13 1624 293.46C1622.07 291.07 1623.4 291.81 1620 290.46V294.46ZM1185 426.46C1185.33 422.09 1188.57 421.45 1190 415.46C1182.09 416.04 1179.63 414.95 1179 421.46C1178.33 422.13 1177.67 422.79 1177 423.46C1177.33 420.46 1177.67 417.46 1178 414.46C1172.93 415.79 1174.05 417.1 1171 413.46C1170.33 414.79 1169.67 416.13 1169 417.46C1165.33 415.44 1166.81 417.41 1166 412.46C1164.67 415.13 1163.33 417.79 1162 420.46C1157.67 421.13 1153.33 421.79 1149 422.46C1149.51 420.59 1150.13 420.3 1152 417.46V414.46C1135.75 419.06 1131.84 421.07 1120 424.46C1115.81 425.66 1106.86 420.13 1100 423.46C1096.33 427.46 1092.67 431.46 1089 435.46C1086.92 431.76 1087.95 433.38 1090 429.46L1088 428.46C1075.6 428.61 1057.46 434.07 1055 437.46C1049.94 437.89 1050.25 437.73 1046 436.46C1046.6 433.07 1046.78 434.07 1045 431.46C1042 433.46 1039 435.46 1036 437.46C1028.71 431.77 1015.5 424.37 1005 426.46C1005.12 422.21 999.9 410.89 998 402.46V343.46C994.4 336.7 994.43 333.85 994 323.46C989.08 322.17 986.54 323.36 982 324.46C981.77 319.27 969.79 307.52 970 307.46C966.57 305.49 968.83 306.32 965 307.46C964.67 306.46 964.33 305.46 964 304.46C959 305.13 954 305.79 949 306.46C946.65 322.5 937.69 336.01 936 349.46C934.81 358.94 939.68 365.32 937 374.46C938 374.13 939 373.79 940 373.46C937.58 389.36 935.01 423.79 946 439.46C951.41 447.18 961.1 455.01 963 465.46H971C971.67 468.46 972.33 471.46 973 474.46C989.62 484.4 1006.31 485.84 1022 493.46C1028.55 488.77 1042.42 492.02 1047 494.46C1046.67 493.46 1046.33 492.46 1046 491.46C1051.12 488.57 1072.83 491.68 1074 490.46C1078.98 485.31 1084.36 484.97 1088 483.46C1087.67 484.79 1087.33 486.13 1087 487.46C1092.35 487.07 1087.91 485.58 1094 487.46V482.46C1100.22 484.48 1098.44 483.86 1107 483.46C1104.91 481.79 1105.03 481.86 1101 481.46V480.46C1101.33 479.46 1101.67 478.46 1102 477.46C1105.12 478.16 1104.48 480.14 1110 481.46C1117.96 485.48 1140.48 467.15 1148 462.46C1147.33 463.46 1146.67 464.46 1146 465.46V466.46C1156.04 468.13 1170.07 459.83 1175 452.46C1174.28 447.41 1176.54 448.87 1180 451.46C1180.67 450.46 1181.33 449.46 1182 448.46C1179.54 444.72 1181.86 445.99 1178 446.46C1177.67 444.79 1177.33 443.13 1177 441.46C1183.69 441.28 1184.8 440.16 1189 438.46C1190.33 434.13 1191.67 429.79 1193 425.46V424.46C1188.59 426.06 1189.72 426.64 1185 426.46ZM1073 440.46C1073.67 439.13 1074.33 437.79 1075 436.46H1076C1074.24 439.24 1076.34 438.15 1073 440.46ZM1091 441.46L1089 440.46C1089.67 439.13 1090.33 437.79 1091 436.46C1092.33 436.79 1093.67 437.13 1095 437.46L1091 441.46ZM1095 432.46C1095.67 431.46 1096.33 430.46 1097 429.46C1097.33 430.46 1097.67 431.46 1098 432.46H1095ZM1105 427.46C1105.33 428.79 1105.67 430.13 1106 431.46C1104.67 431.79 1103.33 432.13 1102 432.46C1102.57 430.36 1102.98 430.26 1105 427.46ZM1105 435.46C1105.67 436.46 1106.33 437.46 1107 438.46C1104.98 436.66 1106.26 438.48 1105 435.46ZM1118 444.46C1118.33 443.79 1118.67 443.13 1119 442.46C1119.33 443.13 1119.67 443.79 1120 444.46H1118ZM1122 430.46C1120.33 431.13 1118.67 431.79 1117 432.46C1117.33 431.13 1117.67 429.79 1118 428.46C1119.33 428.79 1120.67 429.13 1122 429.46V430.46ZM1137 446.46C1134.67 446.79 1132.33 447.13 1130 447.46H1129C1128.67 445.13 1128.33 442.79 1128 440.46C1133.82 442.04 1129.99 444.76 1137 443.46V446.46ZM1140 462.46C1137.95 460.45 1138.58 461.47 1138 457.46H1140C1139.44 460.57 1141.12 458.12 1139 460.46C1139.33 461.13 1139.67 461.79 1140 462.46ZM1143 430.46H1141C1140.33 429.13 1139.67 427.79 1139 426.46C1138.34 423.66 1138.82 424.21 1140 421.46C1141.33 423.79 1142.67 426.13 1144 428.46C1143.67 429.13 1143.33 429.79 1143 430.46ZM1147 442.46C1146.33 441.13 1145.67 439.79 1145 438.46C1146 439.46 1147 440.46 1148 441.46L1147 442.46ZM1148 423.46C1149 423.79 1150 424.13 1151 424.46C1150.33 425.13 1149.67 425.79 1149 426.46C1148.67 425.46 1148.33 424.46 1148 423.46ZM1150 437.46C1149.67 436.79 1149.33 436.13 1149 435.46H1154C1152.67 436.13 1151.33 436.79 1150 437.46ZM1159 436.46C1159.33 435.79 1159.67 435.13 1160 434.46H1161C1160.33 435.13 1159.67 435.79 1159 436.46ZM1170 441.46C1170.33 440.13 1170.67 438.79 1171 437.46C1171.83 440.25 1171.52 439.17 1170 441.46ZM1173 430.46C1171.67 431.46 1170.33 432.46 1169 433.46L1167 432.46C1168.62 426.23 1168 422.63 1170 417.46C1173.19 420.58 1170.85 421.05 1169 424.46C1169.67 423.79 1170.33 423.13 1171 422.46C1172 423.46 1173 424.46 1174 425.46C1173.67 427.13 1173.33 428.79 1173 430.46ZM2095 315.46C2093.67 314.79 2092.33 314.13 2091 313.46C2089.29 314.71 2088.38 314.78 2087 316.46C2089.55 316.6 2088.17 316.35 2091 317.46C2092.33 316.79 2093.67 316.13 2095 315.46ZM888 315.46C887.67 316.13 887.33 316.79 887 317.46H890L888 315.46ZM2110 315.46H2106C2107.33 315.79 2108.67 316.13 2110 316.46V315.46ZM1453 333.46V335.46C1454 335.13 1455 334.79 1456 334.46V333.46H1453ZM1209 352.46V354.46C1209.67 355.13 1210.33 355.79 1211 356.46H1212C1210.62 352.66 1212.03 354.39 1209 352.46ZM124 355.46C124.67 354.79 125.33 354.13 126 353.46H124.78C124.52 353.74 124.26 354.08 124 354.44V355.46ZM2123 369.46C2123.33 370.13 2123.67 370.79 2124 371.46C2125 371.79 2126 372.13 2127 372.46C2129.33 370.46 2131.67 368.46 2134 366.46C2132 365.46 2130 364.46 2128 363.46C2126.33 365.46 2124.67 367.46 2123 369.46ZM1692 427.46C1691.67 428.13 1691.33 428.79 1691 429.46C1692.8 428.14 1691.58 428.39 1692 427.46ZM1461 433.46C1461.67 432.79 1462.33 432.13 1463 431.46H1461.56C1461.37 431.47 1461.19 431.49 1461 431.51V433.46ZM1635 451.46C1636.8 450.14 1635.58 450.39 1636 449.46C1635.67 450.13 1635.33 450.79 1635 451.46ZM79 503.46H77V505.46C77.67 504.79 78.33 504.13 79 503.46ZM1655 512.46V513.46L1657 514.46C1658.48 510.41 1658.56 511.49 1656 507.46C1655.67 509.13 1655.33 510.79 1655 512.46ZM24 552.46C22.67 551.79 21.33 551.13 20 550.46L21 554.46C22 554.13 23 553.79 24 553.46V552.46Z" fill="#F9C414"/>
</g>
<defs>
<clipPath id="clip0_213_1012">
<rect width="2605" height="691.46" fill="white"/>
</clipPath>
</defs>
</svg>
