<svg width="352" height="256" viewBox="0 0 352 256" fill="none" xmlns="http://www.w3.org/2000/svg">
<path fill-rule="evenodd" clip-rule="evenodd" d="M296.112 38.4533C295.675 38.4401 295.237 38.4397 294.799 38.4393C294.58 38.4391 294.362 38.4389 294.144 38.4371C293.495 37.7638 292.727 37.8325 291.959 37.9012C291.538 37.9389 291.117 37.9765 290.715 37.8924C290.683 37.8412 290.65 37.7898 290.617 37.7384C289.936 36.667 289.255 35.5959 287.661 36.0188C287.324 35.7915 286.942 35.6437 286.56 35.4961C285.939 35.2561 285.318 35.0163 284.893 34.4353C283.514 33.1701 281.932 32.3871 280.029 32.3686C280.017 32.3189 280.009 32.2615 280.001 32.2039C279.981 32.0646 279.961 31.924 279.891 31.887C278.822 31.331 277.965 30.509 277.109 29.6874L277.108 29.6873C276.271 28.8847 275.435 28.0825 274.402 27.5289C273.927 27.1489 273.456 26.7689 272.981 26.3853C272.854 25.8967 272.528 25.6276 272.041 25.5462C272.064 25.2766 271.936 25.1697 271.673 25.2043L271.655 25.1931C270.832 23.2796 271.241 22.8157 273.028 22.1011L273.212 22.0272C275.233 21.2141 277.175 20.4332 279.414 20.9166C279.916 21.0234 280.336 20.6822 280.631 20.3025C280.982 19.8484 281.416 19.511 281.967 19.5108C283.48 19.5105 284.564 18.6656 285.649 17.8206L285.65 17.8204C285.764 17.7311 285.879 17.6418 285.994 17.5536C288.02 16.0009 288.155 14.7755 286.58 12.5091C285.626 11.2376 284.599 10.0368 283.289 9.10782C283.116 8.9382 282.943 8.76525 282.772 8.59545L282.752 8.57538C282.732 8.49937 282.686 8.44808 282.615 8.4215C280.876 6.62724 278.674 6.25008 276.312 6.35957C276.166 6.23482 276.107 6.02732 276.049 5.82265C275.954 5.48937 275.862 5.1636 275.395 5.21487C274.555 5.30716 273.802 5.03412 273.05 4.76171C272.43 4.53658 271.81 4.31189 271.143 4.2942C271.042 4.21286 270.946 4.11838 270.849 4.02397L270.849 4.02364L270.849 4.0236C270.639 3.81841 270.43 3.61361 270.182 3.54476C267.436 2.78441 264.619 2.66211 261.803 2.53981C260.964 2.5034 260.126 2.467 259.289 2.41377C258.691 2.37584 258.088 2.42754 257.486 2.47922C256.365 2.57544 255.245 2.67159 254.149 2.18904C252.82 2.0951 251.487 2.00109 250.151 1.90701C249.056 1.65268 247.968 1.78689 246.875 1.92172C245.943 2.0366 245.008 2.15194 244.062 2.02775C243.875 2.0029 243.695 1.92475 243.512 1.84517C243.138 1.68208 242.749 1.51298 242.253 1.78417C241.145 2.39195 239.94 2.38156 238.732 2.37113C237.989 2.36473 237.246 2.35832 236.523 2.49517C234.518 2.38465 232.572 2.35809 230.624 3.20652C228.567 4.10687 226.385 4.78876 224.082 4.82376C222.938 5.00309 221.842 4.77373 220.748 4.54449C220.178 4.42516 219.608 4.30586 219.031 4.24425C217.71 4.10366 216.334 4.18167 215.048 4.319C213.854 4.44733 212.987 4.29383 211.85 3.89751C211.669 3.83387 211.485 3.76555 211.298 3.69623C209.963 3.20128 208.49 2.65539 206.993 3.39734C203.439 2.96182 199.876 3.23909 196.391 3.75913C195.098 3.95119 193.826 4.38648 192.561 4.81952C190.927 5.37867 189.304 5.93407 187.661 5.95732C185.487 5.98919 183.982 6.93572 182.455 7.89628L182.455 7.89645C181.965 8.20469 181.472 8.51438 180.955 8.79574C180.514 8.62181 180.199 8.84196 179.89 9.05807C179.768 9.14296 179.648 9.22723 179.521 9.28674C178.384 9.81514 177.473 10.6423 176.562 11.4702C176.048 11.9372 175.533 12.4045 174.978 12.8185C174.685 13.0368 174.333 13.1732 173.982 13.3095C173.312 13.5698 172.643 13.8297 172.381 14.6591C171.756 15.2016 171.13 15.7442 170.508 16.2832C170.257 16.2279 170.176 16.3596 170.179 16.5829C168.596 18.0505 166.916 19.3794 164.987 20.3723C162.37 21.4561 159.752 20.9734 157.135 20.4908C156.902 20.4478 156.669 20.4048 156.436 20.3629C155.901 19.7153 155.249 19.3895 154.431 19.0785C153.923 18.8866 153.408 18.8354 152.897 18.7845C152.377 18.7327 151.86 18.6813 151.356 18.4829L150.985 18.3381C147.873 17.1258 144.762 15.9136 141.832 14.2886C141.804 14.2556 141.768 14.2297 141.732 14.2111C141.272 13.8385 140.797 13.4909 140.141 13.5503C139.256 12.9805 138.37 12.4116 137.484 11.8426L137.482 11.8415L137.465 11.8306C136.586 11.2658 135.706 10.7011 134.828 10.1354C134.837 9.87994 134.724 9.72295 134.463 9.68551L134.452 9.67451C134.399 9.19456 134.057 9.00049 133.716 8.80662C133.544 8.70896 133.372 8.61135 133.237 8.47728C130.406 5.66819 127.963 5.6969 125.207 8.50674C125.185 8.57112 125.163 8.63641 125.141 8.70171C125.119 8.76701 125.097 8.8323 125.074 8.89668C124.982 8.90061 124.869 8.89475 124.756 8.88888C124.514 8.87625 124.272 8.86364 124.231 8.94892C123.388 10.6936 121.633 10.2818 120.807 9.67537C119.552 8.75219 118.271 8.83303 116.998 8.91331C116.349 8.95425 115.702 8.99504 115.062 8.9025C112.664 8.55359 110.299 8.84919 107.928 9.14554C106.014 9.38476 104.096 9.62448 102.153 9.52607C101.844 9.51044 101.518 9.47592 101.182 9.4404C99.771 9.29091 98.1917 9.12364 96.9372 10.2721C95.2859 9.71109 93.6272 9.35155 91.9263 10.0679C91.3619 10.432 90.7724 10.2906 90.1827 10.1492C89.5889 10.0068 88.9949 9.86439 88.4263 10.2383C87.9154 10.5621 87.355 10.5486 86.788 10.5349C86.7124 10.5331 86.6366 10.5312 86.5608 10.5302C85.5322 10.5141 85.1091 11.0065 85.4168 12.0314C85.2839 12.3293 85.2371 12.6405 85.1895 12.9564C85.1214 13.409 85.0517 13.8716 84.7253 14.3192C83.9161 15.4307 85.0343 18.2717 86.2312 18.7016C86.3132 18.764 86.3951 18.8258 86.4769 18.8876C86.6181 18.9941 86.7587 19.1002 86.8978 19.2078C86.8192 19.8185 87.1878 19.9834 87.6052 20.1701C87.9734 20.3349 88.3795 20.5166 88.5499 21.0364C89.0189 22.4579 88.5145 23.3881 87.9966 24.3431C87.8424 24.6273 87.6871 24.9138 87.5559 25.216L87.4623 25.2214C86.0663 25.4178 85.6627 26.015 85.9411 27.6264C85.9588 27.7294 85.9794 27.83 85.9996 27.9287C86.1161 28.4986 86.2205 29.0092 85.6912 29.5913C84.8422 30.5257 85.4426 32.9823 86.6207 33.0805C87.8513 33.1811 88.0154 33.8441 88.1951 34.5703C88.2509 34.7958 88.3081 35.0273 88.3993 35.25C88.6779 35.9268 88.8739 36.6349 89.0699 37.3427C89.4204 38.6087 89.7707 39.8736 90.5921 40.9564C90.7171 41.0974 90.843 41.2385 90.9689 41.3795C91.0948 41.5206 91.2207 41.6617 91.3457 41.8027C91.3516 42.5694 91.8961 42.6657 92.3979 42.7543C92.5089 42.774 92.6179 42.7932 92.7184 42.8193C94.1646 43.1928 95.6417 43.2679 97.1274 43.084C97.5367 43.0325 97.946 42.98 98.3553 42.9275C98.7646 42.8751 99.1739 42.8226 99.5832 42.7711C100.107 42.5901 100.649 42.4576 101.191 42.3251C102.395 42.0306 103.599 41.7362 104.605 40.9086C105.28 41.1484 105.92 41.1643 106.464 40.5986C107.392 40.9837 108.178 40.8476 108.764 39.973C108.993 39.9612 109.224 39.9683 109.456 39.9754L109.456 39.9754C110.101 39.9953 110.746 40.0151 111.339 39.6263C112.874 39.7233 114.394 39.5735 115.914 39.4236C116.906 39.3258 117.898 39.2281 118.895 39.1988C119.114 39.198 119.338 39.2353 119.561 39.2726C120.137 39.3685 120.711 39.4642 121.206 38.9083C121.878 38.831 122.569 38.833 123.259 38.8349C124.581 38.8386 125.896 38.8422 127.053 38.2896C128.73 37.4864 129.857 37.8429 131.078 38.8674C131.117 39.1925 131.069 39.5236 131.022 39.8547C130.936 40.4574 130.85 41.06 131.281 41.626C132.913 43.1734 135.049 43.2108 135.913 41.7114C135.961 41.2877 136.245 41.0375 136.529 40.7877C136.745 40.5968 136.961 40.4061 137.072 40.1384C137.524 39.2937 137.943 38.4375 137.804 37.4302C137.582 35.817 137.708 34.2004 137.833 32.5965L137.833 32.5963L137.846 32.4221C138 30.4409 137.896 28.5376 137.433 26.577C137.367 26.2958 137.294 26.0126 137.219 25.7278C136.783 24.0518 136.332 22.3177 137.3 20.6004C137.75 20.7459 138.197 20.8914 138.644 21.0404C138.865 21.807 139.472 22.039 140.079 22.271C140.464 22.4182 140.849 22.5654 141.135 22.8491C141.454 22.8948 141.773 22.9405 142.096 22.9827C142.167 23.0242 142.238 23.0659 142.308 23.1075L142.311 23.1088C143.249 23.6621 144.188 24.2164 145.328 24.2583C146.192 24.7874 147.157 25.041 148.123 25.2951C149.092 25.5499 150.063 25.8052 150.939 26.3394C152.116 27.0606 153.454 27.4607 154.872 27.4412C156.234 28.4082 157.801 28.7201 159.369 29.0321C160.028 29.1631 160.686 29.2941 161.33 29.4737C162.114 29.4213 162.829 29.6831 163.544 29.945C164.203 30.1867 164.863 30.4283 165.578 30.4231C165.918 30.6997 166.277 30.901 166.725 30.6611L167.354 30.6732C168 30.9557 168.806 30.9496 169.248 30.5979C169.528 30.3751 169.919 30.287 170.311 30.1988C171.094 30.0227 171.878 29.8461 171.783 28.5941L171.845 28.5161C171.889 28.4989 171.932 28.4826 171.976 28.4663C172.003 28.4563 172.029 28.4463 172.056 28.4362C172.073 28.4298 172.089 28.4233 172.106 28.4166L172.105 28.4155C172.021 28.3387 171.936 28.2618 171.852 28.1885C171.977 27.4577 172.41 26.8845 172.842 26.3114C173.306 25.6967 173.771 25.0821 173.855 24.2731C176.979 21.0202 180.201 17.8989 184.597 16.3809L184.747 16.4521L184.906 16.4048C186.24 15.9083 186.569 17.1461 186.581 17.7837C186.613 19.3255 186.706 20.8469 187.153 22.3031C187.48 23.3701 187.276 24.5116 187.072 25.652C186.739 27.5119 186.407 29.3687 188.38 30.8933C188.613 32.5018 189.102 34.0436 189.591 35.5869C189.923 36.6317 190.254 37.6771 190.507 38.7446C190.796 39.9673 191.226 41.3871 192.116 42.4376C192.93 43.402 193.783 44.3329 194.635 45.2638L194.636 45.2643C195.194 45.8737 195.753 46.4832 196.3 47.102C196.73 47.5856 197.222 47.7967 197.858 47.8341C198.856 47.8962 199.825 47.719 200.793 47.5419L200.794 47.5418C201.286 47.4517 201.779 47.3616 202.275 47.3031C202.957 47.2226 203.481 46.5125 202.81 46.0531C202.203 45.6372 201.842 45.0322 201.485 44.4327C201.094 43.7771 200.707 43.1281 200.006 42.7404L198.995 40.8953C198.024 39.5809 197.651 38.0507 197.276 36.515C196.982 35.3106 196.688 34.1029 196.103 32.9933C195.35 31.5637 196.143 30.5634 197.778 30.0835C198.341 29.9198 198.923 29.9685 199.484 30.0154C200.116 30.0682 200.723 30.119 201.25 29.8621C204.086 28.4761 206.784 28.6864 209.514 30.0099C209.307 30.5427 209.525 31.0044 209.734 31.4492C209.774 31.5326 209.813 31.6154 209.849 31.698C210.361 32.8742 211.012 33.9837 211.663 35.0935C212.761 36.9646 213.86 38.8366 214.292 41.0306C214.315 41.1489 214.474 41.238 214.635 41.3273C214.71 41.3689 214.784 41.4106 214.845 41.4553C214.946 41.6558 215.011 41.8802 215.077 42.1046C215.247 42.6862 215.417 43.2683 216.192 43.4365C218.301 44.7265 221.092 44.7693 221.982 42.0676C222.37 41.7258 222.519 41.455 222.366 40.8111C221.915 38.9334 220.95 37.3351 219.985 35.7365L219.984 35.7358C219.657 35.1941 219.33 34.6523 219.023 34.0995C219.369 32.7234 218.6 31.7904 217.743 30.8953L217.741 30.844C217.718 30.2019 217.695 29.563 217.68 28.9208C217.666 28.3264 217.946 27.6008 218.452 27.6717C219.336 27.7935 220.204 27.6131 221.065 27.4341C222.127 27.2134 223.179 26.9947 224.239 27.3471C225.722 27.8383 227.055 27.552 228.491 27.2438L228.609 27.2186C228.974 27.1402 229.342 27.0498 229.711 26.9591C231.988 26.3994 234.309 25.8292 236.307 28.0181C236.128 30.5714 236.781 32.8921 238.278 34.9698C238.285 35.1718 238.282 35.3763 238.279 35.5811L238.279 35.582C238.273 36.0345 238.267 36.4879 238.37 36.9161C238.474 37.3495 238.484 37.8062 238.494 38.2628C238.514 39.1819 238.534 40.1009 239.32 40.8305C239.385 41.0072 239.447 41.1867 239.508 41.3661L239.508 41.3666C239.932 42.6013 240.357 43.8373 241.914 44.2004C243.633 45.1553 245.267 45.4675 246.617 43.5813C246.743 43.5838 246.805 43.5201 246.804 43.3941C247.26 43.0319 247.498 42.6692 246.807 42.2994C246.78 42.1006 246.764 41.8973 246.748 41.6938L246.748 41.6936C246.715 41.2544 246.681 40.8146 246.534 40.4181C246.338 39.895 246.357 39.3296 246.376 38.7655C246.405 37.9062 246.434 37.05 245.705 36.3511C244.714 35.313 244.082 33.7741 244.473 32.6797C245.084 30.9819 244.407 29.8997 243.667 28.7173C243.611 28.627 243.554 28.5361 243.497 28.4443L243.541 26.6915C243.856 26.6075 244.061 26.4314 244.068 26.075C244.102 24.6425 245.224 24.2931 246.18 24.5419C247.257 24.8208 248.243 24.6285 249.225 24.4369C249.49 24.3854 249.754 24.3338 250.02 24.2916C250.774 24.1728 251.455 24.1175 252.084 24.5077C253.305 25.2609 254.425 24.8656 255.54 24.4722C255.845 24.3648 256.149 24.2576 256.454 24.1739C256.743 24.0946 257.02 23.8539 257.297 23.6135C257.95 23.0473 258.6 22.4827 259.396 24.0323C259.457 24.1514 259.846 24.109 260.213 24.069C260.35 24.0541 260.485 24.0394 260.598 24.0338C260.759 24.0249 260.921 23.9989 261.083 23.9729C261.505 23.9051 261.927 23.8374 262.341 24.0744C262.286 24.3177 262.457 24.3926 262.627 24.4666L262.657 24.4802C262.726 24.5391 262.794 24.5979 262.861 24.6567L262.868 24.6626C262.938 24.7233 263.008 24.784 263.079 24.8448C264.233 28.025 266.389 30.2126 269.554 31.4004C269.82 32.1345 270.295 32.7295 270.769 33.3241L270.769 33.3243C270.897 33.4846 271.025 33.6448 271.148 33.8077C271.208 33.9073 271.279 34.0376 271.348 34.1673C271.493 34.436 271.637 34.7019 271.685 34.6858C272.978 34.2454 273.332 35.0625 273.696 35.9016L273.696 35.9026C273.737 35.9984 273.779 36.0944 273.822 36.1888C273.877 36.3123 274.145 36.4471 274.275 36.4136C276.06 35.9797 277.236 36.5785 277.741 38.385C277.751 38.4202 277.795 38.446 277.838 38.4707C277.852 38.479 277.866 38.4873 277.879 38.4957C278.155 38.6637 278.429 38.8414 278.702 39.0191L278.703 39.0196C280.08 39.9157 281.458 40.8125 283.284 40.472C283.422 41.2273 283.937 41.2645 284.452 41.3017C284.775 41.325 285.098 41.3483 285.328 41.5483C286.104 42.0443 286.93 41.8556 287.708 41.6776C287.766 41.6644 287.824 41.6513 287.881 41.6385C287.918 41.6301 287.955 41.6219 287.993 41.6139C288.563 41.4916 288.969 41.5246 289.497 41.7508C291.545 42.6363 293.759 42.7293 295.911 42.5473C296.842 42.4675 297.16 41.6079 297.467 40.7755C297.59 40.4424 297.711 40.1137 297.869 39.841C298.048 39.5347 297.086 38.4684 296.115 38.439L296.112 38.4533ZM217.089 29.5108C217.184 29.988 217.402 30.4567 217.743 30.8953C217.406 30.4603 217.188 29.988 217.089 29.5108ZM128.233 33.2241C127.356 32.8123 126.577 32.8708 125.669 32.9392L125.537 32.9491C124.75 33.0103 124.004 32.7786 123.242 32.5423C122.458 32.2989 121.658 32.0507 120.783 32.1124C119.664 32.1912 118.532 32.1136 117.401 32.036C115.813 31.927 114.228 31.8183 112.688 32.1442C111.152 32.47 109.593 32.6219 108.035 32.7736C105.899 32.9817 103.765 33.1894 101.701 33.8454C100.928 34.0897 100.17 34.0145 99.3559 33.9337C98.8015 33.8787 98.2211 33.8211 97.5923 33.8601C98.5211 32.4775 99.758 32.248 100.976 32.0219C101.055 32.0073 101.133 31.9928 101.211 31.9779C101.298 31.9831 101.385 31.9875 101.472 31.9919C101.559 31.9963 101.646 32.0006 101.733 32.0059C103.431 31.7121 105.136 31.4358 106.838 31.16L106.839 31.1599C107.709 31.0189 108.578 30.8781 109.445 30.7352C110.212 30.6083 110.992 30.5248 111.775 30.441C113.162 30.2925 114.557 30.1432 115.903 29.7501C117.368 29.3209 118.831 28.8377 120.142 27.977C121.184 27.2949 121.327 26.2317 121.082 25.3016C120.848 24.4004 119.947 24.2679 119.068 24.7372C118.893 24.831 118.647 24.7579 118.457 24.5202C117.358 23.1343 115.94 23.5032 114.621 24.0036C113.016 24.6101 111.58 24.813 109.883 24.0387C108.591 23.4492 107.109 23.6272 105.684 23.7984C105.319 23.8423 104.958 23.8857 104.604 23.9157C104.094 23.9585 103.583 23.9598 103.07 23.961C102.249 23.9631 101.426 23.9651 100.603 24.1377C99.0425 24.4679 98.3115 23.3844 98.1726 21.9953C98.1323 21.5881 98.1168 21.1771 98.1013 20.7649C98.0877 20.4065 98.0742 20.0472 98.0443 19.6883C97.9529 18.6386 98.7391 18.164 99.6968 17.9339C103.683 16.9734 107.71 16.5214 111.821 16.5607C114.276 16.5862 116.657 16.0262 119.037 15.4665C119.823 15.2817 120.608 15.0969 121.397 14.9333C123.291 14.5407 124.916 15.3752 126.521 16.1998C126.79 16.3375 127.057 16.4749 127.325 16.6063C127.708 16.7947 127.705 17.1824 127.701 17.5735C127.697 18.0382 127.693 18.5077 128.337 18.6531C129.671 22.1377 130.092 25.796 130.513 29.4541C130.596 30.1717 130.679 30.8893 130.768 31.6056C130.437 33.288 129.624 33.863 128.237 33.2098L128.233 33.2241ZM128.337 18.6531C128.338 18.5982 128.334 18.5408 128.331 18.4835L128.331 18.4834L128.33 18.4548L128.331 18.4751C128.335 18.5351 128.339 18.5952 128.337 18.6531ZM203.039 26.083C202.89 26.6295 201.954 26.2485 201.183 25.9351C200.994 25.8582 200.815 25.7853 200.66 25.7313C200.538 25.6881 200.417 25.6385 200.297 25.5895L200.297 25.5894C199.687 25.3399 199.116 25.1059 198.594 25.8212C198.073 26.5314 197.332 26.5064 196.884 26.0657C196.644 25.8286 196.291 25.7156 195.937 25.6024C195.243 25.3807 194.547 25.158 194.693 23.9999C194.926 22.1215 194.682 20.258 194.439 18.395L194.438 18.3942C194.384 17.9808 194.33 17.5673 194.281 17.1538C194.047 14.3909 195.976 13.4161 198.064 12.574C198.622 12.6894 199.157 12.5989 199.707 12.506L199.707 12.5059C199.8 12.4902 199.893 12.4745 199.987 12.4596C201.337 12.2407 202.732 12.091 203.795 13.2998L203.805 13.3252C203.864 13.7954 203.912 14.2682 203.96 14.7409L203.961 14.7412C204.075 15.8651 204.189 16.988 204.452 18.0728C204.53 18.3966 204.546 18.7472 204.562 19.1003C204.6 19.9585 204.638 20.8307 205.586 21.3643C205.425 21.9534 205.765 22.0245 206.104 22.0955C206.32 22.1406 206.535 22.1856 206.621 22.3636C206.261 23.0566 205.629 23.4703 204.988 23.8901C204.177 24.4206 203.351 24.9608 203.042 26.0867L203.039 26.083ZM212.16 19.7908C212.23 20.4584 212.512 20.9427 212.948 21.2824C212.512 20.9391 212.234 20.4584 212.16 19.7908ZM213.432 21.5797C213.254 21.4935 213.094 21.3968 212.948 21.2824C213.094 21.3968 213.254 21.4971 213.432 21.5797ZM227.668 19.1055C226.369 20.0601 225.176 20.9266 223.294 20.3503C221.852 19.908 220.37 20.351 218.921 20.7845C218.595 20.8819 218.271 20.9788 217.949 21.0651C214.67 21.942 214.194 21.7996 212.151 19.1497C211.677 17.9244 210.969 16.8352 210.261 15.7465L210.261 15.7463C209.78 15.0073 209.299 14.2686 208.893 13.4877C208.724 12.505 209.194 12.0279 210.133 12.0135C212.188 11.9845 214.158 12.026 216.253 12.5487C218.62 13.1343 221.177 13.5075 223.703 13.5128L224.4 13.5478C225.772 14.586 227.292 15.0761 229.017 14.7815C231.016 16.7032 230.936 16.9501 227.66 19.109L227.668 19.1055ZM208.178 11.5402C208.139 12.2453 208.494 12.8679 208.893 13.4877C208.498 12.8679 208.139 12.2489 208.178 11.5402ZM267.305 15.5583C267.064 15.6987 266.822 15.8393 266.587 15.9427L266.584 15.9386C265.564 15.6573 264.867 14.942 264.169 14.2255C264.089 14.1431 264.008 14.0608 263.928 13.979C262.425 14.2604 261.397 13.3946 260.367 12.5282L260.301 12.4726C259.669 12.2696 259.18 12.4331 258.873 13.0502C258.04 13.4437 257.691 14.1915 257.34 14.9418C257.135 15.3791 256.93 15.8173 256.629 16.1867C256.594 16.23 256.56 16.2722 256.528 16.3132L256.527 16.3142C256.276 16.6286 256.081 16.8732 255.649 17.0177C254.535 17.3923 253.428 17.7914 252.321 18.1907L252.321 18.1909L252.32 18.1912C251.525 18.4781 250.729 18.7651 249.93 19.0433C249.658 19.1389 249.218 19.2169 249.055 19.0733C248.026 18.1794 247.004 18.53 246.014 18.8697C245.708 18.975 245.404 19.0792 245.104 19.1451C243.543 19.486 242.254 19.7529 241.989 17.6125C241.958 17.3502 241.678 17.3921 241.454 17.4257C241.431 17.4291 241.409 17.4324 241.388 17.4353C241.151 17.2728 241.095 17.0089 241.04 16.7449C240.976 16.4428 240.912 16.1407 240.578 15.9901C240.414 15.3496 240.107 14.8072 239.495 14.4894L239.555 14.1358L239.616 13.7823C239.401 12.0161 240.099 10.9336 241.711 10.5349C241.796 10.5977 241.886 10.6102 241.98 10.5652C246.923 10.5629 251.863 10.5173 256.779 9.87354C258.086 10.6265 259.53 10.7455 260.967 10.8639C261.549 10.9118 262.13 10.9597 262.7 11.0495C264.749 11.3729 266.823 11.5372 268.898 11.7015C270.032 11.7914 271.166 11.8813 272.297 11.9972C273.062 12.0767 273.982 12.3176 273.996 13.2469C274.012 14.2915 272.882 14.5111 272.208 14.5702C271.794 14.6072 271.394 14.7171 270.993 14.8276C270.304 15.0175 269.608 15.2089 268.818 15.0344C268.375 14.9368 267.841 15.2471 267.305 15.5583ZM256.955 9.68967C256.893 9.74969 256.834 9.80978 256.779 9.87354C256.838 9.80985 256.897 9.74976 256.955 9.68967ZM239.616 13.7823C239.21 13.5765 238.776 13.3269 238.494 13.019C238.776 13.3305 239.21 13.5801 239.616 13.7823ZM238.27 12.687C238.322 12.8068 238.399 12.9163 238.494 13.019C238.403 12.9128 238.326 12.8033 238.27 12.687ZM240.578 15.9901C240.477 15.9292 240.371 15.8728 240.265 15.8164C240.183 15.7729 240.101 15.7296 240.022 15.6842C240.099 15.7283 240.179 15.7706 240.259 15.8129L240.259 15.813C240.368 15.8705 240.477 15.928 240.578 15.9901ZM351.532 10.0725C351.199 9.61235 350.785 9.626 350.273 9.89344C349.368 10.3658 348.546 10.4652 348.36 9.09331C348.325 8.83698 348.075 8.73855 347.809 8.75504C347.25 8.79077 346.687 8.64298 346.123 8.49474C345.026 8.20635 343.922 7.91627 342.826 8.97264C342.496 9.29039 341.539 9.09918 340.919 8.95045C339.666 8.64551 338.479 8.47147 337.355 9.31051C337.092 9.50712 336.867 9.43078 336.594 9.18788C335.356 8.07663 334.076 7.5227 332.222 7.75358C331.903 7.79307 331.546 7.92244 331.174 8.05741C330.046 8.46588 328.777 8.92561 328.001 7.09997C327.956 6.99828 327.373 6.9727 327.184 7.10949C326.176 7.84888 325.113 7.69692 324.05 7.54483C323.766 7.50419 323.482 7.46354 323.199 7.43988C323.043 6.8043 322.601 6.80185 322.157 6.79939C322.02 6.79863 321.883 6.79787 321.754 6.77838C321.06 6.67183 320.373 6.77642 319.686 6.881C318.939 6.99459 318.193 7.10816 317.438 6.95117C315.271 6.44504 313.093 6.3528 310.895 6.70671C309.315 6.92124 307.693 7.08095 306.142 7.14838C304.413 7.22347 302.68 7.14999 300.944 7.07637C299.043 6.99575 297.138 6.91495 295.229 7.02887C293.133 7.15427 292.32 7.92726 291.555 10.2604C290.73 12.786 291.959 14.5886 293.205 16.4155C293.36 16.6438 293.516 16.8726 293.669 17.1032C293.733 17.1188 293.794 17.1308 293.862 17.1465C293.982 17.2568 294.106 17.3708 294.226 17.4848C296.202 17.9836 296.628 18.6904 296.105 20.5961C295.715 22.0217 295.533 23.4118 296.858 24.5103C296.827 24.6103 296.796 24.7101 296.764 24.81L296.764 24.8126C296.541 25.5202 296.317 26.2294 296.475 26.9985C296.729 27.3525 296.812 27.7715 296.896 28.1908C296.993 28.6751 297.089 29.1598 297.448 29.545C296.985 31.312 297.691 32.7613 298.398 34.2112C298.757 34.9487 299.117 35.6863 299.323 36.466C299.088 37.34 299.597 37.8678 300.095 38.3839C300.311 38.6082 300.525 38.8302 300.676 39.0775C301.087 39.7551 301.159 40.1202 300.44 40.1172C299.089 40.1091 298.558 40.9741 297.993 41.8951C297.872 42.0923 297.75 42.2921 297.617 42.4864C298.113 42.3232 298.603 42.0958 299.091 41.8691C300.709 41.1178 302.31 40.3746 304.059 42.0016L304.785 42.0371C305.782 42.6901 306.893 42.6444 308.003 42.5988L308.173 42.5919L308.202 42.5961C310.579 43.7508 313.111 43.821 315.63 43.4157C316.816 43.2245 318.006 43.1593 319.198 43.094C320.232 43.0374 321.267 42.9807 322.299 42.8415C323.009 42.7462 323.725 42.6877 324.439 42.6293C326.841 42.433 329.227 42.238 331.296 40.6485C331.694 40.8007 332.062 40.6777 332.427 40.5553C332.726 40.4551 333.023 40.3554 333.336 40.4068C334.412 40.5859 334.85 40.0829 334.862 39.0821C335.141 39.0171 335.418 38.953 335.696 38.889C335.973 38.8251 336.25 38.7612 336.528 38.6964C336.984 38.7904 337.211 38.5004 337.44 38.2099C337.471 38.1693 337.503 38.1287 337.536 38.0892L337.565 38.0874L337.583 38.0865C338.273 38.0961 339.003 37.9193 339.1 37.1974C339.239 36.1593 339.795 35.6587 340.649 35.2214C340.905 35.0905 341.079 34.7989 341.253 34.5061C341.333 34.3718 341.413 34.2373 341.501 34.1178C342.291 33.0563 342.007 32.4855 340.701 32.4749C340.292 32.4726 339.878 32.547 339.466 32.6212L339.464 32.6215L339.464 32.6215C339.402 32.6328 339.339 32.644 339.277 32.655C339.224 32.6643 339.171 32.6734 339.118 32.6821C337.967 32.8731 336.875 33.2481 335.778 33.6247C333.926 34.2604 332.06 34.9007 329.878 34.6689C328.636 34.5361 327.336 34.652 326.018 34.7696C324.765 34.8813 323.495 34.9945 322.243 34.8968C322.138 34.8883 322.029 34.871 321.92 34.8538C321.665 34.8133 321.41 34.7726 321.194 34.8442C317.891 35.9691 314.499 35.7851 311.107 35.576C309.812 35.5131 308.89 34.777 307.97 34.0413C307.407 33.5912 306.843 33.1412 306.195 32.8458C306.175 32.5817 306.13 32.3087 306.085 32.0357C305.892 30.866 305.698 29.6951 307.466 29.2152L307.491 29.2157C308.463 28.8906 309.452 28.9365 310.441 28.9825C310.933 29.0054 311.426 29.0283 311.917 29.0054L316.607 28.08C317.555 28.1565 318.508 28.1746 319.46 28.1926C321.094 28.2236 322.729 28.2546 324.343 28.5814C324.798 28.673 325.133 28.4994 325.507 28.2869C326.649 27.6426 327.828 27.6941 329.065 28.0851C330.274 28.4648 331.536 28.5107 332.736 28.0152C332.9 27.9475 333.064 27.8782 333.228 27.809L333.229 27.8089C334.654 27.2069 336.071 26.6089 337.705 27.0375C337.902 27.0881 338.313 27.006 338.352 26.8951C338.692 25.884 339.49 25.348 340.284 24.8146C340.53 24.6497 340.775 24.485 341.006 24.3066C341.495 23.9263 341.379 23.4906 341.268 23.0735C341.22 22.8932 341.173 22.7163 341.176 22.549C341.187 21.9994 340.434 22.1479 339.997 22.234L339.977 22.2379C339.161 22.3953 338.437 22.224 337.675 22.0436C337.486 21.9988 337.294 21.9535 337.098 21.9125C334.486 21.3618 331.768 20.9351 329.039 21.196C328.572 21.1934 328.129 21.056 327.686 20.9186C327.121 20.7437 326.557 20.5689 325.945 20.6721C325.193 20.486 324.435 20.6182 323.681 20.7497C322.805 20.9023 321.935 21.0539 321.088 20.7049C318.848 19.7843 316.547 19.8647 314.247 19.9451C313.046 19.9871 311.846 20.0291 310.656 19.9284C310.494 19.9253 310.328 19.9185 310.167 19.9118C309.892 19.8874 309.617 19.8528 309.342 19.8182C308.737 19.7421 308.133 19.6661 307.534 19.6992C306.086 19.7758 305.318 19.1489 305.096 17.7547C305.04 16.8962 305.636 16.6434 306.211 16.3996C306.324 16.3516 306.436 16.3039 306.542 16.2521C307.258 15.9013 308.019 15.9253 308.78 15.9494C309.124 15.9603 309.468 15.9712 309.807 15.9475C311.346 16.0985 312.887 16.0659 314.426 16.0333C315.168 16.0176 315.908 16.002 316.649 16.0068C317.707 16.0137 318.759 15.9411 319.813 15.8684C321.299 15.7659 322.787 15.6632 324.297 15.7828C324.549 15.8029 324.813 15.8363 325.085 15.8708C326.479 16.0473 328.085 16.2507 329.259 14.8302C329.432 14.6174 330.36 14.0519 330.556 14.8947C330.713 15.5718 331.061 15.5378 331.418 15.5029C331.538 15.4912 331.66 15.4794 331.775 15.4942C333.207 15.6766 334.626 15.567 336.025 15.2265C336.789 15.0404 337.634 15.0668 338.445 15.092C339.423 15.1225 340.35 15.1513 341.019 14.8039C341.62 14.493 342.287 14.3739 342.947 14.2559C343.975 14.0721 344.988 13.8911 345.713 12.9927C345.934 12.7161 346.322 12.5543 346.693 12.7199C348.69 13.6116 349.94 12.595 350.981 11.0557C351.048 10.9553 351.181 10.8892 351.314 10.8231C351.596 10.6832 351.877 10.5435 351.539 10.0798L351.532 10.0725ZM337.536 38.0892C337.528 38.0591 337.517 38.029 337.507 37.9981L337.496 37.9677C337.492 37.9564 337.489 37.9449 337.485 37.9334C337.49 37.9475 337.495 37.9619 337.5 37.9764C337.505 37.9917 337.51 38.007 337.515 38.0224C337.523 38.0449 337.53 38.0674 337.536 38.0892ZM206.819 131.262L206.73 130.282C206.442 127.106 206.153 123.927 205.862 120.75L205.795 120.47L205.718 120.151L205.717 120.146C205.669 119.945 205.621 119.743 205.572 119.542C206.114 119.261 206.146 118.714 205.978 118.293C205.454 116.971 205.755 115.708 206.058 114.439C206.093 114.294 206.127 114.149 206.161 114.004C206.395 113.995 206.54 113.907 206.47 113.639C206.428 113.219 206.386 112.8 206.345 112.381C206.303 111.961 206.262 111.542 206.22 111.121C206.354 108.265 206.347 105.427 206.139 102.56C205.994 100.577 206.019 98.5176 206.529 96.5145C206.957 94.8303 205.435 91.4522 203.992 90.5422C203.922 90.5225 203.849 90.5078 203.776 90.4931C203.62 90.4618 203.463 90.4304 203.338 90.3496C201.244 89.0059 198.959 90.1647 198.72 92.7096C197.785 94.4892 198.068 96.3105 198.352 98.1345L198.352 98.1368C198.401 98.4532 198.45 98.7697 198.493 99.0861C198.616 101.182 198.591 103.282 198.565 105.382L198.565 105.382C198.528 108.46 198.491 111.538 198.922 114.604C198.717 116.487 198.662 118.376 198.774 120.265C198.575 122.361 198.391 124.453 198.574 126.556C198.985 127.411 199.044 128.33 199.103 129.244L199.103 129.244L199.104 129.245L199.104 129.245C199.118 129.461 199.131 129.676 199.15 129.89C199.379 132.563 199.354 132.566 196.691 132.411C196.208 132.405 195.998 132.041 195.795 131.691C195.608 131.366 195.427 131.052 195.041 131.047C193.477 131.024 192.665 129.991 191.873 128.982C191.532 128.548 191.194 128.118 190.801 127.775C188.159 125.459 185.792 122.803 183.454 120.14C181.032 117.379 178.723 114.551 176.436 111.684C175.908 111.022 175.473 110.29 175.039 109.559C174.27 108.267 173.503 106.977 172.227 106.079C172.214 106.025 172.205 105.966 172.197 105.907C172.179 105.777 172.161 105.647 172.086 105.568C171.587 105.052 171.167 104.459 170.746 103.866C169.902 102.675 169.056 101.482 167.564 100.898C167.039 100.693 166.435 100.282 166.203 99.8021C165.774 98.9112 165.096 98.8208 164.35 98.7213C164.183 98.699 164.012 98.6763 163.84 98.644C163.067 98.4983 162.341 98.7046 161.618 98.9097C160.81 99.1392 160.007 99.3671 159.151 99.0977C159.035 99.0487 158.919 98.9987 158.803 98.9488C158.687 98.8988 158.572 98.8489 158.456 98.7999C157.96 98.3906 157.442 98.3771 156.809 98.5414C155.594 98.8539 154.351 98.9288 153.104 99.0039C151.622 99.0932 150.135 99.1827 148.683 99.6709C148.026 99.8914 147.306 99.8451 146.562 99.7973C145.869 99.7529 145.156 99.7071 144.455 99.8742C142.6 100.317 140.708 100.612 138.817 100.907L138.815 100.907L138.814 100.907L138.813 100.907L138.812 100.907L138.811 100.908L138.81 100.908L138.809 100.908C138.027 101.03 137.246 101.151 136.467 101.284C135.627 101.397 134.79 101.511 133.953 101.624L133.945 101.619C133.588 101.409 133.232 101.198 132.879 100.988C132.888 100.909 132.853 100.861 132.774 100.849C132.491 98.8883 131.133 97.8395 129.523 97.002C128.389 96.3285 127.259 96.5372 126.222 97.1619C124.333 98.3031 123.662 97.9878 123.443 95.733C123.418 95.4857 123.424 95.2373 123.43 94.9884C123.432 94.8777 123.435 94.7669 123.435 94.6561C123.89 93.3913 123.858 92.0911 123.826 90.7952C123.806 89.9916 123.786 89.1898 123.882 88.3991C124.067 86.8917 123.275 86.1339 122.399 85.2946L122.346 85.2439C119.53 83.1373 118.063 83.4801 117.026 86.4886C117.487 87.9882 117.522 89.5337 117.485 91.085C116.919 91.5386 116.931 92.043 117.352 92.5876C117.71 93.032 117.635 93.5363 117.564 94.0123C117.515 94.3395 117.469 94.6533 117.566 94.9251C118.614 97.8512 118.605 100.75 116.532 103.033C114.447 105.332 114.952 107.647 115.479 110.064C115.531 110.3 115.582 110.537 115.632 110.775C115.451 111.384 115.68 111.813 116.248 112.048C117.85 112.708 117.715 113.97 117.294 115.251C117.142 115.716 117.083 116.147 117.11 116.612C117.321 116.701 117.555 116.773 117.75 116.75C117.554 116.774 117.32 116.703 117.106 116.616C116.979 117.528 116.851 118.44 116.723 119.352C116.595 120.264 116.466 121.176 116.339 122.089C116.269 122.291 116.21 122.51 116.151 122.732C115.923 123.576 115.685 124.461 114.801 124.637C113.588 124.883 112.612 125.468 111.625 126.06L111.624 126.06C111.539 126.111 111.453 126.162 111.368 126.214C111.031 126.415 110.838 126.325 110.623 126.224C110.57 126.2 110.516 126.175 110.459 126.153C110.421 125.957 110.382 125.761 110.344 125.565L110.342 125.557L110.296 125.32C110.273 125.206 110.251 125.092 110.229 124.978C110.211 124.895 110.192 124.812 110.173 124.728C110.154 124.645 110.135 124.562 110.117 124.479C109.975 124.436 109.789 124.491 109.61 124.544C109.326 124.628 109.061 124.707 109.025 124.372C108.825 122.377 107.438 121.619 106.056 120.864C105.498 120.559 104.941 120.254 104.464 119.869C104.349 119.777 104.222 119.702 104.097 119.627C103.778 119.438 103.467 119.253 103.383 118.815C103.04 118.294 102.698 117.772 102.355 117.254C102.245 116.618 102.235 115.97 102.225 115.322L102.225 115.322C102.209 114.334 102.193 113.346 101.823 112.397C101.832 112.306 101.883 112.246 101.937 112.182C102.008 112.096 102.085 112.005 102.078 111.826C101.977 109.701 101.457 107.663 100.937 105.625L100.937 105.625L100.937 105.625L100.937 105.625L100.937 105.625L100.937 105.625L100.937 105.625L100.937 105.625C100.664 104.555 100.392 103.486 100.18 102.405C100.095 100.805 99.0643 99.3603 97.0864 98.0716C94.8054 96.5839 93.5948 96.8703 92.3486 99.1942C91.909 99.4162 91.8167 99.7313 91.8463 100.247C91.8966 101.096 92.0361 101.923 92.1753 102.748C92.2241 103.037 92.2728 103.326 92.3177 103.616C92.3726 103.965 92.3986 104.309 92.4243 104.648L92.4243 104.648L92.4243 104.648L92.4243 104.648L92.4244 104.648L92.4244 104.649L92.4244 104.649L92.4244 104.649C92.508 105.753 92.5871 106.798 93.6447 107.761C94.2457 108.309 94.4894 109.671 94.5021 110.881C94.5143 111.95 94.863 113.016 95.2117 114.082C95.3613 114.539 95.5108 114.997 95.6338 115.454C95.5715 116.451 95.299 117.155 94.046 116.839C93.7331 116.76 93.3955 116.783 93.0583 116.805C92.9132 116.815 92.7682 116.825 92.6252 116.826C92.5433 116.785 92.4537 116.769 92.3601 116.771C91.9823 116.288 91.499 116.332 91.0167 116.375C90.8042 116.394 90.5919 116.413 90.3889 116.387C89.5586 116.28 88.7226 116.286 87.8855 116.293L87.8854 116.293C86.3419 116.304 84.7948 116.316 83.2735 115.617C81.5262 114.813 79.5372 114.983 77.6398 115.437L77.6107 115.45C77.237 115.37 76.8246 115.379 76.4123 115.387C75.3226 115.409 74.2327 115.432 73.854 113.815C74.2905 113.404 74.8492 113.245 75.4079 113.086C75.9933 112.92 76.5787 112.753 77.0238 112.295C77.1655 112.239 77.3076 112.184 77.4498 112.128C79.85 111.19 82.2471 110.253 82.2526 106.962C82.3338 106.778 82.4757 106.623 82.6179 106.467C82.9032 106.155 83.1893 105.842 82.9861 105.294C82.7927 104.771 82.615 104.24 82.4373 103.709L82.4373 103.708L82.4372 103.708L82.4372 103.708L82.4371 103.708L82.4371 103.708L82.437 103.708L82.437 103.708L82.4369 103.708C82.0866 102.661 81.7363 101.614 81.2662 100.623C80.8893 99.8312 80.1703 99.0576 79.0214 99.3128C78.8297 99.2603 78.6246 99.2564 78.4194 99.2524C78.0193 99.2448 77.6184 99.2371 77.3139 98.8695C77.2822 98.7939 77.2637 98.6946 77.245 98.5946L77.245 98.5945L77.245 98.5944C77.2009 98.3583 77.1561 98.118 76.9352 98.1744C75.8405 98.4521 74.75 98.3439 73.6609 98.2358L73.6609 98.2358L73.6608 98.2358L73.6607 98.2358L73.6606 98.2358L73.6606 98.2358L73.6605 98.2358L73.6604 98.2358C72.7537 98.1458 71.8479 98.0559 70.9416 98.189C69.9086 97.8379 68.8797 97.6561 67.8784 98.2778C67.6887 98.2105 67.4984 98.1229 67.3079 98.0354C66.8957 97.8459 66.4833 97.6563 66.077 97.6707C62.9474 97.7825 59.8189 97.9461 56.6909 98.1097L56.6906 98.1097L56.6902 98.1097L56.6899 98.1097L56.6896 98.1098L56.6892 98.1098L56.6889 98.1098L56.6886 98.1098L56.6823 98.1102C55.6861 98.1622 54.69 98.2143 53.694 98.2647C53.105 98.5847 52.506 98.8685 51.8184 98.8949C50.1347 98.7149 48.6166 99.0855 47.0797 99.877C44.8743 101.012 42.3277 101.367 39.9462 101.364C38.4748 101.365 37.2396 101.435 35.9995 102.127C34.8235 102.674 33.9194 102.357 33.2496 101.271C33.0458 99.6887 33.1173 98.1028 33.1887 96.5201L33.1887 96.5199L33.1887 96.5198L33.1887 96.5196L33.1887 96.5194L33.1888 96.5193L33.1888 96.5191L33.1888 96.519C33.2216 95.7917 33.2544 95.0652 33.2603 94.3399L33.2645 93.8991C33.2933 90.8998 33.3217 87.9408 32.4894 85.0274C32.4697 84.7552 32.465 84.4782 32.4604 84.2011C32.4504 83.6009 32.4404 83 32.2764 82.445C32.1028 81.8556 31.9974 81.2301 31.8918 80.6036C31.568 78.6821 31.2427 76.7522 28.9462 75.831C28.1342 75.0508 27.2475 75.2948 26.3919 75.5302L26.3917 75.5303C26.1755 75.5897 25.9613 75.6487 25.7508 75.6904C24.5121 75.9367 23.4467 76.3411 23.4243 78.0728C23.3979 80.1968 23.7151 82.2266 24.2193 84.2565L24.2196 84.2581C24.2521 84.4346 24.2846 84.6112 24.3135 84.7876C24.4581 85.3416 24.6146 85.8933 24.7711 86.445L24.7711 86.4452L24.7713 86.4456C25.2454 88.1173 25.7198 89.7897 25.8675 91.5332C25.875 91.6212 25.8822 91.7091 25.8894 91.797C25.9957 93.0927 26.1008 94.3728 26.9288 95.4678C26.5676 96.8508 26.6057 98.2379 26.91 99.6266C26.9166 99.781 26.9259 99.9364 26.9351 100.092C27.0135 101.403 27.0915 102.71 25.5237 103.446C25.3806 103.514 25.3026 103.719 25.2246 103.924C25.1917 104.01 25.1589 104.097 25.1212 104.173L21.1855 105.113C19.2018 105.558 17.3275 106.319 15.4531 107.081C13.5994 107.834 11.7455 108.587 9.78546 109.035C5.48451 108.765 2.34318 111.24 2.01619 115.155C1.45914 115.688 1.45365 116.35 1.56265 117.044C2.20795 117.535 2.79133 118.065 3.35517 118.677C3.67582 119.026 3.91586 119.446 4.15593 119.867C4.60972 120.662 5.06362 121.457 6.06227 121.768C8.83004 122.635 12.3473 120.999 13.7048 118.127C14.0874 117.514 14.709 117.244 15.3188 116.978C15.5666 116.87 15.8124 116.763 16.0394 116.634L16.3424 116.463C18.6108 115.178 20.9086 113.877 23.641 113.813C24.3986 113.989 25.0606 113.727 25.7212 113.465C25.9881 113.359 26.2549 113.253 26.5276 113.177C27.4536 112.914 28.0605 113.339 27.8569 114.203C27.7683 114.583 27.7514 114.988 27.7345 115.394C27.6951 116.335 27.6555 117.283 26.7202 117.945C25.0614 117.967 23.6135 118.429 22.6429 119.894C21.9894 120.018 21.7727 120.435 21.5412 121.064C20.8808 122.856 21.0225 124.472 22.1224 126.02C22.1134 126.074 22.0964 126.133 22.0795 126.191C22.0428 126.319 22.0062 126.446 22.0515 126.526C23.3214 128.772 25.757 129.888 28.4113 129.547C28.5548 129.529 28.7123 129.476 28.8733 129.423C29.4001 129.249 29.9656 129.062 30.2121 129.999C30.3692 130.545 30.5263 131.089 30.6834 131.634L30.6881 131.65L30.7738 131.947C30.9036 132.397 31.0335 132.847 31.1633 133.298C31.1038 133.398 31.1054 133.498 31.1647 133.597C31.1964 134.192 31.6033 134.361 32.1023 134.418L32.1587 135.413C31.8572 135.783 31.8108 136.274 31.7643 136.765C31.6944 137.503 31.6244 138.242 30.6842 138.575L30.6625 138.582C30.2147 138.333 29.924 138.566 29.6334 138.799C29.4481 138.947 29.2628 139.096 29.0369 139.119C28.973 139.075 28.9153 139.081 28.8603 139.134L25.9367 139.078C25.1424 138.93 24.3627 139.06 23.5824 139.191C22.8414 139.315 22.1 139.439 21.3452 139.325C20.9979 138.677 20.5335 138.693 20.0044 139.086C20.0044 139.086 19.9825 139.1 19.9861 139.1C18.4493 139.357 16.9001 139.377 15.3467 139.396C14.1203 139.412 12.8913 139.428 11.6636 139.56C10.8404 139.648 9.96348 139.598 9.06505 139.546C8.1616 139.494 7.23637 139.44 6.32205 139.526C5.41389 139.609 4.28353 139.649 3.31783 138.795C2.83677 138.368 1.13221 137.961 0.883534 138.921C0.862059 139.003 0.838825 139.09 0.814528 139.181C0.53134 140.244 0.103844 141.848 0.636309 142.243C1.38302 142.795 1.80095 143.509 2.209 144.206C2.48713 144.68 2.76066 145.148 3.13059 145.55C3.7965 146.28 5.03889 146.401 6.12478 146.429C6.97332 146.452 7.77462 146.687 8.47462 147.14C10.6351 148.532 12.9625 148.728 15.5051 148.769C16.7037 148.789 17.757 148.325 18.8046 147.863C20.0957 147.294 21.3779 146.729 22.9123 147.079C23.1135 147.124 23.3171 147.137 23.5166 147.15C24.0237 147.183 24.5043 147.214 24.8525 147.771C25.1002 148.172 25.522 148.31 25.9485 148.206C26.4892 148.073 27.0166 147.873 27.5441 147.673L27.5444 147.673C28.7692 147.21 29.9949 146.746 31.391 147.105C31.4495 147.12 31.5437 147.029 31.6241 146.95C31.6421 146.933 31.6594 146.916 31.6755 146.901C32.3864 146.224 32.6955 146.611 33.1502 147.286C34.1401 148.756 34.8692 150.319 35.3439 152.013C35.4154 152.173 35.4948 152.33 35.5742 152.488C35.9427 153.219 36.3093 153.946 35.8686 154.85C35.5915 155.417 36.0502 155.696 36.4773 155.935C36.431 156.812 36.5017 157.701 36.5717 158.581C36.6554 159.633 36.738 160.672 36.6191 161.663C36.4184 163.312 36.8009 164.003 38.0627 164.611C38.0686 164.721 38.0601 164.845 38.0515 164.97C38.0332 165.239 38.0148 165.507 38.1403 165.628C40.2734 167.696 43.0045 167.479 45.1147 165.117C46.5635 164.362 46.1299 163.295 45.7402 162.336C45.6549 162.126 45.5717 161.921 45.5108 161.726C45.2675 160.943 44.808 160.228 44.3491 159.513C44.1496 159.203 43.9503 158.893 43.7689 158.577C43.9371 158.436 43.9799 158.272 43.8613 158.079C44.2942 157.828 44.4846 157.277 44.2013 157.041C43.529 156.48 43.5082 155.786 43.4873 155.088C43.479 154.809 43.4706 154.529 43.4202 154.257C43.1335 152.703 42.818 151.148 42.224 149.671C41.86 149.244 41.953 148.782 42.0461 148.321C42.1204 147.953 42.1946 147.585 42.037 147.233C42.4541 145.931 43.2575 144.743 44.6913 145.203C46.2653 145.71 47.734 145.38 49.2001 145.051C50.0619 144.857 50.9227 144.664 51.8034 144.641C52.1715 144.631 52.5413 144.699 52.911 144.766C53.5825 144.888 54.2538 145.01 54.9146 144.672C56.7747 143.725 58.7596 143.392 60.8341 143.27C62.0784 143.195 63.2944 142.853 64.4935 142.515C65.4463 142.247 66.3885 141.982 67.3259 141.857C68.2522 141.732 69.1725 141.539 70.0945 141.345L70.0946 141.345L70.0948 141.345L70.095 141.345L70.0952 141.345L70.0954 141.345L70.0956 141.345L70.0957 141.345C71.9233 140.961 73.7575 140.576 75.6578 140.72C76.7625 140.805 77.8135 140.501 78.8705 140.195C80.0339 139.859 81.2046 139.52 82.4622 139.695C83.2623 139.808 84.1901 139.825 84.9981 139.15C85.5319 138.703 86.4963 138.879 87.0696 139.182C88.4015 139.888 89.2516 139.271 90.2269 138.501C92.4879 136.719 95.1263 136.453 97.8982 136.729C99.3058 136.871 100.049 137.796 100.793 138.723C101.099 139.103 101.405 139.483 101.757 139.81C102.163 140.274 102.363 140.846 102.562 141.419C102.785 142.056 103.008 142.694 103.516 143.182C103.84 144.393 104.617 145.301 105.396 146.21C105.634 146.488 105.871 146.765 106.096 147.052C107.836 147.91 109.592 148.628 111.551 147.758C113.045 147.131 114.026 146.099 114.166 144.412C114.622 144.202 114.606 143.842 114.59 143.48C114.582 143.312 114.575 143.145 114.614 142.992C115.518 142.764 117.371 140.088 117.079 139.009C116.797 137.963 117.213 137.475 117.79 136.8L117.85 136.73C118.467 136.007 119.214 135.518 119.971 135.024C120.066 134.961 120.161 134.899 120.257 134.836C121.173 134.532 122.108 134.564 123.043 134.597C123.416 134.611 123.789 134.624 124.161 134.615C124.21 134.647 124.26 134.675 124.308 134.703C124.61 134.877 124.845 135.012 124.728 135.617C124.723 135.643 124.718 135.669 124.712 135.696C124.7 135.753 124.688 135.812 124.675 135.872L124.675 135.873C124.524 136.585 124.342 137.443 125.16 138.023C125.16 138.489 125.156 138.955 125.152 139.42L125.152 139.42L125.152 139.421L125.152 139.421L125.152 139.422L125.152 139.422L125.152 139.422L125.152 139.422L125.152 139.422L125.152 139.422L125.152 139.423L125.152 139.423L125.152 139.423C125.143 140.483 125.135 141.542 125.169 142.6C125.243 144.948 126.914 146.35 128.464 147.65L128.465 147.651C128.603 147.767 128.74 147.882 128.875 147.997C129.006 148.108 129.147 148.243 129.298 148.387C130.067 149.121 131.083 150.091 132.191 149.357C133.141 148.728 134.187 148.597 135.223 148.467C136.136 148.352 137.04 148.239 137.862 147.788C138.293 147.839 138.655 147.717 138.931 147.376L139.004 147.362C139.046 147.354 139.088 147.346 139.13 147.337L139.189 147.325C139.275 147.308 139.361 147.291 139.448 147.275C139.922 147.155 140.423 147.092 140.924 147.028C142.497 146.829 144.072 146.629 144.843 144.688C144.938 144.445 145.239 144.284 145.54 144.123C145.681 144.047 145.822 143.972 145.941 143.888C146.211 143.779 146.482 143.669 146.752 143.559L146.76 143.555C147.031 143.445 147.302 143.334 147.573 143.225C150.576 143.437 152.823 142.015 154.756 139.906C155.198 139.458 155.718 139.108 156.238 138.758C156.889 138.32 157.54 137.882 158.037 137.254C158.401 137.228 158.761 137.199 158.899 136.773L159.027 136.675C159.83 136.386 160.158 135.709 160.484 135.038L160.484 135.037L160.484 135.037L160.484 135.037L160.484 135.037L160.485 135.037L160.485 135.036L160.485 135.036C160.61 134.778 160.735 134.521 160.886 134.287C161.164 133.857 161.494 133.175 161.073 132.627C160.585 131.995 159.755 132.116 159.26 132.423C158.14 133.117 156.892 133.378 155.646 133.639C154.647 133.848 153.65 134.056 152.723 134.487C151.796 134.721 150.932 135.134 150.069 135.546C148.85 136.128 147.631 136.71 146.236 136.793C145.174 136.926 144.264 137.419 143.355 137.912C142.836 138.194 142.316 138.476 141.767 138.691C140.97 138.633 140.312 138.771 139.51 139.163C137.487 140.154 135.301 141.045 133.005 139.74C132.903 139.253 132.776 138.767 132.65 138.281C132.127 136.272 131.604 134.26 132.747 132.195C133.632 132.128 134.443 131.813 135.254 131.499C135.943 131.232 136.631 130.965 137.364 130.85C137.453 130.837 137.547 130.831 137.641 130.826C137.847 130.813 138.054 130.8 138.219 130.712C141.331 128.985 144.658 127.937 148.175 127.442C148.328 127.421 148.484 127.404 148.64 127.387L148.64 127.387C149.471 127.296 150.307 127.204 150.888 126.436L150.899 126.429C151.727 126.971 152.529 126.802 153.322 126.349C153.58 126.563 153.846 126.59 154.116 126.372C155.731 125.976 156.794 124.853 157.858 123.73C158.437 123.118 159.017 122.505 159.686 122.01C160.146 121.67 160.839 119.868 159.864 119.507C158.81 119.116 157.368 118.71 156.12 119.468C155.058 119.544 153.992 119.591 152.927 119.637C149.434 119.79 145.94 119.943 142.579 121.145C142.554 121.178 142.529 121.211 142.503 121.244L142.502 121.246C142.456 121.305 142.41 121.364 142.365 121.425C142.268 121.423 142.199 121.469 142.161 121.558C139.474 121.539 136.847 121.986 134.222 122.483C133.214 122.676 133.009 121.955 133.039 121.149C133.118 119.03 133.203 116.914 133.288 114.796C133.331 113.731 133.374 112.665 133.416 111.599C133.617 111.434 133.818 111.268 134.019 111.102C134.22 110.935 134.421 110.769 134.622 110.603C134.869 109.935 135.144 109.321 135.646 108.819C135.147 109.321 134.873 109.931 134.626 110.604C135.66 110.728 136.646 110.491 137.477 109.927C138.181 109.451 139.051 109.266 139.663 109.454C141.126 109.906 142.405 109.459 143.673 109.017C143.775 108.982 143.877 108.946 143.98 108.911C145.372 108.43 146.795 108.151 148.224 107.871C148.631 107.791 149.039 107.711 149.447 107.626C150.11 107.488 150.802 107.414 151.493 107.34L151.494 107.339C153.161 107.16 154.831 106.98 156.117 105.921C157.565 104.724 158.872 104.461 160.524 104.824L160.858 105.194C160.636 106.08 161.115 106.593 161.727 107.156C162.353 107.729 163.151 108.476 162.774 109.387C162.14 110.919 162.917 111.719 163.988 112.489C164.163 113.068 164.103 113.65 164.044 114.233C163.999 114.677 163.953 115.121 164.012 115.565C164.41 116.278 164.596 117.066 164.781 117.853C164.983 118.708 165.184 119.563 165.658 120.324C166.502 121.752 166.786 123.342 167.069 124.93L167.07 124.933C167.111 125.166 167.153 125.4 167.197 125.633C167.575 126.717 167.954 127.797 168.336 128.881C168.495 129.944 168.653 131.006 168.811 132.068L168.815 132.09C169.004 133.362 169.194 134.634 169.384 135.905C169.746 137.482 170.108 139.063 170.466 140.639C170.832 141.248 171.286 141.768 171.883 142.157C173.421 144.333 174.643 144.569 176.761 143.101C177.511 142.453 178.19 141.742 178.725 140.899C179.345 138.768 179.489 136.672 178.53 134.565C178.326 134.12 178.115 133.678 177.905 133.236L177.904 133.235C176.855 131.035 175.805 128.834 175.692 126.289L175.689 126.221C175.667 125.723 175.632 124.899 174.786 124.749L174.77 123.909C175.076 122.777 175.496 122.242 176.312 123.593C176.469 123.852 176.699 124.036 177.043 123.946C177.599 124.399 178.06 124.909 178.042 125.69C178.304 126.807 178.866 127.74 179.906 128.264C180.54 128.582 180.825 129.11 181.084 129.695C185.283 134.115 190.133 137.672 195.469 140.587C196.102 141.141 196.86 141.482 197.61 141.818C198.174 142.071 198.734 142.322 199.232 142.661C200.649 143.624 201.826 143.586 203.148 142.736C204.335 142.219 205.413 141.53 206.403 140.707C208.246 139.546 209.009 136.702 207.724 135.449C207.575 134.766 207.425 134.082 207.276 133.398L207.266 133.354C207.113 132.655 206.96 131.956 206.808 131.258L206.819 131.262ZM136.467 101.284C136.483 101.381 136.496 101.482 136.508 101.583C136.502 101.532 136.495 101.482 136.489 101.431C136.482 101.382 136.475 101.333 136.467 101.284ZM64.654 110.139C64.605 110.143 64.552 110.145 64.495 110.147C64.5146 110.146 64.5337 110.145 64.5522 110.144L64.6107 110.141L64.654 110.139ZM63.9477 111.515C63.9829 111.424 64.0157 111.332 64.0416 111.241C64.0159 111.332 63.983 111.424 63.9477 111.515ZM35.8702 116.547C34.8498 115.586 34.8792 114.375 34.908 113.182C34.9171 112.806 34.9262 112.431 34.9021 112.066C34.8433 111.194 36.0902 110.71 36.5216 110.722C38.376 110.779 40.1306 110.271 41.8663 109.769C43.3849 109.33 44.889 108.895 46.4326 108.845C48.8154 108.771 51.1222 108.289 53.4297 107.807L53.4298 107.807L53.4299 107.807C55.9537 107.28 58.4783 106.752 61.1035 106.758C62.7521 106.761 64.4472 106.599 66.1409 106.438L66.1413 106.438L66.1422 106.438C66.8392 106.371 67.5359 106.305 68.229 106.25C69.0649 106.183 69.6559 106.317 69.3659 107.37L69.3652 107.402C69.2438 107.357 69.1675 107.395 69.1293 107.513C68.8791 107.613 68.6168 107.685 68.3544 107.757C67.7804 107.913 67.2065 108.07 66.7607 108.526C66.5165 108.642 66.246 108.671 65.9754 108.701C65.5742 108.744 65.1728 108.788 64.8572 109.113C64.4627 109.047 64.1785 109.236 63.9322 109.513C63.1418 109.653 62.6795 110.227 62.2165 110.801L62.1908 110.833C62.0466 110.823 61.9021 110.811 61.7575 110.799L61.7574 110.799L61.7574 110.799L61.7573 110.799C60.425 110.69 59.0923 110.581 58.0537 111.773C56.6979 111.754 55.3723 111.84 54.216 112.671C53.2729 112.577 52.4038 112.799 51.503 113.03L51.5029 113.03C51.4254 113.05 51.3476 113.07 51.2695 113.089C51.1841 113.111 51.0984 113.133 51.0122 113.154C46.816 114.171 42.634 115.2 38.5185 116.515C37.9703 116.688 37.351 116.641 36.7317 116.594L36.7316 116.594C36.4432 116.572 36.1549 116.55 35.8737 116.55L35.8702 116.547ZM66.7607 108.526C66.6824 108.721 66.6945 108.946 66.7065 109.172C66.7183 109.392 66.7301 109.613 66.657 109.806C66.7279 109.614 66.7166 109.395 66.7053 109.175C66.6937 108.949 66.682 108.722 66.7607 108.526ZM88.0153 130.587C87.45 130.612 86.9795 130.758 86.4901 130.957C84.05 131.948 81.6105 132.902 78.8861 132.774C77.9443 132.729 77.0578 132.992 76.1597 133.258C75.4882 133.457 74.8101 133.658 74.0976 133.733C73.2793 133.82 72.4614 133.91 71.6435 134.001L71.6405 134.001L71.6376 134.001L71.6346 134.002L71.6317 134.002L71.6287 134.002L71.6257 134.002C68.9867 134.294 66.3473 134.586 63.6959 134.744C62.5767 134.809 61.518 135.124 60.4568 135.44L60.4566 135.44C59.404 135.753 58.3489 136.067 57.2297 136.139C56.8886 136.16 56.5407 136.208 56.191 136.257C55.5438 136.346 54.8903 136.437 54.2612 136.359C52.9573 136.195 51.705 136.474 50.455 136.753C49.1832 137.036 47.9137 137.319 46.5946 137.134C46.6542 137.378 46.7288 137.729 46.7158 137.981C46.7285 137.729 46.6531 137.378 46.591 137.134C45.4391 136.821 44.3884 137.174 43.3441 137.525L43.3436 137.525C42.9507 137.657 42.5587 137.788 42.1625 137.884C40.7384 138.231 39.87 137.747 39.1978 136.592C38.9381 136.601 38.726 136.557 38.5497 136.474C38.7255 136.556 38.9374 136.599 39.1979 136.589C39.0251 135.756 38.7726 134.941 38.5201 134.126C38.0797 132.705 37.639 131.283 37.6202 129.763C37.6193 129.679 37.4473 129.597 37.2763 129.515C37.1981 129.478 37.12 129.441 37.0587 129.403C36.6413 127.916 37.5363 127.464 38.433 127.011C38.7806 126.835 39.1285 126.66 39.4003 126.423C39.9145 126.433 40.3909 126.261 40.8673 126.089C41.4137 125.892 41.9603 125.694 42.5642 125.771C42.799 125.718 43.0339 125.666 43.2688 125.614C43.5036 125.561 43.7384 125.509 43.9732 125.456C44.0211 125.381 44.0732 125.283 44.1255 125.184L44.1255 125.184C44.2109 125.024 44.2968 124.862 44.3663 124.796C44.2966 124.862 44.2113 125.024 44.1264 125.186L44.1263 125.186C44.0752 125.283 44.0242 125.38 43.9768 125.456C44.0711 125.468 44.1674 125.489 44.2636 125.51C44.4712 125.555 44.6783 125.599 44.8635 125.556C48.015 124.799 51.2323 124.548 54.4395 124.638C55.5577 124.67 56.3534 124.448 57.181 123.877C57.5452 123.989 57.9178 123.889 58.2902 123.789C58.8244 123.646 59.3582 123.503 59.8662 123.986C59.9678 124.026 60.0748 124.082 60.1818 124.139C60.4132 124.262 60.6444 124.385 60.82 124.332C63.1896 123.6 65.6133 123.612 68.0365 123.624C68.6553 123.627 69.2742 123.63 69.892 123.62C70.3318 123.613 70.7327 123.469 71.1367 123.324C71.6387 123.144 72.1455 122.962 72.738 123.038C75.6484 123.406 78.5452 123.11 81.4474 122.813L81.4476 122.813C81.7589 122.781 82.0703 122.75 82.3817 122.719C82.886 122.668 83.3089 122.468 83.7226 122.273C84.0926 122.099 84.4552 121.928 84.8622 121.87C85.0549 121.842 85.2844 121.729 85.5176 121.615C86.2098 121.276 86.9344 120.921 86.8247 122.71C86.788 123.307 87.7348 123.65 88.4838 123.797C90.9922 124.281 93.511 124.596 96.0718 124.595L96.0734 124.598C96.2332 124.852 96.5074 124.96 96.7851 125.069C97.1871 125.228 97.5964 125.389 97.6762 125.998C97.8242 127.099 97.3532 127.644 96.4213 128.026C95.9448 128.22 95.4829 128.454 95.0222 128.686L95.02 128.687C94.8119 128.793 94.6041 128.898 94.3953 128.999C93.7232 128.964 93.0861 129.168 92.5893 129.562C91.4072 130.503 90.0333 130.541 88.6702 130.58L88.6698 130.58C88.4534 130.586 88.2372 130.592 88.0222 130.601L88.0153 130.587ZM124.397 112.005L124.398 112.005L124.454 112.025C124.379 112.002 124.3 111.972 124.222 111.941C124.281 111.964 124.34 111.985 124.397 112.005ZM123.582 111.893C123.699 111.803 123.875 111.829 124.062 111.887C123.876 111.831 123.699 111.806 123.582 111.893ZM123.531 111.955L123.531 111.955C123.535 111.952 123.538 111.948 123.542 111.943C123.538 111.946 123.533 111.953 123.528 111.958L123.531 111.955ZM108.668 136.972L108.667 136.971L108.664 136.968L108.668 136.972ZM108.667 136.971C106.865 136.425 105.242 134.601 105.129 133.011C105.109 132.723 105.226 132.603 105.494 132.528C106.541 132.234 107.06 131.4 107.569 130.582C107.748 130.295 107.925 130.011 108.123 129.752C109.352 128.152 110.177 128.092 111.337 129.868C110.959 130.557 111.304 131.035 111.65 131.513C111.886 131.84 112.123 132.167 112.127 132.562C113.5 133.395 113.625 134.366 112.473 135.504C112.208 135.767 111.96 136.05 111.713 136.333L111.713 136.333C111.585 136.48 111.457 136.627 111.327 136.771C111.22 136.849 111.113 136.933 111.006 137.017C110.27 137.597 109.535 138.176 108.667 136.971ZM270.61 117.341C269.995 117.488 269.347 117.699 268.859 118.193C268.474 118.582 267.922 119.043 267.457 118.728C267.036 118.444 267.233 118.063 267.426 117.689L267.426 117.689C267.497 117.552 267.568 117.417 267.607 117.287C267.62 117.244 267.64 117.201 267.662 117.158C267.739 116.998 267.822 116.825 267.57 116.577C266.335 117.065 265.07 116.92 263.785 116.773C262.883 116.67 261.971 116.566 261.053 116.679C260.596 116.735 260.162 116.952 259.728 117.17C258.903 117.583 258.079 117.996 257.102 117.291C257.027 117.242 256.955 117.185 256.883 117.128C256.647 116.939 256.411 116.751 256.052 116.882C255.134 116.922 254.503 116.636 254.285 115.623C254.127 114.887 253.824 114.2 253.519 113.51C253.061 112.471 252.601 111.426 252.626 110.197L252.627 110.15C252.64 109.51 252.662 108.444 251.737 107.998C252.204 105.789 251.45 103.812 250.578 101.854C250.353 101.256 250.373 100.637 250.393 100.018C250.408 99.5425 250.423 99.0661 250.327 98.5978C250.278 97.8447 249.787 97.3716 249.305 96.9066C248.916 96.5325 248.533 96.1636 248.391 95.6582C248.138 94.7654 247.757 93.9287 247.375 93.0906C246.931 92.1173 246.487 91.1421 246.242 90.0751C246 89.0226 245.145 88.0015 243.756 87.8272C243.279 87.7676 242.747 87.5486 242.51 87.0075C241.523 85.7399 240.295 85.9031 239.068 86.0661C238.561 86.1334 238.054 86.2007 237.565 86.1671C237.454 86.1764 237.326 86.172 237.197 86.1676C236.919 86.158 236.642 86.1485 236.548 86.2772C235.874 87.196 235.042 87.9809 234.209 88.766C232.902 89.9988 231.595 91.2322 230.897 92.9853C230.429 94.161 229.72 95.0837 228.217 94.6875C227.288 93.5822 225.56 93.6715 224.133 94.9044C222.475 96.1977 221.934 97.9842 221.87 99.9959C221.773 102.976 221.64 105.955 221.127 108.898C221.092 109.1 221.002 109.292 220.912 109.485C220.878 109.558 220.844 109.631 220.813 109.705C220.461 110.551 220.189 111.424 219.917 112.298L219.916 112.301C219.88 112.419 219.843 112.536 219.807 112.653C219.714 112.948 219.651 113.262 219.587 113.58C219.402 114.495 219.212 115.438 218.296 116.016C215.955 116.681 215.487 117.669 215.571 120.962C215.597 122.043 215.934 122.481 216.941 122.519C216.927 122.614 216.91 122.708 216.892 122.803C216.81 123.256 216.728 123.709 217.032 124.137C217.142 124.473 217.08 124.79 217.016 125.119C217.001 125.195 216.986 125.272 216.973 125.35C216.674 127.094 216.189 128.795 215.704 130.496L215.704 130.496C215.091 132.644 214.479 134.793 214.241 137.029C213.45 139.229 212.807 141.276 214.635 143.475L214.707 143.562C215.806 144.885 216.855 146.149 218.569 145.794L218.635 145.781C220.499 145.395 222.659 144.948 222.778 142.281C222.782 142.171 222.843 142.062 222.904 141.953C222.933 141.902 222.962 141.851 222.985 141.799C222.849 138.906 223.497 136.129 224.144 133.353L224.144 133.353C224.239 132.948 224.334 132.542 224.426 132.137C224.438 131.988 224.447 131.839 224.457 131.689L224.457 131.688C224.479 131.367 224.5 131.045 224.543 130.727C224.955 127.617 225.672 126.806 228.356 126.4C228.679 126.512 229.006 126.462 229.335 126.413C229.75 126.35 230.169 126.287 230.588 126.544C231.825 127.306 233.131 127.118 234.424 126.635L234.435 126.636L234.435 126.636C234.687 126.644 234.942 126.653 235.194 126.665C235.222 126.685 235.253 126.713 235.285 126.741C235.362 126.808 235.44 126.877 235.481 126.857C237.161 126.134 238.93 126.059 240.699 125.983C241.848 125.934 242.998 125.885 244.124 125.659C245.287 125.425 246.525 125.399 247.71 125.501C248.669 125.584 249.532 125.784 249.684 127.253C249.697 127.38 249.709 127.511 249.721 127.644C249.817 128.698 249.926 129.899 250.836 130.728C250.66 132.126 251.21 133.309 251.761 134.492C252.122 135.267 252.483 136.042 252.639 136.877C252.639 136.961 252.636 137.045 252.634 137.13C252.615 137.764 252.596 138.4 253.319 138.766C253.367 140.649 254.199 142.34 254.985 143.938L254.987 143.943L255.091 144.156C255.143 144.261 255.195 144.366 255.246 144.471C255.569 145.138 255.838 145.837 256.107 146.533C256.575 147.744 257.039 148.949 257.78 149.972C258.293 150.68 258.62 151.472 258.95 152.269C259.513 153.631 260.083 155.01 261.593 156.015C263.176 157.068 264.102 156.528 265.04 155.98C265.423 155.756 265.808 155.531 266.241 155.413C267.198 155.153 267.155 154.494 267.112 153.847C267.096 153.615 267.081 153.385 267.112 153.176C267.253 152.206 266.535 151.368 265.971 150.939C265.018 150.208 264.889 149.237 264.88 148.365C264.866 147.252 264.417 146.466 263.817 145.662C263.719 144.184 262.884 143.127 261.837 142.196C261.787 141.4 261.382 140.735 260.978 140.07C260.51 139.301 260.043 138.533 260.123 137.561C259.631 136.226 259.138 134.892 259.246 133.428C258.916 132.834 258.743 132.168 258.57 131.502C258.28 130.385 257.99 129.268 256.959 128.494C256.95 128.281 256.981 128.058 257.013 127.834C257.101 127.22 257.188 126.605 256.42 126.197C256.654 124.88 257.78 124.722 258.733 124.7C259.234 124.691 259.664 124.584 260.106 124.474C260.261 124.435 260.417 124.397 260.578 124.361C262.782 123.871 264.918 123.156 266.975 122.284C267.64 122.002 268.331 121.813 269.022 121.624C270.001 121.357 270.98 121.09 271.886 120.556C272.669 120.097 272.77 119.441 272.871 118.791C272.924 118.445 272.977 118.101 273.133 117.789C272.335 117.421 271.484 117.124 270.62 117.331L270.61 117.341ZM244.533 104.713C244.469 104.569 244.403 104.426 244.337 104.282C244.312 104.224 244.286 104.167 244.26 104.11C244.297 104.19 244.334 104.271 244.371 104.352C244.425 104.471 244.48 104.591 244.533 104.713ZM241.475 96.1052C241.476 96.0476 241.474 95.9899 241.468 95.9322C241.474 95.9863 241.476 96.044 241.475 96.1052ZM233.345 96.8457C233.35 96.781 233.355 96.7163 233.356 96.6515C233.355 96.7163 233.353 96.7811 233.345 96.8457ZM233.198 97.5487C233.116 97.8146 233.011 98.0762 232.906 98.3386C232.836 98.5142 232.766 98.6901 232.702 98.8679C232.768 98.6794 232.843 98.4931 232.917 98.307L232.918 98.3064C233.018 98.0548 233.119 97.8037 233.198 97.5487ZM232.704 99.0979C232.701 99.0204 232.698 98.9428 232.702 98.8679C233.854 98.1692 234.72 97.1785 235.587 96.1875C236.002 95.7131 236.417 95.2385 236.863 94.7959C237.312 94.8495 237.768 94.8456 238.224 94.8417C239.191 94.8334 240.159 94.8252 241.05 95.3661C241.086 95.4803 241.085 95.608 241.084 95.7356C241.081 96.0086 241.079 96.2808 241.437 96.4177C241.402 97.1121 241.45 97.7792 242.071 98.2412C242.103 98.3312 242.129 98.4245 242.156 98.5178C242.252 98.8605 242.348 99.2023 242.733 99.3738C243.011 99.8239 243.091 100.341 243.171 100.858C243.266 101.479 243.362 102.101 243.804 102.606C243.653 104.109 243.722 105.547 245 106.623L245 106.63C245.24 108.205 245.478 109.779 245.717 111.354L245.718 111.361L245.719 111.368L245.72 111.374C245.958 112.942 246.195 114.51 246.434 116.078C246.478 117.173 245.877 117.554 244.874 117.488C244.254 117.815 243.61 117.758 242.965 117.7C242.522 117.661 242.079 117.621 241.643 117.707C240.974 117.729 240.304 117.759 239.635 117.789L239.634 117.789C238.138 117.857 236.642 117.924 235.146 117.895C233.053 117.855 230.94 117.768 228.885 117.408C227.145 117.102 227.886 115.426 228.198 114.72L228.214 114.684C228.837 113.275 229.128 111.796 229.418 110.321L229.418 110.321C229.619 109.294 229.821 108.269 230.134 107.27C230.352 106.573 230.558 105.872 230.764 105.172L230.765 105.171C231.321 103.281 231.878 101.391 232.656 99.5728C232.715 99.4336 232.709 99.2662 232.703 99.0983L232.704 99.0979ZM64.1779 221.913C64.2268 221.802 64.7666 221.791 65.002 221.9L64.9985 221.892C65.4142 222.079 65.34 222.436 65.269 222.777C65.2541 222.848 65.2394 222.919 65.2293 222.988C64.9883 224.688 64.1498 226.093 63.3103 227.501C62.9472 228.109 62.584 228.718 62.2688 229.351C61.0189 231.866 59.5658 234.103 57.4985 235.911C57.3829 236.012 57.2673 236.114 57.1516 236.216L57.1476 236.219L57.1436 236.223C55.4854 237.682 53.7957 239.168 51.5717 239.751C50.5277 240.024 50.0488 240.798 49.5688 241.573C49.3888 241.864 49.2088 242.155 48.9987 242.42C48.8849 242.563 48.7775 242.722 48.6707 242.88C48.1375 243.666 47.6191 244.432 46.3906 243.166C45.9708 242.733 45.0601 242.762 44.402 243.315C44.0251 243.631 43.6124 243.908 43.2008 244.185L43.2007 244.185C43.0212 244.305 42.8419 244.426 42.6659 244.549C42.6305 245.265 42.4033 245.671 41.6283 245.192C41.4974 245.168 41.3666 245.143 41.2357 245.118C41.1049 245.093 40.9741 245.068 40.8433 245.044L40.7345 245.088L40.6196 245.075L40.5853 245.175L40.4809 245.177C40.1585 245.465 39.8993 245.828 39.6401 246.191C39.0933 246.956 38.5465 247.722 37.4055 247.783C36.9591 248.361 36.475 248.841 35.638 248.591C35.4806 248.545 35.2215 248.547 35.1189 248.646C33.4464 250.255 31.4001 250.324 29.3401 250.393C27.8339 250.444 26.3205 250.495 24.9405 251.148C22.8276 252.148 20.3386 252.125 17.9667 251.623C17.8216 251.603 17.6672 251.618 17.5127 251.632C17.1362 251.668 16.7586 251.704 16.5098 251.245C15.9529 251.097 15.3799 251.012 14.8071 250.927L14.807 250.927C13.6644 250.758 12.5224 250.588 11.5096 249.921C11.4164 249.912 11.3191 249.916 11.2217 249.92L11.2215 249.92L11.2213 249.92L11.2211 249.92L11.221 249.92L11.2208 249.92L11.2206 249.92C10.9204 249.932 10.619 249.944 10.4332 249.587C10.0937 249.352 9.7115 249.181 9.32937 249.009C8.58481 248.674 7.84033 248.339 7.41114 247.538C7.27051 247.43 7.19331 247.269 7.11528 247.106C6.97889 246.822 6.83994 246.532 6.35519 246.513C4.48943 246.445 3.59729 245.693 2.84147 243.651C2.54679 242.858 2.42216 242.014 2.29792 241.172C2.09048 239.767 1.88415 238.37 0.889043 237.229C0.850326 237.187 0.868557 237.096 0.886837 237.004C0.895169 236.963 0.903511 236.921 0.906477 236.884C0.170981 234.907 -0.187118 232.949 1.16576 231.063C1.15072 230.356 1.50544 229.814 1.86025 229.273C2.04077 228.997 2.2213 228.722 2.35318 228.424C2.84545 227.315 2.97479 226.209 3.11672 224.995L3.11699 224.993C3.46502 222.043 3.88738 218.969 6.05553 216.591C6.10985 216.531 6.16154 216.454 6.21257 216.377C6.30999 216.231 6.40502 216.088 6.5114 216.081C8.39474 215.935 9.19702 214.637 9.99789 213.341C10.3032 212.847 10.6082 212.354 10.9729 211.925C11.3234 211.513 11.797 211.386 12.2766 211.258C12.6381 211.161 13.0031 211.064 13.3212 210.843C13.9979 210.371 14.6567 209.869 15.3157 209.367C16.8689 208.185 18.4232 207.001 20.2167 206.204C22.1506 205.344 24.1239 204.496 26.3045 204.466C26.3457 204.466 26.3869 204.466 26.4281 204.466C26.4716 204.466 26.5151 204.467 26.5585 204.468L26.5587 204.468L26.5588 204.468L26.559 204.468L26.5592 204.468L26.5594 204.468C27.0039 204.475 27.4346 204.481 27.7862 204.113C27.8656 204.084 27.9448 204.055 28.0242 204.025C28.8757 203.711 29.7302 203.395 30.6737 203.617C30.8281 203.631 30.979 203.641 31.1335 203.651C31.348 203.617 31.5635 203.587 31.779 203.556L31.7797 203.556L31.78 203.556C32.2568 203.487 32.7338 203.419 33.2013 203.317C36.773 202.528 40.2847 203.027 43.7974 203.527L43.798 203.527C44.7726 203.665 45.7473 203.804 46.7234 203.915C47.5346 204.007 48.3589 204.005 49.1802 204.003L49.1805 204.003L49.1822 204.003L49.1838 204.003C49.397 204.003 49.6101 204.002 49.8227 204.003C50.4522 204.004 51.0157 204.073 51.2577 204.772C51.5248 204.779 51.7946 204.775 52.0644 204.772C53.4401 204.754 54.8165 204.736 55.8384 206.02C56.075 206.064 56.3151 206.112 56.5516 206.16C57.0305 206.498 57.5714 206.528 58.1127 206.558C58.3819 206.573 58.6513 206.588 58.9131 206.641C58.9573 206.649 59.0017 206.656 59.0461 206.664L59.0482 206.664L59.0512 206.665C59.6563 206.769 60.2516 206.871 60.2012 207.757C60.1725 208.256 60.5011 208.489 60.8343 208.725C60.9402 208.8 61.0466 208.875 61.1422 208.959C61.2595 209.062 61.3848 209.16 61.51 209.258C62.091 209.712 62.6725 210.165 62.467 211.16C62.3645 211.671 62.793 211.949 63.2439 212.241L63.2446 212.242C63.2837 212.267 63.323 212.293 63.3621 212.318C64.4776 213.053 65.2743 214.087 65.156 215.565C65.1516 215.618 65.1489 215.674 65.1462 215.731C65.1281 216.106 65.1081 216.519 64.6053 216.516C64.1089 216.513 63.8021 216.194 63.6946 215.609C63.2803 213.393 62.2565 212.38 60.1274 212.346C57.628 212.306 55.2021 212.183 52.7597 211.416C51.8586 211.133 50.9155 211.223 49.9502 211.315L49.9501 211.315C48.9811 211.407 47.9898 211.502 46.9967 211.223C43.8659 210.342 40.6229 210.618 37.4522 211.248C37.0484 211.329 36.6834 211.151 36.3253 210.976C35.8187 210.729 35.3257 210.489 34.7554 210.995C33.7612 212.373 32.619 213.406 30.7349 213.359C29.269 213.323 28.1199 214.122 26.9898 214.907C26.5482 215.214 26.1094 215.519 25.6557 215.771C25.4058 215.911 25.1549 216.056 24.903 216.201L24.9022 216.202C23.9885 216.729 23.0604 217.265 22.1101 217.569C20.9661 217.932 20.1685 218.638 19.3642 219.349L19.3639 219.349L19.3637 219.349C19.1095 219.574 18.8547 219.799 18.588 220.015C18.3822 221.555 17.3143 222.277 15.985 222.748C15.8996 222.819 15.8143 222.89 15.729 222.961L15.507 223.144L15.502 223.149C15.3639 223.263 15.2262 223.377 15.0893 223.491C14.8325 223.939 14.5261 224.344 14.0503 224.583C14.1425 225.322 13.6532 225.75 13.2029 226.144C13.0594 226.269 12.9199 226.391 12.8044 226.518C12.0109 227.387 11.3741 228.364 10.7362 229.343C10.0506 230.396 9.36363 231.45 8.47938 232.373C7.96964 232.905 7.9058 233.88 7.84344 234.832C7.82002 235.19 7.79681 235.544 7.75027 235.87C7.6806 236.359 7.67563 236.858 7.67066 237.356C7.66852 237.571 7.66637 237.786 7.65901 238C7.66294 238.038 7.66675 238.075 7.67048 238.113L7.67782 238.187L7.68914 238.305C7.69888 238.407 7.70862 238.509 7.71927 238.61C7.90624 238.799 8.08933 238.991 8.27239 239.184C8.99808 239.949 9.72329 240.713 10.6877 241.206C10.9592 241.209 11.0707 241.429 11.1823 241.649C11.3147 241.91 11.4473 242.172 11.8473 242.074C12.558 242.506 13.3504 242.67 14.1424 242.834L14.1425 242.834C14.7136 242.952 15.2845 243.07 15.8244 243.288L23.9792 243.693C24.867 243.266 25.8217 243.156 26.7777 243.046C27.3232 242.984 27.869 242.921 28.4033 242.799C28.7668 242.716 29.1251 242.608 29.4835 242.501L29.4837 242.501L29.4839 242.501L29.4841 242.501L29.4843 242.501L29.4845 242.501L29.4847 242.501L29.485 242.501C30.0699 242.326 30.6548 242.151 31.2627 242.08C31.724 241.729 32.227 241.789 32.7306 241.849C33.0957 241.892 33.461 241.935 33.811 241.822C34.3497 241.303 34.9926 241.172 35.7251 241.247C36.5114 241.327 37.1226 241.159 37.6091 240.365C38.0763 239.606 38.827 239.576 39.5857 239.545C40.1354 239.523 40.6893 239.501 41.1425 239.201C41.5869 238.824 42.122 238.742 42.6572 238.66C43.0115 238.606 43.3659 238.551 43.6939 238.411C45.305 237.877 46.9127 237.332 48.1735 236.121C48.956 235.371 49.932 235.236 50.9077 235.1C51.5909 235.006 52.2738 234.911 52.8901 234.605C53.2157 234.209 53.5402 233.812 53.8642 233.416L54.2668 232.924L54.6288 232.482C54.9897 232.187 55.342 231.878 55.6943 231.57C56.4871 230.875 57.2797 230.18 58.1691 229.651C60.0214 228.549 60.8742 226.851 61.6402 224.989C61.9026 224.357 62.4012 223.903 62.9039 223.446C63.3982 222.996 63.8965 222.543 64.1779 221.913ZM235.121 226.221C234.985 226.543 234.875 226.879 234.817 227.253C235.209 226.716 235.255 226.375 235.121 226.221ZM230.016 222.809C232.023 222.96 234.033 223.113 236.006 222.666L236.028 222.667C236.415 223.695 236.005 224.492 235.556 225.364C235.414 225.64 235.268 225.922 235.143 226.222C235.097 226.17 235.036 226.141 234.961 226.132C232.058 225.759 229.255 225.986 227.275 228.462C226.247 229.746 225.233 229.701 224.101 228.927C223.454 228.486 222.915 228.49 222.283 228.798C222.299 228.719 222.347 228.644 222.409 228.574C222.343 228.644 222.295 228.719 222.283 228.798C222.121 228.937 221.959 229.077 221.797 229.216L221.593 229.391C221.5 229.472 221.406 229.552 221.313 229.633C220.933 231.278 219.714 231.597 218.288 231.49C217.635 231.441 216.995 231.638 216.384 231.826L216.384 231.826C215.792 232.008 215.226 232.182 214.7 232.117C213.29 231.942 211.955 231.941 210.558 232.026C209.009 232.122 208.774 232.392 209.43 233.985C209.794 235.502 210.804 236.598 211.815 237.695L211.971 237.865C212.267 238.189 212.555 238.522 212.844 238.856C212.977 239.011 213.111 239.165 213.245 239.319C213.681 239.777 214.095 240.256 214.508 240.736L214.509 240.736C215.514 241.901 216.519 243.067 217.841 243.916C218.196 244.212 218.546 244.515 218.896 244.819C220.725 246.405 222.555 247.991 225.067 248.502C225.186 248.551 225.335 248.593 225.483 248.635C225.795 248.723 226.106 248.811 226.137 248.958C226.345 249.962 226.94 249.889 227.532 249.816C227.775 249.786 228.018 249.756 228.233 249.801C228.376 249.822 228.565 249.807 228.757 249.791C229.247 249.751 229.754 249.709 229.562 250.27C229.463 250.559 229.598 250.898 229.732 251.234C229.977 251.85 230.219 252.459 229.025 252.748C228.712 252.823 228.451 253.112 228.19 253.401L228.19 253.402C228.071 253.533 227.953 253.665 227.829 253.776C226.792 256.083 225.844 256.367 223.821 254.906C223.502 254.673 223.206 254.523 222.856 254.574C219.834 255.007 217.577 253.407 215.315 251.803L215.191 251.715C214 250.997 213.208 249.905 212.46 248.771C212.007 248.375 211.536 247.995 211.066 247.615C209.335 246.216 207.604 244.818 206.75 242.601C206.678 242.412 206.466 242.232 206.273 242.142C204.162 241.161 203.399 239.343 203.167 237.185C202.011 237.35 201.838 236.566 201.681 235.855L201.681 235.855C201.642 235.677 201.603 235.503 201.551 235.35C201.138 234.161 198.735 231.95 197.484 231.887C196.5 231.834 195.515 231.795 194.53 231.755C194.036 231.735 193.542 231.715 193.048 231.694C191.999 232.185 190.905 232.401 189.75 232.228L187.97 232.172C186.646 232.658 185.276 232.663 183.905 232.667C183.085 232.67 182.264 232.672 181.454 232.778C181.38 232.835 181.307 232.889 181.234 232.943C180.649 233.373 180.156 233.736 180.372 234.846C180.507 235.553 180.066 236.396 179.647 237.199L179.647 237.199C179.528 237.425 179.411 237.649 179.31 237.865C178.466 239.671 178.045 241.564 177.694 243.52C177.375 245.314 176.317 246.864 175.185 248.307C174.975 248.575 174.684 248.566 174.393 248.557C174.325 248.555 174.257 248.553 174.191 248.555C172.333 248.598 170.491 247.133 169.823 245.396C168.655 242.364 169.666 239.672 170.678 236.977C170.842 236.541 171.006 236.104 171.161 235.666C171.226 235.482 171.31 235.303 171.394 235.123L171.394 235.123C171.584 234.717 171.778 234.302 171.783 233.781C170.709 233.255 170.137 233.907 169.558 234.568C169.308 234.854 169.055 235.141 168.76 235.336C168.41 235.78 168.153 236.295 167.896 236.811C167.311 237.986 166.724 239.165 165.014 239.52C164.578 239.611 164.192 239.485 163.823 239.364C163.349 239.209 162.904 239.063 162.419 239.402C162.307 239.451 162.195 239.5 162.082 239.548C161.31 239.88 160.537 240.213 159.889 240.776C157.746 242.797 155.166 242.818 152.59 242.838L152.589 242.838C151.603 242.846 150.617 242.854 149.655 242.974C149.521 242.99 149.371 242.985 149.222 242.979C148.862 242.965 148.504 242.951 148.366 243.248C148.046 243.948 147.36 244.089 146.918 244.067C145.794 244.011 144.719 244.301 143.643 244.593C142.229 244.975 140.811 245.359 139.275 244.957C136.651 244.269 135.902 244.87 134.735 247.909C134.878 248.341 134.943 248.786 135.008 249.233C135.092 249.808 135.177 250.388 135.429 250.954C135.898 252.004 135.274 253.029 134.236 253.333C134.031 253.392 133.824 253.609 133.611 253.833C133.109 254.36 132.571 254.924 131.944 253.541C131.788 253.197 131.501 253.215 131.234 253.233C131.158 253.238 131.084 253.243 131.014 253.239C130.073 253.185 129.747 252.707 129.89 251.827C129.85 251.707 129.81 251.587 129.771 251.467C129.725 251.329 129.679 251.191 129.634 251.053L129.453 250.501L129.453 250.501C129.127 249.51 128.802 248.519 128.458 247.536C128.284 247.036 128.067 246.531 127.388 246.515C126.687 246.496 125.983 246.409 125.278 246.322C123.379 246.088 121.481 245.853 119.673 246.961C118.558 247.645 117.661 247.184 116.756 246.719C116.539 246.607 116.322 246.495 116.101 246.399C115.79 246.38 115.47 246.414 115.15 246.447C114.295 246.537 113.438 246.626 112.736 245.722C112.515 245.437 111.853 245.431 111.404 245.74C110.839 246.129 110.317 245.816 109.963 245.474C108.533 244.089 106.793 243.237 105.053 242.384L105.052 242.384L105.052 242.383L105.051 242.383L105.05 242.383C104.493 242.11 103.935 241.836 103.387 241.545C102.898 241.165 102.408 240.785 101.918 240.405C101.428 240.024 100.938 239.644 100.449 239.264C99.7168 238.98 98.9996 238.67 98.435 238.098C96.7096 237.188 95.3023 235.885 93.8946 234.581C93.4282 234.149 92.9616 233.717 92.4835 233.299C92.1155 232.978 91.8166 232.62 91.7544 232.111C91.4398 231.689 91.0779 231.303 90.7158 230.918C90.1131 230.277 89.5097 229.634 89.1231 228.819C88.9269 228.733 88.7563 228.625 88.8009 228.363L88.7942 228.338C87.6432 227.581 86.7041 226.648 86.2624 225.297L86.1472 225.302L86.0806 225.207C85.1723 224.927 84.6084 224.318 84.3452 223.413C84.2654 223.309 84.1377 223.257 84.0103 223.205C83.8069 223.123 83.6044 223.041 83.599 222.747C83.5851 222.156 83.3811 221.536 82.7332 221.74C82.1976 221.906 81.4764 222.184 81.453 223.03C81.4379 223.603 81.4079 224.177 81.3779 224.75C81.3548 225.191 81.3317 225.632 81.3154 226.073C81.3111 226.186 81.3095 226.299 81.308 226.412C81.2988 227.071 81.2897 227.724 80.7484 228.252C80.6273 228.372 80.4612 228.596 80.4987 228.701C81.1245 230.388 80.6053 231.932 80.0894 233.466C79.686 234.666 79.2847 235.859 79.4343 237.11C79.6993 239.332 78.9473 241.244 78.187 243.178C78.1382 243.302 78.0893 243.426 78.0407 243.551C77.4089 245.17 75.7937 245.355 74.1385 245.186C72.2822 244.998 71.7735 243.797 71.2749 242.62C71.139 242.299 71.0037 241.98 70.8421 241.684C70.0116 240.163 69.6905 238.525 70.6318 236.714C71.0949 235.826 71.2871 234.62 71.2949 233.468C71.3018 232.294 71.6595 231.176 72.0177 230.057C72.4878 228.587 72.9588 227.115 72.6384 225.511C72.1991 224.224 71.9652 222.916 72.2144 221.552C71.788 220.925 71.9921 220.33 72.1977 219.732C72.3531 219.279 72.5094 218.824 72.3945 218.351C72.3582 218.204 72.4437 218.011 72.5244 217.83C72.6065 217.645 72.6836 217.471 72.6221 217.369C72.0333 216.391 72.2059 215.414 72.378 214.439C72.4638 213.953 72.5494 213.468 72.5408 212.985C71.3734 211.392 72.0076 208.527 73.8798 206.946C74.2325 206.716 74.2366 206.316 74.2407 205.916C74.2458 205.415 74.2509 204.915 74.9401 204.752C76.2555 204.439 77.5336 204.384 78.832 204.964C79.6796 205.341 79.9234 206.034 80.174 206.747L80.1742 206.747C80.2209 206.88 80.2678 207.013 80.319 207.146C81.7972 207.912 83.0236 208.868 83.0778 210.731C82.7501 211.653 83.2831 212.063 83.8156 212.473C84.0742 212.672 84.3326 212.87 84.4923 213.128C85.3982 213.66 85.9095 214.512 86.4212 215.365C86.5324 215.551 86.6437 215.736 86.7591 215.919C87.5923 216.342 88.017 217.106 88.4435 217.873C88.8468 218.598 89.2518 219.326 90.0055 219.773C91.2248 220.494 92.0386 221.598 92.8549 222.706C93.4461 223.509 94.0386 224.313 94.7874 224.974C96.1003 226.134 97.3455 227.366 98.5909 228.597L98.591 228.597L98.5911 228.597L98.5912 228.597L98.5913 228.598C100.231 230.22 101.872 231.842 103.668 233.301C103.813 233.419 103.948 233.541 104.082 233.662C104.576 234.108 105.046 234.533 105.876 234.625C106.907 234.739 107.073 234.674 107.234 233.6C107.391 232.572 107.288 231.552 107.185 230.534C107.067 229.359 106.948 228.188 107.231 227.014C107.84 226.273 107.614 225.541 107.379 224.782C107.221 224.274 107.06 223.753 107.142 223.21C107.169 223.035 107.196 222.857 107.224 222.679L107.225 222.674C107.414 221.442 107.616 220.13 107.697 218.856C107.764 217.786 107.603 216.768 107.442 215.756L107.442 215.756C107.316 214.958 107.19 214.164 107.177 213.351C107.174 213.164 107.169 212.978 107.164 212.791C107.149 212.227 107.133 211.66 107.184 211.093C107.634 211.279 107.991 211.086 108.36 210.887L108.366 210.884C107.996 211.083 107.636 211.277 107.185 211.09C106.838 209.529 107.003 207.994 107.169 206.446L107.169 206.446C107.214 206.025 107.259 205.603 107.294 205.179C107.416 203.712 107.062 202.128 106.596 200.7C105.866 198.468 106.289 196.445 107.195 194.439C107.706 193.304 109.226 193.21 110.682 194.369L110.717 194.397C111.851 195.3 113.038 196.245 113.364 197.816C114.279 199.447 115.848 199.592 117.427 199.446C119.11 199.288 119.898 200.2 120.448 201.56C121.332 202.437 122.457 202.758 123.582 203.078L123.583 203.078C124.089 203.222 124.595 203.367 125.079 203.561C126.716 204.101 128.021 203.964 128.345 201.91C128.402 201.542 128.633 201.307 128.863 201.072C128.961 200.972 129.059 200.872 129.144 200.762C131.338 198.709 133.378 199.609 135.037 202.031C135.651 202.928 135.915 203.912 136.175 204.879C136.459 205.941 136.738 206.982 137.469 207.865C137.521 207.929 137.574 207.993 137.626 208.058C138.246 208.823 138.838 209.554 139.953 209.047C140.38 208.854 140.615 209.03 140.839 209.197C140.908 209.248 140.976 209.299 141.049 209.338C141.364 209.507 141.668 209.698 141.972 209.89C142.587 210.276 143.202 210.663 143.915 210.869C144.699 210.892 145.479 210.935 146.012 211.644L149.875 213.35C150.078 213.521 150.346 213.587 150.613 213.653C151.046 213.759 151.479 213.866 151.635 214.42C151.865 214.474 152.089 214.549 152.314 214.625C152.802 214.791 153.291 214.956 153.842 214.888C154.336 214.825 154.816 214.957 154.821 215.627C155.179 215.834 155.532 216.05 155.884 216.265C157.181 217.057 158.473 217.846 160.016 218.244C160.469 218.36 160.717 218.84 160.985 219.355C161.216 219.801 161.46 220.274 161.864 220.562C161.915 220.598 161.964 220.635 162.013 220.672C162.298 220.883 162.56 221.077 162.94 221.069C163.095 221.2 163.298 221.258 163.5 221.314C163.83 221.407 164.158 221.5 164.273 221.915C164.522 222.81 165.285 222.799 165.857 222.601C167.488 222.041 169.062 222.327 170.638 222.614L170.638 222.614C171.124 222.702 171.61 222.791 172.098 222.854C172.644 222.559 173.26 222.596 173.875 222.633C174.689 222.682 175.502 222.731 176.157 222.014L176.388 221.179L176.514 220.723L176.8 219.689C177.013 218.917 177.226 218.144 177.441 217.372C177.446 216.501 177.817 215.756 178.189 215.008C178.51 214.361 178.833 213.712 178.921 212.978C178.937 212.84 178.964 212.698 178.99 212.557C179.099 211.974 179.207 211.395 178.623 211.039C176.577 209.79 177.577 208.819 178.601 207.825C178.684 207.744 178.767 207.664 178.848 207.583C178.86 207.509 178.863 207.428 178.866 207.348C178.872 207.179 178.878 207.012 178.965 206.919C180.318 205.437 179.87 203.828 179.439 202.282C179.367 202.026 179.297 201.771 179.234 201.519C178.877 200.079 179.381 199.512 180.638 199.238C181.006 197.866 182.383 197.734 183.17 197.983C184.428 198.385 185.545 199.206 186.498 200.376C186.7 200.623 186.904 200.868 187.109 201.114L187.109 201.114C187.844 201.995 188.579 202.876 189.205 203.846C189.28 203.845 189.375 203.837 189.47 203.83L189.47 203.83L189.47 203.83L189.47 203.83C189.668 203.814 189.865 203.798 189.881 203.844C190.153 204.628 190.643 205.296 191.132 205.963C191.79 206.861 192.448 207.758 192.572 208.934C193.708 209.847 194.364 211.071 195.034 212.319C195.144 212.522 195.253 212.727 195.366 212.93C196.133 214.323 197.108 215.602 198.081 216.879L198.081 216.879C198.359 217.243 198.637 217.608 198.909 217.975L198.95 218.031C199.228 218.408 199.47 218.737 199.317 219.229C199.49 219.364 199.674 219.475 199.858 219.586C200.293 219.848 200.728 220.111 201.016 220.691C201.268 221.2 202.09 221.691 203.076 221.663C204.542 221.619 206.013 221.735 207.485 221.851L207.486 221.851C208.078 221.897 208.67 221.944 209.261 221.98C209.59 222.003 209.923 221.988 210.255 221.974C211.012 221.941 211.77 221.909 212.482 222.315C214.526 222.598 216.567 222.51 218.615 222.422L218.615 222.422C218.933 222.409 219.25 222.395 219.568 222.383C220.727 222.337 221.914 222.349 223.093 222.76C224.18 223.14 225.291 222.996 226.412 222.851C227.126 222.758 227.844 222.665 228.562 222.707C229.046 222.735 229.531 222.772 230.016 222.809ZM181.704 232.502C181.745 232.456 181.789 232.417 181.829 232.389C181.789 232.417 181.749 232.456 181.704 232.502ZM114.465 226.227C114.57 227.183 114.677 228.163 113.945 229.012L113.949 229.015C114.445 230.935 114.376 232.877 114.308 234.818C114.275 235.775 114.241 236.731 114.275 237.685C114.867 238.676 115.763 238.651 116.655 238.625C116.933 238.618 117.212 238.61 117.48 238.633C117.964 238.674 118.448 238.687 118.932 238.7C119.16 238.706 119.388 238.712 119.616 238.721C119.67 238.668 119.724 238.615 119.778 238.562C120.483 237.87 121.169 237.196 121.973 238.672C122.053 238.823 122.381 238.837 122.709 238.851L122.709 238.851L122.71 238.851C122.864 238.858 123.019 238.865 123.149 238.886C124.085 238.364 124.941 238.678 125.795 238.992C126.018 239.074 126.241 239.156 126.466 239.223C126.623 238.977 126.788 238.74 126.952 238.506C127.622 237.547 128.268 236.621 128.267 235.16C128.267 233.764 128.457 232.373 128.647 230.976L128.647 230.976L128.647 230.976L128.647 230.976L128.647 230.976C128.86 229.407 129.075 227.832 129.021 226.24C128.723 225.133 128.96 224.176 129.781 223.381C128.593 223.344 128.741 222.724 128.89 222.103C128.961 221.807 129.032 221.511 128.959 221.277L129.079 221.551L128.959 221.273C128.981 220.722 128.991 220.168 129 219.615L129 219.613C129.021 218.377 129.042 217.142 129.212 215.927C129.425 214.401 128.681 213.832 127.473 213.406C126.681 213.126 125.862 212.955 125.042 212.784L125.041 212.784C124.285 212.627 123.527 212.468 122.786 212.225C122.366 212.087 121.978 211.869 121.591 211.652C120.944 211.29 120.303 210.93 119.53 210.956C118.652 210.986 118.086 210.658 117.658 209.904C117.311 209.297 116.645 209.051 116.041 208.828C115.935 208.789 115.831 208.751 115.731 208.711C115.327 208.552 114.984 209.396 114.81 209.846C114.623 210.331 114.725 210.852 114.827 211.375C114.976 212.134 115.126 212.899 114.4 213.569C115.16 214.24 115.057 215.055 114.955 215.869C114.881 216.462 114.806 217.055 115.064 217.593C115.043 218.753 114.883 219.9 114.723 221.048C114.514 222.543 114.305 224.04 114.404 225.567C114.417 225.784 114.441 226.005 114.465 226.227ZM137.321 215.436C137.314 215.449 137.309 215.463 137.304 215.478C137.316 215.453 137.327 215.431 137.338 215.406C137.335 215.411 137.331 215.416 137.328 215.422C137.326 215.426 137.323 215.431 137.321 215.436ZM135.447 235.561L135.437 235.59L135.441 235.582C135.444 235.575 135.447 235.568 135.447 235.561ZM156.925 232.071C157.683 231.587 158.444 231.102 159.339 230.834L159.343 230.827C159.657 230.732 161.657 229.834 160.375 228.967C159.794 228.573 159.284 228.093 158.775 227.615L158.775 227.614C157.995 226.882 157.22 226.153 156.203 225.743C155.935 225.814 155.833 225.671 155.798 225.444C154.474 225.292 153.638 224.419 152.876 223.443L152.804 223.413L152.73 223.344C152.373 223.015 152.033 222.701 151.455 222.71C149.393 222.739 147.796 221.705 146.199 220.67C145.541 220.244 144.883 219.818 144.192 219.467C143.999 219.437 143.808 219.442 143.616 219.447C143.134 219.46 142.653 219.472 142.148 218.934C141.81 218.575 140.893 217.614 139.764 218.15C139.194 218.42 138.905 217.741 138.822 217.178C138.282 217.149 137.745 217.118 137.208 217.086L137.202 217.085C136.543 218.967 135.941 220.903 136.533 222.87C137.135 224.866 137.073 226.751 136.403 228.694C136.178 229.348 135.993 230.177 136.208 230.779C136.544 231.724 136.448 232.617 136.35 233.528L136.35 233.528L136.333 233.689C136.325 233.762 136.317 233.836 136.31 233.91C136.255 233.989 136.203 234.068 136.152 234.145C136.203 234.069 136.255 233.991 136.31 233.913C136.296 234.039 136.276 234.168 136.256 234.299C136.129 235.118 135.996 235.985 137.199 236.145C139.015 236.389 140.966 236.091 142.57 235.575C145.748 234.548 148.942 233.85 152.231 233.441C152.746 232.79 153.371 232.897 154.011 233.007C154.48 233.087 154.958 233.169 155.406 232.955C155.935 232.702 156.43 232.387 156.925 232.071ZM135.648 235.057C135.708 234.922 135.776 234.787 135.851 234.649C135.776 234.787 135.708 234.923 135.648 235.057ZM152.769 221.151C152.728 221.095 152.683 221.04 152.632 220.985C152.684 221.04 152.729 221.095 152.769 221.151ZM185.41 220.863C185.003 222.414 185.597 222.559 186.676 222.407C187.464 222.478 188.206 222.385 188.933 222.294C189.572 222.214 190.199 222.136 190.839 222.17C191.443 222.203 191.931 221.896 191.867 220.71C191.775 219.052 190.8 218.138 189.833 217.231C189.341 216.77 188.85 216.31 188.48 215.754C188.015 215.058 186.715 215.667 186.394 216.463C186.046 217.329 185.899 218.231 185.752 219.128L185.751 219.128L185.751 219.128L185.751 219.129L185.751 219.129L185.751 219.129L185.751 219.129L185.751 219.13L185.751 219.13C185.655 219.714 185.56 220.295 185.41 220.863ZM78.835 27.6363L78.8352 27.6368L78.8353 27.6374C78.9549 28.0774 79.0744 28.5173 79.1881 28.9582L79.1807 28.9688C79.7867 31.3174 80.1511 33.6974 80.3349 36.1135C80.3872 36.7626 80.3168 37.2438 79.7449 37.6145C79.2777 37.9176 79.0623 37.6606 78.847 37.4036C78.7468 37.284 78.6465 37.1644 78.5209 37.1013C78.449 37.0649 78.3745 37.0105 78.3008 36.9568C78.1626 36.8561 78.0275 36.7576 77.919 36.7837C76.2156 37.1971 75.8458 36.2499 75.4308 35.1868L75.4307 35.1868L75.4307 35.1867C75.3165 34.8942 75.1989 34.5929 75.0491 34.3088C73.9974 32.3117 73.1818 30.204 72.4302 28.1298C72.317 27.8172 72.188 27.5017 72.0572 27.1821C71.5008 25.8221 70.9138 24.3874 71.396 22.7843C71.525 22.3575 71.2252 22.1158 70.9146 21.8654C70.6052 21.6159 70.285 21.3578 70.3674 20.8993C70.2009 17.6274 69.2936 14.5172 68.3873 11.4106C68.1704 10.6671 67.9536 9.92384 67.7469 9.17859C67.3667 7.81016 67.7552 6.5033 68.1445 5.3333C68.7591 3.49065 71.462 3.61097 73.1252 5.42173C73.1544 5.43002 73.1868 5.43455 73.2191 5.43908C73.3375 5.45565 73.4552 5.47213 73.4118 5.67209L73.4259 5.68677C75.3363 5.32996 75.4915 6.44028 75.6467 7.55064C75.6989 7.92377 75.751 8.29692 75.8698 8.61438C76.2012 8.8577 76.1514 9.17211 76.1017 9.4858L76.1016 9.48606C76.0902 9.55842 76.0787 9.63073 76.072 9.70212C76.5672 10.3274 76.4782 11.0278 76.3387 11.7345C77.2983 13.184 77.2508 14.7755 77.2033 16.3687C77.1894 16.8361 77.1755 17.3037 77.187 17.7679C77.2193 17.9593 77.248 18.1471 77.2767 18.3385C77.8855 18.8579 77.9028 19.6433 77.8295 20.2756C77.5311 22.8376 78.1833 25.2379 78.835 27.6363ZM66.9172 28.8881C67.2073 29.0941 67.4975 29.3002 67.8034 29.4711L67.8141 29.4749C69.6004 30.019 70.3769 31.4504 71.153 32.8813C71.3746 33.2897 71.5961 33.6981 71.8411 34.0858C72.1754 36.2555 70.6775 37.0043 69.1792 37.7534C69.0862 37.7999 68.9933 37.8464 68.9008 37.8932C67.4855 39.3233 65.7017 40.0091 63.9005 40.7015C63.4186 40.8868 62.9354 41.0725 62.4576 41.2732C60.6675 42.027 58.7968 42.3401 56.9274 42.6531C55.8161 42.8391 54.7052 43.0251 53.6121 43.3035C50.579 44.0771 47.4769 44.6981 44.3983 45.2151C43.9613 45.2886 43.4 45.1934 42.8001 45.0917C42.1863 44.9876 41.5319 44.8767 40.9286 44.9325C40.2896 44.9916 39.649 45.0436 39.0084 45.0955C37.1309 45.2477 35.2527 45.4 33.409 45.7351C32.4778 45.9045 31.5602 45.8578 30.6468 45.8113C29.8569 45.7711 29.0702 45.731 28.2808 45.8311C26.613 46.0433 25.0097 45.6909 23.4224 45.3419C22.4115 45.1197 21.4071 44.8989 20.3965 44.8263C17.7776 44.6392 17.3551 43.2231 17.0086 41.4088C16.9161 40.9291 16.6802 40.7531 16.4221 40.5605C16.3515 40.5079 16.2793 40.454 16.2079 40.3923C16.1713 40.361 16.1332 40.3295 16.0947 40.2976C15.7568 40.0175 15.3798 39.705 15.5828 39.2208C15.7899 38.7343 16.1998 38.8549 16.5664 38.9626C16.66 38.9902 16.7509 39.0169 16.8348 39.0324C18.9641 39.4262 21.1469 39.6589 23.2725 39.869C25.944 40.1291 28.7283 40.1358 31.4012 39.0096C33.0174 38.3282 34.7448 38.3475 36.4779 38.3668C37.5218 38.3784 38.5678 38.39 39.5928 38.2487C40.8592 38.0726 42.1347 37.9528 43.4099 37.833C43.9908 37.7784 44.5715 37.7239 45.1513 37.664C45.9222 37.7174 46.6276 37.4632 47.3332 37.2089C48.0087 36.9655 48.6842 36.722 49.4175 36.7485C50.5955 36.6454 51.6927 36.197 52.7919 35.7478C54.369 35.1033 55.95 34.4572 57.7788 34.8276C58.2447 34.923 58.8929 34.5106 59.2625 33.9955C59.6802 33.4166 59.8279 32.8433 58.8977 32.7606C58.0058 32.6827 57.145 32.4356 56.2847 32.1887C55.0529 31.835 53.822 31.4816 52.5017 31.6259C52.2782 31.6504 52.0055 31.6128 51.8133 31.5047C48.8371 29.8247 45.5792 29.3724 42.3196 28.9199C40.8201 28.7117 39.3202 28.5035 37.8472 28.1757C36.4521 27.8653 35.0493 27.5867 33.6456 27.3079C30.4502 26.6732 27.2497 26.0375 24.1223 25.0242C23.0018 24.6616 21.797 24.4537 20.5933 24.2459C19.4081 24.0414 18.2241 23.8371 17.1225 23.4854C16.2052 23.1935 15.2676 23.1253 14.3333 23.0573C13.0969 22.9674 11.8662 22.8779 10.6956 22.2709C10.311 22.0728 9.88778 21.9496 9.46342 21.8261C8.62212 21.5812 7.77636 21.335 7.21847 20.5009C6.05113 20.1587 5.20827 19.3712 4.36578 18.584C3.95609 18.2012 3.5465 17.8185 3.09972 17.4871C1.68429 16.448 0.933028 14.9176 0.794906 13.3053C0.642328 11.5091 1.15482 9.7365 2.80301 8.58343L2.92348 8.49212C2.95086 8.37741 3.02382 8.3248 3.13876 8.33421C3.37231 7.68131 3.88987 7.31126 4.40789 6.94088C4.77519 6.67826 5.14272 6.41548 5.4094 6.0516C6.88345 4.97441 8.45619 4.19079 10.2699 5.09705C11.1293 5.52861 11.7924 5.2035 12.4532 4.87949C12.7842 4.7172 13.1147 4.5552 13.4689 4.48869C13.4961 4.38119 13.5618 4.33564 13.6697 4.33771C13.9957 3.51956 14.6814 3.3566 15.3673 3.19356C15.7391 3.10522 16.1109 3.01685 16.4256 2.82421C17.0418 2.44764 17.7434 2.36573 18.4451 2.2838C19.2397 2.19104 20.0343 2.09826 20.7053 1.57764C20.7849 1.36671 20.9372 1.30481 21.1482 1.36648C22.8921 1.78887 24.5205 1.2872 26.1429 0.731393C26.829 0.21883 27.6584 0.115924 28.4413 0.184971C28.7165 0.209477 28.9918 0.233494 29.2672 0.257516C31.7773 0.476494 34.2933 0.695987 36.7554 1.29166C36.8086 1.30485 36.8333 1.43588 36.8583 1.56864C36.8703 1.63234 36.8823 1.69644 36.8977 1.74811C36.9324 1.74702 36.9674 1.7453 37.0025 1.74357C37.3279 1.72755 37.6541 1.71148 37.6803 2.20605L37.7163 2.20675C38.4948 2.16979 38.6799 2.67277 38.8648 3.17517C38.9493 3.40475 39.0338 3.6342 39.1748 3.81196C39.4817 3.75304 39.6151 3.92845 39.6747 4.19606C41.8329 5.14494 42.2701 6.5469 41.122 8.82226C41.1109 8.83645 41.0459 8.84961 41.0282 8.83486C40.9913 8.80535 40.9639 8.76679 40.9364 8.72824C40.9295 8.7186 40.9227 8.70897 40.9157 8.69947C39.8195 9.39501 38.8452 9.54915 37.4784 8.97556C35.6798 8.21724 33.6843 7.79002 31.662 7.8196C30.7347 7.95844 29.8066 8.09816 28.8785 8.23788C27.9504 8.3776 27.0222 8.51732 26.095 8.65616C25.6356 8.69775 25.177 8.74026 24.7184 8.78277C24.2598 8.82528 23.8012 8.86778 23.3417 8.90938C22.8988 9.02869 22.455 9.14709 22.0112 9.26549C21.5673 9.38391 21.1234 9.50234 20.6803 9.62168C20.2592 9.68759 19.8699 9.87212 19.4805 10.0567C18.8655 10.3482 18.2503 10.6398 17.5092 10.4646C16.6242 11.1477 15.5832 11.3851 14.5418 11.6225C13.9977 11.7466 13.4535 11.8707 12.9314 12.0584C12.1428 12.0773 11.5023 12.4509 10.8618 12.8245C10.488 13.0426 10.1142 13.2606 9.71099 13.4081C9.00768 14.0644 9.20194 14.6263 9.86764 15.1792C11.4327 16.4804 13.3522 17.313 15.2334 17.5112C19.6745 17.9782 24.0552 18.5916 28.3017 20.0091C28.5623 20.0231 28.8219 20.038 29.0815 20.0529C29.3412 20.0678 29.6008 20.0827 29.8613 20.0967C31.5378 20.3838 33.2084 20.7034 34.8791 21.023C38.0217 21.6242 41.1645 22.2255 44.3467 22.611C45.228 22.7179 46.0471 23.0397 46.8748 23.3648C47.9346 23.7811 49.0085 24.2029 50.245 24.1862C52.404 24.1593 54.6183 24.6231 56.7227 25.1928C57.1979 25.3215 57.6772 25.4418 58.1574 25.5622C60.2809 26.0951 62.4193 26.6316 64.2755 27.9125C65.3582 27.7811 66.1374 28.3344 66.9172 28.8881Z" fill="#F9C414"/>
</svg>
